<svg width="1440" height="322" viewBox="0 0 1440 322" fill="none" xmlns="http://www.w3.org/2000/svg">
<g clip-path="url(#clip0_40004570_5625)">
<rect width="1440" height="322" fill="#F5F0FF" fill-opacity="0.7"/>
<rect x="-1" y="-2" width="1440" height="153" fill="black" fill-opacity="0.01"/>
<rect x="-1" y="199" width="1440" height="119" fill="black" fill-opacity="0.01"/>
<g opacity="0.1">
<path fill-rule="evenodd" clip-rule="evenodd" d="M1421.77 316.089H1359.37L1340.07 375.497L1340.16 375.558L1359.37 316.394H1421.77L1440.99 375.558L1441.07 375.497L1421.77 316.089ZM1415.06 325.672L1415.05 325.658H1366.09L1366.08 325.672H1415.06ZM1390.57 367.628L1397.53 362.574L1394.87 354.387H1386.28L1383.61 362.574L1390.57 367.628ZM1329.55 378.929L1352.85 307.121H1428.29L1451.59 378.929L1390.57 423.298L1329.55 378.929Z" fill="#4F2396"/>
<path fill-rule="evenodd" clip-rule="evenodd" d="M1428.51 307.569H1352.62L1329.18 379.726L1390.56 424.318L1451.97 379.726L1428.51 307.569ZM1318.99 383.035L1346.33 298.908H1434.8L1462.16 383.035L1390.57 435.035L1318.99 383.035Z" fill="#4F2396"/>
<path fill-rule="evenodd" clip-rule="evenodd" d="M1435.25 297.879H1345.89L1318.28 382.779L1390.57 435.258L1462.86 382.779L1435.25 297.879ZM1308.43 385.976L1339.82 289.52H1441.33L1472.72 385.976L1390.57 445.595L1308.43 385.976Z" fill="#4F2396"/>
<path fill-rule="evenodd" clip-rule="evenodd" d="M1441.99 288.193H1339.15L1307.36 385.837L1390.57 446.176L1473.77 385.837L1441.99 288.193ZM1297.86 388.919L1333.28 280.131H1447.85L1483.28 388.919L1390.57 456.156L1297.86 388.919Z" fill="#4F2396"/>
<path fill-rule="evenodd" clip-rule="evenodd" d="M1447.83 278.506H1332.16L1296.4 388.896L1389.99 457.113L1483.58 388.896L1447.83 278.506ZM1287.3 391.86L1326.53 270.742H1453.45L1492.67 391.86L1389.99 466.717L1287.3 391.86Z" fill="#4F2396"/>
<path fill-rule="evenodd" clip-rule="evenodd" d="M1454.55 268.826H1325.4L1285.5 391.952L1389.98 468.038L1494.46 391.952L1454.55 268.826ZM1276.74 394.799L1320 261.355H1459.96L1503.23 394.799L1389.98 477.28L1276.74 394.799Z" fill="#4F2396"/>
<path fill-rule="evenodd" clip-rule="evenodd" d="M1461.29 259.144H1318.68L1274.6 394.998L1389.98 478.96L1505.37 394.998L1461.29 259.144ZM1266.18 397.738L1313.48 251.967H1466.5L1513.79 397.738L1389.98 487.841L1266.18 397.738Z" fill="#4F2396"/>
<path fill-rule="evenodd" clip-rule="evenodd" d="M1468.03 249.457H1311.93L1263.69 398.06L1389.98 489.902L1516.27 398.06L1468.03 249.457ZM1255.62 400.677L1306.94 242.578H1473.02L1524.35 400.677L1389.98 498.402L1255.62 400.677Z" fill="#4F2396"/>
<path fill-rule="evenodd" clip-rule="evenodd" d="M1474.77 240.947H1305.2L1252.79 402.277L1389.98 501.993L1527.19 402.277L1474.77 240.947ZM1245.05 404.793L1300.41 234.362H1479.55L1534.91 404.793L1389.98 510.136L1245.05 404.793Z" fill="#4F2396"/>
<path fill-rule="evenodd" clip-rule="evenodd" d="M1481.51 231.26H1298.46L1241.88 405.347L1389.98 512.927L1538.09 405.347L1481.51 231.26ZM1234.5 407.745L1293.89 224.977H1486.08L1545.47 407.745L1389.99 520.699L1234.5 407.745Z" fill="#4F2396"/>
<path fill-rule="evenodd" clip-rule="evenodd" d="M1488.25 221.585H1291.72L1230.97 408.401L1389.98 523.853L1548.99 408.401L1488.25 221.585ZM1223.93 410.685L1287.37 215.589H1492.6L1556.03 410.685L1389.98 531.261L1223.93 410.685Z" fill="#4F2396"/>
<path fill-rule="evenodd" clip-rule="evenodd" d="M1494.99 211.899H1284.98L1220.06 411.447L1389.99 534.78L1559.91 411.447L1494.99 211.899ZM1213.37 413.624L1280.84 206.201H1499.12L1566.6 413.624L1389.99 541.823L1213.37 413.624Z" fill="#4F2396"/>
<path fill-rule="evenodd" clip-rule="evenodd" d="M1501.74 202.2H1278.25L1209.17 414.502L1389.99 545.714L1570.82 414.502L1501.74 202.2ZM1202.81 416.57L1274.32 196.813H1505.65L1577.16 416.57L1389.98 552.385L1202.81 416.57Z" fill="#4F2396"/>
<path fill-rule="evenodd" clip-rule="evenodd" d="M1508.47 192.526H1271.5L1198.26 417.556L1389.98 556.64L1581.71 417.556L1508.47 192.526ZM1192.25 419.503L1267.78 187.425H1512.18L1587.72 419.503L1389.98 562.946L1192.25 419.503Z" fill="#4F2396"/>
<path fill-rule="evenodd" clip-rule="evenodd" d="M1515.22 182.84H1264.76L1187.35 420.62L1389.99 567.573L1592.63 420.62L1515.22 182.84ZM1183.1 423.472L1181.69 422.445L1261.26 178.036H1518.72L1598.28 422.445L1389.99 573.507L1183.1 423.472Z" fill="#4F2396"/>
<path fill-rule="evenodd" clip-rule="evenodd" d="M1521.94 173.16H1258.02L1176.43 423.661L1389.98 578.492L1603.53 423.661L1521.94 173.16ZM1171.12 425.391L1254.73 168.647H1525.23L1608.84 425.391L1389.98 584.068L1171.12 425.391Z" fill="#4F2396"/>
<path fill-rule="evenodd" clip-rule="evenodd" d="M1528.69 164.642H1251.28L1165.53 427.898L1389.99 590.593L1614.44 427.898L1528.69 164.642ZM1160.56 429.501L1248.2 160.434H1531.77L1619.4 429.501L1389.98 595.803L1160.56 429.501Z" fill="#4F2396"/>
<path fill-rule="evenodd" clip-rule="evenodd" d="M1535.66 154.959H1245.48L1155.79 430.954L1390.56 601.522L1625.35 430.954L1535.66 154.959ZM1151.18 432.446L1242.64 151.046H1538.51L1629.97 432.446L1390.57 606.365L1151.18 432.446Z" fill="#4F2396"/>
<path fill-rule="evenodd" clip-rule="evenodd" d="M1542.4 145.285H1238.73L1144.87 434.001L1390.57 612.447L1636.27 434.001L1542.4 145.285ZM1141.68 436.163L1140.62 435.386L1236.11 141.657H1545.04L1640.53 435.386L1390.57 616.926L1141.68 436.163Z" fill="#4F2396"/>
<path fill-rule="evenodd" clip-rule="evenodd" d="M1549.14 135.592H1232L1133.98 437.054L1390.57 623.372L1647.17 437.054L1549.14 135.592ZM1130.05 438.324L1229.58 132.268H1551.56L1651.09 438.324L1390.57 627.486L1130.05 438.324Z" fill="#4F2396"/>
<path fill-rule="evenodd" clip-rule="evenodd" d="M1658.08 440.115L1555.88 125.914H1225.26L1123.06 440.115L1390.57 634.307L1658.08 440.115ZM1120.38 441.926L1119.49 441.277L1222.71 123.929L1223.05 122.882H1558.09L1661.65 441.277L1391.46 637.408L1390.57 638.05L1120.38 441.926Z" fill="#4F2396"/>
<path fill-rule="evenodd" clip-rule="evenodd" d="M1562.63 116.226H1218.52L1112.16 443.158L1390.58 645.223L1668.99 443.158L1562.63 116.226ZM1108.93 444.214L1216.53 113.492H1564.62L1672.21 444.214L1390.57 648.61L1108.93 444.214Z" fill="#4F2396"/>
<path fill-rule="evenodd" clip-rule="evenodd" d="M1569.37 106.545H1211.77L1101.24 446.229L1390.57 656.161L1679.9 446.229L1569.37 106.545ZM1099.08 447.681L1098.37 447.167L1209.71 104.951L1209.99 104.106H1571.15L1682.49 446.323L1682.77 447.167L1390.57 659.173L1099.08 447.681Z" fill="#4F2396"/>
<path fill-rule="evenodd" clip-rule="evenodd" d="M1576.11 98.0312H1205.03L1090.33 450.446L1390.57 668.252L1690.81 450.446L1576.11 98.0312ZM1088.44 451.722L1087.81 451.263L1203.22 96.6326L1203.47 95.8896H1577.67L1693.1 450.52L1693.33 451.263L1390.57 670.906L1088.44 451.722Z" fill="#4F2396"/>
<path fill-rule="evenodd" clip-rule="evenodd" d="M1701.7 453.505L1582.85 88.3672H1198.3L1079.43 453.505L1390.57 679.18L1701.7 453.505ZM1077.8 454.607L1077.24 454.208L1196.74 87.1523L1196.95 86.5039H1584.19L1703.69 453.567L1703.89 454.208L1391.12 681.065L1390.57 681.47L1077.8 454.607Z" fill="#4F2396"/>
<path fill-rule="evenodd" clip-rule="evenodd" d="M1589.59 78.6768H1191.55L1068.52 456.561L1390.57 690.114L1712.62 456.561L1589.59 78.6768ZM1067.13 457.492L1066.68 457.154L1190.24 77.6623L1190.41 77.1152H1590.72L1714.29 456.621L1714.46 457.154L1390.57 692.031L1067.13 457.492Z" fill="#4F2396"/>
<path fill-rule="evenodd" clip-rule="evenodd" d="M1723.53 459.615L1596.33 68.9902H1184.81L1057.61 459.615L1390.57 701.026L1723.53 459.615ZM1056.5 460.365L1056.12 460.088L1183.75 68.1598L1183.9 67.7275H1597.25L1724.88 459.656L1725.02 460.088L1390.95 702.316L1390.57 702.593L1056.5 460.365Z" fill="#4F2396"/>
<path fill-rule="evenodd" clip-rule="evenodd" d="M1734.43 463.387L1603.07 59.2998H1178.08L1046.71 463.387L1390.57 713.123L1734.43 463.387ZM1045.85 463.962L1045.56 463.759L1177.37 58.3389H1603.78L1735.58 463.759L1390.85 714.117L1390.57 714.327L1045.85 463.962Z" fill="#4F2396"/>
<path fill-rule="evenodd" clip-rule="evenodd" d="M1170.84 48.9512L1170.76 49.1879L1035 466.696L1035.2 466.844L1390.57 724.889L1390.77 724.74L1746.14 466.696L1746.08 466.466L1610.31 48.9512H1170.84ZM1035.79 466.438L1171.34 49.6201H1609.81L1745.35 466.438L1390.57 724.043L1035.79 466.438Z" fill="#4F2396"/>
</g>
<g opacity="0.1">
<path fill-rule="evenodd" clip-rule="evenodd" d="M131.86 -78.0674H63.153L41.9023 -12.6568L41.9993 -12.5896L63.153 -77.7313H131.852L153.013 -12.5896L153.103 -12.6568L131.86 -78.0674ZM124.466 -67.516L124.459 -67.5309H70.5485L70.541 -67.516H124.466ZM97.5065 -21.3206L105.17 -26.8847L102.237 -35.8994H92.7758L89.8359 -26.8847L97.5065 -21.3206ZM30.3145 -8.87811L55.975 -87.9414H139.03L164.691 -8.87811L97.5063 39.9744L30.3145 -8.87811Z" fill="#4F2396"/>
<path fill-rule="evenodd" clip-rule="evenodd" d="M139.274 -87.4502H55.7174L29.9004 -8.00213L97.4918 41.0951L165.098 -8.00213L139.274 -87.4502ZM18.6836 -4.3591L48.7922 -96.9863H146.201L176.317 -4.3591L97.493 52.8949L18.6836 -4.3591Z" fill="#4F2396"/>
<path fill-rule="evenodd" clip-rule="evenodd" d="M146.701 -98.1201H48.3116L17.9043 -4.64127L97.5023 53.1407L177.1 -4.64127L146.701 -98.1201ZM7.05664 -1.12097L41.6223 -107.324H153.39L187.948 -1.12097L97.5022 64.5223L7.05664 -1.12097Z" fill="#4F2396"/>
<path fill-rule="evenodd" clip-rule="evenodd" d="M154.112 -108.782H40.8856L5.87891 -1.27213L97.4952 65.1632L189.112 -1.27213L154.112 -108.782ZM-4.57422 2.1208L34.4202 -117.66H160.573L199.575 2.1208L97.4968 76.1527L-4.57422 2.1208Z" fill="#4F2396"/>
<path fill-rule="evenodd" clip-rule="evenodd" d="M160.542 -119.45H33.1843L-6.18359 2.09509L96.8593 77.2058L199.902 2.09509L160.542 -119.45ZM-16.2012 5.35898L26.9914 -127.998H166.729L209.914 5.35898L96.86 87.7803L-16.2012 5.35898Z" fill="#4F2396"/>
<path fill-rule="evenodd" clip-rule="evenodd" d="M167.943 -130.107H25.7489L-18.1837 5.45987L96.8496 89.2349L211.883 5.45987L167.943 -130.107ZM-27.832 8.5955L19.8013 -138.333H173.9L221.541 8.5955L96.8542 99.4108L-27.832 8.5955Z" fill="#4F2396"/>
<path fill-rule="evenodd" clip-rule="evenodd" d="M175.371 -140.768H18.3446L-30.1855 8.81546L96.8539 101.261L223.901 8.81546L175.371 -140.768ZM-39.459 11.8312L12.6178 -148.67H181.102L233.171 11.8312L96.8523 111.039L-39.459 11.8312Z" fill="#4F2396"/>
<path fill-rule="evenodd" clip-rule="evenodd" d="M182.79 -151.435H10.919L-42.2031 12.185L96.8473 113.307L235.905 12.185L182.79 -151.435ZM-51.0898 15.0665L5.42451 -159.008H188.283L244.798 15.0665L96.8503 122.667L-51.0898 15.0665Z" fill="#4F2396"/>
<path fill-rule="evenodd" clip-rule="evenodd" d="M190.211 -160.804H3.50739L-54.2071 16.8285L96.8553 126.621L247.925 16.8285L190.211 -160.804ZM-62.7188 19.5995L-1.76688 -168.054H195.467L256.426 19.5995L96.8501 135.586L-62.7188 19.5995Z" fill="#4F2396"/>
<path fill-rule="evenodd" clip-rule="evenodd" d="M197.632 -171.471H-3.91334L-66.209 20.2078L96.8555 138.659L259.927 20.2078L197.632 -171.471ZM-74.3438 22.8481L-8.94375 -178.389H202.659L268.059 22.8481L96.8576 147.217L-74.3438 22.8481Z" fill="#4F2396"/>
<path fill-rule="evenodd" clip-rule="evenodd" d="M205.048 -182.124H-11.3366L-78.2224 23.5696L96.8557 150.688L271.934 23.5696L205.048 -182.124ZM-85.9746 26.0855L-16.1325 -188.726H209.844L279.686 26.0855L96.8555 158.845L-85.9746 26.0855Z" fill="#4F2396"/>
<path fill-rule="evenodd" clip-rule="evenodd" d="M212.471 -192.787H-18.7629L-90.2344 26.9254L96.8576 162.721L283.95 26.9254L212.471 -192.787ZM-97.6016 29.322L-23.3145 -199.061H217.022L291.316 29.322L96.8573 170.476L-97.6016 29.322Z" fill="#4F2396"/>
<path fill-rule="evenodd" clip-rule="evenodd" d="M219.902 -203.466H-26.1724L-102.234 30.2894L96.8573 174.76L295.964 30.2894L219.902 -203.466ZM-109.232 32.5668L-30.4958 -209.396H224.214L302.943 32.5668L96.8553 182.105L-109.232 32.5668Z" fill="#4F2396"/>
<path fill-rule="evenodd" clip-rule="evenodd" d="M227.311 -214.117H-33.6004L-114.244 33.6522L96.8513 186.79L307.954 33.6522L227.311 -214.117ZM-120.861 35.7957L-37.6914 -219.734H231.402L314.572 35.7957L96.8514 193.733L-120.861 35.7957Z" fill="#4F2396"/>
<path fill-rule="evenodd" clip-rule="evenodd" d="M234.741 -224.783H-41.0204L-126.258 37.0239L96.8603 198.827L319.978 37.0239L234.741 -224.783ZM-130.931 40.1648L-132.488 39.0339L-44.8734 -230.072H238.602L326.202 39.0339L96.8607 205.361L-130.931 40.1648Z" fill="#4F2396"/>
<path fill-rule="evenodd" clip-rule="evenodd" d="M242.15 -235.441H-48.4454L-138.273 40.3724L96.8524 210.85L331.978 40.3724L242.15 -235.441ZM-144.117 42.2778L-52.0677 -240.41H245.766L337.831 42.2778L96.8531 216.988L-144.117 42.2778Z" fill="#4F2396"/>
<path fill-rule="evenodd" clip-rule="evenodd" d="M249.581 -244.82H-55.8684L-150.281 45.0387L96.8564 224.173L343.994 45.0387L249.581 -244.82ZM-155.748 46.8035L-59.255 -249.453H252.964L349.457 46.8035L96.8547 229.911L-155.748 46.8035Z" fill="#4F2396"/>
<path fill-rule="evenodd" clip-rule="evenodd" d="M257.251 -255.481H-62.2529L-161.006 48.4031L97.4954 236.207L356.004 48.4031L257.251 -255.481ZM-166.082 50.0455L-65.3802 -259.79H260.387L361.089 50.0455L97.4997 241.539L-166.082 50.0455Z" fill="#4F2396"/>
<path fill-rule="evenodd" clip-rule="evenodd" d="M264.677 -266.131H-69.6772L-173.023 51.7599L97.4997 248.238L368.03 51.7599L264.677 -266.131ZM-176.545 54.1393L-177.713 53.2839L-72.5661 -270.126H267.576L372.716 53.2839L97.4977 253.169L-176.545 54.1393Z" fill="#4F2396"/>
<path fill-rule="evenodd" clip-rule="evenodd" d="M272.093 -276.804H-77.0896L-185.018 55.1216L97.5018 260.267L380.029 55.1216L272.093 -276.804ZM-189.342 56.5193L-79.7543 -280.464H274.764L384.344 56.5193L97.5013 264.796L-189.342 56.5193Z" fill="#4F2396"/>
<path fill-rule="evenodd" clip-rule="evenodd" d="M392.041 58.4899L279.519 -287.461H-84.514L-197.043 58.4899L97.4988 272.305L392.041 58.4899ZM-199.99 60.4836L-200.973 59.7696L-87.3272 -289.647L-86.9476 -290.8H281.946L395.971 59.7696L98.4817 275.719L97.4991 276.426L-199.99 60.4836Z" fill="#4F2396"/>
<path fill-rule="evenodd" clip-rule="evenodd" d="M286.948 -298.129H-91.9388L-209.045 61.8397L97.5082 284.324L404.054 61.8397L286.948 -298.129ZM-212.6 63.0032L-94.131 -301.138H289.133L407.602 63.0032L97.5047 288.053L-212.6 63.0032Z" fill="#4F2396"/>
<path fill-rule="evenodd" clip-rule="evenodd" d="M294.365 -308.787H-99.3604L-221.066 65.2216L97.5059 296.368L416.071 65.2216L294.365 -308.787ZM-223.437 66.8209L-224.227 66.2556L-101.627 -310.542L-101.322 -311.472H296.327L418.927 65.326L419.232 66.2556L97.5027 299.685L-223.437 66.8209Z" fill="#4F2396"/>
<path fill-rule="evenodd" clip-rule="evenodd" d="M301.788 -318.161H-106.791L-233.082 69.8655L97.4947 309.681L428.079 69.8655L301.788 -318.161ZM-235.165 71.2701L-235.857 70.7644L-108.777 -319.702L-108.502 -320.52H303.503L430.598 69.9464L430.859 70.7644L97.497 312.602L-235.165 71.2701Z" fill="#4F2396"/>
<path fill-rule="evenodd" clip-rule="evenodd" d="M440.069 73.2326L309.204 -328.803H-114.205L-245.078 73.2326L97.4955 321.711L440.069 73.2326ZM-246.878 74.4463L-247.488 74.0075L-115.915 -330.14L-115.684 -330.854H310.689L442.255 73.3011L442.485 74.0075L98.1019 323.788L97.4986 324.234L-246.878 74.4463Z" fill="#4F2396"/>
<path fill-rule="evenodd" clip-rule="evenodd" d="M316.633 -339.473H-121.631L-257.096 76.597L97.4975 333.751L452.091 76.597L316.633 -339.473ZM-258.616 77.6222L-259.115 77.2504L-123.069 -340.589L-122.883 -341.191H317.876L453.93 76.6629L454.116 77.2504L97.4967 335.862L-258.616 77.6222Z" fill="#4F2396"/>
<path fill-rule="evenodd" clip-rule="evenodd" d="M464.103 79.9609L324.053 -350.137H-129.05L-269.107 79.9609L97.498 345.766L464.103 79.9609ZM-270.325 80.7862L-270.742 80.4813L-130.215 -351.051L-130.059 -351.527H325.071L465.59 80.0054L465.747 80.4813L97.9194 347.186L97.5022 347.491L-270.325 80.7862Z" fill="#4F2396"/>
<path fill-rule="evenodd" clip-rule="evenodd" d="M476.113 84.1128L331.479 -360.808H-136.466L-281.107 84.1128L97.4991 359.085L476.113 84.1128ZM-282.049 84.7461L-282.369 84.5226L-137.244 -361.865H332.252L477.377 84.5226L97.8096 360.18L97.4966 360.411L-282.049 84.7461Z" fill="#4F2396"/>
<path fill-rule="evenodd" clip-rule="evenodd" d="M-144.437 -372.201L-144.519 -371.94L-294 87.7563L-293.776 87.9202L97.502 372.04L97.7181 371.876L489.004 87.7563L488.929 87.5031L339.448 -372.201H-144.437ZM-293.129 87.4723L-143.886 -371.465H338.896L488.131 87.4723L97.5012 371.108L-293.129 87.4723Z" fill="#4F2396"/>
</g>
</g>
<defs>
<clipPath id="clip0_40004570_5625">
<rect width="1440" height="322" fill="white"/>
</clipPath>
</defs>
</svg>
