<svg width="332" height="592" viewBox="0 0 332 592" fill="none" xmlns="http://www.w3.org/2000/svg">
<g clip-path="url(#clip0_40005636_61937)">
<rect width="332" height="591.421" rx="24" fill="#F5F0FF" fill-opacity="0.7"/>
<g opacity="0.1">
<path fill-rule="evenodd" clip-rule="evenodd" d="M-105.323 54.5938H-439.677L-543.023 372.485L-272.5 568.963L-1.96979 372.485L-105.323 54.5938ZM-546.545 374.864L-547.713 374.009L-442.566 50.5986H-102.424L2.71565 374.009L-272.502 573.893L-546.545 374.864Z" fill="#4F2396"/>
<path fill-rule="evenodd" clip-rule="evenodd" d="M-97.9069 43.9209H-447.09L-555.018 375.846L-272.498 580.992L10.0286 375.846L-97.9069 43.9209ZM-559.342 377.244L-449.754 40.2607H-95.2358L14.3443 377.244L-272.499 585.521L-559.342 377.244Z" fill="#4F2396"/>
<path fill-rule="evenodd" clip-rule="evenodd" d="M22.0405 379.214L-90.481 33.2638H-454.514L-567.043 379.214L-272.501 593.03L22.0405 379.214ZM-569.99 381.208L-570.973 380.494L-457.327 31.0776L-456.948 29.9248H-88.0541L25.971 380.494L-271.518 596.444L-272.501 597.15L-569.99 381.208Z" fill="#4F2396"/>
<path fill-rule="evenodd" clip-rule="evenodd" d="M-83.0523 22.5957H-461.939L-579.045 382.564L-272.492 605.049L34.0539 382.564L-83.0523 22.5957ZM-582.6 383.728L-464.131 19.5869H-80.867L37.6016 383.728L-272.495 608.778L-582.6 383.728Z" fill="#4F2396"/>
<path fill-rule="evenodd" clip-rule="evenodd" d="M-75.6352 11.9373H-469.36L-591.066 385.946L-272.494 617.092L46.0706 385.946L-75.6352 11.9373ZM-593.437 387.545L-594.227 386.98L-471.627 10.1825L-471.322 9.25293H-73.6726L48.9268 386.051L49.232 386.98L-272.497 620.409L-593.437 387.545Z" fill="#4F2396"/>
<path fill-rule="evenodd" clip-rule="evenodd" d="M-68.212 2.56344H-476.791L-603.082 390.59L-272.505 630.405L58.0787 390.59L-68.212 2.56344ZM-605.165 391.995L-605.857 391.489L-478.777 1.0231L-478.502 0.205078H-66.4968L60.5982 390.671L60.8588 391.489L-272.503 633.327L-605.165 391.995Z" fill="#4F2396"/>
<path fill-rule="evenodd" clip-rule="evenodd" d="M70.0691 393.957L-60.7961 -8.07812H-484.205L-615.078 393.957L-272.504 642.436L70.0691 393.957ZM-616.878 395.171L-617.488 394.732L-485.915 -9.41504L-485.684 -10.1289H-59.3109L72.2545 394.026L72.4855 394.732L-271.898 644.512L-272.501 644.959L-616.878 395.171Z" fill="#4F2396"/>
<path fill-rule="evenodd" clip-rule="evenodd" d="M-53.3671 -18.748H-491.631L-627.096 397.322L-272.503 654.475L82.0906 397.322L-53.3671 -18.748ZM-628.616 398.347L-629.115 397.975L-493.069 -19.8645L-492.883 -20.4668H-52.1238L83.9299 397.388L84.1161 397.975L-272.503 656.586L-628.616 398.347Z" fill="#4F2396"/>
<path fill-rule="evenodd" clip-rule="evenodd" d="M94.1033 400.686L-45.9469 -29.4121H-499.05L-639.107 400.686L-272.502 666.491L94.1033 400.686ZM-640.325 401.511L-640.742 401.206L-500.215 -30.3268L-500.059 -30.8027H-44.9294L95.5902 400.73L95.7466 401.206L-272.081 667.911L-272.498 668.216L-640.325 401.511Z" fill="#4F2396"/>
<path fill-rule="evenodd" clip-rule="evenodd" d="M106.113 404.837L-38.5207 -40.083H-506.466L-651.107 404.837L-272.501 679.809L106.113 404.837ZM-652.049 405.471L-652.369 405.247L-507.244 -41.1406H-37.7483L107.377 405.247L-272.19 680.904L-272.503 681.135L-652.049 405.471Z" fill="#4F2396"/>
<path fill-rule="evenodd" clip-rule="evenodd" d="M-514.437 -51.4766L-514.519 -51.2159L-664 408.481L-663.776 408.645L-272.498 692.765L-272.282 692.601L119.004 408.481L118.929 408.228L-30.5517 -51.4766H-514.437ZM-663.129 408.197L-513.886 -50.7402H-31.1039L118.131 408.197L-272.499 691.833L-663.129 408.197Z" fill="#4F2396"/>
</g>
<g opacity="0.1">
<path fill-rule="evenodd" clip-rule="evenodd" d="M693.194 73.7324H415.777L330.029 336.989L554.486 499.684L778.942 336.989L693.194 73.7324ZM325.064 338.592L412.702 69.5244H696.267L783.904 338.592L554.484 504.894L325.064 338.592Z" fill="#4F2396"/>
<path fill-rule="evenodd" clip-rule="evenodd" d="M700.158 64.0498H409.977L320.287 340.045L555.064 510.613L789.848 340.045L700.158 64.0498ZM315.676 341.537L407.136 60.1367H703.005L794.465 341.537L555.067 515.456L315.676 341.537Z" fill="#4F2396"/>
<path fill-rule="evenodd" clip-rule="evenodd" d="M706.903 54.376H403.235L309.373 343.092L555.069 521.538L800.771 343.092L706.903 54.376ZM306.176 345.254L305.115 344.477L400.612 50.748H709.537L805.028 344.477L555.068 526.017L306.176 345.254Z" fill="#4F2396"/>
<path fill-rule="evenodd" clip-rule="evenodd" d="M713.639 44.6825H396.503L298.48 346.145L555.071 532.463L811.669 346.145L713.639 44.6825ZM294.553 347.415L394.083 41.3584H716.065L815.588 347.415L555.07 536.577L294.553 347.415Z" fill="#4F2396"/>
<path fill-rule="evenodd" clip-rule="evenodd" d="M822.578 349.206L720.383 35.0049H389.76L287.559 349.206L555.068 543.397L822.578 349.206ZM284.883 351.017L283.99 350.368L387.206 33.0197L387.551 31.9727H722.588L826.149 350.368L555.962 546.499L555.069 547.14L284.883 351.017Z" fill="#4F2396"/>
<path fill-rule="evenodd" clip-rule="evenodd" d="M727.131 25.3164H383.017L276.658 352.249L555.077 554.314L833.489 352.249L727.131 25.3164ZM273.43 353.305L381.026 22.583H729.115L836.711 353.305L555.074 557.7L273.43 353.305Z" fill="#4F2396"/>
<path fill-rule="evenodd" clip-rule="evenodd" d="M733.865 15.6357H376.274L265.738 355.32L555.073 565.252L844.401 355.32L733.865 15.6357ZM263.584 356.772L262.867 356.258L374.215 14.0416L374.492 13.1973H735.647L846.994 355.414L847.272 356.258L555.069 568.264L263.584 356.772Z" fill="#4F2396"/>
<path fill-rule="evenodd" clip-rule="evenodd" d="M740.61 7.12207H369.528L254.828 359.537L555.066 577.343L855.31 359.537L740.61 7.12207ZM252.936 360.813L252.307 360.354L367.724 5.72342L367.974 4.98047H742.167L857.598 359.611L857.834 360.354L555.067 579.997L252.936 360.813Z" fill="#4F2396"/>
<path fill-rule="evenodd" clip-rule="evenodd" d="M866.201 362.596L747.346 -2.54199H362.795L243.934 362.596L555.067 588.271L866.201 362.596ZM242.299 363.698L241.744 363.299L361.242 -3.75692L361.451 -4.40527H748.694L868.185 362.658L868.395 363.299L555.617 590.156L555.069 590.561L242.299 363.698Z" fill="#4F2396"/>
<path fill-rule="evenodd" clip-rule="evenodd" d="M754.09 -12.2324H356.048L233.016 365.652L555.066 599.205L877.116 365.652L754.09 -12.2324ZM231.635 366.583L231.182 366.245L354.742 -13.2469L354.911 -13.7939H755.219L878.786 365.711L878.955 366.245L555.065 601.122L231.635 366.583Z" fill="#4F2396"/>
<path fill-rule="evenodd" clip-rule="evenodd" d="M888.027 368.706L760.83 -21.9189H349.311L222.107 368.706L555.067 610.117L888.027 368.706ZM221.002 369.456L220.623 369.179L348.253 -22.7494L348.395 -23.1816H761.755L889.378 368.747L889.52 369.179L555.45 611.407L555.071 611.684L221.002 369.456Z" fill="#4F2396"/>
<path fill-rule="evenodd" clip-rule="evenodd" d="M898.935 372.478L767.575 -31.6094H342.576L211.209 372.478L555.068 622.214L898.935 372.478ZM210.353 373.053L210.062 372.85L341.869 -32.5703H768.276L900.082 372.85L555.35 623.208L555.066 623.418L210.353 373.053Z" fill="#4F2396"/>
<path fill-rule="evenodd" clip-rule="evenodd" d="M335.337 -41.958L335.262 -41.7212L199.5 375.786L199.703 375.935L555.071 633.98L555.268 633.831L910.643 375.786L910.575 375.556L774.813 -41.958H335.337ZM200.291 375.529L335.837 -41.2891H774.311L909.85 375.529L555.071 633.133L200.291 375.529Z" fill="#4F2396"/>
</g>
</g>
<defs>
<clipPath id="clip0_40005636_61937">
<rect width="332" height="591.421" rx="24" fill="white"/>
</clipPath>
</defs>
</svg>
