<svg width="183" height="80" viewBox="0 0 183 80" fill="none" xmlns="http://www.w3.org/2000/svg">
<g clip-path="url(#clip0_40004656_6818)">
<mask id="mask0_40004656_6818" style="mask-type:luminance" maskUnits="userSpaceOnUse" x="0" y="0" width="183" height="80">
<path d="M182.403 0.423096H0.1875V79.3812H182.403V0.423096Z" fill="white"/>
</mask>
<g mask="url(#mask0_40004656_6818)">
<path d="M67.4106 11.4329H66.2344V37.2123H67.4106V11.4329Z" fill="#142836"/>
<path d="M94.6606 13.2581V26.0669H90.2305V37.2113H96.5746V13.2589L94.6606 13.2581Z" fill="#6E1946"/>
<path d="M86.1156 26.262H83.1816V34.3236H86.1156V26.262Z" fill="#91B3AF"/>
<path d="M76.5199 26.262H74.8516V34.2936H76.5199V26.262Z" fill="#91B3AF"/>
<path d="M89.3164 24.8327H93.7465V13.2599H89.4906V20.1921H83.1802V25.0266H87.0301V35.5595H82.2616V26.2618H77.4295V35.5296H73.9299V25.0257H76.5135V11.4329H68.3242V37.2123H89.3164V24.8327Z" fill="#142836"/>
<path d="M122.467 23.0868H127.881V28.6448H130.799V0.423096H122.467V23.0868Z" fill="#142836"/>
<path d="M88.5753 12.0233H93.7432V0.423096H68.3242V10.1971H77.4301V25.0261H82.2623V18.9556H88.5726L88.5753 12.0233Z" fill="#E8994A"/>
<path d="M58.1859 32.2053H51.793V37.2116H58.1859V32.2053Z" fill="#E8994A"/>
<path d="M65.3227 37.2118V10.1963H67.4163V0.423096H60.9474V11.2668H56.7636V17.0053H60.209V28.0869H55.8478V18.2414H51.793V30.9702H59.1012V37.2118H65.3227Z" fill="#91B3AF"/>
<path d="M59.2912 18.2415H56.7617V26.8516H59.2912V18.2415Z" fill="#142836"/>
<path d="M107.527 0.42334H102.168V17.8688H107.527V0.42334Z" fill="#E8994A"/>
<path d="M126.965 24.3215H122.467V28.6435H126.965V24.3215Z" fill="#6E1946"/>
<path d="M113.801 24.3215H111.518V37.2113H113.801V24.3215Z" fill="#A23040"/>
<path d="M99.036 37.2118V0.423096H94.6602V12.0233H97.4902V37.2158L99.036 37.2118Z" fill="#142836"/>
<path d="M55.8478 17.0053V10.0307H60.0316V0.423096H51.793V17.0053H55.8478Z" fill="#DE6C50"/>
<path d="M130.801 29.8792H127.883V37.2109H130.801V29.8792Z" fill="#142836"/>
<path d="M121.555 29.8796V24.3215H114.719V37.2113H126.969V29.8796H121.555Z" fill="#E8994A"/>
<path d="M113.801 23.0868V0.423096H108.441V17.8686H111.517V23.0868H113.801Z" fill="#91B3AF"/>
<path d="M121.555 0.423096H114.719V23.0868H121.555V0.423096Z" fill="#DE6C50"/>
<path d="M110.601 19.1038H108.441V23.0859H110.601V19.1038Z" fill="#142836"/>
<path d="M107.526 24.3236V19.1054H101.251V0.427002H99.9512V37.2157H110.6V24.3236H107.526Z" fill="#DE6C50"/>
<path d="M0.25827 62.8759L0.190835 56.8462C0.180242 56.6954 0.19496 56.5434 0.233922 56.4015C0.272885 56.2595 0.335066 56.1311 0.415853 56.0261C0.606014 55.8187 0.847045 55.7156 1.09098 55.7372H1.66492C1.57362 55.4868 1.5274 55.211 1.53001 54.932C1.53598 54.5919 1.61189 54.2606 1.74925 53.9754C1.90199 53.6417 2.09406 53.344 2.31793 53.094C2.54946 52.8318 2.80707 52.6147 3.08321 52.4489C3.34085 52.2878 3.6209 52.2025 3.90484 52.1985L4.08453 52.35V53.4134L3.90484 53.5649C3.71517 53.5669 3.52705 53.6107 3.34779 53.6944C3.1665 53.7737 2.99411 53.8862 2.83547 54.0287C2.69487 54.1535 2.56952 54.3071 2.46391 54.4839C2.37502 54.6212 2.3235 54.7954 2.31793 54.9775C2.31771 55.0876 2.33498 55.1966 2.36854 55.2969C2.40982 55.4119 2.46706 55.5149 2.53716 55.6007C2.637 55.7225 2.74641 55.8294 2.8634 55.9194C3.03653 56.0543 3.21513 56.1762 3.39837 56.2842L3.71297 56.4812L3.18439 57.879L2.39644 57.317C2.33829 57.2762 2.28014 57.2386 2.22199 57.2103C2.16404 57.1792 2.1038 57.1563 2.0423 57.142C1.97148 57.1262 1.90004 57.1159 1.82832 57.1114C1.74923 57.1067 1.65386 57.1044 1.54105 57.1044H1.26021C1.11716 57.1044 1.04622 57.1829 1.04622 57.332L1.03458 62.8759H0.25827Z" fill="#12303F"/>
<path d="M4.20562 60.2357L3.50781 59.2782L4.20562 58.3215L4.90342 59.2782L4.20562 60.2357ZM5.84835 60.2357L5.15055 59.2782L5.84835 58.3215L6.54612 59.2782L5.84835 60.2357Z" fill="#12303F"/>
<path d="M6.46852 57.104C6.26797 57.1074 6.06834 57.0663 5.87768 56.9824C5.69409 56.8958 5.52692 56.7556 5.38808 56.5719C5.22042 56.3483 5.07815 56.0926 4.9659 55.813C4.81277 55.4359 4.67931 55.0449 4.56644 54.6428C4.49623 54.3412 4.39397 54.0549 4.26288 53.7929C4.22041 53.7191 4.16561 53.66 4.10295 53.6203C4.04029 53.5806 3.97153 53.5615 3.90235 53.5645L3.72266 53.3973V52.3511L3.90235 52.1997C4.19224 52.184 4.47579 52.3169 4.69609 52.5717C4.95974 52.9422 5.16123 53.3849 5.28688 53.8698C5.39912 54.2449 5.5009 54.5533 5.59045 54.7966C5.66206 55.0015 5.75293 55.1929 5.86082 55.3664C5.93746 55.4897 6.03365 55.5882 6.14227 55.6545C6.24559 55.7124 6.35665 55.741 6.46852 55.7385L6.64878 55.8907V56.9533L6.46852 57.104Z" fill="#12303F"/>
<path d="M6.29102 56.9543V55.8917L6.47128 55.7395H7.37139L7.55167 55.8917V56.9543L7.37139 57.1066H6.47128L6.29102 56.9543Z" fill="#12303F"/>
<path d="M7.18945 56.9543V55.8917L7.36973 55.7395H8.26986L28.9422 55.8917V56.9543L8.26986 57.1066H7.36973L7.18945 56.9543Z" fill="#12303F"/>
<path d="M8.08984 56.9546V55.892L8.27012 55.7397H29.6623L29.8425 55.892V56.9546L29.6623 57.1068H8.27012L8.08984 56.9546Z" fill="#12303F"/>
<path d="M29.4824 56.9543V55.8917L29.6627 55.7395H30.5628L30.7431 55.8917V56.9543L30.5628 57.1066H29.6627L29.4824 56.9543Z" fill="#12303F"/>
<path d="M34.0612 57.2096C33.6927 57.2142 33.3284 57.1024 32.9977 56.8831C32.6706 56.6641 32.384 56.3491 32.1591 55.9609C31.9887 56.3256 31.7526 56.6261 31.473 56.8345C31.1892 57.0203 30.8765 57.1116 30.5611 57.1004L30.3809 56.9482V55.8856L30.5611 55.7334C30.6917 55.7352 30.822 55.7173 30.9496 55.68C31.0614 55.6471 31.168 55.5881 31.2648 55.5058C31.3642 55.4177 31.4531 55.3101 31.5288 55.1864C31.6236 55.0308 31.7066 54.8628 31.7765 54.6848L32.4068 53.1662C32.5918 52.6809 32.8462 52.2499 33.1552 51.898C33.4038 51.6344 33.7114 51.4924 34.0275 51.4954C34.2695 51.4962 34.5068 51.5854 34.7142 51.7536C34.9368 51.9323 35.1301 52.1702 35.2823 52.4529C35.4507 52.765 35.5818 53.1108 35.6708 53.4778C35.769 53.8769 35.8183 54.2949 35.8167 54.7154C35.8463 55.3844 35.6792 56.0421 35.3515 56.5456C35.1831 56.7724 34.9811 56.9488 34.7588 57.0632C34.5364 57.1775 34.2988 57.2274 34.0612 57.2096ZM32.5982 54.8708C32.771 55.1817 32.9968 55.4319 33.2564 55.6C33.526 55.7884 33.825 55.8875 34.1287 55.8887C34.3761 55.9068 34.6188 55.792 34.8037 55.5693C34.8893 55.4517 34.9555 55.3111 34.9981 55.1566C35.0408 55.0023 35.059 54.8376 35.0515 54.6731C35.0522 54.4355 35.0238 54.1995 34.9672 53.9746C34.9151 53.7621 34.8351 53.5641 34.7311 53.3899C34.6348 53.2297 34.5162 53.0965 34.3822 52.9975C34.2564 52.9031 34.115 52.8534 33.971 52.8531C33.566 52.8531 33.2246 53.2227 32.9471 53.962L32.5982 54.8708ZM36.7512 57.1036C36.3628 57.1216 35.978 56.9983 35.6371 56.7466C35.3457 56.5239 35.1253 56.1644 35.0177 55.7365L35.6027 54.7798C35.6 54.9231 35.6263 55.0646 35.6788 55.1891C35.7314 55.3137 35.8083 55.4163 35.901 55.4861C36.1621 55.6734 36.4561 55.7602 36.7512 55.7372L36.9309 55.8895V56.9522L36.7512 57.1036Z" fill="#12303F"/>
<path d="M36.5723 56.9543V55.8917L36.7519 55.7395H37.6527L37.8324 55.8917V56.9543L37.6527 57.1066H36.7514L36.5723 56.9543Z" fill="#12303F"/>
<path d="M37.4727 56.9516V55.889L37.6523 55.7367C37.8437 55.7333 38.0344 55.7028 38.2211 55.6457C38.3657 55.5957 38.4966 55.4901 38.5978 55.342C38.7227 55.1443 38.82 54.9178 38.8851 54.6733C38.9711 54.3798 39.0667 53.9899 39.1718 53.504L39.9033 53.777C39.8275 54.34 39.7242 54.8956 39.5939 55.44C39.5098 55.8113 39.3698 56.1551 39.1828 56.4501C39.0184 56.6932 38.8056 56.8672 38.5699 56.9516C38.2697 57.0525 37.9616 57.1036 37.6523 57.1038L37.4727 56.9516ZM39.3858 55.0225C39.542 55.1891 39.7167 55.3215 39.9033 55.4149C40.1263 55.5273 40.356 55.6138 40.59 55.6731C40.9461 54.4334 41.4601 53.2873 42.1089 52.2867C42.3116 51.9469 42.5643 51.6674 42.851 51.466C43.1378 51.2646 43.4523 51.1456 43.7749 51.1166C44.0371 51.1131 44.2962 51.1937 44.5309 51.352C44.7649 51.5101 44.9719 51.7325 45.1385 52.005C45.3168 52.2957 45.4547 52.6275 45.5456 52.9844C45.6447 53.3702 45.6942 53.776 45.6921 54.1844C45.7034 54.6339 45.6246 55.0791 45.4641 55.4733C45.3037 55.8675 45.0674 56.196 44.7803 56.4242C43.9775 57.0101 43.0694 57.2819 42.1583 57.2091C41.5323 57.2238 40.9074 57.1347 40.2976 56.9437C39.8705 56.826 39.4731 56.5616 39.1438 56.1762L39.3858 55.0225ZM43.7633 52.5166C43.5295 52.5383 43.3013 52.6234 43.0925 52.7669C42.8836 52.9103 42.6984 53.1093 42.5479 53.3516C42.0585 54.0781 41.6561 54.9032 41.3553 55.7971C41.4902 55.8076 41.6327 55.8152 41.7827 55.8199C41.9327 55.8246 42.094 55.8272 42.2665 55.8278C42.9373 55.8742 43.6081 55.732 44.236 55.4102C44.4273 55.3206 44.5936 55.1538 44.7124 54.9324C44.8311 54.7111 44.8966 54.4458 44.9001 54.1726C44.9003 53.7391 44.7797 53.3214 44.5622 53.0025C44.459 52.8524 44.3349 52.7311 44.197 52.6454C44.0611 52.5605 43.9131 52.5167 43.7633 52.5166ZM46.3067 57.1038C45.9183 57.1216 45.5336 56.9984 45.1926 56.7468C44.9016 56.5239 44.6814 56.1644 44.5739 55.7367L45.1589 54.78C45.156 54.9233 45.1824 55.0649 45.235 55.1894C45.2876 55.3139 45.3644 55.4166 45.4572 55.4864C45.718 55.6735 46.0119 55.7604 46.3067 55.7375L46.487 55.8897V56.9524L46.3067 57.1038Z" fill="#12303F"/>
<path d="M50.0187 57.1068C49.1406 57.1068 48.5554 56.7667 48.2632 56.0865C48.0853 56.4397 47.8261 56.704 47.5258 56.8384C47.1343 57.0272 46.7203 57.1173 46.3047 57.1044L46.125 56.9522V55.8896L46.3047 55.7373C46.6745 55.7644 47.0445 55.6869 47.3909 55.5097C47.5044 55.4398 47.6038 55.3345 47.6811 55.2024C47.7584 55.0703 47.8112 54.9152 47.8352 54.75L47.8933 54.3325C47.916 54.1653 47.9381 53.9958 47.9608 53.8232C47.9835 53.6505 48.002 53.4794 48.0189 53.3068C48.0358 53.1341 48.0486 52.9835 48.0637 52.8515L48.829 52.9732C48.7901 53.3981 48.7564 53.7878 48.7278 54.1425C48.6991 54.4973 48.6842 54.7149 48.683 54.7955C48.683 55.4234 49.1288 55.7373 50.0204 55.7373L50.2007 55.8896V56.9522L50.0187 57.1068ZM47.6892 51.6233L46.9914 50.6667L47.6892 49.71L48.387 50.6667L47.6892 51.6233ZM49.3319 51.6233L48.6342 50.6667L49.3319 49.71L50.0297 50.6667L49.3319 51.6233Z" fill="#12303F"/>
<path d="M49.8418 56.9524V55.8897L50.022 55.7374C50.18 55.7374 50.3379 55.7249 50.4948 55.6998C50.6385 55.6782 50.7799 55.6347 50.9164 55.5703C51.0292 55.5188 51.1328 55.4359 51.2205 55.327C51.2578 55.2808 51.2875 55.2245 51.3075 55.1617C51.3276 55.099 51.3375 55.0312 51.3368 54.9629L51.3031 47.5205L52.1922 47.3079L52.1474 54.842C52.1567 55.215 52.0925 55.5847 51.9613 55.9132C51.8428 56.194 51.677 56.4332 51.4775 56.6117C51.2716 56.7929 51.0427 56.9217 50.8024 56.9916C50.5456 57.068 50.2833 57.1061 50.0203 57.1054L49.8418 56.9524Z" fill="#12303F"/>
<path d="M53.6656 57.1046L53.6074 47.5205L54.4965 47.3079L54.4383 57.1046H53.6656Z" fill="#12303F"/>
<path d="M55.805 58.8962C57.4254 58.5917 58.3595 57.7967 58.6072 56.5111C58.4495 56.6685 58.2722 56.7867 58.0839 56.8604C57.8776 56.9432 57.6634 56.9842 57.4483 56.9821C57.2233 56.9936 56.9993 56.9368 56.7928 56.8159C56.5863 56.695 56.4026 56.5131 56.2551 56.2836C55.942 55.7669 55.7816 55.1122 55.805 54.4456C55.8019 54.0458 55.8475 53.6481 55.9399 53.2683C56.0217 52.9297 56.1474 52.6135 56.3114 52.3344C56.4637 52.0764 56.6558 51.8665 56.8744 51.7192C57.0945 51.5714 57.3373 51.4958 57.5832 51.4986C57.8619 51.492 58.1366 51.5882 58.3777 51.7771C58.6187 51.9658 58.8169 52.2399 58.9509 52.5698C59.3142 53.4958 59.4833 54.5382 59.4399 55.5843C59.4434 56.1614 59.3645 56.7341 59.2073 57.2708C59.057 57.7793 58.8353 58.2434 58.5543 58.638C58.261 59.044 57.9162 59.3758 57.5361 59.6174C57.1162 59.8842 56.6681 60.0607 56.208 60.1409L55.805 58.8962ZM57.5942 55.7514C57.8021 55.7522 58.0088 55.7112 58.2077 55.6299C58.3755 55.569 58.5334 55.466 58.6729 55.3261C58.6725 54.6817 58.5587 54.0467 58.3409 53.4732C58.2704 53.2951 58.1686 53.143 58.0445 53.0304C57.9203 52.9177 57.7776 52.8478 57.6288 52.8268C57.48 52.8058 57.3296 52.8344 57.191 52.91C57.0522 52.9856 56.9293 53.1059 56.8331 53.2605C56.6407 53.5876 56.5428 53.9978 56.5574 54.4149C56.5491 54.5964 56.5695 54.7782 56.6169 54.9483C56.6644 55.1186 56.7381 55.2732 56.8331 55.4022C57.0432 55.6485 57.3165 55.7739 57.5942 55.7514Z" fill="#12303F"/>
<path d="M66.3828 54.8283C66.3941 55.1515 66.3538 55.474 66.2644 55.7742C66.175 56.0742 66.0387 56.3448 65.865 56.5675C65.4716 57.0209 64.9637 57.252 64.4472 57.2126C63.9207 57.2651 63.3996 57.0401 62.9935 56.5847C62.8211 56.3461 62.6879 56.0611 62.6026 55.7483C62.5172 55.4355 62.4816 55.1021 62.498 54.7695C62.496 54.293 62.5492 53.819 62.6557 53.3647C62.7513 52.9505 62.8937 52.5587 63.0778 52.2032C63.2415 51.8847 63.4523 51.6156 63.6971 51.4129C63.9219 51.2248 64.181 51.1248 64.4455 51.1241C64.7136 51.1234 64.9766 51.2234 65.205 51.4129C65.4486 51.6148 65.6577 51.8842 65.8184 52.2032C66.0005 52.5638 66.1391 52.9612 66.229 53.3804C66.3331 53.8501 66.3848 54.3381 66.3828 54.8283ZM63.6145 49.9068L62.9167 48.9501L63.6145 47.9934L64.3123 48.9501L63.6145 49.9068ZM65.6178 54.9649C65.6198 54.6349 65.5913 54.3059 65.5329 53.9855C65.4847 53.7109 65.4029 53.4492 65.291 53.2109C65.196 53.0069 65.0695 52.8332 64.92 52.7016C64.7787 52.5806 64.6145 52.5175 64.4472 52.5194C64.288 52.5194 64.1312 52.5734 63.9913 52.6764C63.8444 52.7832 63.716 52.9309 63.6145 53.1096C63.5051 53.3025 63.4195 53.5179 63.361 53.7476C63.2962 53.9965 63.2638 54.2585 63.265 54.5223C63.2562 54.7083 63.279 54.8947 63.3317 55.0671C63.3844 55.2394 63.4657 55.3932 63.5692 55.5166C63.823 55.7663 64.1338 55.8874 64.4472 55.8588C64.5987 55.8597 64.7498 55.8368 64.8973 55.7905C65.0279 55.7514 65.1532 55.6847 65.2684 55.5927C65.3647 55.5172 65.4505 55.4195 65.5219 55.304C65.5824 55.2097 65.6163 55.0896 65.6178 54.9649ZM65.2572 49.9068L64.5594 48.9501L65.2572 47.9934L65.9551 48.9501L65.2572 49.9068Z" fill="#12303F"/>
<path d="M66.6992 58.9461C67.088 58.7538 67.4642 58.5199 67.8251 58.2469C68.1424 58.0099 68.4417 57.7327 68.7192 57.419C68.9451 57.1694 69.1438 56.8788 69.31 56.5556C69.4411 56.3147 69.5153 56.0268 69.5246 55.7285C69.5186 55.517 69.4921 55.3075 69.4458 55.1053C69.3855 54.8234 69.312 54.5468 69.2259 54.2773C69.1318 53.9791 69.0212 53.6678 68.8941 53.3434C68.7663 53.019 68.6305 52.7051 68.4868 52.4017L69.2968 51.7942C69.6147 52.3671 69.865 53.0024 70.0392 53.6778C70.2101 54.2954 70.3015 54.9478 70.3101 55.6068C70.3008 56.5887 70.01 57.5276 69.4994 58.2265C68.8629 59.1045 68.0795 59.7634 67.2152 60.1477L66.6992 58.9461Z" fill="#12303F"/>
<path d="M73.4187 57.103C72.21 57.103 71.5987 56.3941 71.5834 54.9762L71.5391 47.5205L72.4272 47.3079L72.3828 54.5226C72.3702 54.6926 72.3855 54.8642 72.4272 55.0255C72.4689 55.1867 72.5365 55.3338 72.6246 55.4565C72.857 55.6719 73.1378 55.7713 73.4187 55.7374L73.5981 55.8897V56.9524L73.4187 57.103Z" fill="#12303F"/>
<path d="M73.2344 56.9543V55.8917L73.4145 55.7395H74.3133L74.4927 55.8917V56.9543L74.3133 57.1066H73.4125L73.2344 56.9543Z" fill="#12303F"/>
<path d="M74.1367 56.9546V55.892L74.3162 55.7397H85.6044L85.7839 55.892V56.9546L85.6044 57.1068H74.3149L74.1367 56.9546Z" fill="#12303F"/>
<path d="M75.0371 56.9543V55.8917L85.6047 55.7395H86.5048L86.6843 55.8917V56.9543L86.5048 57.1066H85.6047L75.0371 56.9543Z" fill="#12303F"/>
<path d="M86.3242 56.9543V55.8917L86.5044 55.7395H87.4044L87.5852 55.8917V56.9543L87.4044 57.1066H86.5044L86.3242 56.9543Z" fill="#12303F"/>
<path d="M90.905 57.2096C90.5368 57.2142 90.1725 57.1024 89.8413 56.8831C89.5148 56.6641 89.2281 56.3491 89.0029 55.9609C88.8327 56.3258 88.5962 56.6263 88.3161 56.8345C88.0326 57.0205 87.72 57.1117 87.4054 57.1004L87.2246 56.9482V55.8856L87.4054 55.7334C87.5359 55.7352 87.6657 55.7173 87.7935 55.68C87.9055 55.6471 88.0114 55.5881 88.1081 55.5058C88.2081 55.418 88.2969 55.3103 88.373 55.1864C88.4677 55.0307 88.5505 54.8628 88.6207 54.6848L89.2506 53.1662C89.436 52.681 89.6904 52.2499 89.999 51.898C90.248 51.6344 90.5553 51.4924 90.8712 51.4954C91.113 51.4961 91.3501 51.5854 91.5574 51.7536C91.7806 51.9323 91.9739 52.1702 92.1263 52.4529C92.2958 52.7656 92.4276 53.1126 92.5164 53.4809C92.6151 53.8799 92.6647 54.298 92.6627 54.7186C92.6925 55.3875 92.5256 56.0452 92.1978 56.5487C92.0289 56.7753 91.8263 56.9512 91.6037 57.065C91.3812 57.1788 91.1428 57.2281 90.905 57.2096ZM89.442 54.8708C89.6148 55.1817 89.8407 55.4318 90.1003 55.6C90.3699 55.7884 90.6692 55.8875 90.9726 55.8887C91.2203 55.9068 91.4627 55.792 91.6474 55.5693C91.7329 55.4517 91.7991 55.3111 91.8421 55.1566C91.8845 55.0023 91.9031 54.8376 91.8951 54.6731C91.8965 54.4355 91.868 54.1995 91.811 53.9746C91.7587 53.7621 91.6786 53.5641 91.5746 53.3899C91.4786 53.2296 91.36 53.0962 91.2255 52.9975C91.0997 52.9032 90.958 52.8535 90.8143 52.8531C90.4096 52.8531 90.0679 53.2227 89.7904 53.962L89.442 54.8708ZM93.5946 57.1036C93.2065 57.1214 92.8217 56.9982 92.4806 56.7466C92.1892 56.5236 91.9693 56.1641 91.862 55.7365L92.4468 54.7798C92.4442 54.9231 92.47 55.0646 92.523 55.1891C92.5753 55.3137 92.6521 55.4163 92.7449 55.4861C93.0058 55.6733 93.2999 55.7601 93.5946 55.7372L93.7747 55.8895V56.9522L93.5946 57.1036Z" fill="#12303F"/>
<path d="M99.2124 57.1065C98.717 57.1148 98.2223 57.0485 97.7375 56.9088C97.2832 56.7637 96.8441 56.5392 96.4321 56.2409C95.5612 56.8659 94.5817 57.164 93.5962 57.1042L93.416 56.952V55.8893L93.5962 55.737C93.979 55.737 94.326 55.7166 94.6373 55.6758C94.9386 55.6379 95.2373 55.5721 95.5321 55.4788C95.2559 55.167 95.0016 54.8212 94.7724 54.446C94.5274 54.0447 94.2995 53.6238 94.0916 53.1857L94.2379 52.061C94.5254 51.7771 94.8499 51.5686 95.1943 51.4465C95.6009 51.2952 96.0215 51.221 96.444 51.226C97.0149 51.1909 97.5832 51.3392 98.1038 51.6584C98.2786 51.7508 98.4303 51.9105 98.5395 52.1177C98.6482 52.325 98.7104 52.5706 98.717 52.8246C98.6978 53.2807 98.5713 53.7168 98.3568 54.0701C98.0567 54.5974 97.7044 55.0673 97.3103 55.4671C97.5931 55.5785 97.8832 55.6524 98.1766 55.6876C98.4693 55.7237 98.8144 55.7415 99.2124 55.741L99.3919 55.8932V56.9559L99.2124 57.1065ZM94.9247 52.9596C95.0221 53.1658 95.1294 53.3638 95.2446 53.5522C95.3685 53.7546 95.4983 53.9495 95.6334 54.1369C95.7639 54.3186 95.9029 54.4885 96.0493 54.6454C96.1785 54.7846 96.3149 54.9115 96.4566 55.0252C96.6282 54.9055 96.7904 54.7631 96.9408 54.5998C97.113 54.4178 97.2726 54.2331 97.4189 54.0458C97.5507 53.879 97.6733 53.6988 97.7845 53.5066C97.8587 53.4007 97.909 53.2692 97.9309 53.1268C97.9282 53.0754 97.9163 53.0257 97.8958 52.982C97.8753 52.9383 97.8475 52.9021 97.8143 52.8764C97.7163 52.7878 97.6077 52.7209 97.4938 52.6787C97.3395 52.6174 97.1812 52.5744 97.0216 52.55C96.8308 52.5187 96.6394 52.5034 96.4473 52.5044C96.1434 52.5018 95.8394 52.5423 95.5413 52.6253C95.3195 52.6715 95.1082 52.7859 94.9247 52.9596Z" fill="#12303F"/>
<path d="M99.0293 56.9524V55.8897L99.2088 55.7374C99.3664 55.7374 99.5247 55.7249 99.6817 55.6998C99.8254 55.6782 99.9671 55.6347 100.104 55.5703C100.217 55.5188 100.32 55.4359 100.408 55.327C100.445 55.2808 100.474 55.2245 100.495 55.1617C100.515 55.099 100.525 55.0312 100.524 54.9629L100.49 47.5205L101.379 47.3079L101.334 54.842C101.343 55.2149 101.28 55.5847 101.149 55.9132C101.03 56.1938 100.864 56.433 100.665 56.6117C100.459 56.7931 100.229 56.9219 99.989 56.9916C99.732 57.0681 99.4697 57.1062 99.2068 57.1054L99.0293 56.9524Z" fill="#12303F"/>
<path d="M102.857 57.1046L102.799 47.5205L103.688 47.3079L103.63 57.1046H102.857Z" fill="#12303F"/>
<path d="M112.052 52.8522C112.161 53.1742 112.258 53.5038 112.342 53.8394C112.432 54.1942 112.511 54.5486 112.578 54.9029C112.646 55.257 112.7 55.5971 112.742 55.9231C112.779 56.204 112.8 56.4885 112.803 56.7738C112.807 57.2408 112.731 57.7027 112.584 58.1253C112.44 58.5363 112.233 58.9015 111.977 59.1965C111.704 59.5052 111.391 59.7421 111.054 59.895C110.675 60.067 110.277 60.1516 109.877 60.1454C109.469 60.1523 109.062 60.0705 108.673 59.9029C108.335 59.7571 108.022 59.522 107.751 59.2115C107.496 58.9148 107.296 58.5432 107.165 58.1253C107.027 57.678 106.958 57.1972 106.963 56.7126C106.966 56.1398 107.043 55.572 107.188 55.0339C107.335 54.4691 107.548 53.9393 107.818 53.4643L108.392 53.9501C108.033 54.6704 107.833 55.5147 107.818 56.3831C107.808 56.7109 107.853 57.0376 107.949 57.3388C108.045 57.6399 108.191 57.9078 108.375 58.1222C108.801 58.577 109.335 58.8063 109.877 58.7672C110.152 58.7688 110.426 58.7229 110.691 58.6307C110.931 58.5507 111.161 58.4227 111.372 58.2509C111.552 58.1066 111.709 57.9187 111.838 57.6968C111.948 57.5087 112.01 57.2763 112.012 57.0359C112.009 56.7961 111.989 56.5571 111.954 56.3218C111.913 56.0273 111.86 55.7357 111.796 55.4483C111.729 55.1396 111.646 54.8131 111.548 54.4689C111.451 54.1246 111.342 53.7845 111.222 53.4486L112.052 52.8522ZM109.778 52.229L109.08 51.2723L109.778 50.3157L110.475 51.2723L109.778 52.229Z" fill="#12303F"/>
<path d="M118.028 57.1039H117.286C117.079 57.9161 116.694 58.6237 116.18 59.1311C115.611 59.6872 114.944 60.0352 114.245 60.1411L113.838 58.8964C115.256 58.6228 116.149 57.9797 116.516 56.9674H116.127C115.525 57.0182 114.93 56.7873 114.441 56.3136C114.24 56.0865 114.082 55.7994 113.978 55.4751C113.874 55.1509 113.829 54.7983 113.844 54.4457C113.841 54.0461 113.886 53.6484 113.978 53.2685C114.06 52.9299 114.186 52.6136 114.35 52.3346C114.502 52.0769 114.694 51.8669 114.913 51.7193C115.133 51.5716 115.376 51.496 115.622 51.4988C115.899 51.4907 116.172 51.584 116.413 51.7685C116.653 51.9532 116.853 52.2223 116.989 52.5473C117.357 53.4794 117.526 54.5306 117.479 55.5845V55.7367H118.03L118.21 55.8891V56.9517L118.028 57.1039ZM114.598 54.4152C114.598 55.2967 115.149 55.7373 116.251 55.7367H116.724C116.755 54.9909 116.652 54.2459 116.425 53.5644C116.354 53.3443 116.237 53.1567 116.088 53.0246C115.939 52.8925 115.766 52.8216 115.588 52.8204C115.451 52.8154 115.316 52.8524 115.192 52.9287C115.068 53.005 114.959 53.1185 114.873 53.2607C114.68 53.5876 114.582 53.9978 114.596 54.4152H114.598Z" fill="#12303F"/>
<path d="M117.848 56.9543V55.8917L118.027 55.7395H118.927L119.107 55.8917V56.9543L118.927 57.1066H118.027L117.848 56.9543Z" fill="#12303F"/>
<path d="M118.748 56.9546V55.892L118.928 55.7397H119.828L130.57 55.892V56.9546L119.828 57.1068H118.928L118.748 56.9546Z" fill="#12303F"/>
<path d="M119.648 56.9543V55.8917L119.829 55.7395H131.291L131.47 55.8917V56.9543L131.291 57.1066H119.829L119.648 56.9543Z" fill="#12303F"/>
<path d="M131.109 56.9543V55.8917L131.289 55.7395H132.19L132.37 55.8917V56.9543L132.19 57.1066H131.289L131.109 56.9543Z" fill="#12303F"/>
<path d="M135.904 57.1068C135.027 57.1068 134.441 56.7667 134.148 56.0865C133.97 56.4397 133.711 56.704 133.411 56.8384C133.019 57.0272 132.605 57.1173 132.19 57.1044L132.01 56.9522V55.8896L132.19 55.7373C132.559 55.7645 132.93 55.687 133.276 55.5097C133.389 55.4397 133.489 55.3344 133.566 55.2023C133.644 55.0702 133.697 54.9152 133.721 54.75C133.735 54.6386 133.754 54.4996 133.779 54.3325C133.803 54.1653 133.824 53.9958 133.847 53.8232C133.869 53.6505 133.888 53.4794 133.905 53.3068C133.922 53.1341 133.936 52.9835 133.95 52.8515L134.716 52.9732C134.677 53.3981 134.643 53.7878 134.615 54.1425C134.586 54.4973 134.571 54.7149 134.57 54.7955C134.57 55.4234 135.015 55.7373 135.907 55.7373L136.087 55.8896V56.9522L135.904 57.1068ZM134.396 51.6233L133.698 50.6667L134.396 49.71L135.093 50.6667L134.396 51.6233Z" fill="#12303F"/>
<path d="M139.112 54.0668C138.955 54.2334 138.778 54.362 138.589 54.4467C138.384 54.539 138.168 54.5851 137.953 54.5832C137.739 54.5991 137.526 54.5553 137.326 54.4547C137.126 54.3541 136.943 54.1988 136.79 53.9985C136.642 53.7776 136.529 53.5195 136.457 53.2391C136.385 52.9587 136.354 52.6617 136.368 52.3653C136.366 51.9857 136.411 51.6084 136.503 51.2493C136.585 50.9193 136.709 50.611 136.869 50.3381C137.017 50.0861 137.203 49.8791 137.414 49.7308C137.593 49.6053 137.789 49.5315 137.99 49.5142C138.191 49.4968 138.392 49.5361 138.581 49.6297C138.77 49.7233 138.943 49.869 139.088 50.0576C139.233 50.2462 139.347 50.4736 139.423 50.725C139.773 51.8588 139.928 53.084 139.879 54.3101C139.898 54.8303 139.837 55.35 139.699 55.8365C139.572 56.1953 139.351 56.4788 139.08 56.6339C138.931 56.7283 138.775 56.8021 138.615 56.8545C138.416 56.917 138.215 56.965 138.013 56.998C137.78 57.0388 137.514 57.0669 137.214 57.082C136.914 57.0972 136.565 57.1047 136.168 57.1047H135.909L135.729 56.9525V55.8899L135.909 55.7377H136.168C136.904 55.7561 137.641 55.7053 138.373 55.5854C138.868 55.4849 139.116 55.3332 139.116 55.1302L139.112 54.0668ZM138.055 53.4287C138.247 53.4292 138.438 53.3936 138.623 53.3228C138.783 53.2673 138.934 53.1691 139.067 53.034C139.053 52.4374 138.943 51.8518 138.747 51.3177C138.678 51.1523 138.577 51.0154 138.455 50.9218C138.333 50.8281 138.195 50.7813 138.055 50.7863C137.921 50.7835 137.79 50.8209 137.669 50.8957C137.549 50.9705 137.441 51.0808 137.356 51.2187C137.167 51.5158 137.066 51.898 137.075 52.29C137.067 52.4484 137.086 52.6071 137.129 52.7544C137.173 52.9018 137.241 53.0338 137.328 53.1407C137.537 53.3499 137.795 53.452 138.055 53.4287ZM138.076 48.2953L137.378 47.3378L138.076 46.3811L138.774 47.3378L138.076 48.2953Z" fill="#12303F"/>
<path d="M147.764 57.1048C146.684 57.1048 146.08 56.5326 145.952 55.3884C145.611 55.6399 145.227 55.7656 144.838 55.7525C144.596 55.755 144.355 55.709 144.124 55.616C143.914 55.5339 143.717 55.401 143.542 55.2235C143.371 55.045 143.232 54.8145 143.138 54.5506C143.044 54.2867 142.998 53.9968 143.002 53.7041C143.004 53.3153 143.073 52.9323 143.205 52.5866C143.337 52.241 143.527 51.9421 143.761 51.7147C144.39 51.0972 145.116 50.6863 145.883 50.5148V49.5886L146.772 49.376L146.727 54.5251C146.711 54.6947 146.724 54.8671 146.765 55.0289C146.806 55.1908 146.873 55.3379 146.963 55.4591C147.198 55.6736 147.48 55.7728 147.762 55.74L147.942 55.8922V56.9548L147.764 57.1048ZM144.287 48.3706L143.589 47.4139L144.287 46.4573L144.985 47.4139L144.287 48.3706ZM144.974 54.4309C145.296 54.4397 145.616 54.3678 145.919 54.219L145.897 51.7735C145.626 51.8119 145.359 51.8804 145.098 51.9784C144.861 52.0648 144.633 52.1869 144.417 52.3425C144.237 52.469 144.077 52.6389 143.944 52.844C143.833 53.0141 143.771 53.2326 143.77 53.4593C143.765 53.6211 143.798 53.7807 143.865 53.9153C143.933 54.0418 144.025 54.1433 144.13 54.2112C144.252 54.2918 144.383 54.3481 144.518 54.3784C144.669 54.414 144.821 54.4316 144.974 54.4309ZM145.93 48.3706L145.233 47.4139L145.93 46.4573L146.628 47.4139L145.93 48.3706Z" fill="#12303F"/>
<path d="M147.584 56.9543V55.8917L147.764 55.7395H148.664L148.845 55.8917V56.9543L148.664 57.1066H147.764L147.584 56.9543Z" fill="#12303F"/>
<path d="M148.482 56.9543V55.8917L148.663 55.7395H149.563L149.743 55.8917V56.9543L149.563 57.1066H148.663L148.482 56.9543Z" fill="#12303F"/>
<path d="M149.387 56.9546V55.892L149.566 55.7397H168.306L168.485 55.892V56.9546L168.306 57.1068H149.564L149.387 56.9546Z" fill="#12303F"/>
<path d="M168.123 56.9546V55.892L168.303 55.7397H169.203L169.383 55.892V56.9546L169.203 57.1068H168.303L168.123 56.9546Z" fill="#12303F"/>
<path d="M172.332 51.3173C171.743 51.3773 171.161 51.5303 170.599 51.7733L170.441 51.2239C170.547 51.1716 170.643 51.1261 170.732 51.0874C170.822 51.0466 170.906 51.0089 170.99 50.9657C170.877 50.8878 170.781 50.768 170.716 50.6201C170.65 50.4722 170.616 50.3023 170.62 50.1299C170.618 49.9754 170.639 49.8219 170.684 49.6796C170.729 49.5371 170.794 49.4088 170.878 49.3027C170.959 49.1923 171.055 49.1051 171.162 49.0463C171.268 48.9876 171.383 48.9584 171.497 48.9605C171.616 48.9567 171.735 48.9888 171.844 49.0546C171.953 49.1202 172.049 49.2179 172.127 49.3404L171.902 49.7807C171.794 49.6911 171.669 49.6439 171.542 49.6441C171.423 49.6373 171.306 49.6855 171.21 49.7807C171.169 49.8207 171.136 49.8734 171.114 49.9341C171.091 49.9949 171.08 50.062 171.081 50.1299C171.082 50.2083 171.099 50.2847 171.13 50.3515C171.161 50.4181 171.204 50.4728 171.255 50.5097C171.397 50.6221 171.556 50.6897 171.72 50.7075C171.848 50.6769 171.968 50.6518 172.081 50.629C172.193 50.6063 172.302 50.5937 172.406 50.5835L172.332 51.3173Z" fill="#12303F"/>
<path d="M172.917 57.1061C172.039 57.1061 171.454 56.7659 171.162 56.0858C170.984 56.439 170.725 56.7032 170.424 56.8377C170.033 57.0264 169.619 57.1166 169.204 57.1037L169.023 56.9514V55.8888L169.204 55.7366C169.573 55.7637 169.943 55.6862 170.29 55.5089C170.403 55.4389 170.502 55.3336 170.58 55.2015C170.657 55.0694 170.71 54.9144 170.734 54.7492C170.749 54.6378 170.768 54.4989 170.792 54.3317C170.817 54.1645 170.838 53.995 170.86 53.8224C170.882 53.6498 170.901 53.4787 170.918 53.306C170.935 53.1333 170.948 52.9827 170.963 52.8508L171.729 52.9724C171.69 53.3973 171.656 53.787 171.628 54.1418C171.599 54.4965 171.584 54.7142 171.582 54.7947C171.582 55.4226 172.028 55.7366 172.92 55.7366L173.1 55.8888V56.9514L172.917 57.1061Z" fill="#12303F"/>
<path d="M176.633 57.1061C175.754 57.1061 175.169 56.7659 174.876 56.0858C174.699 56.439 174.44 56.7032 174.14 56.8377C173.748 57.0264 173.334 57.1166 172.918 57.1037L172.738 56.9514V55.8888L172.918 55.7366C173.288 55.7636 173.658 55.6861 174.005 55.5089C174.118 55.4391 174.217 55.3338 174.295 55.2017C174.372 55.0695 174.424 54.9145 174.449 54.7492L174.507 54.3317C174.529 54.1643 174.552 53.9945 174.574 53.8224C174.597 53.6502 174.617 53.4781 174.632 53.306C174.647 53.1343 174.662 52.9827 174.677 52.8508L175.442 52.9724C175.404 53.3973 175.37 53.787 175.341 54.1418C175.311 54.4965 175.297 54.7139 175.297 54.7947C175.297 55.4226 175.742 55.7366 176.634 55.7366L176.813 55.8888V56.9514L176.633 57.1061ZM174.066 60.2351L173.368 59.2776L174.066 58.3209L174.764 59.2776L174.066 60.2351ZM175.709 60.2351L175.012 59.2776L175.709 58.3209L176.407 59.2776L175.709 60.2351Z" fill="#12303F"/>
<path d="M180.4 53.9601C180.406 54.2898 180.36 54.6176 180.265 54.9214C180.17 55.2254 180.028 55.4983 179.849 55.722C179.93 55.7322 180.013 55.7392 180.096 55.7448C180.178 55.7502 180.265 55.7518 180.354 55.7518C180.669 55.7665 180.983 55.6942 181.277 55.5392C181.517 55.3978 181.638 55.2106 181.638 54.9772C181.638 54.4963 181.571 54.0197 181.441 53.5724C181.305 53.1128 181.117 52.6848 180.883 52.3042C180.633 51.8965 180.339 51.5409 180.011 51.2486C179.66 50.9333 179.28 50.6805 178.881 50.4967L179.263 49.3274C179.726 49.5479 180.163 49.8546 180.563 50.2385C180.935 50.5962 181.267 51.0231 181.551 51.5068C181.821 51.969 182.034 52.4871 182.181 53.0411C182.327 53.5891 182.401 54.1672 182.401 54.7496C182.415 55.0744 182.374 55.3994 182.283 55.7004C182.191 56.0014 182.05 56.2708 181.871 56.4888C181.448 56.9304 180.92 57.1491 180.387 57.104C180.109 57.1004 179.834 57.0519 179.565 56.9596C179.279 56.8665 179 56.7366 178.732 56.5719C178.383 56.7381 178.026 56.8677 177.663 56.9596C177.321 57.0514 176.975 57.0997 176.627 57.104L176.447 56.9518V55.8891L176.627 55.7369C176.822 55.7369 177.01 55.7322 177.19 55.722C177.371 55.7118 177.542 55.6961 177.708 55.6757C177.537 55.4536 177.402 55.1868 177.312 54.8917C177.221 54.5967 177.176 54.2796 177.179 53.9601C177.176 53.6335 177.218 53.309 177.302 53.0027C177.38 52.7182 177.497 52.4557 177.646 52.228C177.789 52.009 177.963 51.8307 178.157 51.7038C178.355 51.5792 178.57 51.5146 178.788 51.5146C179.006 51.5146 179.221 51.5792 179.418 51.7038C179.613 51.8309 179.787 52.0092 179.93 52.228C180.08 52.4587 180.197 52.7248 180.273 53.0128C180.357 53.3158 180.4 53.6367 180.4 53.9601ZM177.89 53.9601C177.891 54.2567 177.975 54.5418 178.126 54.7575C178.309 55.019 178.532 55.2236 178.779 55.357C179.387 55.0735 179.691 54.6078 179.691 53.9601C179.694 53.7985 179.672 53.6377 179.628 53.4876C179.583 53.3375 179.516 53.2012 179.432 53.0866C179.349 52.9706 179.249 52.879 179.14 52.8176C179.03 52.7561 178.911 52.7261 178.792 52.7295C178.673 52.726 178.555 52.7551 178.445 52.8152C178.335 52.8752 178.235 52.9649 178.152 53.0787C178.067 53.1937 177.998 53.3311 177.953 53.4827C177.908 53.6343 177.887 53.7968 177.89 53.9601Z" fill="#12303F"/>
<path d="M3.16884 65.8196H4.28883L7.27129 76.1077H6.05018L5.26109 73.2384H2.13029L1.34176 76.1077H0.1875L3.16884 65.8196ZM4.92903 71.9898L3.69452 67.4701L2.44897 71.9898H4.92903Z" fill="#12303F"/>
<path d="M8.11908 76.1066V69.3792C8.11908 69.2866 8.11504 69.1375 8.10742 68.9319H9.09021L9.12451 70.0887C9.1973 69.945 9.27757 69.8083 9.36466 69.6798C9.4707 69.5229 9.59176 69.3857 9.72462 69.2718C9.87827 69.1404 10.0433 69.035 10.216 68.9578C10.4242 68.866 10.6424 68.8218 10.8615 68.8268C10.9668 68.8259 11.0719 68.8361 11.176 68.8573C11.2674 68.8773 11.3574 68.9083 11.4447 68.95L11.2156 70.2457C11.0475 70.1668 10.8701 70.1302 10.6922 70.1374C10.4862 70.134 10.282 70.1893 10.0929 70.2996C9.90384 70.4099 9.73416 70.5728 9.59494 70.7778C9.45553 70.9828 9.34512 71.2207 9.26929 71.4794C9.18876 71.749 9.14789 72.0371 9.14895 72.3278V76.1066H8.11908Z" fill="#12303F"/>
<path d="M16.6083 75.121C16.3647 75.4886 16.0678 75.7851 15.7361 75.9921C15.3576 76.2224 14.9458 76.3358 14.5306 76.3241C14.1339 76.3317 13.7398 76.2347 13.3706 76.0384C13.0396 75.8654 12.7402 75.5981 12.4928 75.2548C12.2453 74.9114 12.0556 74.5001 11.9366 74.0489C11.804 73.5575 11.7382 73.0376 11.7424 72.5146C11.7401 72.0078 11.8097 71.5051 11.9476 71.0337C12.0788 70.5822 12.2753 70.1704 12.5254 69.8223C12.7756 69.4741 13.0745 69.1965 13.4049 69.0057C13.7726 68.803 14.1664 68.7005 14.5638 68.7045C14.961 68.7083 15.3538 68.8185 15.7192 69.0285C16.0541 69.2368 16.3536 69.536 16.5991 69.9075L15.9251 70.7872C15.7674 70.5222 15.569 70.3064 15.3436 70.1547C15.0897 69.9909 14.8108 69.9103 14.5295 69.9193C14.2753 69.9138 14.0234 69.9848 13.7921 70.1272C13.5805 70.2607 13.3933 70.4555 13.2438 70.6977C13.0931 70.9454 12.9769 71.2278 12.9007 71.5312C12.8207 71.8465 12.7803 72.1775 12.7809 72.5107C12.7809 72.8387 12.8214 73.1644 12.9007 73.4745C12.9766 73.7778 13.0929 74.06 13.2438 74.3071C13.4 74.5614 13.5968 74.7649 13.8194 74.9024C14.042 75.0399 14.2847 75.1079 14.5295 75.1013C14.8189 75.1091 15.106 75.0286 15.3692 74.8659C15.6064 74.7177 15.8156 74.4988 15.9809 74.2255L16.6083 75.121Z" fill="#12303F"/>
<path d="M17.6191 65.8196H18.6362V69.9996C18.7148 69.8603 18.7986 69.7268 18.8874 69.5993C18.9961 69.4447 19.119 69.3097 19.2532 69.1975C19.4105 69.0664 19.5795 68.9628 19.7562 68.889C19.9673 68.8031 20.1869 68.7615 20.4074 68.7658C20.6937 68.7349 20.9815 68.7925 21.2488 68.9342C21.5161 69.0759 21.756 69.2979 21.9502 69.5836C22.3075 70.22 22.4858 71.0072 22.4531 71.8046V76.1077H21.4245V71.9121C21.4574 71.3847 21.3434 70.8597 21.1046 70.4398C20.988 70.2785 20.8471 70.1529 20.6914 70.0717C20.5356 69.9904 20.3688 69.9553 20.2022 69.9689C19.9586 69.9525 19.7164 70.0264 19.5018 70.1828C19.2873 70.3392 19.1085 70.572 18.9851 70.8557C18.8625 71.1322 18.7754 71.4348 18.7275 71.7504C18.6742 72.0876 18.6476 72.4315 18.6478 72.7762V76.1077H17.6191V65.8196Z" fill="#12303F"/>
<path d="M23.8086 66.0969H24.9628V67.6533H23.8086V66.0969ZM23.8772 68.9348H24.9053V76.1072H23.8772V68.9348Z" fill="#12303F"/>
<path d="M26.8273 70.092H25.8672V68.9353H26.8273V66.5911H27.8536V68.9353H29.408V70.092H27.8536V73.6237C27.823 74.0384 27.8932 74.4552 28.0536 74.8112C28.1234 74.9198 28.2106 75.0056 28.3087 75.0618C28.4068 75.118 28.5131 75.1432 28.6194 75.1353C28.788 75.143 28.9557 75.1006 29.1108 75.0112C29.254 74.9166 29.3851 74.7919 29.4993 74.6416L29.9679 75.49C29.7745 75.7639 29.5397 75.9786 29.2795 76.1195C29.0193 76.2604 28.7396 76.3244 28.4596 76.3069C28.232 76.3337 28.0029 76.2922 27.7886 76.1855C27.5743 76.0789 27.3801 75.9098 27.2198 75.6902C26.9235 75.1309 26.7837 74.4479 26.8255 73.7626L26.8273 70.092Z" fill="#12303F"/>
<path d="M35.2591 75.0582C35.173 75.1837 35.0813 75.3022 34.9846 75.4129C34.84 75.5778 34.6809 75.7177 34.5107 75.8296C34.2915 75.9764 34.0618 76.0927 33.8252 76.1766C33.5323 76.2796 33.2305 76.3289 32.9279 76.3233C32.541 76.3294 32.1568 76.2351 31.7963 76.0455C31.4651 75.871 31.1653 75.6034 30.9165 75.2606C30.6679 74.911 30.4753 74.4962 30.3507 74.0418C30.2137 73.5394 30.1459 73.0075 30.1506 72.4722C30.148 71.9693 30.2138 71.47 30.3449 70.9991C30.5312 70.3246 30.8672 69.744 31.3069 69.3367C31.7468 68.9294 32.2689 68.7151 32.8023 68.7232C33.2103 68.7081 33.6147 68.83 33.9792 69.078C34.2977 69.3044 34.5735 69.6267 34.7852 70.0197C34.9994 70.4246 35.1562 70.8797 35.2475 71.3617C35.3475 71.874 35.3975 72.4016 35.3963 72.9313H31.2026C31.2072 73.2361 31.2597 73.5359 31.3567 73.8111C31.4496 74.0738 31.5795 74.3095 31.7393 74.5049C31.9007 74.7014 32.0865 74.8579 32.2883 74.9672C32.495 75.0811 32.7162 75.139 32.9395 75.1374C33.322 75.1569 33.7023 75.0511 34.0478 74.829C34.2813 74.6782 34.4939 74.4746 34.6764 74.227L35.2591 75.0582ZM34.3334 71.897C34.3122 71.3711 34.159 70.8706 33.899 70.478C33.7589 70.2781 33.5883 70.1221 33.3988 70.0208C33.2093 69.9195 33.0057 69.8755 32.8023 69.8918C32.5769 69.8869 32.3533 69.9446 32.1452 70.0613C31.9598 70.1663 31.7911 70.3181 31.648 70.5086C31.5116 70.6918 31.403 70.909 31.3282 71.1482C31.2522 71.3851 31.2096 71.639 31.2026 71.897H34.3334Z" fill="#12303F"/>
<path d="M41.1553 75.121C40.9116 75.4886 40.6147 75.7851 40.283 75.9921C39.9045 76.2224 39.4927 76.3358 39.0776 76.3241C38.6807 76.3317 38.2867 76.2347 37.9175 76.0384C37.5866 75.8654 37.2871 75.5981 37.0396 75.2548C36.7922 74.9114 36.6025 74.5001 36.4835 74.0489C36.3509 73.5575 36.2851 73.0376 36.2892 72.5146C36.2869 72.0078 36.3566 71.5051 36.4946 71.0337C36.6258 70.5822 36.8221 70.1704 37.0723 69.8223C37.3225 69.4741 37.6214 69.1966 37.9517 69.0057C38.3195 68.803 38.7134 68.7005 39.1106 68.7045C39.5079 68.7083 39.9006 68.8185 40.2661 69.0285C40.6011 69.2368 40.9006 69.536 41.1459 69.9075L40.472 70.7872C40.3143 70.5222 40.1159 70.3064 39.8905 70.1547C39.6366 69.9909 39.3577 69.9103 39.0764 69.9193C38.8222 69.9138 38.5703 69.9848 38.3391 70.1272C38.1275 70.2607 37.9402 70.4555 37.7907 70.6977C37.6401 70.9454 37.5238 71.2278 37.4476 71.5312C37.3676 71.8465 37.3271 72.1775 37.3278 72.5107C37.3278 72.8387 37.3683 73.1644 37.4476 73.4745C37.5235 73.7778 37.6398 74.06 37.7907 74.3071C37.947 74.5614 38.1437 74.7649 38.3663 74.9024C38.5889 75.0399 38.8316 75.1079 39.0764 75.1013C39.3658 75.1091 39.6529 75.0286 39.9161 74.8659C40.1533 74.7177 40.3624 74.4988 40.5278 74.2255L41.1553 75.121Z" fill="#12303F"/>
<path d="M42.6319 70.092H41.6719V68.9353H42.6319V66.5911H43.6606V68.9353H45.2144V70.092H43.6606V73.6237C43.6298 74.0383 43.6998 74.4551 43.86 74.8112C43.9298 74.9198 44.017 75.0056 44.1151 75.0618C44.2132 75.118 44.3195 75.1432 44.4259 75.1353C44.5944 75.143 44.7622 75.1006 44.9172 75.0112C45.0604 74.9166 45.1915 74.7919 45.3057 74.6416L45.7743 75.49C45.5809 75.7639 45.3461 75.9786 45.0859 76.1195C44.8257 76.2604 44.5461 76.3244 44.266 76.3069C44.0384 76.3337 43.8093 76.2922 43.595 76.1855C43.3807 76.0789 43.1865 75.9098 43.0262 75.6902C42.7299 75.1309 42.5902 74.4479 42.6319 73.7626V70.092Z" fill="#12303F"/>
<path d="M46.4135 68.9351H47.4415V73.1472C47.4066 73.6727 47.5166 74.1972 47.7503 74.6202C47.8661 74.7779 48.0056 74.9001 48.1593 74.9787C48.3131 75.0573 48.4777 75.0902 48.6418 75.0755C48.8997 75.0888 49.1551 75.0035 49.3785 74.8291C49.5707 74.6669 49.733 74.448 49.853 74.1886C49.9783 73.914 50.0654 73.6108 50.11 73.294C50.1598 72.9562 50.1847 72.6125 50.1844 72.2682V68.9366H51.2131V75.6695C51.2131 75.8186 51.2166 75.9654 51.2242 76.1091H50.2403L50.206 75.0448C50.1273 75.1841 50.0434 75.318 49.9548 75.4459C49.8467 75.5987 49.7237 75.7308 49.589 75.8383C49.4306 75.9648 49.2618 76.0656 49.086 76.1389C48.8749 76.2252 48.6553 76.2668 48.4347 76.2621C48.1506 76.2941 47.8649 76.2378 47.5994 76.0974C47.334 75.9569 47.096 75.7362 46.9036 75.4521C46.5527 74.8149 46.3788 74.0316 46.4123 73.239L46.4135 68.9351Z" fill="#12303F"/>
<path d="M52.6406 76.1066V69.3792C52.6406 69.2867 52.6365 69.1376 52.6289 68.932H53.6116L53.6459 70.0887C53.7189 69.9452 53.7992 69.8085 53.8861 69.6799C53.9923 69.5231 54.1133 69.3859 54.246 69.2718C54.3998 69.1406 54.5648 69.0352 54.7374 68.9578C54.9459 68.866 55.1642 68.8217 55.3835 68.8268C55.4886 68.8259 55.5935 68.8361 55.6975 68.8574C55.7889 68.8771 55.8789 68.9081 55.9662 68.95L55.7376 70.2458C55.4582 70.1105 55.1555 70.0888 54.867 70.1834C54.5786 70.278 54.317 70.4846 54.1146 70.7778C53.9754 70.983 53.8651 71.2208 53.789 71.4794C53.7089 71.7492 53.6683 72.0372 53.6692 72.3278V76.1066H52.6406Z" fill="#12303F"/>
<path d="M61.364 75.0574C61.2778 75.1829 61.1862 75.3014 61.0896 75.4121C60.9449 75.5769 60.7858 75.7169 60.6156 75.8289C60.3965 75.9757 60.1667 76.0919 59.93 76.1757C59.6372 76.2788 59.3354 76.3281 59.0328 76.3225C58.6459 76.3284 58.2617 76.2342 57.9012 76.0446C57.57 75.8701 57.2701 75.6026 57.0214 75.2598C56.7728 74.9103 56.5802 74.4954 56.4555 74.0411C56.3188 73.5386 56.2512 73.0066 56.2561 72.4715C56.2532 71.9685 56.319 71.469 56.4504 70.9983C56.5722 70.5569 56.7587 70.153 56.9987 69.8109C57.2372 69.4743 57.5226 69.2044 57.8384 69.0167C58.1752 68.8176 58.5395 68.7175 58.9072 68.7232C59.3152 68.7081 59.7196 68.83 60.0841 69.078C60.4026 69.3044 60.6784 69.6266 60.8901 70.0197C61.1043 70.4246 61.261 70.8797 61.3524 71.3617C61.4524 71.874 61.5024 72.4016 61.5012 72.9313H57.3074C57.3121 73.236 57.3646 73.5359 57.4616 73.8111C57.5545 74.0738 57.6844 74.3094 57.8442 74.5049C58.0056 74.7014 58.1914 74.8579 58.3931 74.9672C58.5998 75.0811 58.8211 75.139 59.0444 75.1374C59.4269 75.157 59.8071 75.0511 60.1527 74.829C60.3862 74.6782 60.5988 74.4746 60.7813 74.227L61.364 75.0574ZM60.4383 71.8961C60.4171 71.3704 60.2639 70.8699 60.0039 70.4773C59.8639 70.2774 59.6931 70.1213 59.5037 70.02C59.3142 69.9187 59.1106 69.8747 58.9072 69.891C58.6818 69.8861 58.4582 69.9437 58.2501 70.0605C58.0647 70.1655 57.896 70.3174 57.7529 70.5078C57.6165 70.691 57.5079 70.9083 57.4331 71.1474C57.3574 71.3845 57.3149 71.6383 57.3074 71.8961H60.4383Z" fill="#12303F"/>
<path d="M68.0334 75.2454C67.8341 75.6073 67.5625 75.8854 67.2506 76.0475C66.9334 76.2208 66.5936 76.3098 66.2513 76.3096C66.0294 76.3096 65.8086 76.2707 65.5941 76.1943C65.3793 76.1189 65.1772 75.988 64.9992 75.8089C64.8174 75.625 64.669 75.3874 64.5654 75.1143C64.4481 74.7909 64.3913 74.4337 64.3997 74.0737C64.3897 73.7241 64.4383 73.3758 64.5422 73.0552C64.646 72.7346 64.8023 72.4499 64.9992 72.2223C65.4962 71.7182 66.1107 71.472 66.7307 71.5286C66.8526 71.5286 66.9817 71.5338 67.1195 71.5443L67.5076 71.5749C67.6301 71.5854 67.7367 71.5955 67.8275 71.6055C67.9195 71.6157 67.9838 71.6267 68.0222 71.6361V71.374C68.0374 71.1572 68.0129 70.9388 67.95 70.7383C67.8871 70.5377 67.7884 70.3614 67.6625 70.225C67.3711 69.9748 67.0294 69.8535 66.685 69.8781C66.3568 69.8593 66.0294 69.9356 65.7249 70.1018C65.5172 70.2289 65.3185 70.3813 65.1312 70.5569L64.6509 69.6152C64.7551 69.5004 64.8659 69.3973 64.9824 69.3067C65.1283 69.1938 65.2813 69.0983 65.4395 69.0211C65.6328 68.9272 65.8316 68.855 66.0338 68.8053C66.2865 68.7452 66.5426 68.7167 66.7996 68.7205C67.3811 68.6754 67.9546 68.9135 68.4169 69.3916C68.6156 69.6279 68.7719 69.9222 68.8739 70.2523C68.9759 70.5822 69.0209 70.9393 69.005 71.2962V75.7462C69.005 75.8442 69.009 75.9651 69.0163 76.1087H68.0566L68.0334 75.2454ZM68.0222 72.716C67.9917 72.7058 67.9321 72.6932 67.848 72.6775C67.7639 72.6618 67.6599 72.6493 67.5453 72.639L67.1791 72.6085C67.0493 72.5981 66.9241 72.5928 66.8022 72.5928C66.5638 72.5821 66.3258 72.6292 66.0995 72.7317C65.9421 72.8061 65.798 72.9243 65.6767 73.0786C65.5788 73.2068 65.506 73.366 65.465 73.5417C65.4281 73.6989 65.4085 73.8626 65.4069 74.0274C65.3989 74.1968 65.4219 74.3662 65.4736 74.5207C65.5254 74.6753 65.6046 74.8104 65.704 74.9143C65.9469 75.1321 66.2357 75.2375 66.5267 75.2149C66.7201 75.216 66.9122 75.1689 67.0923 75.0759C67.2652 74.9888 67.4254 74.8636 67.5672 74.7054C67.7016 74.5554 67.8135 74.3725 67.8983 74.1663C67.9791 73.9735 68.0228 73.7557 68.0242 73.5338L68.0222 72.716Z" fill="#12303F"/>
<path d="M70.4123 76.108V69.3909C70.4123 69.2936 70.4077 69.1412 70.4004 68.9356H71.3832L71.4177 70.0156C71.4859 69.8926 71.57 69.7563 71.6687 69.6067C71.7766 69.4488 71.8992 69.3112 72.0343 69.1978C72.1932 69.0659 72.3648 68.9622 72.5429 68.8894C72.7562 68.8039 72.9781 68.7624 73.2006 68.7661C73.4867 68.7353 73.7741 68.7929 74.0417 68.9346C74.3093 69.0763 74.549 69.2984 74.7431 69.5839C75.1007 70.2204 75.2789 71.0075 75.2458 71.805V76.108H74.2172V71.9124C74.2503 71.3851 74.1364 70.8601 73.8973 70.4402C73.7808 70.2787 73.6397 70.1531 73.484 70.0718C73.3284 69.9906 73.1615 69.9556 72.9946 69.9693C72.735 69.9565 72.4774 70.0418 72.2522 70.2157C72.0581 70.3746 71.8952 70.5944 71.7773 70.8561C71.6554 71.1328 71.568 71.4352 71.5203 71.7508C71.4667 72.0878 71.4395 72.4317 71.4402 72.7765V76.108H70.4123Z" fill="#12303F"/>
<path d="M80.4547 75.1973C80.4163 75.2596 80.3534 75.3548 80.2666 75.483C80.1626 75.6287 80.0454 75.7555 79.9176 75.8604C79.7573 75.9936 79.5864 76.1023 79.4089 76.1846C79.1897 76.2824 78.9599 76.3294 78.7287 76.3235C78.4062 76.3268 78.087 76.2375 77.7916 76.0614C77.5041 75.8891 77.2465 75.637 77.0359 75.3214C76.8134 74.9823 76.6445 74.5861 76.5385 74.1567C76.4167 73.6618 76.3577 73.1429 76.3643 72.6216C76.3524 72.0189 76.4418 71.4204 76.6266 70.8714C76.7856 70.4124 77.0134 70.0028 77.2949 69.6683C77.5525 69.3646 77.8519 69.1314 78.1751 68.9816C78.4638 68.8445 78.7665 68.7715 79.0718 68.7658C79.3248 68.7597 79.5765 68.8012 79.8209 68.889C80.0394 68.9762 80.2514 69.0899 80.4547 69.2289V65.8196H81.4832V75.6682C81.4832 75.8173 81.4872 75.9641 81.4952 76.1077H80.4891L80.4547 75.1973ZM80.4547 70.5246C80.2984 70.3553 80.1215 70.2245 79.9315 70.1384C79.6811 70.027 79.4182 69.9739 79.1546 69.9815C78.9168 69.9776 78.6817 70.0404 78.4632 70.1659C78.2552 70.2881 78.0684 70.4668 77.9141 70.691C77.7519 70.9319 77.6273 71.2153 77.5492 71.5236C77.4578 71.8807 77.4134 72.2565 77.4174 72.6341C77.4161 72.9594 77.4472 73.2835 77.5088 73.5978C77.5638 73.8842 77.6585 74.1538 77.7889 74.3921C77.9148 74.6191 78.0797 74.8017 78.2691 74.9242C78.4857 75.0594 78.7221 75.1255 78.9605 75.1172C79.1976 75.1262 79.4328 75.0572 79.646 74.9164C79.8255 74.7961 79.9845 74.6254 80.111 74.4156C80.2282 74.2181 80.3169 73.9933 80.3739 73.7525C80.4275 73.5361 80.4567 73.3097 80.4593 73.0815L80.4547 70.5246Z" fill="#12303F"/>
<path d="M85.1419 65.8199H87.6885C88.2508 65.8127 88.8111 65.9142 89.3515 66.1214C89.833 66.3037 90.2794 66.6251 90.6602 67.0631C91.0337 67.5042 91.3272 68.0556 91.5172 68.6743C91.7351 69.4094 91.8398 70.1966 91.8252 70.9879C91.8384 71.7617 91.7331 72.5307 91.5172 73.2474C91.3258 73.8633 91.0324 74.412 90.6602 74.8515C90.2774 75.2908 89.829 75.6144 89.3462 75.8004C88.8038 76.012 88.2415 76.1159 87.6772 76.1089H85.1406L85.1419 65.8199ZM87.656 74.7817C88.4587 74.8485 89.2508 74.5103 89.8794 73.8329C90.1555 73.4705 90.3701 73.0308 90.5072 72.5446C90.645 72.0584 90.7013 71.5375 90.6735 71.0186C90.7 70.4937 90.6456 69.9671 90.5138 69.4719C90.3821 68.9767 90.1754 68.5237 89.9078 68.1414C89.2714 67.4192 88.4508 67.0622 87.6216 67.1471H86.2387V74.7817H87.656Z" fill="#12303F"/>
<path d="M97.9425 75.0582C97.8564 75.1836 97.765 75.302 97.6683 75.4129C97.5239 75.5776 97.3643 75.7175 97.1941 75.8296C96.9749 75.9765 96.7451 76.0927 96.5086 76.1766C96.2159 76.2796 95.9139 76.3289 95.6112 76.3233C95.2244 76.3293 94.8403 76.2349 94.4794 76.0455C94.1482 75.871 93.8488 75.6034 93.5998 75.2606C93.3515 74.9108 93.1587 74.496 93.0342 74.0418C92.8971 73.5394 92.8296 73.0075 92.8342 72.4722C92.8316 71.9692 92.8971 71.4699 93.0289 70.9991C93.215 70.3246 93.5508 69.744 93.9906 69.3366C94.4303 68.9293 94.9522 68.7151 95.4854 68.7232C95.8934 68.7081 96.298 68.83 96.6623 69.078C96.9809 69.3044 97.257 69.6267 97.4683 70.0197C97.6829 70.4246 97.8392 70.8797 97.9306 71.3617C98.0306 71.874 98.0809 72.4016 98.0796 72.9313H93.8859C93.8906 73.236 93.9436 73.5357 94.0403 73.8111C94.133 74.0738 94.2628 74.3095 94.4224 74.5049C94.584 74.7014 94.7701 74.8579 94.9714 74.9672C95.1781 75.0811 95.3993 75.139 95.6225 75.1374C96.0053 75.157 96.3854 75.0511 96.7312 74.829C96.9643 74.6782 97.1769 74.4746 97.3597 74.227L97.9425 75.0582ZM97.0166 71.897C96.9954 71.3713 96.8424 70.8709 96.5828 70.478C96.4431 70.278 96.2722 70.1219 96.0821 70.0206C95.8927 69.9194 95.6894 69.8754 95.4854 69.8918C95.2602 69.8869 95.0363 69.9446 94.8284 70.0613C94.6429 70.1663 94.4747 70.3181 94.331 70.5086C94.1952 70.692 94.0866 70.9092 94.0118 71.1482C93.9363 71.3854 93.8932 71.6391 93.8859 71.897H97.0166Z" fill="#12303F"/>
<path d="M99.5654 74.3022C99.7621 74.5657 99.9946 74.7751 100.251 74.9191C100.544 75.0819 100.859 75.1621 101.177 75.1545C101.471 75.168 101.764 75.0915 102.034 74.9308C102.137 74.875 102.225 74.7779 102.286 74.6525C102.348 74.5271 102.379 74.3794 102.376 74.2292C102.38 74.0815 102.354 73.9354 102.301 73.8054C102.24 73.6726 102.153 73.5642 102.05 73.4914C101.902 73.3821 101.745 73.2967 101.581 73.2372C101.388 73.1598 101.146 73.0747 100.856 72.9821C100.648 72.9198 100.444 72.8374 100.245 72.7357C100.05 72.6377 99.8668 72.4998 99.7025 72.3268C99.5429 72.1589 99.4111 71.9489 99.3131 71.7099C99.2098 71.4414 99.1588 71.1415 99.1654 70.8388C99.1588 70.5168 99.219 70.1987 99.3396 69.9206C99.4595 69.6554 99.6217 69.4291 99.8131 69.2574C100.018 69.0733 100.244 68.9352 100.482 68.8485C100.733 68.7552 100.993 68.7085 101.253 68.7096C101.647 68.6967 102.04 68.7763 102.413 68.945C102.726 69.0952 103.014 69.3228 103.264 69.6161L102.705 70.572C102.527 70.3624 102.324 70.1957 102.105 70.0791C101.837 69.9386 101.552 69.8704 101.265 69.8782C100.993 69.8623 100.722 69.9364 100.476 70.094C100.381 70.1602 100.303 70.2622 100.25 70.3876C100.197 70.5131 100.173 70.6565 100.179 70.8004C100.182 70.9566 100.222 71.1075 100.293 71.2311C100.363 71.3546 100.462 71.4443 100.573 71.4871C100.909 71.6663 101.255 71.8082 101.607 71.9109C101.846 71.9876 102.08 72.083 102.311 72.1965C102.515 72.2952 102.708 72.4355 102.882 72.6124C103.044 72.7808 103.177 72.9952 103.27 73.2403C103.371 73.5186 103.42 73.8255 103.413 74.135C103.419 74.4681 103.355 74.7966 103.231 75.0839C103.107 75.3592 102.939 75.5937 102.739 75.7698C102.522 75.9616 102.282 76.1025 102.03 76.1865C101.758 76.2801 101.477 76.3268 101.196 76.3254C100.783 76.3681 100.368 76.2926 99.978 76.104C99.5886 75.9153 99.2323 75.6177 98.9336 75.2306L99.5654 74.3022Z" fill="#12303F"/>
<path d="M104.592 66.0969H105.746V67.6533H104.592V66.0969ZM104.661 68.9348H105.689V76.1072H104.661V68.9348Z" fill="#12303F"/>
<path d="M107.861 77.5734C108.061 77.7538 108.278 77.8965 108.507 77.9972C108.808 78.1246 109.121 78.1845 109.437 78.1745C109.647 78.1967 109.857 78.1572 110.055 78.0587C110.252 77.9602 110.431 77.805 110.58 77.604C110.841 77.1876 110.976 76.6532 110.957 76.1081V75.2292C110.904 75.2904 110.833 75.3752 110.745 75.4835C110.645 75.6038 110.533 75.7074 110.414 75.7919C110.263 75.8996 110.104 75.9874 109.94 76.054C109.736 76.1349 109.524 76.1738 109.312 76.1693C108.957 76.1786 108.604 76.0865 108.277 75.8994C107.987 75.7304 107.728 75.4778 107.517 75.1594C107.305 74.8315 107.146 74.4481 107.049 74.0332C106.939 73.5725 106.886 73.0909 106.889 72.6072C106.885 72.081 106.958 71.5591 107.106 71.0721C107.246 70.614 107.454 70.1994 107.717 69.854C107.988 69.5029 108.309 69.23 108.66 69.0519C109.051 68.8555 109.465 68.7587 109.881 68.7663C110.288 68.7636 110.694 68.8162 111.092 68.9232C111.4 69.0009 111.702 69.1143 111.995 69.2623V76.1105C112.015 76.5535 111.966 76.9973 111.851 77.413C111.736 77.8287 111.557 78.2072 111.327 78.5238C110.808 79.1304 110.133 79.4379 109.447 79.3801C109.01 79.4014 108.573 79.3217 108.155 79.1446C107.878 79.0146 107.616 78.8294 107.378 78.5952L107.861 77.5734ZM110.97 70.2009C110.901 70.1695 110.785 70.1225 110.621 70.0698C110.378 70.0033 110.131 69.9748 109.884 69.9851C109.615 69.9802 109.347 70.0455 109.096 70.1774C108.866 70.2985 108.658 70.4823 108.484 70.7174C108.31 70.9523 108.174 71.2334 108.084 71.5429C107.986 71.8767 107.938 72.2328 107.941 72.5915C107.94 72.9036 107.968 73.2146 108.027 73.5167C108.079 73.7915 108.172 74.0488 108.302 74.2725C108.428 74.4894 108.59 74.6637 108.775 74.7819C108.995 74.913 109.233 74.976 109.473 74.9663C109.7 74.9714 109.924 74.9181 110.136 74.8093C110.312 74.719 110.471 74.5797 110.604 74.4004C110.724 74.2369 110.816 74.0429 110.879 73.8299C110.939 73.6212 110.971 73.3988 110.971 73.1746L110.97 70.2009Z" fill="#12303F"/>
<path d="M113.404 76.108V69.3909C113.404 69.2936 113.401 69.1412 113.393 68.9356H114.375L114.41 70.0156C114.478 69.8926 114.562 69.7563 114.661 69.6067C114.768 69.4485 114.891 69.3109 115.026 69.1978C115.185 69.0659 115.357 68.9622 115.536 68.8894C115.748 68.8038 115.97 68.7623 116.193 68.7661C116.479 68.7353 116.766 68.7929 117.034 68.9346C117.301 69.0763 117.541 69.2984 117.735 69.5839C118.092 70.2207 118.27 71.0077 118.238 71.805V76.108H117.209V71.9124C117.243 71.385 117.128 70.86 116.89 70.4402C116.773 70.2788 116.632 70.1533 116.476 70.072C116.32 69.9908 116.153 69.9557 115.987 69.9693C115.727 69.9565 115.47 70.0418 115.244 70.2157C115.05 70.3746 114.887 70.5944 114.769 70.8561C114.647 71.1327 114.56 71.4351 114.513 71.7508C114.459 72.0878 114.432 72.4317 114.432 72.7765V76.108H113.404Z" fill="#12303F"/>
<path d="M128.327 74.3038C128.216 74.5343 128.086 74.7465 127.938 74.9364C127.745 75.1925 127.53 75.4177 127.299 75.6073C127.026 75.8314 126.734 76.01 126.43 76.1395C126.079 76.288 125.712 76.3609 125.344 76.3553C124.816 76.3646 124.29 76.2282 123.802 75.9543C123.349 75.6982 122.94 75.3176 122.602 74.8367C122.261 74.3461 121.995 73.7695 121.819 73.14C121.446 71.7681 121.446 70.2621 121.819 68.8902C121.996 68.2528 122.262 67.6669 122.602 67.1636C122.94 66.6673 123.351 66.271 123.808 65.9998C124.299 65.7101 124.832 65.5654 125.368 65.5752C126.046 65.5595 126.713 65.8027 127.293 66.2768C127.518 66.461 127.724 66.681 127.91 66.9321C128.064 67.1406 128.204 67.3679 128.327 67.6109L127.55 68.5056C127.449 68.3146 127.34 68.1312 127.224 67.9563C127.091 67.7581 126.94 67.5845 126.773 67.4399C126.585 67.2769 126.381 67.1474 126.167 67.0545C125.912 66.9455 125.646 66.8924 125.379 66.8976C125.004 66.8867 124.633 66.9892 124.292 67.1973C123.951 67.4055 123.649 67.7142 123.408 68.1007C123.17 68.4825 122.99 68.9224 122.876 69.3964C122.753 69.9042 122.691 70.4356 122.694 70.9699C122.691 71.5021 122.755 72.0312 122.882 72.5348C122.998 73.0006 123.178 73.4326 123.414 73.8078C123.643 74.1686 123.927 74.4578 124.248 74.6554C124.592 74.8663 124.967 74.9716 125.344 74.9639C125.645 74.9726 125.944 74.913 126.23 74.7873C126.453 74.6856 126.665 74.5427 126.859 74.3627C127.014 74.2181 127.156 74.0499 127.281 73.8612C127.392 73.6917 127.485 73.5505 127.562 73.4374L128.327 74.3038Z" fill="#12303F"/>
<path d="M131.767 76.3243C131.378 76.3303 130.993 76.228 130.635 76.0238C130.302 75.8317 130.001 75.551 129.75 75.1981C129.501 74.847 129.304 74.4363 129.168 73.9872C128.887 73.0421 128.887 71.9869 129.168 71.0418C129.305 70.5928 129.501 70.1822 129.75 69.8308C130.001 69.4782 130.302 69.1977 130.635 69.006C130.993 68.8012 131.378 68.6985 131.767 68.7046C132.151 68.6995 132.533 68.8021 132.887 69.006C133.221 69.1986 133.524 69.479 133.778 69.8308C134.029 70.1807 134.229 70.5915 134.367 71.0418C134.58 71.737 134.637 72.5012 134.533 73.2402C134.428 73.9792 134.166 74.6609 133.778 75.2013C133.524 75.5534 133.221 75.834 132.887 76.0269C132.533 76.2291 132.151 76.3303 131.767 76.3243ZM131.767 75.1212C132.024 75.1264 132.278 75.0498 132.509 74.8975C132.723 74.7555 132.914 74.556 133.069 74.3113C133.223 74.0659 133.342 73.7834 133.418 73.4786C133.498 73.1686 133.538 72.8429 133.538 72.5148C133.537 72.1918 133.497 71.8712 133.418 71.5661C133.34 71.2584 133.22 70.9732 133.064 70.7255C132.908 70.4797 132.718 70.2778 132.504 70.1314C132.275 69.979 132.022 69.9024 131.767 69.9077C131.509 69.9028 131.255 69.9795 131.024 70.1314C130.81 70.274 130.619 70.4734 130.464 70.7176C130.309 70.9632 130.191 71.2457 130.115 71.5504C130.035 71.8607 129.995 72.1866 129.995 72.5148C129.995 72.8404 130.035 73.1635 130.115 73.4707C130.193 73.7757 130.313 74.058 130.469 74.3035C130.625 74.5497 130.815 74.7516 131.029 74.8975C131.258 75.0504 131.511 75.1271 131.767 75.1212Z" fill="#12303F"/>
<path d="M135.744 76.1072V69.39C135.744 69.2927 135.74 69.1404 135.732 68.9347H136.715L136.749 70.0147C136.822 69.871 136.903 69.7345 136.989 69.6058C137.094 69.4502 137.213 69.3129 137.343 69.1969C137.494 69.065 137.658 68.9612 137.829 68.8885C138.039 68.8021 138.256 68.7605 138.475 68.7652C138.832 68.747 139.186 68.8619 139.498 69.0972C139.774 69.328 139.995 69.663 140.132 70.0609C140.357 69.7076 140.622 69.4032 140.915 69.1584C141.263 68.8827 141.661 68.7466 142.063 68.7661C142.347 68.7352 142.632 68.7938 142.896 68.9371C143.159 69.0804 143.395 69.3045 143.583 69.5917C143.932 70.2306 144.105 71.0127 144.075 71.8048V76.1079H143.047V71.9123C143.079 71.391 142.976 70.871 142.756 70.44C142.65 70.2792 142.518 70.1532 142.371 70.0716C142.223 69.9899 142.064 69.955 141.905 69.9692C141.701 69.9661 141.499 70.0268 141.316 70.1465C141.14 70.2631 140.982 70.4228 140.851 70.6174C140.716 70.817 140.611 71.0503 140.542 71.3041C140.469 71.5682 140.433 71.8475 140.433 72.1289V76.1087H139.401V71.9132C139.433 71.3918 139.33 70.8718 139.11 70.4408C139.006 70.281 138.876 70.1556 138.731 70.074C138.585 69.9923 138.427 69.9567 138.27 69.9699C138.021 69.9581 137.775 70.0437 137.562 70.2163C137.372 70.3783 137.213 70.5976 137.096 70.8567C136.974 71.1351 136.888 71.4407 136.844 71.7593C136.795 72.0953 136.771 72.4371 136.771 72.7796V76.1111L135.744 76.1072Z" fill="#12303F"/>
<path d="M145.458 76.1072V69.3901C145.458 69.2928 145.455 69.1404 145.447 68.9348H146.429L146.464 70.0147C146.537 69.871 146.617 69.7343 146.704 69.6058C146.809 69.4503 146.928 69.3129 147.058 69.1969C147.209 69.065 147.373 68.9612 147.544 68.8886C147.753 68.8023 147.971 68.7606 148.189 68.7653C148.546 68.747 148.9 68.8618 149.212 69.0973C149.489 69.3278 149.71 69.663 149.846 70.061C150.072 69.7081 150.336 69.4037 150.629 69.1585C150.977 68.8829 151.375 68.7468 151.778 68.7661C152.061 68.7352 152.346 68.7937 152.61 68.937C152.874 69.0802 153.109 69.3045 153.297 69.5917C153.646 70.2306 153.82 71.0127 153.789 71.8049V76.108H152.758V71.9124C152.79 71.3911 152.687 70.871 152.468 70.4401C152.362 70.2793 152.231 70.1533 152.083 70.0717C151.935 69.99 151.776 69.9551 151.617 69.9692C151.413 69.9661 151.211 70.0269 151.028 70.1466C150.852 70.2628 150.693 70.4225 150.56 70.6175C150.424 70.817 150.32 71.0503 150.252 71.3041C150.179 71.568 150.142 71.8474 150.142 72.129V76.1088H149.114V71.9132C149.146 71.3918 149.043 70.8718 148.823 70.4409C148.719 70.281 148.589 70.1555 148.444 70.0739C148.298 69.9922 148.141 69.9567 147.983 69.97C147.735 69.9583 147.488 70.0439 147.275 70.2164C147.085 70.3785 146.926 70.5978 146.81 70.8568C146.686 71.1352 146.602 71.4408 146.558 71.7594C146.508 72.0953 146.484 72.4371 146.484 72.7796V76.1112L145.458 76.1072Z" fill="#12303F"/>
<path d="M155.148 66.0969H156.305V67.6533H155.151L155.148 66.0969ZM155.217 68.9348H156.247V76.1072H155.219L155.217 68.9348Z" fill="#12303F"/>
<path d="M158.049 74.3022C158.247 74.5653 158.479 74.7748 158.735 74.9191C159.029 75.0819 159.343 75.1621 159.661 75.1545C159.955 75.1681 160.248 75.0916 160.518 74.9308C160.622 74.8751 160.71 74.778 160.771 74.6526C160.832 74.5272 160.863 74.3795 160.861 74.2292C160.864 74.0816 160.838 73.9355 160.786 73.8054C160.725 73.6726 160.638 73.5642 160.535 73.4914C160.387 73.3824 160.229 73.297 160.067 73.2372C159.872 73.1598 159.631 73.0748 159.341 72.9821C159.133 72.9199 158.929 72.8375 158.729 72.7357C158.534 72.6378 158.35 72.4998 158.186 72.3268C158.027 72.1588 157.895 71.949 157.798 71.7099C157.694 71.4416 157.642 71.1416 157.649 70.8388C157.643 70.5169 157.703 70.1988 157.824 69.9206C157.944 69.6556 158.105 69.4294 158.298 69.2575C158.503 69.0734 158.729 68.9353 158.966 68.8486C159.217 68.7552 159.477 68.7085 159.738 68.7096C160.131 68.6966 160.524 68.7763 160.898 68.945C161.21 69.0953 161.499 69.3229 161.749 69.6161L161.189 70.572C161.012 70.3624 160.809 70.1957 160.589 70.0791C160.321 69.9386 160.036 69.8704 159.749 69.8782C159.477 69.8623 159.206 69.9365 158.96 70.0941C158.866 70.1602 158.787 70.2623 158.734 70.3876C158.682 70.5131 158.657 70.6565 158.663 70.8004C158.666 70.9566 158.706 71.1076 158.777 71.2311C158.848 71.3546 158.947 71.4443 159.058 71.4871C159.393 71.6665 159.739 71.8083 160.092 71.9109C160.33 71.9879 160.565 72.0833 160.795 72.1966C161 72.2954 161.192 72.4357 161.366 72.6125C161.528 72.7808 161.661 72.9951 161.755 73.2403C161.855 73.5189 161.904 73.8257 161.898 74.135C161.903 74.468 161.839 74.7964 161.715 75.0839C161.591 75.359 161.424 75.5933 161.224 75.7698C161.006 75.9617 160.767 76.1026 160.515 76.1865C160.242 76.2802 159.962 76.3268 159.68 76.3255C159.267 76.368 158.853 76.2925 158.462 76.1038C158.073 75.9152 157.717 75.6177 157.418 75.2307L158.049 74.3022Z" fill="#12303F"/>
<path d="M163.445 74.3022C163.642 74.5657 163.875 74.7752 164.13 74.9191C164.424 75.0819 164.739 75.1621 165.056 75.1545C165.351 75.1681 165.644 75.0916 165.913 74.9308C166.017 74.8751 166.105 74.778 166.166 74.6526C166.228 74.5271 166.259 74.3794 166.256 74.2292C166.259 74.0816 166.234 73.9356 166.182 73.8054C166.12 73.6727 166.033 73.5644 165.931 73.4915C165.783 73.3825 165.627 73.2972 165.465 73.2372C165.271 73.1587 165.028 73.0748 164.74 72.9822C164.532 72.92 164.327 72.8376 164.128 72.7357C163.932 72.6378 163.75 72.4998 163.585 72.3268C163.426 72.1588 163.294 71.949 163.197 71.71C163.093 71.4416 163.042 71.1416 163.048 70.8389C163.042 70.5168 163.102 70.1987 163.222 69.9206C163.342 69.6554 163.505 69.4291 163.697 69.2575C163.901 69.0734 164.127 68.9353 164.365 68.8486C164.616 68.7553 164.875 68.7086 165.136 68.7096C165.53 68.6966 165.923 68.7763 166.296 68.9451C166.609 69.0952 166.897 69.3228 167.147 69.6161L166.588 70.572C166.41 70.3626 166.207 70.1959 165.988 70.0792C165.721 69.9387 165.435 69.8705 165.148 69.8782C164.875 69.8623 164.605 69.9365 164.359 70.0941C164.264 70.1602 164.185 70.2623 164.133 70.3876C164.08 70.5131 164.056 70.6565 164.062 70.8004C164.065 70.9566 164.105 71.1076 164.175 71.2311C164.246 71.3546 164.345 71.4443 164.456 71.4871C164.792 71.6665 165.138 71.8083 165.491 71.9109C165.729 71.9877 165.964 72.0831 166.193 72.1966C166.398 72.2953 166.591 72.4355 166.765 72.6126C166.927 72.7806 167.06 72.995 167.153 73.2403C167.254 73.5186 167.303 73.8256 167.296 74.135C167.301 74.468 167.239 74.7964 167.114 75.0839C166.99 75.3592 166.821 75.5936 166.622 75.7698C166.405 75.9617 166.166 76.1027 165.913 76.1865C165.641 76.2802 165.36 76.3268 165.079 76.3255C164.666 76.368 164.251 76.2925 163.862 76.1038C163.471 75.9152 163.115 75.6177 162.816 75.2307L163.445 74.3022Z" fill="#12303F"/>
<path d="M168.473 66.0969H169.627V67.6533H168.473V66.0969ZM168.542 68.9348H169.569V76.1072H168.542V68.9348Z" fill="#12303F"/>
<path d="M173.594 76.3244C173.205 76.3304 172.819 76.2281 172.462 76.0238C172.129 75.8317 171.827 75.551 171.576 75.1981C171.328 74.8471 171.131 74.4363 170.995 73.9872C170.713 73.0423 170.713 71.9867 170.995 71.0418C171.131 70.5928 171.329 70.1822 171.576 69.8308C171.827 69.4783 172.129 69.1977 172.462 69.006C172.819 68.8011 173.205 68.6984 173.594 68.7046C173.968 68.6991 174.339 68.796 174.684 68.9896C175.03 69.1832 175.343 69.4694 175.605 69.8308C175.856 70.1807 176.055 70.5915 176.193 71.0418C176.406 71.7371 176.464 72.5012 176.36 73.2402C176.255 73.9792 175.993 74.6609 175.605 75.2013C175.351 75.553 175.048 75.8336 174.714 76.0269C174.359 76.2291 173.978 76.3304 173.594 76.3244ZM173.594 75.1212C173.851 75.1264 174.105 75.0498 174.336 74.8975C174.55 74.7555 174.741 74.5561 174.896 74.3113C175.05 74.0659 175.169 73.7834 175.245 73.4787C175.324 73.1686 175.365 72.8429 175.365 72.5149C175.364 72.1918 175.324 71.8712 175.245 71.5661C175.167 71.2582 175.047 70.973 174.89 70.7255C174.735 70.4794 174.544 70.2775 174.33 70.1314C174.102 69.979 173.849 69.9023 173.594 69.9077C173.336 69.9029 173.082 69.9795 172.851 70.1314C172.637 70.274 172.446 70.4734 172.29 70.7177C172.137 70.9632 172.018 71.2457 171.941 71.5504C171.862 71.8607 171.822 72.1867 171.822 72.5149C171.821 72.8404 171.862 73.1636 171.941 73.4707C172.02 73.7758 172.14 74.0582 172.296 74.3035C172.451 74.5497 172.641 74.7517 172.856 74.8975C173.085 75.0504 173.338 75.1271 173.594 75.1212Z" fill="#12303F"/>
<path d="M177.57 76.108V69.3909C177.57 69.2936 177.566 69.1412 177.559 68.9356H178.541L178.576 70.0156C178.644 69.8926 178.728 69.7563 178.827 69.6067C178.934 69.4488 179.057 69.3112 179.192 69.1978C179.351 69.0659 179.522 68.9622 179.701 68.8894C179.914 68.8039 180.136 68.7624 180.358 68.7661C180.645 68.7353 180.932 68.7929 181.2 68.9346C181.467 69.0763 181.707 69.2984 181.901 69.5839C182.258 70.2204 182.437 71.0075 182.404 71.805V76.108H181.375V71.9124C181.408 71.3851 181.294 70.8602 181.056 70.4402C180.939 70.2787 180.798 70.1531 180.642 70.0718C180.487 69.9906 180.319 69.9556 180.153 69.9693C179.893 69.9565 179.636 70.0418 179.41 70.2157C179.216 70.3746 179.053 70.5943 178.936 70.8561C178.814 71.1328 178.726 71.4352 178.679 71.7508C178.625 72.0878 178.598 72.4317 178.598 72.7765V76.108H177.57Z" fill="#12303F"/>
</g>
</g>
<defs>
<clipPath id="clip0_40004656_6818">
<rect width="182.794" height="79.3954" fill="white" transform="translate(0.140625 0.423096)"/>
</clipPath>
</defs>
</svg>
