<svg width="117" height="47" viewBox="0 0 117 47" fill="none" xmlns="http://www.w3.org/2000/svg">
<g clip-path="url(#clip0_40004656_6801)">
<path d="M22.9946 22.5967C22.256 22.2274 21.6406 21.735 21.1482 21.1196C20.7174 20.5041 20.502 19.7963 20.502 18.9962H22.1637C22.2253 19.7348 22.533 20.381 23.0869 20.9349C23.7024 21.5504 24.5948 21.8581 25.7642 21.8581C26.8105 21.8581 27.6414 21.5812 28.2569 21.0272C28.8723 20.4733 29.1801 19.7655 29.1801 18.9039C29.1801 18.2884 29.0262 17.7653 28.7185 17.3344C28.3492 16.9036 27.9183 16.5959 27.426 16.4112C26.9336 16.2266 26.2258 16.0112 25.3026 15.765C24.2563 15.4572 23.4254 15.1803 22.81 14.9341C22.1945 14.6879 21.6713 14.2879 21.2405 13.7339C20.8097 13.1185 20.5943 12.3491 20.5943 11.4259C20.5943 10.6258 20.8097 9.88726 21.2405 9.21024C21.6098 8.59478 22.1945 8.1024 22.9946 7.73312C23.7332 7.36384 24.5948 7.1792 25.5796 7.1792C27.0567 7.1792 28.2569 7.54848 29.1801 8.28704C30.0417 8.96406 30.5341 9.85649 30.6572 10.9643H28.9954C28.8723 10.3489 28.503 9.79494 27.8876 9.30257C27.3337 8.81019 26.5335 8.564 25.4872 8.564C24.564 8.564 23.7639 8.81019 23.0869 9.30257C22.4715 9.79494 22.1637 10.472 22.1637 11.3336C22.1637 12.0106 22.3484 12.5338 22.7176 12.9031C23.0254 13.3339 23.4562 13.6416 24.0101 13.8263C24.5025 14.0724 25.2103 14.2879 26.1335 14.4725C27.1182 14.7802 27.9183 15.0572 28.5338 15.3034C29.2108 15.6111 29.7648 16.0419 30.1956 16.5959C30.6264 17.1498 30.8418 17.9191 30.8418 18.9039C30.8418 19.6424 30.6264 20.3194 30.1956 20.9349C29.8263 21.6119 29.2724 22.1351 28.5338 22.5044C27.7337 22.9352 26.8105 23.1506 25.7642 23.1506C24.7179 23.1506 23.7947 22.966 22.9946 22.5967Z" fill="#2F2F2F"/>
<path d="M35.9192 12.1643V19.7345C35.9192 20.4116 36.0423 20.9039 36.2885 21.2117C36.5962 21.5194 37.0886 21.6733 37.7656 21.6733H39.2428V22.9658H37.581C36.4732 22.9658 35.6423 22.7196 35.0883 22.2272C34.5344 21.7348 34.2575 20.9039 34.2575 19.7345V12.1643H32.5957V10.7795H34.2575V7.73291H35.9192V10.7795H39.2428V12.1643H35.9192Z" fill="#2F2F2F"/>
<path fill-rule="evenodd" clip-rule="evenodd" d="M41.8265 13.5489C42.3804 12.6257 43.0882 11.9179 43.9498 11.4256C44.873 10.9332 45.8885 10.687 46.9964 10.687C48.1658 10.687 49.1505 10.9332 49.9506 11.4256C50.8123 11.9795 51.4278 12.6565 51.797 13.4566V10.7793H53.3665V22.9656H51.797V20.2883C51.4278 21.15 50.8123 21.827 49.9506 22.3194C49.089 22.8733 48.1042 23.1502 46.9964 23.1502C45.8885 23.1502 44.873 22.9041 43.9498 22.4117C43.0882 21.8578 42.3804 21.1192 41.8265 20.196C41.3341 19.2112 41.0879 18.1034 41.0879 16.8725C41.0879 15.6415 41.3341 14.5337 41.8265 13.5489ZM51.2431 14.2875C50.8123 13.5489 50.2584 12.995 49.5814 12.6257C48.8428 12.1949 48.0735 11.9795 47.2733 11.9795C46.4117 11.9795 45.6424 12.1641 44.9653 12.5334C44.2268 12.9642 43.6729 13.5489 43.3036 14.2875C42.9343 15.0261 42.7497 15.8877 42.7497 16.8725C42.7497 17.8572 42.9343 18.7189 43.3036 19.4574C43.6729 20.2575 44.2268 20.8422 44.9653 21.2115C45.6424 21.6423 46.4117 21.8578 47.2733 21.8578C48.0735 21.8578 48.8428 21.6423 49.5814 21.2115C50.2584 20.7807 50.8123 20.196 51.2431 19.4574C51.6124 18.7189 51.797 17.8572 51.797 16.8725C51.797 15.8877 51.6124 15.0261 51.2431 14.2875Z" fill="#2F2F2F"/>
<path d="M60.1076 11.2415C60.8462 10.8106 61.7386 10.5952 62.7849 10.5952V12.257H62.3233C61.2155 12.257 60.2923 12.5339 59.5537 13.0879C58.8767 13.7033 58.5382 14.7496 58.5382 16.2268V22.9661H56.9688V10.7799H58.5382V12.9955C58.9075 12.257 59.4306 11.6723 60.1076 11.2415Z" fill="#2F2F2F"/>
<path d="M67.1238 12.1643V19.7345C67.1238 20.4116 67.2777 20.9039 67.5854 21.2117C67.8931 21.5194 68.3855 21.6733 69.0625 21.6733H70.5396V22.9658H68.8779C67.77 22.9658 66.9391 22.7196 66.3852 22.2272C65.8313 21.7348 65.5543 20.9039 65.5543 19.7345V12.1643H63.8926V10.7795H65.5543V7.73291H67.1238V10.7795H70.5396V12.1643H67.1238Z" fill="#2F2F2F"/>
<path d="M3.69891 39.399C2.77571 39.0297 2.03715 38.4758 1.48323 37.7372C0.990851 36.9986 0.713891 36.1062 0.652344 35.0599H4.71443C4.77598 35.6754 4.9914 36.137 5.36068 36.4447C5.66841 36.7524 6.09924 36.9063 6.65316 36.9063C7.26863 36.9063 7.73023 36.7524 8.03796 36.4447C8.3457 36.1985 8.49957 35.86 8.49957 35.4292C8.49957 35.0599 8.37647 34.7214 8.13028 34.4137C7.8841 34.1675 7.57636 33.9828 7.20708 33.8597C6.77625 33.6751 6.22233 33.4905 5.54532 33.3058C4.56057 32.9981 3.72969 32.6596 3.05267 32.2903C2.4372 31.9826 1.88328 31.521 1.39091 30.9055C0.960078 30.3516 0.744664 29.5822 0.744664 28.5975C0.744664 27.1204 1.26781 25.9818 2.31411 25.1816C3.3604 24.32 4.74521 23.8892 6.46852 23.8892C8.19183 23.8892 9.57664 24.32 10.6229 25.1816C11.6692 25.9818 12.2539 27.1204 12.377 28.5975H8.2226C8.16106 28.1051 7.97642 27.7051 7.66868 27.3973C7.2994 27.0896 6.8378 26.9357 6.28388 26.9357C5.85305 26.9357 5.48377 27.0588 5.17604 27.305C4.92985 27.5512 4.80676 27.9205 4.80676 28.4129C4.80676 28.9052 5.02217 29.3053 5.453 29.613C5.94537 29.8592 6.71471 30.1362 7.761 30.4439C8.74575 30.8132 9.54586 31.1517 10.1613 31.4594C10.8383 31.7672 11.3923 32.2288 11.8231 32.8442C12.3155 33.3981 12.5617 34.1675 12.5617 35.1522C12.5617 36.0139 12.3155 36.814 11.8231 37.5526C11.3923 38.2911 10.746 38.8758 9.88437 39.3066C9.02271 39.7375 8.00719 39.9529 6.8378 39.9529C5.66841 39.9529 4.62211 39.7682 3.69891 39.399Z" fill="#2F2F2F"/>
<path d="M34.6257 28.5982C35.5489 29.5214 36.0105 30.8139 36.0105 32.4756V39.7689H32.2253V33.0296C32.2253 32.2294 32.0099 31.614 31.5791 31.1831C31.1483 30.7523 30.5636 30.5369 29.825 30.5369C29.0249 30.5369 28.4094 30.7523 27.9786 31.1831C27.6093 31.614 27.4247 32.2294 27.4247 33.0296V39.7689H23.5472V33.0296C23.5472 32.2294 23.3318 31.614 22.901 31.1831C22.4702 30.7523 21.8855 30.5369 21.1469 30.5369C20.4084 30.5369 19.8237 30.7523 19.3928 31.1831C18.962 31.614 18.7466 32.2294 18.7466 33.0296V39.7689H14.8691V27.3057H18.7466V28.8751C19.1159 28.3828 19.639 27.9827 20.316 27.675C20.9315 27.3672 21.6393 27.2134 22.4394 27.2134C23.3626 27.2134 24.1935 27.398 24.932 27.7673C25.6706 28.1981 26.2553 28.7828 26.6861 29.5214C27.117 28.8444 27.7017 28.2904 28.4402 27.8596C29.1788 27.4288 30.0097 27.2134 30.9329 27.2134C32.4715 27.2134 33.7025 27.675 34.6257 28.5982Z" fill="#2F2F2F"/>
<path fill-rule="evenodd" clip-rule="evenodd" d="M38.6878 30.1672C39.1802 29.1824 39.8264 28.4439 40.6265 27.9515C41.4882 27.3976 42.4421 27.1206 43.4884 27.1206C44.3501 27.1206 45.1194 27.3052 45.7964 27.6745C46.4735 28.0438 46.9658 28.5054 47.2736 29.0593V27.3052H51.151V39.7685H47.2736V38.0144C46.9043 38.5683 46.3811 39.0299 45.7041 39.3992C45.0886 39.7685 44.3193 39.9531 43.3961 39.9531C42.4114 39.9531 41.4882 39.7069 40.6265 39.2146C39.8264 38.6606 39.1802 37.8913 38.6878 36.9066C38.1954 35.9218 37.9492 34.7832 37.9492 33.4907C37.9492 32.2598 38.1954 31.1519 38.6878 30.1672ZM46.535 31.275C45.9811 30.7211 45.3348 30.4441 44.5963 30.4441C43.7962 30.4441 43.1499 30.7211 42.6576 31.275C42.1036 31.8289 41.8267 32.5675 41.8267 33.4907C41.8267 34.4755 42.1036 35.2448 42.6576 35.7987C43.1499 36.3526 43.7962 36.6296 44.5963 36.6296C45.3348 36.6296 45.9811 36.3526 46.535 35.7987C47.0274 35.2448 47.2736 34.5062 47.2736 33.583C47.2736 32.5983 47.0274 31.8289 46.535 31.275Z" fill="#2F2F2F"/>
<path d="M59.4591 27.7673C60.1362 27.398 60.8747 27.2134 61.6748 27.2134V31.2755H60.6593C59.6746 31.2755 58.936 31.4601 58.4436 31.8294C58.0128 32.2602 57.7974 32.9988 57.7974 34.0451V39.7689H53.9199V27.3057H57.7974V29.4291C58.2282 28.752 58.7821 28.1981 59.4591 27.7673Z" fill="#2F2F2F"/>
<path d="M70.5392 36.5369V39.7681H68.6004C67.1848 39.7681 66.077 39.4296 65.2769 38.7526C64.5383 38.0756 64.1691 36.9677 64.1691 35.4291V30.5361H62.5996V27.3049H64.1691V24.2583H67.9542V27.3049H70.5392V30.5361H67.9542V35.5214C67.9542 35.8907 68.0465 36.1368 68.2311 36.2599C68.4158 36.4446 68.7235 36.5369 69.1543 36.5369H70.5392Z" fill="#2F2F2F"/>
<path d="M81.3414 46.7851C80.6951 46.7851 79.9566 46.6005 79.4027 46.2312C78.1102 45.4926 77.2793 44.1078 77.2793 42.4461C77.2793 39.6765 79.218 38.107 81.3414 36.8145L81.803 36.5376V37.0915C81.803 37.6454 82.0799 38.0147 82.4492 38.2916C82.9108 38.4763 83.4648 38.4763 83.9264 38.1993L103.406 26.0131C104.421 25.3668 104.975 24.6283 104.975 23.7974C104.975 23.0588 104.421 22.2279 103.406 21.674L83.9264 9.39541C83.4648 9.11845 82.9108 9.11845 82.5415 9.39541C82.0799 9.58005 81.8953 10.0416 81.8953 10.5033V11.1495L81.3414 10.7802C79.218 9.48773 77.3716 8.10292 77.2793 5.241C77.2793 3.48691 78.0179 2.10211 79.3103 1.45587C80.6951 0.624983 82.5416 0.717303 84.2033 1.73283L112.638 19.5506L114.854 20.9354C115.869 21.5817 116.423 22.6895 116.423 23.7974C116.423 24.9975 115.869 26.0131 114.854 26.6593L112.638 28.1364L84.2033 45.9542C83.2801 46.4158 82.2646 46.7851 81.3414 46.7851Z" fill="url(#paint0_linear_40004656_6801)"/>
<path d="M77.2793 4.96338V12.5336C77.2793 15.3956 78.1102 17.0573 80.5105 18.5345L88.9116 23.7044L80.5105 28.9666C78.1102 30.4438 77.2793 32.1055 77.2793 34.9675V42.5377C77.2793 40.0451 78.6641 38.4756 80.7875 37.0908L99.3438 25.5508C100.913 24.5353 100.913 22.9658 99.3438 21.9503L80.7875 10.4103C78.6641 9.02547 77.2793 7.45603 77.2793 4.96338Z" fill="url(#paint1_linear_40004656_6801)"/>
</g>
<defs>
<linearGradient id="paint0_linear_40004656_6801" x1="77.3236" y1="0.888095" x2="116.422" y2="0.888095" gradientUnits="userSpaceOnUse">
<stop stop-color="#00AFDF"/>
<stop offset="1" stop-color="#CBDE00"/>
</linearGradient>
<linearGradient id="paint1_linear_40004656_6801" x1="100.54" y1="42.523" x2="77.3061" y2="42.523" gradientUnits="userSpaceOnUse">
<stop stop-color="#67FFE5"/>
<stop offset="0.32" stop-color="#00B8BF"/>
<stop offset="0.7" stop-color="#006D84"/>
<stop offset="1" stop-color="#004554"/>
</linearGradient>
<clipPath id="clip0_40004656_6801">
<rect width="116.324" height="46.1601" fill="white" transform="translate(0.375 0.717285)"/>
</clipPath>
</defs>
</svg>
