<svg width="335" height="348" viewBox="0 0 335 348" fill="none" xmlns="http://www.w3.org/2000/svg">
<g filter="url(#filter0_d_40005514_447456)">
<rect x="52.0547" y="41.356" width="241" height="264.682" rx="11.1445" fill="white" shape-rendering="crispEdges"/>
<rect x="168.015" y="45.8169" width="113.896" height="93.7023" rx="11.1445" fill="white"/>
<path d="M231.346 75.5246L231.599 74.3739C232.093 74.3739 232.548 74.3707 232.964 74.3642C233.381 74.3512 233.745 74.3349 234.057 74.3154C234.375 74.2959 234.638 74.2667 234.847 74.2277C235.061 74.1822 235.207 74.1236 235.285 74.0521C235.415 73.9481 235.506 73.7856 235.558 73.5646C235.61 73.337 235.636 73.012 235.636 72.5894C235.636 72.3619 235.62 72.1571 235.588 71.9751C235.555 71.7931 235.503 71.637 235.432 71.507C235.367 71.3705 235.289 71.2697 235.198 71.2047C235.107 71.1332 235.003 71.0974 234.886 71.0974C234.768 71.0974 234.658 71.1397 234.554 71.2242C234.45 71.3087 234.365 71.4225 234.3 71.5655C234.242 71.702 234.213 71.8483 234.213 72.0043C234.213 72.1083 234.235 72.1994 234.281 72.2774C234.333 72.3554 234.414 72.4171 234.525 72.4627C234.635 72.5017 234.775 72.5212 234.944 72.5212C235.107 72.5212 235.272 72.5017 235.441 72.4627C235.617 72.4236 235.773 72.3716 235.909 72.3066L235.948 73.2915C235.844 73.363 235.724 73.4248 235.588 73.4768C235.458 73.5288 235.318 73.5678 235.168 73.5938C235.019 73.6198 234.869 73.6328 234.72 73.6328C234.375 73.6328 234.083 73.5873 233.842 73.4963C233.602 73.4053 233.413 73.259 233.277 73.0575C233.147 72.8495 233.081 72.5797 233.081 72.2481C233.081 71.9751 233.127 71.7053 233.218 71.4387C233.309 71.1657 233.439 70.9187 233.608 70.6976C233.777 70.4701 233.975 70.2913 234.203 70.1613C234.43 70.0248 234.684 69.9565 234.964 69.9565C235.373 69.9565 235.711 70.08 235.978 70.3271C236.244 70.5676 236.442 70.8927 236.573 71.3022C236.703 71.7118 236.768 72.1571 236.768 72.6382C236.768 72.9502 236.742 73.2493 236.69 73.5353C236.644 73.8214 236.576 74.0749 236.485 74.2959C236.394 74.517 236.28 74.699 236.143 74.842C236.02 74.9785 235.815 75.0923 235.529 75.1833C235.25 75.2743 234.902 75.3426 234.486 75.3881C234.07 75.4401 233.595 75.4758 233.062 75.4954C232.535 75.5149 231.963 75.5246 231.346 75.5246ZM231.346 75.5246C230.689 75.5246 230.127 75.4758 229.659 75.3783C229.197 75.2873 228.817 75.1508 228.518 74.9688C228.219 74.7867 227.998 74.5657 227.855 74.3057C227.712 74.0456 227.64 73.7466 227.64 73.4085C227.64 73.22 227.656 73.0282 227.689 72.8332C227.721 72.6317 227.764 72.4366 227.816 72.2481C227.868 72.0531 227.916 71.8743 227.962 71.7118L228.996 71.9653C228.97 72.0758 228.94 72.1994 228.908 72.3359C228.875 72.4659 228.846 72.5959 228.82 72.7259C228.801 72.856 228.791 72.9762 228.791 73.0867C228.791 73.3598 228.875 73.5938 229.044 73.7888C229.22 73.9839 229.512 74.1301 229.922 74.2277C230.332 74.3252 230.891 74.3739 231.599 74.3739L231.794 75.2126L231.346 75.5246ZM234.876 69.0106C234.7 69.0106 234.551 68.9521 234.427 68.8351C234.304 68.7116 234.242 68.5621 234.242 68.3865C234.242 68.211 234.304 68.0615 234.427 67.938C234.551 67.808 234.7 67.743 234.876 67.743C235.045 67.743 235.191 67.808 235.315 67.938C235.438 68.0615 235.5 68.211 235.5 68.3865C235.5 68.5621 235.438 68.7116 235.315 68.8351C235.191 68.9521 235.045 69.0106 234.876 69.0106ZM237.383 77.5627L237.149 76.412C237.578 76.3535 237.961 76.282 238.299 76.1975C238.637 76.1129 238.923 75.9927 239.157 75.8367C239.398 75.6806 239.577 75.4726 239.694 75.2126C239.817 74.946 239.879 74.608 239.879 74.1984C239.879 73.7953 239.811 73.467 239.674 73.2135C239.544 72.96 239.369 72.8332 239.148 72.8332C239.011 72.8332 238.891 72.882 238.787 72.9795C238.689 73.077 238.615 73.2005 238.563 73.35C238.511 73.4931 238.485 73.6328 238.485 73.7693C238.485 73.8539 238.504 73.9319 238.543 74.0034C238.582 74.0684 238.654 74.1236 238.758 74.1692C238.868 74.2082 239.024 74.2342 239.226 74.2472C239.434 74.2602 239.707 74.2504 240.045 74.2179H241.839C242.041 74.2179 242.187 74.2732 242.278 74.3837C242.369 74.4877 242.414 74.6177 242.414 74.7737C242.414 74.9363 242.353 75.076 242.229 75.1931C242.112 75.3101 241.95 75.3686 241.742 75.3686H239.187C238.823 75.3686 238.501 75.3231 238.221 75.2321C237.948 75.141 237.734 74.9948 237.578 74.7932C237.422 74.5852 237.344 74.3122 237.344 73.9741C237.344 73.6881 237.392 73.4085 237.49 73.1355C237.587 72.856 237.717 72.6024 237.88 72.3749C238.049 72.1474 238.247 71.9686 238.475 71.8386C238.702 71.702 238.949 71.6338 239.216 71.6338C239.573 71.6338 239.885 71.741 240.152 71.9556C240.425 72.1701 240.64 72.4692 240.796 72.8527C240.952 73.2298 241.03 73.6686 241.03 74.1692C241.03 74.8518 240.887 75.4336 240.601 75.9147C240.315 76.4022 239.898 76.7825 239.352 77.0556C238.806 77.3351 238.15 77.5041 237.383 77.5627ZM241.392 75.3686L241.49 74.2179C241.756 74.2179 241.977 74.1952 242.153 74.1497C242.328 74.0976 242.468 74.0034 242.572 73.8669C242.683 73.7238 242.774 73.5191 242.845 73.2525C242.923 72.9795 242.998 72.6219 243.07 72.1799L244.152 72.3651C244.132 72.4692 244.11 72.5894 244.084 72.7259C244.058 72.8625 244.035 72.999 244.015 73.1355C243.996 73.272 243.986 73.3955 243.986 73.5061C243.986 73.6166 244.002 73.7173 244.035 73.8084C244.067 73.8929 244.129 73.9644 244.22 74.0229C244.318 74.0814 244.458 74.1301 244.64 74.1692C244.822 74.2017 245.056 74.2179 245.342 74.2179C245.55 74.2179 245.696 74.2732 245.78 74.3837C245.871 74.4877 245.917 74.6177 245.917 74.7737C245.917 74.9363 245.858 75.076 245.741 75.1931C245.624 75.3101 245.459 75.3686 245.244 75.3686C244.913 75.3686 244.63 75.3458 244.396 75.3003C244.162 75.2548 243.967 75.1833 243.811 75.0858C243.661 74.9883 243.544 74.8615 243.46 74.7055C243.375 74.543 243.32 74.3479 243.294 74.1204L243.694 74.1301C243.583 74.4032 243.447 74.6242 243.284 74.7932C243.128 74.9558 242.953 75.0793 242.758 75.1638C242.562 75.2418 242.348 75.2938 242.114 75.3198C241.886 75.3523 241.646 75.3686 241.392 75.3686ZM244.015 77.4749C243.846 77.4749 243.7 77.4131 243.577 77.2896C243.46 77.1726 243.401 77.0328 243.401 76.8703C243.401 76.7078 243.46 76.5648 243.577 76.4412C243.7 76.3177 243.846 76.256 244.015 76.256C244.178 76.256 244.318 76.3177 244.435 76.4412C244.552 76.5648 244.61 76.7078 244.61 76.8703C244.61 77.0328 244.552 77.1726 244.435 77.2896C244.318 77.4131 244.178 77.4749 244.015 77.4749ZM242.455 77.4749C242.286 77.4749 242.143 77.4131 242.026 77.2896C241.909 77.1726 241.851 77.0328 241.851 76.8703C241.851 76.7078 241.909 76.5648 242.026 76.4412C242.143 76.3177 242.286 76.256 242.455 76.256C242.618 76.256 242.758 76.3177 242.875 76.4412C242.992 76.5648 243.05 76.7078 243.05 76.8703C243.05 77.0328 242.992 77.1726 242.875 77.2896C242.758 77.4131 242.618 77.4749 242.455 77.4749ZM254.477 75.3686C254.204 75.3686 253.924 75.3426 253.638 75.2906C253.352 75.2386 253.083 75.1638 252.829 75.0663C252.575 74.9688 252.367 74.8485 252.205 74.7055L253.053 73.9644C253.287 74.0554 253.525 74.1204 253.765 74.1594C254.012 74.1984 254.282 74.2179 254.574 74.2179C254.776 74.2179 254.922 74.2732 255.013 74.3837C255.104 74.4877 255.15 74.6177 255.15 74.7737C255.15 74.9363 255.088 75.076 254.965 75.1931C254.848 75.3101 254.685 75.3686 254.477 75.3686ZM249.816 75.4954C249.224 75.4954 248.73 75.4693 248.334 75.4173C247.944 75.3718 247.625 75.3036 247.378 75.2126C247.131 75.1215 246.939 75.0078 246.803 74.8713C246.673 74.7347 246.569 74.582 246.491 74.4129L246.744 74.3349C246.582 74.647 246.4 74.8778 246.198 75.0273C246.003 75.1703 245.795 75.2646 245.574 75.3101C245.353 75.3491 245.125 75.3686 244.891 75.3686L244.989 74.2179C245.203 74.2179 245.372 74.1854 245.496 74.1204C245.626 74.0554 245.73 73.9481 245.808 73.7986C245.892 73.6491 245.967 73.4508 246.032 73.2038C246.104 72.9567 246.185 72.6512 246.276 72.2871L247.31 72.5504C247.271 72.7129 247.235 72.8625 247.202 72.999C247.17 73.129 247.144 73.2428 247.124 73.3403C247.111 73.4378 247.105 73.5158 247.105 73.5743C247.105 73.7108 247.137 73.8279 247.202 73.9254C247.267 74.0229 247.388 74.1041 247.563 74.1692C247.745 74.2277 248.009 74.2732 248.353 74.3057C248.704 74.3317 249.162 74.3447 249.728 74.3447C250.242 74.3447 250.68 74.3219 251.044 74.2764C251.409 74.2309 251.704 74.1627 251.932 74.0716C252.159 73.9806 252.325 73.8701 252.429 73.7401C252.54 73.6036 252.595 73.4475 252.595 73.272C252.595 73.142 252.562 73.0185 252.497 72.9015C252.439 72.7779 252.341 72.6772 252.205 72.5992C252.075 72.5147 251.903 72.4724 251.688 72.4724C251.422 72.4724 251.155 72.5407 250.888 72.6772C250.628 72.8072 250.375 72.9762 250.128 73.1843C249.881 73.3858 249.653 73.6068 249.445 73.8474C249.237 74.0814 249.058 74.3057 248.909 74.5202L247.68 74.4032C247.914 74.0261 248.184 73.6523 248.49 73.2818C248.802 72.9112 249.136 72.5797 249.494 72.2871C249.852 71.9946 250.222 71.7605 250.606 71.585C250.996 71.4095 251.392 71.3217 251.795 71.3217C252.198 71.3217 252.543 71.403 252.829 71.5655C253.122 71.7215 253.343 71.9393 253.492 72.2189C253.648 72.4984 253.726 72.8202 253.726 73.1843C253.726 73.6198 253.599 74.0131 253.346 74.3642C253.092 74.7152 252.679 74.9915 252.107 75.1931C251.535 75.3946 250.771 75.4954 249.816 75.4954ZM251.513 70.3758C251.337 70.3758 251.187 70.3173 251.064 70.2003C250.94 70.0768 250.879 69.9273 250.879 69.7517C250.879 69.5762 250.94 69.4267 251.064 69.3032C251.187 69.1732 251.337 69.1082 251.513 69.1082C251.682 69.1082 251.828 69.1732 251.951 69.3032C252.075 69.4267 252.137 69.5762 252.137 69.7517C252.137 69.9273 252.075 70.0768 251.951 70.2003C251.828 70.3173 251.682 70.3758 251.513 70.3758ZM254.133 75.3686L254.23 74.2179C254.555 74.2179 254.786 74.1854 254.922 74.1204C255.059 74.0554 255.14 73.9351 255.166 73.7596C255.192 73.5841 255.199 73.3305 255.186 72.999L255 68.25H256.161L256.356 73.0282C256.369 73.3923 256.353 73.7206 256.307 74.0131C256.268 74.2992 256.174 74.543 256.024 74.7445C255.875 74.946 255.647 75.102 255.342 75.2126C255.043 75.3166 254.64 75.3686 254.133 75.3686ZM257.375 75.3198L257.17 68.25H258.321L258.516 75.3198H257.375ZM261.143 74.9103L261.591 73.8864C261.786 73.9839 261.998 74.0651 262.225 74.1301C262.453 74.1887 262.693 74.2179 262.947 74.2179C263.213 74.2179 263.428 74.1919 263.59 74.1399C263.759 74.0879 263.883 74.0131 263.961 73.9156C264.045 73.8116 264.088 73.6913 264.088 73.5548C264.088 73.4378 264.055 73.285 263.99 73.0965C263.932 72.9015 263.811 72.6447 263.629 72.3261C263.454 72.0011 263.19 71.5915 262.839 71.0974L263.815 70.4539C264.14 70.9089 264.409 71.3412 264.624 71.7508C264.845 72.1539 265.011 72.5244 265.121 72.8625C265.238 73.194 265.297 73.4833 265.297 73.7303C265.297 74.0359 265.216 74.3122 265.053 74.5592C264.89 74.8062 264.643 75.0045 264.312 75.154C263.98 75.3036 263.555 75.3783 263.034 75.3783C262.833 75.3783 262.618 75.3588 262.391 75.3198C262.163 75.2873 261.939 75.2386 261.718 75.1736C261.503 75.102 261.312 75.0143 261.143 74.9103ZM267.464 74.2179C267.769 74.2179 268.007 74.1887 268.176 74.1301C268.345 74.0716 268.462 73.9936 268.527 73.8961C268.598 73.7921 268.634 73.6783 268.634 73.5548C268.634 73.4118 268.595 73.2428 268.517 73.0477C268.439 72.8462 268.335 72.6317 268.205 72.4041C268.082 72.1766 267.948 71.9523 267.805 71.7313C267.662 71.5038 267.522 71.2925 267.386 71.0974L268.361 70.4539C268.628 70.8309 268.858 71.1982 269.053 71.5558C269.255 71.9133 269.417 72.2481 269.541 72.5602C269.671 72.8657 269.769 73.1355 269.834 73.3695C269.899 73.6036 269.986 73.7823 270.097 73.9059C270.207 74.0294 270.331 74.1139 270.467 74.1594C270.604 74.1984 270.734 74.2179 270.857 74.2179C271.065 74.2179 271.215 74.2732 271.306 74.3837C271.397 74.4877 271.442 74.6177 271.442 74.7737C271.442 74.9363 271.384 75.076 271.267 75.1931C271.15 75.3101 270.984 75.3686 270.77 75.3686C270.51 75.3686 270.272 75.3296 270.058 75.2516C269.85 75.1736 269.671 75.0468 269.521 74.8713C269.372 74.6957 269.255 74.4682 269.17 74.1887L269.687 74.1497C269.655 74.3577 269.557 74.556 269.395 74.7445C269.239 74.933 269.011 75.0858 268.712 75.2028C268.42 75.3198 268.042 75.3783 267.581 75.3783C267.373 75.3783 267.152 75.3588 266.918 75.3198C266.69 75.2873 266.469 75.2386 266.255 75.1736C266.047 75.102 265.858 75.0143 265.689 74.9103L266.138 73.8864C266.333 73.9839 266.544 74.0651 266.772 74.1301C266.999 74.1887 267.23 74.2179 267.464 74.2179ZM270.418 75.3686L270.516 74.2179C270.86 74.2179 271.127 74.2147 271.315 74.2082C271.504 74.2017 271.644 74.1952 271.735 74.1887C271.826 74.1757 271.897 74.1659 271.949 74.1594C271.865 74.0944 271.761 73.9969 271.637 73.8669C271.514 73.7368 271.403 73.5711 271.305 73.3695C271.214 73.168 271.169 72.9242 271.169 72.6382C271.169 72.2546 271.263 71.9166 271.452 71.624C271.647 71.3315 271.91 71.1039 272.242 70.9414C272.573 70.7724 272.95 70.6879 273.373 70.6879C273.555 70.6879 273.734 70.7009 273.909 70.7269C274.085 70.7529 274.26 70.7919 274.436 70.8439L274.241 71.9361C274.111 71.9036 273.974 71.8776 273.831 71.8581C273.688 71.8386 273.558 71.8288 273.441 71.8288C273.22 71.8288 273.025 71.8678 272.856 71.9458C272.687 72.0238 272.557 72.1311 272.466 72.2676C272.375 72.3976 272.329 72.5569 272.329 72.7454C272.329 72.8755 272.355 72.999 272.407 73.116C272.459 73.2265 272.528 73.3273 272.612 73.4183C272.697 73.5093 272.788 73.5873 272.885 73.6523C272.989 73.7108 273.09 73.7596 273.188 73.7986C273.292 73.8376 273.379 73.8604 273.451 73.8669C273.587 73.8279 273.704 73.7953 273.802 73.7693C273.899 73.7368 273.997 73.7043 274.094 73.6718C274.198 73.6328 274.315 73.5873 274.445 73.5353C274.575 73.4768 274.741 73.4053 274.943 73.3208L275.313 74.3934C274.813 74.6275 274.315 74.816 273.821 74.959C273.327 75.102 272.804 75.2061 272.251 75.2711C271.705 75.3361 271.094 75.3686 270.418 75.3686Z" fill="#7A7A7A"/>
<path d="M178.602 123.782L178.928 122.541C179.513 122.541 180.06 122.529 180.57 122.503C181.08 122.47 181.544 122.432 181.962 122.391C182.38 122.349 182.739 122.303 183.04 122.253C183.35 122.203 183.584 122.152 183.742 122.102C184.027 122.01 184.286 121.893 184.52 121.751C184.754 121.609 184.942 121.442 185.084 121.25C185.226 121.049 185.297 120.823 185.297 120.573C185.297 120.439 185.272 120.301 185.222 120.159C185.172 120.009 185.101 119.871 185.009 119.745C184.925 119.611 184.821 119.507 184.695 119.432C184.578 119.348 184.453 119.306 184.319 119.306C184.135 119.306 183.964 119.373 183.805 119.507C183.646 119.632 183.517 119.795 183.416 119.996C183.324 120.197 183.278 120.406 183.278 120.623C183.278 120.857 183.337 121.066 183.454 121.25C183.579 121.434 183.734 121.597 183.918 121.739C184.11 121.881 184.307 121.998 184.507 122.09L183.166 122.566C183.024 122.441 182.865 122.29 182.689 122.115C182.514 121.939 182.359 121.726 182.225 121.475C182.1 121.216 182.037 120.924 182.037 120.598C182.037 120.247 182.1 119.921 182.225 119.62C182.359 119.319 182.535 119.056 182.752 118.83C182.978 118.596 183.228 118.416 183.504 118.291C183.78 118.157 184.064 118.09 184.357 118.09C184.783 118.09 185.159 118.207 185.485 118.441C185.811 118.675 186.066 118.98 186.25 119.357C186.434 119.724 186.526 120.105 186.526 120.497C186.526 120.865 186.455 121.195 186.313 121.488C186.179 121.78 185.991 122.04 185.748 122.265C185.514 122.483 185.243 122.675 184.933 122.842C184.633 123.001 184.319 123.135 183.993 123.243C183.792 123.31 183.508 123.377 183.141 123.444C182.773 123.502 182.346 123.557 181.862 123.607C181.377 123.657 180.855 123.699 180.295 123.732C179.743 123.766 179.179 123.782 178.602 123.782ZM187.416 123.582C186.973 123.582 186.534 123.561 186.099 123.519C185.673 123.469 185.264 123.398 184.871 123.306C184.478 123.214 184.123 123.101 183.805 122.967L184.67 122.152C184.921 122.194 185.213 122.232 185.548 122.265C185.89 122.29 186.237 122.311 186.588 122.328C186.939 122.336 187.257 122.341 187.541 122.341C187.759 122.341 187.913 122.399 188.005 122.516C188.105 122.633 188.156 122.771 188.156 122.93C188.156 123.105 188.089 123.26 187.955 123.394C187.821 123.519 187.642 123.582 187.416 123.582ZM178.602 123.782C177.808 123.782 177.118 123.728 176.533 123.619C175.957 123.511 175.476 123.348 175.091 123.13C174.715 122.913 174.435 122.641 174.251 122.315C174.068 121.989 173.976 121.605 173.976 121.162C173.976 120.928 173.992 120.694 174.026 120.46C174.059 120.226 174.105 119.992 174.164 119.758C174.231 119.524 174.293 119.302 174.352 119.093L175.468 119.357C175.434 119.49 175.397 119.645 175.355 119.82C175.313 119.996 175.279 120.172 175.254 120.347C175.229 120.514 175.217 120.665 175.217 120.798C175.217 121.2 175.325 121.53 175.543 121.789C175.768 122.04 176.149 122.228 176.684 122.353C177.227 122.478 177.975 122.541 178.928 122.541L179.179 123.381L178.602 123.782ZM184.281 116.824C184.081 116.824 183.91 116.757 183.767 116.623C183.634 116.49 183.567 116.322 183.567 116.122C183.567 115.93 183.634 115.762 183.767 115.62C183.91 115.478 184.081 115.407 184.281 115.407C184.474 115.407 184.637 115.478 184.77 115.62C184.913 115.762 184.984 115.93 184.984 116.122C184.984 116.322 184.913 116.49 184.77 116.623C184.637 116.757 184.474 116.824 184.281 116.824ZM187.41 123.582L187.535 122.341C187.92 122.341 188.225 122.311 188.451 122.253C188.685 122.186 188.864 122.065 188.99 121.889C189.124 121.705 189.232 121.442 189.316 121.099C189.399 120.757 189.491 120.301 189.592 119.733L190.77 119.946C190.737 120.096 190.699 120.259 190.657 120.435C190.624 120.61 190.595 120.79 190.57 120.974C190.544 121.149 190.532 121.304 190.532 121.438C190.532 121.572 190.544 121.697 190.57 121.814C190.603 121.923 190.674 122.015 190.783 122.09C190.9 122.165 191.079 122.228 191.322 122.278C191.573 122.32 191.915 122.341 192.35 122.341C192.567 122.341 192.722 122.399 192.814 122.516C192.906 122.633 192.952 122.771 192.952 122.93C192.952 123.105 192.885 123.26 192.751 123.394C192.626 123.519 192.45 123.582 192.225 123.582C191.748 123.582 191.359 123.557 191.059 123.507C190.758 123.448 190.519 123.36 190.344 123.243C190.168 123.126 190.039 122.976 189.955 122.792C189.872 122.608 189.813 122.391 189.78 122.14L190.218 122.152C190.085 122.462 189.926 122.712 189.742 122.905C189.567 123.089 189.366 123.231 189.14 123.331C188.923 123.431 188.668 123.498 188.375 123.532C188.091 123.565 187.769 123.582 187.41 123.582ZM190.67 126.114C190.478 126.114 190.31 126.043 190.168 125.901C190.035 125.767 189.968 125.609 189.968 125.425C189.968 125.233 190.035 125.065 190.168 124.923C190.31 124.79 190.478 124.723 190.67 124.723C190.854 124.723 191.013 124.79 191.146 124.923C191.288 125.065 191.359 125.233 191.359 125.425C191.359 125.609 191.288 125.767 191.146 125.901C191.013 126.043 190.854 126.114 190.67 126.114ZM188.814 126.114C188.622 126.114 188.455 126.043 188.313 125.901C188.179 125.767 188.112 125.609 188.112 125.425C188.112 125.233 188.179 125.065 188.313 124.923C188.455 124.79 188.622 124.723 188.814 124.723C189.007 124.723 189.17 124.79 189.303 124.923C189.437 125.065 189.504 125.233 189.504 125.425C189.504 125.609 189.437 125.767 189.303 125.901C189.17 126.043 189.007 126.114 188.814 126.114ZM198.415 123.745C197.672 123.745 197.045 123.715 196.535 123.657C196.033 123.598 195.628 123.515 195.319 123.406C195.009 123.289 194.771 123.147 194.604 122.98C194.437 122.804 194.316 122.604 194.24 122.378L194.541 122.278C194.332 122.679 194.102 122.972 193.852 123.155C193.609 123.339 193.35 123.456 193.074 123.507C192.807 123.557 192.523 123.582 192.222 123.582L192.347 122.341C192.631 122.341 192.861 122.299 193.037 122.215C193.212 122.132 193.354 121.994 193.463 121.801C193.58 121.609 193.685 121.354 193.777 121.037C193.868 120.719 193.969 120.326 194.077 119.858L195.193 120.146C195.143 120.347 195.097 120.535 195.055 120.711C195.014 120.878 194.98 121.028 194.955 121.162C194.938 121.287 194.93 121.388 194.93 121.463C194.93 121.647 194.972 121.806 195.055 121.939C195.147 122.073 195.314 122.182 195.557 122.265C195.808 122.349 196.167 122.412 196.635 122.453C197.103 122.487 197.717 122.503 198.478 122.503C199.088 122.503 199.615 122.474 200.058 122.416C200.509 122.349 200.881 122.253 201.174 122.127C201.466 121.994 201.688 121.835 201.838 121.651C201.989 121.459 202.064 121.241 202.064 120.999C202.064 120.823 202.022 120.652 201.938 120.485C201.855 120.318 201.721 120.18 201.537 120.071C201.353 119.954 201.111 119.896 200.81 119.896C200.442 119.896 200.07 119.992 199.694 120.184C199.326 120.368 198.975 120.606 198.641 120.899C198.307 121.191 198.002 121.496 197.726 121.814C197.458 122.132 197.233 122.416 197.049 122.666L195.732 122.579C196.017 122.119 196.347 121.659 196.723 121.2C197.107 120.732 197.525 120.305 197.977 119.921C198.436 119.536 198.913 119.231 199.406 119.006C199.899 118.771 200.405 118.654 200.923 118.654C201.408 118.654 201.826 118.755 202.177 118.955C202.528 119.148 202.795 119.411 202.979 119.745C203.171 120.08 203.267 120.464 203.267 120.899C203.267 121.425 203.113 121.906 202.804 122.341C202.503 122.767 201.997 123.109 201.287 123.369C200.576 123.619 199.619 123.745 198.415 123.745ZM200.559 117.388C200.359 117.388 200.187 117.321 200.045 117.188C199.912 117.054 199.845 116.887 199.845 116.686C199.845 116.494 199.912 116.327 200.045 116.185C200.187 116.042 200.359 115.971 200.559 115.971C200.752 115.971 200.915 116.042 201.048 116.185C201.19 116.327 201.261 116.494 201.261 116.686C201.261 116.887 201.19 117.054 201.048 117.188C200.915 117.321 200.752 117.388 200.559 117.388Z" fill="#242424"/>
<path d="M225.142 130.851C223.377 130.851 221.81 130.555 220.44 129.961C219.079 129.367 218.011 128.556 217.235 127.527C216.467 126.49 216.087 125.315 216.095 124.001C216.087 122.98 216.309 122.042 216.76 121.187C217.211 120.332 217.821 119.62 218.588 119.05C219.364 118.472 220.227 118.104 221.177 117.946V117.78C219.926 117.503 218.913 116.865 218.137 115.868C217.369 114.863 216.989 113.703 216.997 112.389C216.989 111.139 217.338 110.023 218.042 109.041C218.747 108.06 219.712 107.288 220.939 106.726C222.166 106.156 223.567 105.871 225.142 105.871C226.701 105.871 228.09 106.156 229.309 106.726C230.536 107.288 231.502 108.06 232.206 109.041C232.919 110.023 233.275 111.139 233.275 112.389C233.275 113.703 232.883 114.863 232.099 115.868C231.324 116.865 230.323 117.503 229.096 117.78V117.946C230.045 118.104 230.9 118.472 231.66 119.05C232.428 119.62 233.037 120.332 233.489 121.187C233.948 122.042 234.177 122.98 234.177 124.001C234.177 125.315 233.789 126.49 233.014 127.527C232.238 128.556 231.169 129.367 229.808 129.961C228.455 130.555 226.899 130.851 225.142 130.851ZM225.142 127.456C226.052 127.456 226.844 127.302 227.517 126.993C228.189 126.676 228.712 126.233 229.084 125.663C229.456 125.093 229.646 124.436 229.654 123.692C229.646 122.917 229.444 122.232 229.048 121.638C228.66 121.037 228.126 120.566 227.445 120.225C226.773 119.885 226.005 119.715 225.142 119.715C224.271 119.715 223.496 119.885 222.815 120.225C222.134 120.566 221.596 121.037 221.2 121.638C220.812 122.232 220.623 122.917 220.63 123.692C220.623 124.436 220.805 125.093 221.177 125.663C221.549 126.225 222.071 126.664 222.744 126.981C223.424 127.298 224.224 127.456 225.142 127.456ZM225.142 116.379C225.886 116.379 226.543 116.228 227.113 115.927C227.691 115.627 228.146 115.207 228.478 114.669C228.811 114.131 228.981 113.509 228.989 112.805C228.981 112.108 228.815 111.499 228.49 110.977C228.166 110.446 227.714 110.039 227.137 109.754C226.559 109.461 225.894 109.314 225.142 109.314C224.374 109.314 223.698 109.461 223.112 109.754C222.534 110.039 222.083 110.446 221.758 110.977C221.442 111.499 221.287 112.108 221.295 112.805C221.287 113.509 221.446 114.131 221.77 114.669C222.103 115.199 222.558 115.619 223.136 115.927C223.721 116.228 224.39 116.379 225.142 116.379ZM245.141 130.851C243.558 130.851 242.141 130.555 240.89 129.961C239.64 129.359 238.646 128.536 237.91 127.492C237.182 126.447 236.794 125.252 236.747 123.906H241.021C241.1 124.903 241.531 125.719 242.315 126.352C243.099 126.977 244.04 127.29 245.141 127.29C246.003 127.29 246.771 127.092 247.444 126.696C248.117 126.3 248.647 125.75 249.035 125.046C249.423 124.341 249.613 123.538 249.605 122.636C249.613 121.717 249.419 120.902 249.023 120.19C248.627 119.477 248.085 118.919 247.396 118.516C246.708 118.104 245.916 117.898 245.022 117.898C244.294 117.89 243.577 118.025 242.873 118.302C242.168 118.579 241.61 118.943 241.199 119.394L237.222 118.741L238.492 106.204H252.597V109.884H242.137L241.436 116.331H241.579C242.03 115.801 242.667 115.362 243.49 115.013C244.313 114.657 245.216 114.479 246.197 114.479C247.67 114.479 248.983 114.827 250.139 115.524C251.295 116.212 252.205 117.162 252.87 118.373C253.535 119.584 253.867 120.969 253.867 122.529C253.867 124.135 253.495 125.568 252.751 126.827C252.015 128.077 250.99 129.063 249.676 129.783C248.37 130.495 246.858 130.851 245.141 130.851ZM265.356 130.851C264.192 130.844 263.057 130.642 261.948 130.246C260.84 129.842 259.843 129.189 258.956 128.287C258.07 127.377 257.366 126.17 256.843 124.666C256.321 123.154 256.064 121.282 256.071 119.05C256.071 116.968 256.293 115.112 256.736 113.482C257.18 111.851 257.817 110.474 258.648 109.35C259.479 108.218 260.48 107.355 261.652 106.762C262.831 106.168 264.149 105.871 265.605 105.871C267.133 105.871 268.486 106.172 269.666 106.774C270.853 107.375 271.811 108.198 272.539 109.243C273.267 110.28 273.718 111.451 273.892 112.757H269.559C269.337 111.823 268.882 111.079 268.193 110.525C267.513 109.963 266.65 109.682 265.605 109.682C263.919 109.682 262.621 110.415 261.711 111.879C260.809 113.343 260.354 115.354 260.346 117.91H260.512C260.9 117.214 261.402 116.616 262.02 116.117C262.637 115.619 263.334 115.235 264.109 114.966C264.893 114.689 265.72 114.55 266.591 114.55C268.015 114.55 269.294 114.891 270.426 115.571C271.565 116.252 272.468 117.19 273.132 118.385C273.797 119.572 274.126 120.934 274.118 122.469C274.126 124.068 273.762 125.505 273.026 126.779C272.29 128.046 271.265 129.043 269.951 129.771C268.637 130.499 267.105 130.859 265.356 130.851ZM265.332 127.29C266.195 127.29 266.967 127.08 267.647 126.66C268.328 126.241 268.866 125.675 269.262 124.963C269.658 124.25 269.852 123.451 269.844 122.564C269.852 121.694 269.662 120.906 269.274 120.202C268.894 119.497 268.368 118.939 267.695 118.528C267.022 118.116 266.254 117.91 265.391 117.91C264.75 117.91 264.153 118.033 263.599 118.278C263.045 118.524 262.562 118.864 262.15 119.299C261.739 119.727 261.414 120.225 261.177 120.795C260.947 121.357 260.828 121.959 260.821 122.6C260.828 123.447 261.026 124.227 261.414 124.939C261.802 125.651 262.336 126.221 263.017 126.649C263.698 127.076 264.469 127.29 265.332 127.29Z" fill="#242424"/>
<mask id="mask0_40005514_447456" style="mask-type:alpha" maskUnits="userSpaceOnUse" x="42" y="117" width="259" height="218">
<line x1="43.383" y1="117.907" x2="43.383" y2="334.334" stroke="black" stroke-width="0.877405"/>
<path d="M45.2843 117.907L45.2843 334.334" stroke="black" stroke-width="0.877405"/>
<path d="M47.6242 117.907L47.6242 334.334" stroke="black" stroke-width="0.877405"/>
<path d="M49.964 117.907L49.964 334.334" stroke="black" stroke-width="0.877405"/>
<path d="M52.3039 117.907L52.3039 334.334" stroke="black" stroke-width="0.877405"/>
<path d="M54.6437 117.907L54.6437 334.334" stroke="black" stroke-width="0.877405"/>
<path d="M56.9836 117.907L56.9836 334.334" stroke="black" stroke-width="0.877405"/>
<path d="M59.3234 117.907L59.3234 334.334" stroke="black" stroke-width="0.877405"/>
<path d="M61.6632 117.907L61.6632 334.334" stroke="black" stroke-width="0.877405"/>
<path d="M64.0021 117.907L64.0021 334.334" stroke="black" stroke-width="0.877405"/>
<path d="M66.342 117.907L66.342 334.334" stroke="black" stroke-width="0.877405"/>
<path d="M68.6818 117.907L68.6818 334.334" stroke="black" stroke-width="0.877405"/>
<path d="M71.0216 117.907L71.0216 334.334" stroke="black" stroke-width="0.877405"/>
<path d="M73.3615 117.907L73.3615 334.334" stroke="black" stroke-width="0.877405"/>
<path d="M75.7013 117.907L75.7013 334.334" stroke="black" stroke-width="0.877405"/>
<path d="M78.0412 117.907L78.0412 334.334" stroke="black" stroke-width="0.877405"/>
<path d="M80.381 117.907L80.381 334.334" stroke="black" stroke-width="0.877405"/>
<path d="M82.7209 117.907L82.7209 334.334" stroke="black" stroke-width="0.877405"/>
<path d="M85.0605 117.907L85.0605 334.334" stroke="black" stroke-width="0.877405"/>
<path d="M87.3996 117.907L87.3996 334.334" stroke="black" stroke-width="0.877405"/>
<path d="M89.7394 117.907L89.7394 334.334" stroke="black" stroke-width="0.877405"/>
<path d="M92.0793 117.907L92.0793 334.334" stroke="black" stroke-width="0.877405"/>
<path d="M94.4191 117.907L94.4191 334.334" stroke="black" stroke-width="0.877405"/>
<path d="M96.7589 117.907L96.7589 334.334" stroke="black" stroke-width="0.877405"/>
<path d="M99.0988 117.907L99.0988 334.334" stroke="black" stroke-width="0.877405"/>
<path d="M101.439 117.907L101.439 334.334" stroke="black" stroke-width="0.877405"/>
<path d="M103.778 117.907L103.778 334.334" stroke="black" stroke-width="0.877405"/>
<path d="M106.118 117.907L106.118 334.334" stroke="black" stroke-width="0.877405"/>
<path d="M108.458 117.907L108.458 334.334" stroke="black" stroke-width="0.877405"/>
<path d="M110.797 117.907L110.797 334.334" stroke="black" stroke-width="0.877405"/>
<path d="M113.137 117.907L113.137 334.334" stroke="black" stroke-width="0.877405"/>
<path d="M115.477 117.907L115.477 334.334" stroke="black" stroke-width="0.877405"/>
<path d="M117.817 117.907L117.817 334.334" stroke="black" stroke-width="0.877405"/>
<path d="M120.156 117.907L120.156 334.334" stroke="black" stroke-width="0.877405"/>
<path d="M122.496 117.907L122.496 334.334" stroke="black" stroke-width="0.877405"/>
<path d="M124.836 117.907L124.836 334.334" stroke="black" stroke-width="0.877405"/>
<path d="M127.176 117.907L127.176 334.334" stroke="black" stroke-width="0.877405"/>
<path d="M129.516 117.907V334.334" stroke="black" stroke-width="0.877405"/>
<path d="M131.856 117.907V334.334" stroke="black" stroke-width="0.877405"/>
<path d="M134.194 117.907V334.334" stroke="black" stroke-width="0.877405"/>
<path d="M136.534 117.907V334.334" stroke="black" stroke-width="0.877405"/>
<path d="M138.874 117.907V334.334" stroke="black" stroke-width="0.877405"/>
<path d="M141.214 117.907V334.334" stroke="black" stroke-width="0.877405"/>
<path d="M143.554 117.907V334.334" stroke="black" stroke-width="0.877405"/>
<path d="M145.894 117.907V334.334" stroke="black" stroke-width="0.877405"/>
<path d="M148.234 117.907V334.334" stroke="black" stroke-width="0.877405"/>
<path d="M150.573 117.907V334.334" stroke="black" stroke-width="0.877405"/>
<path d="M152.913 117.907V334.334" stroke="black" stroke-width="0.877405"/>
<path d="M155.253 117.907V334.334" stroke="black" stroke-width="0.877405"/>
<path d="M157.592 117.907V334.334" stroke="black" stroke-width="0.877405"/>
<path d="M159.932 117.907V334.334" stroke="black" stroke-width="0.877405"/>
<path d="M162.272 117.907V334.334" stroke="black" stroke-width="0.877405"/>
<path d="M164.611 117.907V334.334" stroke="black" stroke-width="0.877405"/>
<path d="M166.951 117.907V334.334" stroke="black" stroke-width="0.877405"/>
<path d="M169.291 117.907V334.334" stroke="black" stroke-width="0.877405"/>
<path d="M171.631 117.907V334.334" stroke="black" stroke-width="0.877405"/>
<path d="M173.971 117.907V334.334" stroke="black" stroke-width="0.877405"/>
<path d="M176.311 117.907V334.334" stroke="black" stroke-width="0.877405"/>
<path d="M178.651 117.907V334.334" stroke="black" stroke-width="0.877405"/>
<path d="M180.989 117.907V334.334" stroke="black" stroke-width="0.877405"/>
<path d="M183.329 117.907V334.334" stroke="black" stroke-width="0.877405"/>
<path d="M185.669 117.907V334.334" stroke="black" stroke-width="0.877405"/>
<path d="M188.009 117.907V334.334" stroke="black" stroke-width="0.877405"/>
<path d="M190.349 117.907V334.334" stroke="black" stroke-width="0.877405"/>
<path d="M192.689 117.907V334.334" stroke="black" stroke-width="0.877405"/>
<path d="M195.028 117.907V334.334" stroke="black" stroke-width="0.877405"/>
<path d="M197.368 117.907V334.334" stroke="black" stroke-width="0.877405"/>
<path d="M199.708 117.907V334.334" stroke="black" stroke-width="0.877405"/>
<path d="M202.048 117.907V334.334" stroke="black" stroke-width="0.877405"/>
<path d="M204.387 117.907V334.334" stroke="black" stroke-width="0.877405"/>
<path d="M206.727 117.907V334.334" stroke="black" stroke-width="0.877405"/>
<path d="M209.067 117.907V334.334" stroke="black" stroke-width="0.877405"/>
<path d="M211.406 117.907V334.334" stroke="black" stroke-width="0.877405"/>
<path d="M213.746 117.907V334.334" stroke="black" stroke-width="0.877405"/>
<path d="M216.086 117.907V334.334" stroke="black" stroke-width="0.877405"/>
<path d="M218.426 117.907V334.334" stroke="black" stroke-width="0.877405"/>
<path d="M220.766 117.907V334.334" stroke="black" stroke-width="0.877405"/>
<path d="M223.106 117.907V334.334" stroke="black" stroke-width="0.877405"/>
<path d="M225.445 117.907V334.334" stroke="black" stroke-width="0.877405"/>
<path d="M227.785 117.907V334.334" stroke="black" stroke-width="0.877405"/>
<path d="M230.124 117.907V334.334" stroke="black" stroke-width="0.877405"/>
<path d="M232.464 117.907V334.334" stroke="black" stroke-width="0.877405"/>
<path d="M234.804 117.907V334.334" stroke="black" stroke-width="0.877405"/>
<path d="M237.144 117.907V334.334" stroke="black" stroke-width="0.877405"/>
<path d="M239.484 117.907V334.334" stroke="black" stroke-width="0.877405"/>
<path d="M241.823 117.907V334.334" stroke="black" stroke-width="0.877405"/>
<path d="M244.163 117.907V334.334" stroke="black" stroke-width="0.877405"/>
<path d="M246.503 117.907V334.334" stroke="black" stroke-width="0.877405"/>
<path d="M248.843 117.907V334.334" stroke="black" stroke-width="0.877405"/>
<path d="M251.183 117.907V334.334" stroke="black" stroke-width="0.877405"/>
<path d="M253.522 117.907V334.334" stroke="black" stroke-width="0.877405"/>
<path d="M255.861 117.907V334.334" stroke="black" stroke-width="0.877405"/>
<path d="M258.201 117.907V334.334" stroke="black" stroke-width="0.877405"/>
<path d="M260.541 117.907V334.334" stroke="black" stroke-width="0.877405"/>
<path d="M262.881 117.907V334.334" stroke="black" stroke-width="0.877405"/>
<path d="M265.221 117.907V334.334" stroke="black" stroke-width="0.877405"/>
<path d="M267.561 117.907V334.334" stroke="black" stroke-width="0.877405"/>
<path d="M269.901 117.907V334.334" stroke="black" stroke-width="0.877405"/>
<path d="M272.24 117.907V334.334" stroke="black" stroke-width="0.877405"/>
<path d="M274.58 117.907V334.334" stroke="black" stroke-width="0.877405"/>
<path d="M276.92 117.907V334.334" stroke="black" stroke-width="0.877405"/>
<path d="M279.259 117.907V334.334" stroke="black" stroke-width="0.877405"/>
<path d="M281.599 117.907V334.334" stroke="black" stroke-width="0.877405"/>
<path d="M283.939 117.907V334.334" stroke="black" stroke-width="0.877405"/>
<path d="M286.278 117.907V334.334" stroke="black" stroke-width="0.877405"/>
<path d="M288.618 117.907V334.334" stroke="black" stroke-width="0.877405"/>
<path d="M290.958 117.907V334.334" stroke="black" stroke-width="0.877405"/>
<path d="M293.298 117.907V334.334" stroke="black" stroke-width="0.877405"/>
<path d="M295.638 117.907V334.334" stroke="black" stroke-width="0.877405"/>
<path d="M297.978 117.907V334.334" stroke="black" stroke-width="0.877405"/>
<path d="M300.318 117.907V334.334" stroke="black" stroke-width="0.877405"/>
</mask>
<g mask="url(#mask0_40005514_447456)">
<path d="M228.402 217.054C236.06 216.761 281.214 273.208 281.214 273.208V296.898C281.214 299.482 279.119 301.577 276.534 301.577H70.687C68.1026 301.577 66.0075 299.482 66.0075 296.898V150.664C66.0075 150.664 111.425 205.355 115.386 206.817C119.347 208.28 156.579 205.355 163.18 206.817C169.782 208.28 178.232 230.449 184.833 231.092C191.435 231.736 208.862 231.092 212.031 231.092C215.2 231.092 220.745 217.346 228.402 217.054Z" fill="url(#paint0_linear_40005514_447456)"/>
</g>
<path d="M281.214 273.208C281.214 273.208 236.06 216.761 228.402 217.054C220.745 217.346 215.2 231.092 212.031 231.092C208.862 231.092 191.435 231.736 184.833 231.092C178.232 230.449 169.782 208.28 163.18 206.817C156.579 205.355 119.347 208.28 115.386 206.817C111.425 205.355 66.0075 150.664 66.0075 150.664" stroke="#4F2396" stroke-width="1.75481" stroke-linecap="round"/>
<path d="M210.184 203.016C211.917 203.016 213.174 204.543 213.174 206.233C213.174 207.923 211.917 209.45 210.184 209.45C208.45 209.45 207.194 207.923 207.194 206.233C207.194 204.543 208.45 203.016 210.184 203.016Z" fill="white" stroke="#C8BBDE" stroke-width="1.75481"/>
<line x1="47.9363" y1="156.468" x2="268.165" y2="156.468" stroke="#F2F2F2" stroke-width="0.292468" stroke-linecap="round" stroke-dasharray="5.85 4.68"/>
<line x1="47.9363" y1="178.695" x2="268.165" y2="178.695" stroke="#F2F2F2" stroke-width="0.292468" stroke-linecap="round" stroke-dasharray="5.85 4.68"/>
<line x1="47.9363" y1="200.923" x2="268.165" y2="200.923" stroke="#F2F2F2" stroke-width="0.292468" stroke-linecap="round" stroke-dasharray="5.85 4.68"/>
<line x1="47.9363" y1="223.15" x2="268.165" y2="223.15" stroke="#F2F2F2" stroke-width="0.292468" stroke-linecap="round" stroke-dasharray="5.85 4.68"/>
<path d="M272.474 152.585C272.664 152.587 272.851 152.621 273.035 152.689C273.219 152.757 273.385 152.868 273.534 153.021C273.683 153.175 273.802 153.383 273.891 153.645C273.981 153.905 274.027 154.229 274.028 154.617C274.028 154.989 273.991 155.321 273.916 155.612C273.841 155.901 273.734 156.146 273.594 156.345C273.455 156.544 273.287 156.696 273.089 156.8C272.891 156.904 272.668 156.956 272.42 156.956C272.167 156.956 271.942 156.906 271.745 156.806C271.548 156.706 271.388 156.569 271.265 156.393C271.142 156.215 271.065 156.012 271.035 155.782H271.668C271.71 155.965 271.794 156.113 271.922 156.227C272.05 156.339 272.217 156.395 272.42 156.395C272.732 156.395 272.975 156.259 273.149 155.988C273.324 155.715 273.412 155.334 273.413 154.845H273.38C273.308 154.964 273.218 155.067 273.11 155.153C273.003 155.238 272.883 155.305 272.75 155.352C272.617 155.399 272.476 155.423 272.325 155.423C272.079 155.423 271.857 155.362 271.656 155.242C271.455 155.121 271.295 154.956 271.176 154.745C271.057 154.535 270.997 154.295 270.997 154.025C270.997 153.756 271.058 153.512 271.18 153.294C271.303 153.075 271.475 152.902 271.695 152.774C271.917 152.645 272.176 152.582 272.474 152.585ZM272.476 153.125C272.314 153.125 272.168 153.165 272.038 153.246C271.909 153.325 271.807 153.432 271.733 153.568C271.658 153.702 271.62 153.852 271.62 154.016C271.62 154.181 271.656 154.331 271.728 154.465C271.802 154.598 271.902 154.704 272.028 154.783C272.155 154.86 272.3 154.899 272.464 154.899C272.586 154.899 272.699 154.876 272.804 154.829C272.91 154.781 273.002 154.716 273.081 154.633C273.16 154.549 273.221 154.453 273.266 154.347C273.31 154.24 273.332 154.128 273.332 154.01C273.332 153.854 273.295 153.708 273.22 153.574C273.146 153.44 273.045 153.332 272.917 153.25C272.788 153.167 272.641 153.125 272.476 153.125ZM275.967 156.968C275.639 156.967 275.358 156.88 275.126 156.708C274.893 156.537 274.715 156.287 274.592 155.959C274.469 155.63 274.407 155.235 274.407 154.772C274.407 154.311 274.469 153.917 274.592 153.591C274.716 153.264 274.895 153.015 275.128 152.843C275.362 152.671 275.641 152.585 275.967 152.585C276.292 152.585 276.571 152.672 276.804 152.845C277.037 153.017 277.215 153.266 277.338 153.593C277.462 153.918 277.525 154.311 277.525 154.772C277.525 155.236 277.463 155.632 277.34 155.961C277.217 156.287 277.039 156.537 276.806 156.711C276.573 156.882 276.294 156.968 275.967 156.968ZM275.967 156.413C276.255 156.413 276.48 156.273 276.642 155.992C276.805 155.711 276.887 155.304 276.887 154.772C276.887 154.419 276.85 154.121 276.775 153.877C276.701 153.632 276.596 153.447 276.457 153.321C276.32 153.193 276.157 153.129 275.967 153.129C275.68 153.129 275.455 153.271 275.292 153.553C275.128 153.836 275.046 154.242 275.045 154.772C275.045 155.127 275.081 155.427 275.155 155.672C275.229 155.916 275.335 156.101 275.472 156.227C275.61 156.351 275.774 156.413 275.967 156.413ZM279.45 156.968C279.122 156.967 278.842 156.88 278.609 156.708C278.376 156.537 278.198 156.287 278.075 155.959C277.952 155.63 277.89 155.235 277.89 154.772C277.89 154.311 277.952 153.917 278.075 153.591C278.2 153.264 278.378 153.015 278.611 152.843C278.845 152.671 279.125 152.585 279.45 152.585C279.776 152.585 280.055 152.672 280.287 152.845C280.52 153.017 280.698 153.266 280.821 153.593C280.946 153.918 281.008 154.311 281.008 154.772C281.008 155.236 280.946 155.632 280.823 155.961C280.7 156.287 280.522 156.537 280.289 156.711C280.057 156.882 279.777 156.968 279.45 156.968ZM279.45 156.413C279.738 156.413 279.963 156.273 280.125 155.992C280.289 155.711 280.37 155.304 280.37 154.772C280.37 154.419 280.333 154.121 280.258 153.877C280.185 153.632 280.079 153.447 279.94 153.321C279.803 153.193 279.64 153.129 279.45 153.129C279.164 153.129 278.939 153.271 278.775 153.553C278.612 153.836 278.529 154.242 278.528 154.772C278.528 155.127 278.565 155.427 278.638 155.672C278.713 155.916 278.819 156.101 278.956 156.227C279.093 156.351 279.258 156.413 279.45 156.413Z" fill="#464646"/>
<path d="M271.203 179.936L273.06 176.264V176.232H270.912V175.682H273.725V176.251L271.874 179.936H271.203ZM275.544 180.007C275.216 180.005 274.936 179.919 274.703 179.747C274.47 179.575 274.292 179.325 274.169 178.997C274.046 178.669 273.984 178.274 273.984 177.811C273.984 177.35 274.046 176.956 274.169 176.629C274.294 176.302 274.472 176.053 274.705 175.881C274.939 175.71 275.219 175.624 275.544 175.624C275.87 175.624 276.149 175.71 276.381 175.883C276.614 176.055 276.792 176.304 276.915 176.631C277.04 176.957 277.102 177.35 277.102 177.811C277.102 178.275 277.04 178.671 276.917 178.999C276.794 179.326 276.616 179.576 276.383 179.749C276.151 179.921 275.871 180.007 275.544 180.007ZM275.544 179.452C275.832 179.452 276.057 179.311 276.219 179.03C276.383 178.749 276.464 178.343 276.464 177.811C276.464 177.458 276.427 177.16 276.352 176.916C276.279 176.671 276.173 176.485 276.034 176.359C275.897 176.232 275.734 176.168 275.544 176.168C275.257 176.168 275.032 176.309 274.869 176.592C274.706 176.874 274.623 177.281 274.622 177.811C274.622 178.166 274.659 178.465 274.732 178.71C274.807 178.954 274.913 179.139 275.05 179.265C275.187 179.39 275.352 179.452 275.544 179.452ZM279.027 180.007C278.699 180.005 278.419 179.919 278.186 179.747C277.954 179.575 277.776 179.325 277.652 178.997C277.529 178.669 277.468 178.274 277.468 177.811C277.468 177.35 277.529 176.956 277.652 176.629C277.777 176.302 277.956 176.053 278.188 175.881C278.422 175.71 278.702 175.624 279.027 175.624C279.353 175.624 279.632 175.71 279.865 175.883C280.097 176.055 280.275 176.304 280.398 176.631C280.523 176.957 280.585 177.35 280.585 177.811C280.585 178.275 280.524 178.671 280.401 178.999C280.277 179.326 280.099 179.576 279.867 179.749C279.634 179.921 279.354 180.007 279.027 180.007ZM279.027 179.452C279.316 179.452 279.541 179.311 279.703 179.03C279.866 178.749 279.948 178.343 279.948 177.811C279.948 177.458 279.91 177.16 279.836 176.916C279.762 176.671 279.656 176.485 279.518 176.359C279.381 176.232 279.217 176.168 279.027 176.168C278.741 176.168 278.516 176.309 278.352 176.592C278.189 176.874 278.107 177.281 278.105 177.811C278.105 178.166 278.142 178.465 278.215 178.71C278.29 178.954 278.396 179.139 278.533 179.265C278.67 179.39 278.835 179.452 279.027 179.452Z" fill="#464646"/>
<path d="M272.545 203.033C272.355 203.03 272.168 202.995 271.984 202.929C271.801 202.862 271.635 202.752 271.485 202.597C271.336 202.441 271.216 202.233 271.126 201.971C271.037 201.71 270.993 201.383 270.993 200.991C270.993 200.62 271.03 200.29 271.103 200.002C271.178 199.714 271.285 199.471 271.425 199.273C271.565 199.074 271.734 198.922 271.932 198.818C272.13 198.714 272.352 198.662 272.599 198.662C272.852 198.662 273.077 198.712 273.274 198.812C273.471 198.912 273.63 199.049 273.752 199.225C273.875 199.401 273.953 199.601 273.986 199.826H273.353C273.31 199.648 273.225 199.504 273.097 199.391C272.97 199.279 272.804 199.223 272.599 199.223C272.287 199.223 272.044 199.359 271.87 199.63C271.697 199.902 271.609 200.279 271.608 200.762H271.639C271.713 200.642 271.803 200.539 271.909 200.455C272.017 200.369 272.138 200.303 272.271 200.258C272.405 200.211 272.546 200.187 272.694 200.187C272.941 200.187 273.164 200.247 273.363 200.368C273.564 200.487 273.724 200.652 273.843 200.862C273.962 201.073 274.022 201.314 274.022 201.585C274.022 201.856 273.96 202.102 273.837 202.322C273.715 202.543 273.543 202.717 273.322 202.846C273.1 202.973 272.841 203.036 272.545 203.033ZM272.543 202.493C272.706 202.493 272.852 202.453 272.981 202.372C273.11 202.292 273.212 202.184 273.286 202.048C273.361 201.912 273.399 201.761 273.399 201.593C273.399 201.43 273.362 201.281 273.288 201.147C273.216 201.012 273.117 200.906 272.989 200.827C272.863 200.748 272.719 200.708 272.557 200.708C272.434 200.708 272.32 200.732 272.215 200.779C272.111 200.826 272.019 200.891 271.94 200.974C271.861 201.057 271.799 201.153 271.753 201.261C271.709 201.368 271.687 201.48 271.687 201.6C271.687 201.759 271.724 201.906 271.797 202.042C271.872 202.178 271.974 202.287 272.102 202.37C272.233 202.452 272.379 202.493 272.543 202.493ZM275.967 203.045C275.639 203.044 275.358 202.957 275.126 202.786C274.893 202.614 274.715 202.364 274.592 202.036C274.469 201.708 274.407 201.312 274.407 200.85C274.407 200.389 274.469 199.995 274.592 199.668C274.716 199.341 274.895 199.092 275.128 198.92C275.362 198.748 275.641 198.662 275.967 198.662C276.292 198.662 276.571 198.749 276.804 198.922C277.037 199.094 277.215 199.343 277.338 199.67C277.462 199.995 277.525 200.389 277.525 200.85C277.525 201.314 277.463 201.71 277.34 202.038C277.217 202.365 277.039 202.615 276.806 202.788C276.573 202.959 276.294 203.045 275.967 203.045ZM275.967 202.491C276.255 202.491 276.48 202.35 276.642 202.069C276.805 201.788 276.887 201.381 276.887 200.85C276.887 200.497 276.85 200.198 276.775 199.954C276.701 199.709 276.596 199.524 276.457 199.398C276.32 199.27 276.157 199.207 275.967 199.207C275.68 199.207 275.455 199.348 275.292 199.63C275.128 199.913 275.046 200.319 275.045 200.85C275.045 201.204 275.081 201.504 275.155 201.749C275.229 201.993 275.335 202.178 275.472 202.304C275.61 202.428 275.774 202.491 275.967 202.491ZM279.45 203.045C279.122 203.044 278.842 202.957 278.609 202.786C278.376 202.614 278.198 202.364 278.075 202.036C277.952 201.708 277.89 201.312 277.89 200.85C277.89 200.389 277.952 199.995 278.075 199.668C278.2 199.341 278.378 199.092 278.611 198.92C278.845 198.748 279.125 198.662 279.45 198.662C279.776 198.662 280.055 198.749 280.287 198.922C280.52 199.094 280.698 199.343 280.821 199.67C280.946 199.995 281.008 200.389 281.008 200.85C281.008 201.314 280.946 201.71 280.823 202.038C280.7 202.365 280.522 202.615 280.289 202.788C280.057 202.959 279.777 203.045 279.45 203.045ZM279.45 202.491C279.738 202.491 279.963 202.35 280.125 202.069C280.289 201.788 280.37 201.381 280.37 200.85C280.37 200.497 280.333 200.198 280.258 199.954C280.185 199.709 280.079 199.524 279.94 199.398C279.803 199.27 279.64 199.207 279.45 199.207C279.164 199.207 278.939 199.348 278.775 199.63C278.612 199.913 278.529 200.319 278.528 200.85C278.528 201.204 278.565 201.504 278.638 201.749C278.713 201.993 278.819 202.178 278.956 202.304C279.093 202.428 279.258 202.491 279.45 202.491Z" fill="#464646"/>
<path d="M271.06 226.013V225.547L272.499 224.056C272.653 223.894 272.78 223.752 272.879 223.63C272.98 223.507 273.056 223.39 273.106 223.279C273.155 223.168 273.18 223.051 273.18 222.926C273.18 222.785 273.147 222.663 273.081 222.56C273.014 222.457 272.924 222.377 272.809 222.322C272.694 222.265 272.564 222.236 272.42 222.236C272.268 222.236 272.135 222.268 272.021 222.33C271.908 222.392 271.821 222.48 271.76 222.594C271.699 222.707 271.668 222.84 271.668 222.992H271.055C271.055 222.734 271.115 222.507 271.234 222.313C271.353 222.119 271.517 221.969 271.724 221.862C271.932 221.754 272.168 221.7 272.433 221.7C272.7 221.7 272.935 221.754 273.139 221.86C273.344 221.966 273.504 222.11 273.619 222.292C273.734 222.474 273.791 222.679 273.791 222.907C273.791 223.065 273.761 223.22 273.702 223.371C273.644 223.521 273.542 223.69 273.396 223.875C273.251 224.059 273.049 224.283 272.79 224.546L271.944 225.431V225.462H273.86V226.013H271.06ZM275.835 226.083C275.507 226.082 275.227 225.995 274.994 225.824C274.762 225.652 274.584 225.402 274.46 225.074C274.337 224.746 274.276 224.35 274.276 223.888C274.276 223.427 274.337 223.033 274.46 222.706C274.585 222.379 274.764 222.13 274.996 221.958C275.23 221.786 275.51 221.7 275.835 221.7C276.161 221.7 276.44 221.787 276.673 221.96C276.905 222.132 277.083 222.381 277.206 222.708C277.331 223.033 277.393 223.427 277.393 223.888C277.393 224.352 277.332 224.748 277.208 225.076C277.085 225.403 276.907 225.653 276.675 225.826C276.442 225.997 276.162 226.083 275.835 226.083ZM275.835 225.529C276.124 225.529 276.349 225.388 276.511 225.107C276.674 224.826 276.756 224.419 276.756 223.888C276.756 223.535 276.718 223.236 276.643 222.992C276.57 222.747 276.464 222.562 276.326 222.436C276.189 222.308 276.025 222.245 275.835 222.245C275.549 222.245 275.324 222.386 275.16 222.668C274.997 222.951 274.915 223.357 274.913 223.888C274.913 224.242 274.95 224.542 275.023 224.787C275.098 225.031 275.204 225.216 275.341 225.342C275.478 225.466 275.643 225.529 275.835 225.529ZM279.319 226.083C278.991 226.082 278.71 225.995 278.478 225.824C278.245 225.652 278.067 225.402 277.944 225.074C277.82 224.746 277.759 224.35 277.759 223.888C277.759 223.427 277.82 223.033 277.944 222.706C278.068 222.379 278.247 222.13 278.48 221.958C278.714 221.786 278.993 221.7 279.319 221.7C279.644 221.7 279.923 221.787 280.156 221.96C280.389 222.132 280.567 222.381 280.69 222.708C280.814 223.033 280.877 223.427 280.877 223.888C280.877 224.352 280.815 224.748 280.692 225.076C280.569 225.403 280.391 225.653 280.158 225.826C279.925 225.997 279.646 226.083 279.319 226.083ZM279.319 225.529C279.607 225.529 279.832 225.388 279.994 225.107C280.157 224.826 280.239 224.419 280.239 223.888C280.239 223.535 280.202 223.236 280.127 222.992C280.053 222.747 279.948 222.562 279.809 222.436C279.672 222.308 279.509 222.245 279.319 222.245C279.032 222.245 278.807 222.386 278.644 222.668C278.48 222.951 278.398 223.357 278.397 223.888C278.397 224.242 278.433 224.542 278.507 224.787C278.581 225.031 278.687 225.216 278.824 225.342C278.962 225.466 279.126 225.529 279.319 225.529Z" fill="#464646"/>
<g filter="url(#filter1_d_40005514_447456)">
<rect x="162.106" y="159.952" width="80.1493" height="40.9484" rx="5.97935" fill="white" shape-rendering="crispEdges"/>
<rect x="162.48" y="160.326" width="79.4019" height="40.201" rx="5.60564" stroke="#F9F9F9" stroke-width="0.747419" shape-rendering="crispEdges"/>
<path d="M210.721 175.651L210.586 175.038C210.885 174.998 211.159 174.941 211.408 174.866C211.662 174.796 211.879 174.694 212.058 174.559C212.243 174.425 212.385 174.248 212.485 174.029C212.584 173.81 212.634 173.536 212.634 173.207C212.634 172.868 212.572 172.586 212.447 172.362C212.323 172.138 212.161 172.026 211.961 172.026C211.857 172.026 211.76 172.066 211.67 172.145C211.58 172.225 211.505 172.332 211.446 172.467C211.391 172.601 211.363 172.748 211.363 172.908C211.363 172.997 211.383 173.072 211.423 173.132C211.463 173.187 211.52 173.232 211.595 173.266C211.675 173.296 211.774 173.319 211.894 173.334C212.014 173.349 212.153 173.356 212.313 173.356H213.89C213.994 173.356 214.069 173.386 214.114 173.446C214.164 173.501 214.189 173.568 214.189 173.648C214.189 173.727 214.154 173.802 214.084 173.872C214.014 173.937 213.925 173.969 213.815 173.969H212.029C211.804 173.969 211.595 173.937 211.401 173.872C211.211 173.807 211.057 173.707 210.937 173.573C210.823 173.433 210.765 173.251 210.765 173.027C210.765 172.818 210.798 172.619 210.863 172.429C210.927 172.235 211.015 172.063 211.124 171.914C211.239 171.759 211.371 171.637 211.52 171.547C211.675 171.458 211.842 171.413 212.021 171.413C212.25 171.413 212.455 171.48 212.634 171.615C212.813 171.749 212.955 171.953 213.06 172.228C213.165 172.497 213.217 172.838 213.217 173.251C213.217 173.715 213.122 174.114 212.933 174.447C212.749 174.786 212.47 175.055 212.096 175.255C211.727 175.454 211.269 175.586 210.721 175.651ZM213.588 173.969L213.663 173.356C213.912 173.356 214.107 173.339 214.246 173.304C214.386 173.264 214.49 173.192 214.56 173.087C214.635 172.977 214.694 172.82 214.739 172.616C214.784 172.412 214.839 172.145 214.904 171.816L215.487 171.929C215.467 172.018 215.444 172.118 215.419 172.228C215.395 172.337 215.372 172.447 215.352 172.556C215.337 172.661 215.33 172.753 215.33 172.833C215.33 172.908 215.335 172.977 215.345 173.042C215.355 173.107 215.392 173.162 215.457 173.207C215.522 173.251 215.631 173.289 215.786 173.319C215.94 173.344 216.162 173.356 216.451 173.356C216.556 173.356 216.63 173.386 216.675 173.446C216.725 173.501 216.75 173.568 216.75 173.648C216.75 173.727 216.715 173.802 216.645 173.872C216.575 173.937 216.486 173.969 216.376 173.969C216.072 173.969 215.831 173.954 215.651 173.924C215.472 173.889 215.335 173.839 215.24 173.775C215.15 173.71 215.086 173.63 215.046 173.536C215.011 173.436 214.983 173.321 214.964 173.192L215.188 173.207C215.108 173.366 215.021 173.496 214.926 173.595C214.836 173.695 214.732 173.772 214.612 173.827C214.493 173.882 214.348 173.919 214.179 173.939C214.014 173.959 213.818 173.969 213.588 173.969ZM215.472 175.382C215.367 175.382 215.277 175.344 215.203 175.27C215.133 175.2 215.098 175.115 215.098 175.015C215.098 174.916 215.133 174.829 215.203 174.754C215.277 174.679 215.367 174.642 215.472 174.642C215.571 174.642 215.656 174.679 215.726 174.754C215.801 174.829 215.838 174.916 215.838 175.015C215.838 175.115 215.801 175.2 215.726 175.27C215.656 175.344 215.571 175.382 215.472 175.382ZM214.448 175.382C214.343 175.382 214.254 175.344 214.179 175.27C214.109 175.2 214.074 175.115 214.074 175.015C214.074 174.916 214.109 174.829 214.179 174.754C214.254 174.679 214.343 174.642 214.448 174.642C214.547 174.642 214.632 174.679 214.702 174.754C214.777 174.829 214.814 174.916 214.814 175.015C214.814 175.115 214.777 175.2 214.702 175.27C214.632 175.344 214.547 175.382 214.448 175.382ZM216.152 173.969L216.22 173.356C216.504 173.356 216.703 173.329 216.818 173.274C216.932 173.219 216.997 173.122 217.012 172.982C217.032 172.843 217.037 172.649 217.027 172.399L216.885 168.595H217.49L217.64 172.332C217.65 172.596 217.64 172.83 217.61 173.035C217.585 173.239 217.52 173.411 217.415 173.55C217.316 173.69 217.164 173.795 216.96 173.864C216.76 173.934 216.491 173.969 216.152 173.969ZM218.303 175.651L218.169 175.038C218.468 174.998 218.742 174.941 218.991 174.866C219.245 174.796 219.462 174.694 219.641 174.559C219.825 174.425 219.967 174.248 220.067 174.029C220.167 173.81 220.217 173.536 220.217 173.207C220.217 172.868 220.154 172.586 220.03 172.362C219.905 172.138 219.743 172.026 219.544 172.026C219.439 172.026 219.342 172.066 219.252 172.145C219.163 172.225 219.088 172.332 219.028 172.467C218.973 172.601 218.946 172.748 218.946 172.908C218.946 172.997 218.966 173.072 219.006 173.132C219.046 173.187 219.103 173.232 219.178 173.266C219.257 173.296 219.357 173.319 219.477 173.334C219.596 173.349 219.736 173.356 219.895 173.356H221.472C221.577 173.356 221.652 173.386 221.696 173.446C221.746 173.501 221.771 173.568 221.771 173.648C221.771 173.727 221.736 173.802 221.667 173.872C221.597 173.937 221.507 173.969 221.397 173.969H219.611C219.387 173.969 219.178 173.937 218.983 173.872C218.794 173.807 218.639 173.707 218.52 173.573C218.405 173.433 218.348 173.251 218.348 173.027C218.348 172.818 218.38 172.619 218.445 172.429C218.51 172.235 218.597 172.063 218.707 171.914C218.821 171.759 218.953 171.637 219.103 171.547C219.257 171.458 219.424 171.413 219.604 171.413C219.833 171.413 220.037 171.48 220.217 171.615C220.396 171.749 220.538 171.953 220.643 172.228C220.747 172.497 220.799 172.838 220.799 173.251C220.799 173.715 220.705 174.114 220.515 174.447C220.331 174.786 220.052 175.055 219.678 175.255C219.31 175.454 218.851 175.586 218.303 175.651ZM221.171 173.969L221.246 173.356C221.54 173.356 221.769 173.346 221.933 173.326C222.098 173.301 222.215 173.244 222.284 173.154C222.354 173.06 222.389 172.913 222.389 172.713C222.389 172.589 222.369 172.442 222.329 172.272C222.289 172.098 222.237 171.914 222.172 171.719C222.108 171.525 222.038 171.333 221.963 171.144L222.568 170.92C222.633 171.079 222.693 171.261 222.748 171.465C222.808 171.669 222.857 171.871 222.897 172.071C222.937 172.27 222.957 172.444 222.957 172.594C222.957 172.843 222.922 173.055 222.853 173.229C222.788 173.403 222.683 173.545 222.539 173.655C222.394 173.765 222.207 173.844 221.978 173.894C221.754 173.944 221.485 173.969 221.171 173.969ZM222.554 175.382C222.449 175.382 222.359 175.344 222.284 175.27C222.215 175.2 222.18 175.115 222.18 175.015C222.18 174.916 222.215 174.829 222.284 174.754C222.359 174.679 222.449 174.642 222.554 174.642C222.653 174.642 222.738 174.679 222.808 174.754C222.882 174.829 222.92 174.916 222.92 175.015C222.92 175.115 222.882 175.2 222.808 175.27C222.738 175.344 222.653 175.382 222.554 175.382ZM221.53 175.382C221.425 175.382 221.335 175.344 221.261 175.27C221.191 175.2 221.156 175.115 221.156 175.015C221.156 174.916 221.191 174.829 221.261 174.754C221.335 174.679 221.425 174.642 221.53 174.642C221.629 174.642 221.714 174.679 221.784 174.754C221.858 174.829 221.896 174.916 221.896 175.015C221.896 175.115 221.858 175.2 221.784 175.27C221.714 175.344 221.629 175.382 221.53 175.382ZM227.532 168.496V173.932H226.873V169.186H226.842L225.514 170.067V169.398L226.873 168.496H227.532ZM228.871 173.932V173.454L230.665 171.49C230.876 171.26 231.049 171.06 231.185 170.89C231.321 170.718 231.422 170.557 231.488 170.407C231.555 170.255 231.589 170.095 231.589 169.929C231.589 169.738 231.543 169.573 231.451 169.433C231.36 169.293 231.237 169.185 231.079 169.109C230.922 169.033 230.745 168.995 230.548 168.995C230.339 168.995 230.157 169.038 230.001 169.125C229.848 169.21 229.728 169.329 229.643 169.483C229.56 169.637 229.518 169.818 229.518 170.025H228.892C228.892 169.706 228.965 169.427 229.112 169.186C229.259 168.945 229.459 168.758 229.712 168.623C229.967 168.489 230.253 168.422 230.569 168.422C230.888 168.422 231.17 168.489 231.416 168.623C231.662 168.758 231.855 168.939 231.995 169.167C232.135 169.396 232.204 169.65 232.204 169.929C232.204 170.129 232.168 170.325 232.096 170.516C232.025 170.705 231.901 170.916 231.724 171.15C231.549 171.382 231.306 171.665 230.994 171.999L229.773 173.305V173.348H232.3V173.932H228.871Z" fill="#7A7A7A"/>
<rect x="171.823" y="176.932" width="33.9794" height="14.9897" rx="2.98968" fill="#E0F0E4"/>
<path d="M177.715 186.331V182.024H178.572V186.331H177.715ZM175.992 184.604V183.751H180.298V184.604H175.992ZM183.942 187.515C183.504 187.515 183.114 187.44 182.77 187.289C182.428 187.139 182.157 186.929 181.958 186.662C181.76 186.392 181.654 186.08 181.639 185.725H182.639C182.652 185.919 182.717 186.086 182.833 186.229C182.952 186.369 183.107 186.477 183.298 186.554C183.49 186.63 183.702 186.668 183.935 186.668C184.192 186.668 184.42 186.624 184.617 186.534C184.817 186.445 184.973 186.321 185.085 186.162C185.198 186 185.254 185.815 185.254 185.604C185.254 185.386 185.198 185.194 185.085 185.028C184.975 184.86 184.812 184.729 184.598 184.633C184.386 184.537 184.129 184.49 183.827 184.49H183.276V183.687H183.827C184.069 183.687 184.282 183.644 184.464 183.556C184.649 183.469 184.793 183.348 184.897 183.193C185.001 183.036 185.053 182.853 185.053 182.642C185.053 182.441 185.008 182.265 184.916 182.117C184.827 181.966 184.7 181.848 184.534 181.763C184.371 181.678 184.177 181.636 183.955 181.636C183.742 181.636 183.544 181.675 183.359 181.754C183.176 181.83 183.028 181.941 182.913 182.085C182.798 182.227 182.737 182.398 182.728 182.598H181.776C181.787 182.245 181.891 181.935 182.088 181.668C182.288 181.4 182.551 181.191 182.878 181.04C183.205 180.89 183.568 180.814 183.967 180.814C184.386 180.814 184.747 180.896 185.05 181.059C185.356 181.221 185.592 181.436 185.757 181.706C185.925 181.976 186.008 182.271 186.006 182.591C186.008 182.957 185.906 183.267 185.7 183.521C185.496 183.776 185.224 183.947 184.885 184.034V184.085C185.318 184.151 185.653 184.323 185.891 184.601C186.131 184.879 186.25 185.224 186.248 185.636C186.25 185.995 186.15 186.317 185.948 186.601C185.749 186.886 185.476 187.11 185.13 187.273C184.784 187.435 184.388 187.515 183.942 187.515ZM187.899 187.487C187.725 187.487 187.575 187.425 187.45 187.302C187.325 187.177 187.262 187.026 187.262 186.85C187.262 186.676 187.325 186.527 187.45 186.404C187.575 186.279 187.725 186.216 187.899 186.216C188.073 186.216 188.223 186.279 188.348 186.404C188.474 186.527 188.536 186.676 188.536 186.85C188.536 186.967 188.506 187.074 188.447 187.171C188.39 187.267 188.313 187.343 188.218 187.401C188.122 187.458 188.016 187.487 187.899 187.487ZM189.662 186.152V185.356L192.481 180.903H193.108V182.075H192.71L190.694 185.267V185.318H194.557V186.152H189.662ZM192.755 187.426V185.91L192.761 185.547V180.903H193.694V187.426H192.755ZM199.072 186.203V185.859C199.072 185.613 199.123 185.388 199.225 185.184C199.329 184.978 199.48 184.813 199.677 184.69C199.877 184.565 200.118 184.502 200.4 184.502C200.689 184.502 200.931 184.564 201.127 184.687C201.322 184.81 201.47 184.975 201.569 185.181C201.671 185.387 201.722 185.613 201.722 185.859V186.203C201.722 186.45 201.671 186.676 201.569 186.882C201.467 187.085 201.318 187.25 201.12 187.375C200.925 187.498 200.685 187.56 200.4 187.56C200.114 187.56 199.872 187.498 199.674 187.375C199.477 187.25 199.327 187.085 199.225 186.882C199.123 186.676 199.072 186.45 199.072 186.203ZM199.814 185.859V186.203C199.814 186.386 199.858 186.551 199.945 186.7C200.032 186.849 200.184 186.923 200.4 186.923C200.615 186.923 200.765 186.849 200.85 186.7C200.934 186.551 200.977 186.386 200.977 186.203V185.859C200.977 185.677 200.936 185.511 200.853 185.362C200.772 185.214 200.621 185.139 200.4 185.139C200.188 185.139 200.037 185.214 199.948 185.362C199.859 185.511 199.814 185.677 199.814 185.859ZM195.792 182.47V182.126C195.792 181.88 195.843 181.654 195.945 181.448C196.049 181.242 196.199 181.077 196.397 180.954C196.596 180.831 196.837 180.77 197.12 180.77C197.409 180.77 197.651 180.831 197.846 180.954C198.041 181.077 198.189 181.242 198.289 181.448C198.389 181.654 198.438 181.88 198.438 182.126V182.47C198.438 182.717 198.387 182.943 198.286 183.149C198.186 183.353 198.037 183.517 197.84 183.642C197.644 183.766 197.404 183.827 197.12 183.827C196.831 183.827 196.588 183.766 196.39 183.642C196.195 183.517 196.046 183.353 195.945 183.149C195.843 182.943 195.792 182.717 195.792 182.47ZM196.537 182.126V182.47C196.537 182.653 196.579 182.819 196.664 182.967C196.751 183.116 196.903 183.19 197.12 183.19C197.332 183.19 197.481 183.116 197.566 182.967C197.653 182.819 197.696 182.653 197.696 182.47V182.126C197.696 181.944 197.655 181.778 197.572 181.63C197.489 181.481 197.339 181.407 197.12 181.407C196.908 181.407 196.757 181.481 196.668 181.63C196.581 181.778 196.537 181.944 196.537 182.126ZM196.094 187.426L200.579 180.903H201.34L196.855 187.426H196.094Z" fill="#377E36"/>
<path d="M214.16 189.051C213.772 189.045 213.39 188.974 213.013 188.838C212.64 188.702 212.3 188.476 211.994 188.159C211.689 187.842 211.444 187.416 211.26 186.88C211.078 186.345 210.988 185.677 210.988 184.876C210.988 184.117 211.063 183.443 211.213 182.855C211.366 182.266 211.585 181.769 211.871 181.364C212.157 180.956 212.502 180.646 212.907 180.434C213.312 180.222 213.767 180.115 214.271 180.115C214.789 180.115 215.249 180.217 215.651 180.421C216.053 180.625 216.378 180.907 216.627 181.266C216.879 181.626 217.039 182.035 217.107 182.494H215.812C215.724 182.131 215.55 181.835 215.29 181.606C215.029 181.377 214.69 181.262 214.271 181.262C213.634 181.262 213.137 181.54 212.78 182.094C212.426 182.649 212.248 183.421 212.245 184.409H212.309C212.459 184.163 212.643 183.953 212.861 183.78C213.081 183.605 213.328 183.47 213.6 183.377C213.874 183.281 214.163 183.233 214.466 183.233C214.97 183.233 215.426 183.356 215.833 183.602C216.244 183.846 216.571 184.182 216.814 184.613C217.058 185.043 217.18 185.536 217.18 186.091C217.18 186.646 217.054 187.148 216.802 187.598C216.552 188.048 216.201 188.405 215.748 188.668C215.295 188.929 214.766 189.056 214.16 189.051ZM214.156 187.946C214.49 187.946 214.789 187.864 215.052 187.7C215.315 187.536 215.523 187.315 215.676 187.038C215.829 186.76 215.905 186.45 215.905 186.108C215.905 185.774 215.83 185.469 215.68 185.195C215.533 184.92 215.329 184.702 215.069 184.541C214.811 184.379 214.517 184.298 214.186 184.298C213.934 184.298 213.7 184.347 213.485 184.443C213.273 184.539 213.086 184.672 212.924 184.842C212.763 185.012 212.636 185.207 212.542 185.428C212.452 185.646 212.406 185.877 212.406 186.12C212.406 186.446 212.481 186.747 212.631 187.025C212.784 187.302 212.992 187.526 213.256 187.696C213.522 187.863 213.822 187.946 214.156 187.946ZM221.763 189.051C221.375 189.045 220.993 188.974 220.616 188.838C220.242 188.702 219.903 188.476 219.597 188.159C219.291 187.842 219.046 187.416 218.862 186.88C218.681 186.345 218.59 185.677 218.59 184.876C218.59 184.117 218.665 183.443 218.816 182.855C218.968 182.266 219.188 181.769 219.474 181.364C219.76 180.956 220.105 180.646 220.51 180.434C220.915 180.222 221.369 180.115 221.873 180.115C222.391 180.115 222.851 180.217 223.253 180.421C223.655 180.625 223.981 180.907 224.23 181.266C224.482 181.626 224.642 182.035 224.71 182.494H223.415C223.327 182.131 223.153 181.835 222.892 181.606C222.632 181.377 222.292 181.262 221.873 181.262C221.236 181.262 220.739 181.54 220.383 182.094C220.029 182.649 219.85 183.421 219.847 184.409H219.911C220.061 184.163 220.245 183.953 220.463 183.78C220.684 183.605 220.93 183.47 221.202 183.377C221.477 183.281 221.766 183.233 222.069 183.233C222.572 183.233 223.028 183.356 223.436 183.602C223.846 183.846 224.173 184.182 224.417 184.613C224.66 185.043 224.782 185.536 224.782 186.091C224.782 186.646 224.656 187.148 224.404 187.598C224.155 188.048 223.804 188.405 223.351 188.668C222.898 188.929 222.369 189.056 221.763 189.051ZM221.759 187.946C222.093 187.946 222.391 187.864 222.655 187.7C222.918 187.536 223.126 187.315 223.279 187.038C223.432 186.76 223.508 186.45 223.508 186.108C223.508 185.774 223.433 185.469 223.283 185.195C223.136 184.92 222.932 184.702 222.672 184.541C222.414 184.379 222.119 184.298 221.788 184.298C221.536 184.298 221.303 184.347 221.088 184.443C220.875 184.539 220.688 184.672 220.527 184.842C220.366 185.012 220.238 185.207 220.145 185.428C220.054 185.646 220.009 185.877 220.009 186.12C220.009 186.446 220.084 186.747 220.234 187.025C220.387 187.302 220.595 187.526 220.858 187.696C221.124 187.863 221.424 187.946 221.759 187.946ZM229.365 189.051C228.978 189.045 228.595 188.974 228.219 188.838C227.845 188.702 227.505 188.476 227.2 188.159C226.894 187.842 226.649 187.416 226.465 186.88C226.284 186.345 226.193 185.677 226.193 184.876C226.193 184.117 226.268 183.443 226.418 182.855C226.571 182.266 226.79 181.769 227.076 181.364C227.362 180.956 227.708 180.646 228.113 180.434C228.517 180.222 228.972 180.115 229.476 180.115C229.994 180.115 230.454 180.217 230.856 180.421C231.258 180.625 231.584 180.907 231.833 181.266C232.085 181.626 232.245 182.035 232.313 182.494H231.017C230.93 182.131 230.755 181.835 230.495 181.606C230.235 181.377 229.895 181.262 229.476 181.262C228.839 181.262 228.342 181.54 227.985 182.094C227.631 182.649 227.453 183.421 227.45 184.409H227.514C227.664 184.163 227.848 183.953 228.066 183.78C228.287 183.605 228.533 183.47 228.805 183.377C229.079 183.281 229.368 183.233 229.671 183.233C230.175 183.233 230.631 183.356 231.039 183.602C231.449 183.846 231.776 184.182 232.02 184.613C232.263 185.043 232.385 185.536 232.385 186.091C232.385 186.646 232.259 187.148 232.007 187.598C231.758 188.048 231.407 188.405 230.954 188.668C230.501 188.929 229.971 189.056 229.365 189.051ZM229.361 187.946C229.695 187.946 229.994 187.864 230.257 187.7C230.521 187.536 230.729 187.315 230.881 187.038C231.034 186.76 231.111 186.45 231.111 186.108C231.111 185.774 231.036 185.469 230.886 185.195C230.739 184.92 230.535 184.702 230.274 184.541C230.017 184.379 229.722 184.298 229.391 184.298C229.139 184.298 228.905 184.347 228.69 184.443C228.478 184.539 228.291 184.672 228.13 184.842C227.968 185.012 227.841 185.207 227.747 185.428C227.657 185.646 227.612 185.877 227.612 186.12C227.612 186.446 227.687 186.747 227.837 187.025C227.989 187.302 228.198 187.526 228.461 187.696C228.727 187.863 229.027 187.946 229.361 187.946Z" fill="#242424"/>
</g>
</g>
<defs>
<filter id="filter0_d_40005514_447456" x="-0.000303268" y="0.000185013" width="334.411" height="347.394" filterUnits="userSpaceOnUse" color-interpolation-filters="sRGB">
<feFlood flood-opacity="0" result="BackgroundImageFix"/>
<feColorMatrix in="SourceAlpha" type="matrix" values="0 0 0 0 0 0 0 0 0 0 0 0 0 0 0 0 0 0 127 0" result="hardAlpha"/>
<feMorphology radius="3.72016" operator="dilate" in="SourceAlpha" result="effect1_dropShadow_40005514_447456"/>
<feOffset/>
<feGaussianBlur stdDeviation="18.8178"/>
<feComposite in2="hardAlpha" operator="out"/>
<feColorMatrix type="matrix" values="0 0 0 0 0.929412 0 0 0 0 0.913725 0 0 0 0 0.960784 0 0 0 0.7 0"/>
<feBlend mode="normal" in2="BackgroundImageFix" result="effect1_dropShadow_40005514_447456"/>
<feBlend mode="normal" in="SourceGraphic" in2="effect1_dropShadow_40005514_447456" result="shape"/>
</filter>
<filter id="filter1_d_40005514_447456" x="159.117" y="158.457" width="86.1288" height="46.9276" filterUnits="userSpaceOnUse" color-interpolation-filters="sRGB">
<feFlood flood-opacity="0" result="BackgroundImageFix"/>
<feColorMatrix in="SourceAlpha" type="matrix" values="0 0 0 0 0 0 0 0 0 0 0 0 0 0 0 0 0 0 127 0" result="hardAlpha"/>
<feOffset dy="1.49484"/>
<feGaussianBlur stdDeviation="1.49484"/>
<feComposite in2="hardAlpha" operator="out"/>
<feColorMatrix type="matrix" values="0 0 0 0 0 0 0 0 0 0 0 0 0 0 0 0 0 0 0.04 0"/>
<feBlend mode="normal" in2="BackgroundImageFix" result="effect1_dropShadow_40005514_447456"/>
<feBlend mode="normal" in="SourceGraphic" in2="effect1_dropShadow_40005514_447456" result="shape"/>
</filter>
<linearGradient id="paint0_linear_40005514_447456" x1="144.96" y1="187.222" x2="57.4963" y2="314.616" gradientUnits="userSpaceOnUse">
<stop stop-color="#E6E5FB"/>
<stop offset="1" stop-color="#FEFDFF"/>
</linearGradient>
</defs>
</svg>
