<svg width="1224" height="397" viewBox="0 0 1224 397" fill="none" xmlns="http://www.w3.org/2000/svg">
<g clip-path="url(#clip0_40005502_14073)">
<rect width="1224" height="397" rx="24" fill="#F5F0FF" fill-opacity="0.7"/>
<g opacity="0.1">
<path fill-rule="evenodd" clip-rule="evenodd" d="M1564.31 107.084H1303.4L1222.76 354.853L1433.85 507.991L1644.95 354.853L1564.31 107.084ZM1216.14 356.997L1299.31 101.467H1568.4L1651.57 356.997L1433.85 514.934L1216.14 356.997Z" fill="#4F2396"/>
<path fill-rule="evenodd" clip-rule="evenodd" d="M1571.74 96.4178H1295.98L1210.74 358.225L1433.86 520.028L1656.98 358.225L1571.74 96.4178ZM1206.07 361.366L1204.51 360.235L1292.13 91.1289H1575.6L1663.2 360.235L1433.86 526.562L1206.07 361.366Z" fill="#4F2396"/>
<path fill-rule="evenodd" clip-rule="evenodd" d="M1579.15 85.7598H1288.55L1198.73 361.574L1433.85 532.051L1668.98 361.574L1579.15 85.7598ZM1192.88 363.479L1284.93 80.791H1582.77L1674.83 363.479L1433.85 538.189L1192.88 363.479Z" fill="#4F2396"/>
<path fill-rule="evenodd" clip-rule="evenodd" d="M1586.58 76.3809H1281.13L1186.72 366.24L1433.86 545.375L1680.99 366.24L1586.58 76.3809ZM1181.25 368.005L1277.75 71.748H1589.96L1686.46 368.005L1433.85 551.112L1181.25 368.005Z" fill="#4F2396"/>
<path fill-rule="evenodd" clip-rule="evenodd" d="M1594.25 65.7197H1274.75L1175.99 369.604L1434.5 557.408L1693 369.604L1594.25 65.7197ZM1170.92 371.247L1271.62 61.4111H1597.39L1698.09 371.247L1434.5 562.74L1170.92 371.247Z" fill="#4F2396"/>
<path fill-rule="evenodd" clip-rule="evenodd" d="M1601.68 55.0703H1267.32L1163.98 372.961L1434.5 569.439L1705.03 372.961L1601.68 55.0703ZM1160.46 375.34L1159.29 374.485L1264.43 51.0752H1604.58L1709.72 374.485L1434.5 574.37L1160.46 375.34Z" fill="#4F2396"/>
<path fill-rule="evenodd" clip-rule="evenodd" d="M1609.09 44.3975H1259.91L1151.98 376.323L1434.5 581.468L1717.03 376.323L1609.09 44.3975ZM1147.66 377.72L1257.25 40.7373H1611.76L1721.34 377.72L1434.5 585.997L1147.66 377.72Z" fill="#4F2396"/>
<path fill-rule="evenodd" clip-rule="evenodd" d="M1729.04 379.691L1616.52 33.7403H1252.49L1139.96 379.691L1434.5 593.506L1729.04 379.691ZM1137.01 381.685L1136.03 380.971L1249.67 31.5542L1250.05 30.4014H1618.95L1732.97 380.971L1435.48 596.92L1434.5 597.627L1137.01 381.685Z" fill="#4F2396"/>
<path fill-rule="evenodd" clip-rule="evenodd" d="M1623.95 23.0723H1245.06L1127.96 383.041L1434.51 605.525L1741.05 383.041L1623.95 23.0723ZM1124.4 384.204L1242.87 20.0635H1626.13L1744.6 384.204L1434.5 609.255L1124.4 384.204Z" fill="#4F2396"/>
<path fill-rule="evenodd" clip-rule="evenodd" d="M1631.36 12.4139H1237.64L1115.93 386.423L1434.51 617.569L1753.07 386.423L1631.36 12.4139ZM1113.56 388.022L1112.77 387.457L1235.37 10.6591L1235.68 9.72949H1633.33L1755.93 386.527L1756.23 387.457L1434.5 620.886L1113.56 388.022Z" fill="#4F2396"/>
<path fill-rule="evenodd" clip-rule="evenodd" d="M1638.79 3.04001H1230.21L1103.92 391.067L1434.49 630.882L1765.08 391.067L1638.79 3.04001ZM1101.84 392.471L1101.14 391.966L1228.22 1.49967L1228.5 0.681641H1640.5L1767.6 391.148L1767.86 391.966L1434.5 633.804L1101.84 392.471Z" fill="#4F2396"/>
<path fill-rule="evenodd" clip-rule="evenodd" d="M1777.07 394.434L1646.2 -7.60156H1222.79L1091.92 394.434L1434.5 642.913L1777.07 394.434ZM1090.12 395.647L1089.51 395.209L1221.08 -8.93847L1221.32 -9.65234H1647.69L1779.25 394.502L1779.49 395.209L1435.1 644.989L1434.5 645.435L1090.12 395.647Z" fill="#4F2396"/>
<path fill-rule="evenodd" clip-rule="evenodd" d="M1653.63 -18.2715H1215.37L1079.9 397.798L1434.5 654.952L1789.09 397.798L1653.63 -18.2715ZM1078.38 398.823L1077.88 398.452L1213.93 -19.3879L1214.12 -19.9902H1654.88L1790.93 397.864L1791.12 398.452L1434.5 657.063L1078.38 398.823Z" fill="#4F2396"/>
<path fill-rule="evenodd" clip-rule="evenodd" d="M1801.1 401.162L1661.05 -28.9355H1207.95L1067.89 401.162L1434.5 666.967L1801.1 401.162ZM1066.68 401.987L1066.26 401.682L1206.78 -29.8503L1206.94 -30.3262H1662.07L1802.59 401.207L1802.75 401.682L1434.92 668.387L1434.5 668.692L1066.68 401.987Z" fill="#4F2396"/>
<path fill-rule="evenodd" clip-rule="evenodd" d="M1813.11 405.314L1668.48 -39.6064H1200.53L1055.89 405.314L1434.5 680.286L1813.11 405.314ZM1054.95 405.947L1054.63 405.724L1199.76 -40.6641H1669.25L1814.38 405.724L1434.81 681.381L1434.5 681.612L1054.95 405.947Z" fill="#4F2396"/>
<path fill-rule="evenodd" clip-rule="evenodd" d="M1192.56 -51L1192.48 -50.7393L1043 408.958L1043.22 409.121L1434.5 693.241L1434.72 693.077L1826 408.958L1825.93 408.704L1676.45 -51H1192.56ZM1043.87 408.673L1193.11 -50.2637H1675.9L1825.13 408.673L1434.5 692.309L1043.87 408.673Z" fill="#4F2396"/>
</g>
<g opacity="0.1">
<path fill-rule="evenodd" clip-rule="evenodd" d="M-56.4887 84.3086H-239.537L-296.115 258.396L-148.016 365.975L0.0896912 258.396L-56.4887 84.3086ZM-303.504 260.793L-244.106 78.0254H-51.9234L7.47443 260.793L-148.015 373.748L-303.504 260.793Z" fill="#4F2396"/>
<path fill-rule="evenodd" clip-rule="evenodd" d="M-49.7523 74.6338H-246.278L-307.025 261.45L-148.015 376.901L10.995 261.45L-49.7523 74.6338ZM-314.066 263.734L-250.634 68.6377H-45.3973L18.035 263.734L-148.016 384.31L-314.066 263.734Z" fill="#4F2396"/>
<path fill-rule="evenodd" clip-rule="evenodd" d="M-43.0116 64.9475H-253.024L-317.936 264.496L-148.014 387.828L21.9072 264.496L-43.0116 64.9475ZM-324.627 266.673L-257.158 59.25H-38.8786L28.5975 266.673L-148.015 394.872L-324.627 266.673Z" fill="#4F2396"/>
<path fill-rule="evenodd" clip-rule="evenodd" d="M-36.2621 55.2489H-259.753L-328.834 267.551L-148.014 398.763L32.8192 267.551L-36.2621 55.2489ZM-335.189 269.619L-263.679 49.8623H-32.3457L39.1581 269.619L-148.016 405.434L-335.189 269.619Z" fill="#4F2396"/>
<path fill-rule="evenodd" clip-rule="evenodd" d="M-29.534 45.5752H-266.5L-339.742 270.605L-148.02 409.689L43.7085 270.605L-29.534 45.5752ZM-345.752 272.552L-270.215 40.4736H-25.8183L49.7186 272.552L-148.02 415.995L-345.752 272.552Z" fill="#4F2396"/>
<path fill-rule="evenodd" clip-rule="evenodd" d="M-22.7848 35.8887H-273.238L-350.652 273.668L-148.011 420.622L54.6297 273.668L-22.7848 35.8887ZM-354.896 276.521L-356.311 275.494L-276.737 31.085H-19.2773L60.2831 275.494L-148.01 426.555L-354.896 276.521Z" fill="#4F2396"/>
<path fill-rule="evenodd" clip-rule="evenodd" d="M-16.0585 26.209H-279.984L-361.568 276.71L-148.021 431.541L65.5255 276.71L-16.0585 26.209ZM-366.875 278.44L-283.273 21.6963H-12.7734L70.8417 278.44L-148.02 437.116L-366.875 278.44Z" fill="#4F2396"/>
<path fill-rule="evenodd" clip-rule="evenodd" d="M-9.30609 17.6904H-286.723L-372.471 280.947L-148.014 443.642L76.442 280.947L-9.30609 17.6904ZM-377.436 282.55L-289.798 13.4824H-6.23312L81.4042 282.55L-148.016 448.852L-377.436 282.55Z" fill="#4F2396"/>
<path fill-rule="evenodd" clip-rule="evenodd" d="M-2.34186 8.00781H-292.523L-382.213 284.003L-147.436 454.571L87.3479 284.003L-2.34186 8.00781ZM-386.824 285.495L-295.364 4.09473H0.505249L91.9651 285.495L-147.433 459.414L-386.824 285.495Z" fill="#4F2396"/>
<path fill-rule="evenodd" clip-rule="evenodd" d="M4.40265 -1.66602H-299.265L-393.127 287.05L-147.431 465.496L98.2709 287.05L4.40265 -1.66602ZM-396.324 289.212L-397.385 288.435L-301.888 -5.29395H7.03748L102.528 288.435L-147.432 469.975L-396.324 289.212Z" fill="#4F2396"/>
<path fill-rule="evenodd" clip-rule="evenodd" d="M11.1393 -11.3595H-305.997L-404.02 290.103L-147.429 476.421L109.169 290.103L11.1393 -11.3595ZM-407.947 291.373L-308.417 -14.6836H13.5649L113.088 291.373L-147.43 480.535L-407.947 291.373Z" fill="#4F2396"/>
<path fill-rule="evenodd" clip-rule="evenodd" d="M120.078 293.164L17.8835 -21.0371H-312.74L-414.941 293.164L-147.432 487.355L120.078 293.164ZM-417.617 294.975L-418.51 294.326L-315.294 -23.0223L-314.95 -24.0693H20.0885L123.649 294.326L-146.538 490.457L-147.431 491.099L-417.617 294.975Z" fill="#4F2396"/>
<path fill-rule="evenodd" clip-rule="evenodd" d="M24.6306 -30.7256H-319.483L-425.842 296.207L-147.423 498.272L130.989 296.207L24.6306 -30.7256ZM-429.07 297.263L-321.474 -33.459H26.6153L134.211 297.263L-147.426 501.658L-429.07 297.263Z" fill="#4F2396"/>
<path fill-rule="evenodd" clip-rule="evenodd" d="M31.3652 -40.4062H-326.226L-436.762 299.278L-147.427 509.21L141.901 299.278L31.3652 -40.4062ZM-438.916 300.73L-439.633 300.216L-328.285 -42.0004L-328.008 -42.8447H33.1468L144.494 299.372L144.772 300.216L-147.431 512.222L-438.916 300.73Z" fill="#4F2396"/>
<path fill-rule="evenodd" clip-rule="evenodd" d="M38.1098 -48.9199H-332.972L-447.672 303.495L-147.434 521.301L152.81 303.495L38.1098 -48.9199ZM-449.564 304.771L-450.193 304.312L-334.776 -50.3186L-334.526 -51.0615H39.6668L155.098 303.569L155.334 304.312L-147.433 523.955L-449.564 304.771Z" fill="#4F2396"/>
<path fill-rule="evenodd" clip-rule="evenodd" d="M163.701 306.554L44.8458 -58.584H-339.705L-458.566 306.554L-147.433 532.229L163.701 306.554ZM-460.201 307.656L-460.756 307.257L-341.258 -59.7989L-341.049 -60.4473H46.1942L165.685 306.616L165.895 307.257L-146.883 534.114L-147.431 534.519L-460.201 307.656Z" fill="#4F2396"/>
<path fill-rule="evenodd" clip-rule="evenodd" d="M51.5897 -68.2744H-346.452L-469.484 309.61L-147.434 543.163L174.616 309.61L51.5897 -68.2744ZM-470.865 310.541L-471.318 310.203L-347.758 -69.2889L-347.589 -69.8359H52.7191L176.286 309.669L176.455 310.203L-147.435 545.08L-470.865 310.541Z" fill="#4F2396"/>
<path fill-rule="evenodd" clip-rule="evenodd" d="M185.527 312.664L58.3301 -77.9609H-353.189L-480.393 312.664L-147.433 554.075L185.527 312.664ZM-481.498 313.414L-481.877 313.137L-354.247 -78.7914L-354.105 -79.2236H59.2546L186.878 312.705L187.02 313.137L-147.05 555.365L-147.429 555.642L-481.498 313.414Z" fill="#4F2396"/>
<path fill-rule="evenodd" clip-rule="evenodd" d="M196.435 316.436L65.0749 -87.6514H-359.924L-491.291 316.436L-147.432 566.172L196.435 316.436ZM-492.147 317.011L-492.438 316.808L-360.631 -88.6123H65.7759L197.582 316.808L-147.15 567.166L-147.434 567.376L-492.147 317.011Z" fill="#4F2396"/>
<path fill-rule="evenodd" clip-rule="evenodd" d="M-367.163 -98L-367.238 -97.7632L-503 319.744L-502.797 319.893L-147.429 577.938L-147.232 577.789L208.143 319.744L208.075 319.514L72.3129 -98H-367.163ZM-502.209 319.487L-366.663 -97.3311H71.8112L207.35 319.487L-147.429 577.091L-502.209 319.487Z" fill="#4F2396"/>
</g>
</g>
<defs>
<clipPath id="clip0_40005502_14073">
<rect width="1224" height="397" rx="24" fill="white"/>
</clipPath>
</defs>
</svg>
