<svg width="113" height="77" viewBox="0 0 113 77" fill="none" xmlns="http://www.w3.org/2000/svg">
<path d="M57.6392 50.4519C57.5054 50.3902 57.5282 50.229 57.5065 50.1317C57.1737 48.6142 57.6889 47.102 58.3411 45.7206C59.3893 43.502 60.6386 41.5513 62.0154 39.5357C64.6965 35.6113 67.2508 32.1075 69.6782 29.0245C73.3215 24.3978 76.4837 20.3708 79.2653 16.4684C81.3645 13.5221 83.4809 10.5887 85.6146 7.66823C85.8852 7.29776 86.8442 6.05764 87.2972 6.85613C87.4963 7.20567 87.5295 7.81579 87.346 8.23126C85.8696 11.5602 83.6042 14.9562 81.6406 17.7619C77.6842 23.4131 74.1281 28.0125 69.277 34.345C65.3103 39.5231 61.5499 44.8824 57.9927 50.3546C57.9056 50.4885 57.7878 50.521 57.6392 50.4519Z" fill="white"/>
<path d="M50.631 47.1745C51.187 46.6412 51.7319 46.0857 52.2657 45.5081C53.2565 44.4372 54.2993 43.659 55.8582 44.1758C55.8814 44.1834 55.9023 44.1969 55.9187 44.2149C55.9352 44.2329 55.9468 44.2548 55.9523 44.2786C55.9578 44.3024 55.9571 44.3271 55.9503 44.3506C55.9435 44.374 55.9307 44.3953 55.9133 44.4123C55.7886 44.5348 55.7045 44.6873 55.583 44.8035C54.4779 45.8681 53.3708 46.9369 52.2616 48.0098C52.2513 48.02 52.2451 48.0336 52.2441 48.048C52.2432 48.0623 52.2475 48.0764 52.2564 48.0876L56.1781 52.9603C56.2058 52.9949 56.2068 53.0301 56.1812 53.0661C56.1141 53.1616 56.0026 53.2242 55.8468 53.2539C54.7718 53.4594 53.8922 53.2176 53.2285 52.3688C52.4579 51.3845 51.6865 50.4005 50.9145 49.4168C50.8923 49.3877 50.8657 49.3832 50.8345 49.4033C50.6559 49.5174 50.5634 49.6513 50.5697 49.8806C50.6043 51.1299 50.588 52.3775 50.5209 53.6233C50.5063 53.9014 50.3194 54.1286 50.0286 54.0903C49.3068 53.9958 48.6846 53.4988 48.6846 52.733C48.6832 48.3709 48.6832 44.0087 48.6846 39.6465C48.6846 39.4445 48.7563 39.0589 48.8996 38.4896C49.0063 38.0676 49.2849 37.8577 49.7357 37.8598C49.7689 37.8604 49.799 37.8708 49.826 37.8909C50.4482 38.3703 50.5801 40.3926 50.5801 41.1978C50.5787 43.1734 50.5783 45.1584 50.579 47.1527C50.5789 47.1586 50.5805 47.1644 50.5838 47.1693C50.587 47.1743 50.5917 47.1782 50.5972 47.1805C50.6027 47.1828 50.6089 47.1835 50.6149 47.1824C50.6209 47.1813 50.6265 47.1786 50.631 47.1745Z" fill="white"/>
<path d="M8.62342 46.6811C8.61822 48.4595 8.59428 50.2442 8.6484 52.0225C8.66505 52.5893 8.62307 53.1533 8.52246 53.7145C8.41838 54.2971 7.39528 54.0854 7.08512 53.8968C6.73437 53.684 6.63446 52.9096 6.63758 52.5219C6.66325 48.2397 6.64868 43.9574 6.59386 39.6751C6.57825 38.3919 8.16859 38.0021 8.67338 39.1136C8.82742 39.4539 8.62446 40.105 8.62342 40.4126C8.61856 41.844 8.61856 43.2754 8.62342 44.7068C8.62342 44.7412 8.64042 44.7584 8.67442 44.7584H14.1126C14.1246 44.7584 14.1361 44.7537 14.1446 44.7452C14.1532 44.7368 14.1581 44.7252 14.1584 44.7131C14.1723 43.1068 14.1688 41.4984 14.148 39.8879C14.1365 39.0419 14.25 38.4667 15.2054 38.4667C15.9819 38.4667 16.2254 39.3275 16.214 39.9554C16.1369 44.1899 16.1081 48.4247 16.1276 52.6599C16.1297 53.133 16.2004 53.8915 15.5926 54.0264C14.4248 54.2855 14.1407 53.566 14.1501 52.5778C14.1688 50.6098 14.1716 48.6418 14.1584 46.6738C14.1584 46.6617 14.1536 46.6502 14.145 46.6417C14.1364 46.6332 14.1247 46.6284 14.1126 46.6284H8.67546C8.64077 46.6284 8.62342 46.646 8.62342 46.6811Z" fill="white"/>
<path d="M40.8703 61.719C38.2471 61.3804 36.1325 60.4731 34.8714 58.0114C34.2242 56.7497 34.5505 56.3577 35.9626 56.7779C40.418 58.1055 45.0046 58.7901 49.6538 58.4661C54.2416 58.1452 58.7448 56.7142 62.726 54.4417C66.506 52.2842 70.6248 49.0135 70.21 44.0672C70.1297 43.1076 70.2683 42.1354 70.3465 41.18C70.3632 40.9626 70.4976 40.9072 70.7019 40.8936C71.6784 40.8288 72.5028 40.7776 72.6289 42.0152C72.8634 44.2929 72.7331 46.4672 71.9765 48.5776C70.7258 52.0689 68.0453 54.5107 65.0543 56.7069C63.0762 58.1598 61.169 59.3201 58.9814 60.1877C55.9292 61.3974 52.8429 62.0619 49.7226 62.1811C47.0109 62.2842 44.0601 62.1302 40.8703 61.719Z" fill="white"/>
<path d="M32.7957 49.046C33.8937 46.8681 34.9047 44.9713 35.6497 42.9064C35.8288 42.4097 36.3353 42.308 36.8081 42.4003C37.726 42.5808 37.6738 43.5816 37.3341 44.2349C35.1872 48.3556 33.0703 52.4925 30.9835 56.6457C30.5424 57.5241 29.8732 57.968 28.8795 57.5345C28.6452 57.4318 28.547 57.1684 28.6677 56.9423C29.6938 55.0099 30.7154 53.075 31.7325 51.1378C31.7489 51.1073 31.7489 51.0773 31.7325 51.0475C30.5353 48.8413 29.3312 46.6375 28.1203 44.4361C27.756 43.7745 27.9248 42.8722 28.7854 42.7374C29.3032 42.6555 29.6787 42.7706 29.8855 43.2808C30.6928 45.2679 31.7223 47.1637 32.7425 49.047C32.7609 49.0809 32.7787 49.0805 32.7957 49.046Z" fill="white"/>
<path d="M99.5825 56.9194C99.8771 57.1336 100.604 57.8303 100.368 58.2358C99.9752 58.9075 97.1613 58.4989 96.5503 58.4074C96.5155 58.4018 96.4828 58.4081 96.4521 58.4261C93.962 59.8985 91.756 61.0745 88.8962 60.6035C87.1863 60.3217 85.9621 59.7976 85.4576 58.083C85.4491 58.0542 85.4322 58.0286 85.4091 58.0094C85.386 57.9902 85.3577 57.9782 85.3278 57.975C85.2978 57.9717 85.2676 57.9774 85.2409 57.9913C85.2142 58.0051 85.1922 58.0265 85.1777 58.0528C84.4744 59.3228 83.3972 60.1165 81.946 60.434C80.6661 60.714 79.4399 60.7581 78.2672 60.566C75.3551 60.0888 74.93 57.6774 75.2162 55.184C75.5494 52.2777 75.9171 50.0972 76.2555 46.8124C76.3558 45.835 76.9773 44.5259 77.487 43.6046C77.6416 43.3253 77.7875 43.1291 77.9246 43.0161C78.378 42.6407 79.1916 42.4192 79.4465 43.1689C79.5676 43.5246 79.5885 43.8136 79.5447 44.215C79.178 47.5622 78.6871 50.8968 78.2014 54.2284C78.0416 55.3233 77.7836 56.8882 78.7153 57.6816C79.4716 58.3252 80.7782 58.3138 81.6431 57.9509C83.448 57.1939 83.7269 55.5833 84.2679 53.9383C84.4935 53.2541 85.045 52.6832 85.8138 52.6957C86.8719 52.7134 86.9314 54.0693 86.9596 54.82C86.9962 55.7694 87.3283 57.1191 88.1827 57.64C89.7746 58.6091 91.7571 58.1807 93.163 57.0993C93.3127 56.9842 93.4516 56.7357 93.5797 56.3538C93.5902 56.3233 93.5863 56.2945 93.5682 56.2675C92.9645 55.3524 92.1205 54.3105 91.7226 53.305C91.1575 51.8763 92.2271 50.7897 93.2047 49.934C95.486 47.9365 98.162 46.1449 100.988 45.1259C101.935 44.7848 102.96 44.6614 104.063 44.7557C105.18 44.8514 105.899 45.4253 106.222 46.4776C106.687 47.9958 106.225 49.4525 105.415 50.7502C104.735 51.8399 103.996 52.7342 103.195 53.4329C101.95 54.522 100.744 55.6543 99.5752 56.83C99.5692 56.8361 99.5646 56.8433 99.5617 56.8513C99.5588 56.8593 99.5576 56.8679 99.5583 56.8764C99.559 56.8849 99.5615 56.8931 99.5657 56.9005C99.5699 56.9079 99.5756 56.9144 99.5825 56.9194ZM94.9626 53.0097C95.1151 54.0017 95.9863 55.2609 97.1707 54.8762C99.2044 54.2159 101.28 52.2642 102.696 50.7024C103.386 49.9423 103.639 49.4629 103.55 48.4689C103.509 48.0207 103.344 47.4821 102.786 47.5663C100.206 47.9583 97.5896 49.5014 95.7157 51.2618C95.2029 51.7443 94.8509 52.2808 94.9626 53.0097Z" fill="white"/>
<path d="M24.7256 52.0066C24.3317 52.3216 23.9135 52.6397 23.4446 52.8025C21.0696 53.6217 18.8424 52.0658 18.4136 49.6558C18.1316 48.0693 18.4601 46.4436 19.608 45.319C21.0442 43.9111 23.3221 43.9121 24.7193 45.3856C24.726 45.3926 24.7347 45.3975 24.7442 45.3999C24.7537 45.4022 24.7636 45.4017 24.7727 45.3986C24.7819 45.3955 24.7899 45.3898 24.7957 45.3822C24.8016 45.3747 24.8051 45.3656 24.8059 45.356C24.8492 44.818 24.8999 43.9174 25.28 43.5337C25.7743 43.0348 26.7321 43.26 26.7331 44.1151C26.7381 48.1767 26.7374 50.9658 26.731 52.4822C26.7268 53.4589 25.6951 53.553 24.9653 53.4705C24.9069 53.4639 24.8531 53.4357 24.8146 53.3914C24.7761 53.3472 24.7556 53.2902 24.7573 53.2316L24.789 52.0383C24.7911 51.9812 24.77 51.9706 24.7256 52.0066ZM21.229 50.8333C21.9429 51.4221 23.0581 51.4242 23.7847 50.9549C25.2473 50.011 25.2758 47.4351 23.9019 46.4362C23.15 45.8898 22.0718 45.8919 21.3177 46.4278C19.9512 47.4002 19.9618 49.7879 21.229 50.8333Z" fill="white"/>
<path d="M44.2778 52.0074C44.1125 52.1232 43.9484 52.2403 43.7853 52.3589C42.0389 53.6282 39.7136 53.0194 38.5883 51.2569C36.9263 48.6506 38.1802 44.3082 41.673 44.2637C42.6699 44.251 43.5389 44.6254 44.2799 45.3869C44.3143 45.4222 44.3344 45.4155 44.34 45.3668C44.4043 44.8226 44.4359 44.0107 44.7407 43.619C45.1773 43.0569 46.2709 43.1638 46.273 44.0403C46.2815 47.6213 46.2815 50.4174 46.273 52.4287C46.2699 53.4651 45.2648 53.5509 44.4866 53.4715C44.4324 53.4661 44.3823 53.4402 44.3464 53.3989C44.3106 53.3576 44.2917 53.304 44.2936 53.2492L44.3379 52.0402C44.34 51.9887 44.3199 51.9778 44.2778 52.0074ZM42.1422 51.3161C42.7584 51.3161 43.3493 51.0358 43.785 50.5367C44.2207 50.0376 44.4655 49.3606 44.4655 48.6548C44.4655 47.949 44.2207 47.2721 43.785 46.773C43.3493 46.2739 42.7584 45.9935 42.1422 45.9935C41.5261 45.9935 40.9352 46.2739 40.4995 46.773C40.0638 47.2721 39.819 47.949 39.819 48.6548C39.819 49.3606 40.0638 50.0376 40.4995 50.5367C40.9352 51.0358 41.5261 51.3161 42.1422 51.3161Z" fill="white"/>
<path d="M77.3534 69.2738C75.9467 68.5914 76.9155 67.3748 77.7944 66.8563C79.7307 65.7126 81.8253 65.3026 84.0782 65.6263C84.5568 65.6951 85.0498 65.8659 85.5573 66.1387C86.1966 66.4831 86.0128 67.0501 85.4685 67.3491C85.0522 67.5779 84.4996 67.7027 83.9688 67.7192C82.2956 67.7707 80.863 67.7955 79.3767 68.6749C78.6847 69.0842 78.2799 69.7233 77.3534 69.2738Z" fill="white"/>
</svg>
