<svg width="73" height="50" viewBox="0 0 73 50" fill="none" xmlns="http://www.w3.org/2000/svg">
<path d="M37.236 32.5933C37.1496 32.5534 37.1643 32.4493 37.1503 32.3864C36.9353 31.4061 37.2682 30.4292 37.6894 29.5368C38.3666 28.1035 39.1737 26.8433 40.0631 25.5412C41.7952 23.006 43.4453 20.7425 45.0135 18.7508C47.367 15.7619 49.4099 13.1604 51.2069 10.6393C52.563 8.73595 53.9302 6.84093 55.3086 4.95425C55.4834 4.71492 56.1029 3.91379 56.3956 4.42963C56.5242 4.65543 56.5457 5.04958 56.4271 5.31798C55.4734 7.46855 54.0099 9.66239 52.7413 11.4749C50.1855 15.1257 47.8881 18.097 44.7543 22.1879C42.1917 25.5331 39.7624 28.9952 37.4644 32.5304C37.4081 32.6169 37.332 32.6379 37.236 32.5933Z" fill="#4F2396"/>
<path d="M32.7082 30.4755C33.0674 30.131 33.4194 29.7721 33.7643 29.399C34.4044 28.7072 35.078 28.2045 36.0851 28.5383C36.1001 28.5432 36.1136 28.5519 36.1242 28.5635C36.1349 28.5752 36.1423 28.5893 36.1459 28.6047C36.1495 28.6201 36.149 28.6361 36.1446 28.6512C36.1402 28.6663 36.132 28.6801 36.1207 28.6911C36.0402 28.7702 35.9858 28.8687 35.9073 28.9438C35.1934 29.6316 34.4782 30.322 33.7616 31.0151C33.755 31.0217 33.751 31.0305 33.7504 31.0398C33.7497 31.0491 33.7526 31.0582 33.7583 31.0654L36.2918 34.2132C36.3097 34.2356 36.3103 34.2584 36.2938 34.2816C36.2504 34.3433 36.1784 34.3837 36.0777 34.4029C35.3833 34.5356 34.815 34.3795 34.3863 33.8311C33.8884 33.1952 33.3901 32.5595 32.8914 31.9241C32.8771 31.9053 32.8599 31.9024 32.8397 31.9154C32.7243 31.9891 32.6646 32.0756 32.6686 32.2237C32.691 33.0308 32.6805 33.8367 32.6371 34.6416C32.6277 34.8212 32.5069 34.968 32.3191 34.9432C31.8528 34.8822 31.4509 34.5611 31.4509 34.0664C31.45 31.2484 31.45 28.4303 31.4509 25.6123C31.4509 25.4818 31.4972 25.2327 31.5898 24.8649C31.6586 24.5923 31.8387 24.4567 32.1299 24.458C32.1513 24.4585 32.1708 24.4652 32.1882 24.4781C32.5901 24.7878 32.6754 26.0943 32.6754 26.6144C32.6745 27.8907 32.6742 29.1731 32.6747 30.4614C32.6746 30.4653 32.6757 30.469 32.6777 30.4722C32.6798 30.4754 32.6829 30.4779 32.6864 30.4794C32.69 30.4809 32.694 30.4813 32.6978 30.4806C32.7017 30.4799 32.7053 30.4781 32.7082 30.4755Z" fill="#4F2396"/>
<path d="M5.57097 30.1567C5.56761 31.3056 5.55214 32.4585 5.58711 33.6074C5.59786 33.9735 5.57074 34.3379 5.50575 34.7004C5.43851 35.0768 4.77757 34.94 4.5772 34.8182C4.35061 34.6807 4.28606 34.1804 4.28808 33.93C4.30466 31.1635 4.29525 28.3971 4.25984 25.6307C4.24975 24.8017 5.27714 24.5499 5.60324 25.2679C5.70275 25.4878 5.57164 25.9084 5.57097 26.1071C5.56783 27.0318 5.56783 27.9566 5.57097 28.8813C5.57097 28.9035 5.58195 28.9146 5.60391 28.9146H9.11707C9.1248 28.9146 9.13223 28.9116 9.13776 28.9061C9.14328 28.9006 9.14648 28.8932 9.14665 28.8853C9.15562 27.8477 9.15338 26.8086 9.13993 25.7682C9.13253 25.2217 9.20582 24.8501 9.82306 24.8501C10.3247 24.8501 10.482 25.4061 10.4746 25.8117C10.4248 28.5473 10.4062 31.2831 10.4188 34.0191C10.4201 34.3247 10.4659 34.8148 10.0732 34.9019C9.31878 35.0693 9.13522 34.6044 9.14127 33.966C9.15338 32.6947 9.15517 31.4233 9.14665 30.1519C9.14665 30.1442 9.14354 30.1367 9.13799 30.1313C9.13244 30.1258 9.12492 30.1227 9.11707 30.1227H5.60459C5.58218 30.1227 5.57097 30.134 5.57097 30.1567Z" fill="#4F2396"/>
<path d="M26.4035 39.8716C24.7089 39.6528 23.3428 39.0666 22.5282 37.4764C22.1101 36.6613 22.3208 36.4081 23.2331 36.6795C26.1113 37.5371 29.0744 37.9794 32.0779 37.7701C35.0416 37.5628 37.9508 36.6383 40.5227 35.1703C42.9647 33.7765 45.6254 31.6636 45.3575 28.4681C45.3056 27.8482 45.3952 27.2202 45.4457 26.603C45.4564 26.4626 45.5433 26.4268 45.6753 26.418C46.3061 26.3761 46.8387 26.343 46.9201 27.1426C47.0716 28.614 46.9875 30.0186 46.4987 31.382C45.6907 33.6374 43.9591 35.2148 42.0268 36.6336C40.7489 37.5722 39.5168 38.3218 38.1036 38.8823C36.1318 39.6638 34.1381 40.0931 32.1223 40.17C30.3704 40.2367 28.4642 40.1372 26.4035 39.8716Z" fill="#4F2396"/>
<path d="M21.1861 31.6841C21.8954 30.2771 22.5485 29.0518 23.0298 27.7178C23.1455 27.3969 23.4727 27.3313 23.7781 27.3909C24.3711 27.5075 24.3374 28.154 24.1179 28.5761C22.731 31.2381 21.3635 33.9106 20.0153 36.5936C19.7304 37.1611 19.298 37.4479 18.6561 37.1678C18.5048 37.1015 18.4413 36.9313 18.5193 36.7853C19.1821 35.5369 19.8421 34.2869 20.4992 33.0354C20.5098 33.0158 20.5098 32.9963 20.4992 32.9771C19.7258 31.5519 18.9479 30.1282 18.1656 28.706C17.9303 28.2786 18.0394 27.6957 18.5953 27.6086C18.9298 27.5557 19.1724 27.6301 19.306 27.9597C19.8276 29.2434 20.4926 30.4681 21.1517 31.6848C21.1636 31.7066 21.175 31.7064 21.1861 31.6841Z" fill="#4F2396"/>
<path d="M64.3319 36.7707C64.5222 36.909 64.9918 37.3591 64.8393 37.6211C64.5856 38.055 62.7678 37.791 62.373 37.7319C62.3505 37.7283 62.3294 37.7324 62.3096 37.744C60.7009 38.6952 59.2758 39.4549 57.4283 39.1506C56.3237 38.9686 55.5329 38.63 55.207 37.5223C55.2015 37.5038 55.1906 37.4872 55.1756 37.4748C55.1607 37.4624 55.1424 37.4547 55.1231 37.4526C55.1037 37.4505 55.0842 37.4541 55.0669 37.4631C55.0497 37.472 55.0355 37.4859 55.0261 37.5028C54.5718 38.3233 53.8759 38.836 52.9384 39.0411C52.1116 39.222 51.3194 39.2505 50.5618 39.1264C48.6806 38.8181 48.4059 37.2604 48.5908 35.6495C48.8061 33.772 49.0436 32.3634 49.2622 30.2414C49.327 29.6099 49.7285 28.7642 50.0578 28.1691C50.1576 27.9886 50.2519 27.8619 50.3405 27.7889C50.6334 27.5464 51.159 27.4033 51.3237 27.8876C51.4019 28.1173 51.4154 28.3041 51.3871 28.5634C51.1502 30.7257 50.8331 32.88 50.5193 35.0322C50.4161 35.7395 50.2494 36.7505 50.8513 37.263C51.3398 37.6788 52.184 37.6715 52.7427 37.437C53.9087 36.948 54.0889 35.9075 54.4384 34.8448C54.5841 34.4028 54.9404 34.034 55.4371 34.0421C56.1206 34.0535 56.1591 34.9294 56.1773 35.4144C56.2009 36.0277 56.4155 36.8996 56.9674 37.2362C57.9958 37.8622 59.2765 37.5855 60.1847 36.8869C60.2815 36.8125 60.3712 36.652 60.454 36.4052C60.4607 36.3855 60.4583 36.3669 60.4466 36.3495C60.0565 35.7583 59.5113 35.0853 59.2542 34.4357C58.8892 33.5127 59.5801 32.8108 60.2117 32.2579C61.6854 30.9675 63.4142 29.8101 65.2401 29.1518C65.8515 28.9315 66.5136 28.8518 67.2266 28.9127C67.9478 28.9745 68.4127 29.3453 68.6214 30.0251C68.9217 31.0058 68.6228 31.9469 68.0998 32.7852C67.6608 33.4892 67.1828 34.0669 66.6659 34.5183C65.8616 35.2219 65.082 35.9534 64.3272 36.7129C64.3233 36.7168 64.3203 36.7215 64.3184 36.7267C64.3165 36.7319 64.3158 36.7374 64.3162 36.7428C64.3167 36.7483 64.3183 36.7537 64.321 36.7584C64.3237 36.7632 64.3274 36.7674 64.3319 36.7707ZM61.3474 34.2449C61.4459 34.8858 62.0086 35.6992 62.7738 35.4507C64.0876 35.0241 65.4284 33.7633 66.3434 32.7543C66.7887 32.2633 66.9527 31.9536 66.8947 31.3115C66.8683 31.0219 66.7617 30.674 66.4014 30.7284C64.7347 30.9816 63.0444 31.9785 61.8339 33.1157C61.5026 33.4274 61.2752 33.774 61.3474 34.2449Z" fill="#4F2396"/>
<path d="M15.9732 33.5969C15.7187 33.8003 15.4485 34.0059 15.1456 34.111C13.6113 34.6402 12.1725 33.6351 11.8955 32.0782C11.7134 31.0533 11.9255 30.0031 12.6671 29.2765C13.5949 28.367 15.0665 28.3677 15.9691 29.3196C15.9735 29.3241 15.979 29.3273 15.9852 29.3288C15.9913 29.3303 15.9977 29.33 16.0036 29.328C16.0095 29.326 16.0147 29.3223 16.0185 29.3174C16.0223 29.3125 16.0246 29.3066 16.025 29.3004C16.053 28.9529 16.0857 28.3711 16.3313 28.1232C16.6506 27.8009 17.2694 27.9464 17.2701 28.4988C17.2733 31.1227 17.2728 32.9245 17.2687 33.9041C17.266 34.5351 16.5995 34.5958 16.128 34.5426C16.0903 34.5383 16.0556 34.5201 16.0307 34.4915C16.0058 34.4629 15.9926 34.4261 15.9936 34.3883L16.0141 33.6173C16.0155 33.5805 16.0018 33.5736 15.9732 33.5969ZM13.7143 32.8389C14.1755 33.2192 14.8959 33.2206 15.3653 32.9174C16.3102 32.3077 16.3286 30.6436 15.441 29.9983C14.9553 29.6453 14.2587 29.6466 13.7716 29.9928C12.8888 30.621 12.8957 32.1636 13.7143 32.8389Z" fill="#4F2396"/>
<path d="M28.6041 33.5974C28.4974 33.6722 28.3913 33.7478 28.286 33.8244C27.1578 34.6444 25.6556 34.2512 24.9286 33.1125C23.8549 31.4288 24.665 28.6235 26.9214 28.5948C27.5654 28.5866 28.1268 28.8285 28.6055 29.3204C28.6277 29.3432 28.6407 29.3389 28.6443 29.3074C28.6859 28.9559 28.7063 28.4314 28.9032 28.1783C29.1852 27.8152 29.8917 27.8843 29.8931 28.4505C29.8985 30.7639 29.8985 32.5702 29.8931 33.8696C29.891 34.5391 29.2418 34.5945 28.739 34.5432C28.704 34.5398 28.6716 34.523 28.6485 34.4963C28.6253 34.4696 28.6131 34.435 28.6143 34.3996L28.6429 33.6186C28.6443 33.5853 28.6314 33.5782 28.6041 33.5974ZM27.2245 33.1508C27.6226 33.1508 28.0043 32.9697 28.2858 32.6473C28.5673 32.3248 28.7254 31.8875 28.7254 31.4315C28.7254 30.9756 28.5673 30.5383 28.2858 30.2158C28.0043 29.8934 27.6226 29.7123 27.2245 29.7123C26.8265 29.7123 26.4447 29.8934 26.1633 30.2158C25.8818 30.5383 25.7237 30.9756 25.7237 31.4315C25.7237 31.8875 25.8818 32.3248 26.1633 32.6473C26.4447 32.9697 26.8265 33.1508 27.2245 33.1508Z" fill="#4F2396"/>
<path d="M49.9719 44.7517C49.0631 44.3108 49.689 43.5249 50.2568 43.1899C51.5076 42.4511 52.8608 42.1862 54.3163 42.3954C54.6254 42.4398 54.9439 42.5501 55.2717 42.7264C55.6848 42.9488 55.566 43.3151 55.2144 43.5083C54.9455 43.6561 54.5885 43.7367 54.2455 43.7474C53.1646 43.7807 52.2392 43.7967 51.279 44.3648C50.832 44.6292 50.5704 45.0421 49.9719 44.7517Z" fill="#4F2396"/>
</svg>
