<svg width="40" height="40" viewBox="0 0 40 40" fill="none" xmlns="http://www.w3.org/2000/svg">
<path d="M28.333 30.7166H21.6663L14.2497 35.6498C13.1497 36.3832 11.6663 35.5999 11.6663 34.2666V30.7166C6.66634 30.7166 3.33301 27.3832 3.33301 22.3832V12.3831C3.33301 7.38314 6.66634 4.0498 11.6663 4.0498H28.333C33.333 4.0498 36.6663 7.38314 36.6663 12.3831V22.3832C36.6663 27.3832 33.333 30.7166 28.333 30.7166Z" stroke="white" stroke-width="2" stroke-miterlimit="10" stroke-linecap="round" stroke-linejoin="round"/>
<path d="M20 18.9336V18.5837C20 17.4503 20.7001 16.8503 21.4001 16.367C22.0834 15.9003 22.7666 15.3003 22.7666 14.2003C22.7666 12.667 21.5334 11.4336 20 11.4336C18.4667 11.4336 17.2334 12.667 17.2334 14.2003" stroke="white" stroke-width="2" stroke-linecap="round" stroke-linejoin="round"/>
<path d="M19.9928 22.9163H20.0078" stroke="white" stroke-width="2" stroke-linecap="round" stroke-linejoin="round"/>
</svg>
