<svg width="1224" height="635" viewBox="0 0 1224 635" fill="none" xmlns="http://www.w3.org/2000/svg">
<g clip-path="url(#clip0_40004656_5362)">
<rect y="0.169922" width="1224" height="634" rx="28" fill="url(#paint0_linear_40004656_5362)" fill-opacity="0.7"/>
<g opacity="0.05">
<path fill-rule="evenodd" clip-rule="evenodd" d="M-85.259 96.5877H-361.02L-446.258 358.395L-223.14 520.198L-0.0218201 358.395L-85.259 96.5877ZM-450.931 361.536L-452.488 360.405L-364.873 91.2988H-81.3978L6.20218 360.405L-223.139 526.732L-450.931 361.536Z" fill="#4F2396"/>
<path fill-rule="evenodd" clip-rule="evenodd" d="M-77.8498 85.9297H-368.445L-458.273 361.743L-223.148 532.221L11.9782 361.743L-77.8498 85.9297ZM-464.117 363.649L-372.068 80.9609H-74.2336L17.8307 363.649L-223.147 538.359L-464.117 363.649Z" fill="#4F2396"/>
<path fill-rule="evenodd" clip-rule="evenodd" d="M-70.4189 76.5508H-375.868L-470.281 366.41L-223.144 545.544L23.994 366.41L-70.4189 76.5508ZM-475.748 368.175L-379.255 71.918H-67.0356L29.4575 368.175L-223.145 551.282L-475.748 368.175Z" fill="#4F2396"/>
<path fill-rule="evenodd" clip-rule="evenodd" d="M-62.7488 65.8896H-382.253L-481.006 369.774L-222.505 557.578L36.0042 369.774L-62.7488 65.8896ZM-486.082 371.417L-385.38 61.5811H-59.6129L41.0889 371.417L-222.5 562.91L-486.082 371.417Z" fill="#4F2396"/>
<path fill-rule="evenodd" clip-rule="evenodd" d="M-55.3235 55.2402H-389.677L-493.023 373.131L-222.5 569.609L48.0302 373.131L-55.3235 55.2402ZM-496.545 375.51L-497.713 374.655L-392.566 51.2451H-52.4237L52.7156 374.655L-222.502 574.54L-496.545 375.51Z" fill="#4F2396"/>
<path fill-rule="evenodd" clip-rule="evenodd" d="M-47.9069 44.5674H-397.09L-505.018 376.493L-222.498 581.638L60.0286 376.493L-47.9069 44.5674ZM-509.342 377.89L-399.754 40.9072H-45.2358L64.3443 377.89L-222.499 586.167L-509.342 377.89Z" fill="#4F2396"/>
<path fill-rule="evenodd" clip-rule="evenodd" d="M72.0405 379.861L-40.481 33.9102H-404.514L-517.043 379.861L-222.501 593.676L72.0405 379.861ZM-519.99 381.855L-520.973 381.141L-407.327 31.7241L-406.948 30.5713H-38.0541L75.9709 381.141L-221.518 597.09L-222.501 597.797L-519.99 381.855Z" fill="#4F2396"/>
<path fill-rule="evenodd" clip-rule="evenodd" d="M-33.0523 23.2422H-411.939L-529.045 383.211L-222.492 605.695L84.0539 383.211L-33.0523 23.2422ZM-532.6 384.374L-414.131 20.2334H-30.867L87.6016 384.374L-222.495 609.424L-532.6 384.374Z" fill="#4F2396"/>
<path fill-rule="evenodd" clip-rule="evenodd" d="M-25.6352 12.5838H-419.36L-541.066 386.593L-222.494 617.739L96.0706 386.593L-25.6352 12.5838ZM-543.437 388.192L-544.227 387.627L-421.627 10.829L-421.322 9.89941H-23.6726L98.9268 386.697L99.2321 387.627L-222.497 621.056L-543.437 388.192Z" fill="#4F2396"/>
<path fill-rule="evenodd" clip-rule="evenodd" d="M-18.212 3.20993H-426.791L-553.082 391.237L-222.505 631.052L108.079 391.237L-18.212 3.20993ZM-555.165 392.641L-555.857 392.135L-428.777 1.66959L-428.502 0.851562H-16.4968L110.598 391.317L110.859 392.135L-222.503 633.974L-555.165 392.641Z" fill="#4F2396"/>
<path fill-rule="evenodd" clip-rule="evenodd" d="M120.069 394.604L-10.7961 -7.43164H-434.205L-565.078 394.604L-222.504 643.083L120.069 394.604ZM-566.878 395.817L-567.488 395.379L-435.915 -8.76855L-435.684 -9.48242H-9.31085L122.255 394.672L122.485 395.379L-221.898 645.159L-222.501 645.605L-566.878 395.817Z" fill="#4F2396"/>
<path fill-rule="evenodd" clip-rule="evenodd" d="M-3.36707 -18.1016H-441.631L-577.096 397.968L-222.503 655.122L132.091 397.968L-3.36707 -18.1016ZM-578.616 398.993L-579.115 398.621L-443.069 -19.218L-442.883 -19.8203H-2.12378L133.93 398.034L134.116 398.621L-222.503 657.233L-578.616 398.993Z" fill="#4F2396"/>
<path fill-rule="evenodd" clip-rule="evenodd" d="M144.103 401.332L4.05316 -28.7656H-449.05L-589.107 401.332L-222.502 667.137L144.103 401.332ZM-590.325 402.157L-590.742 401.852L-450.215 -29.6804L-450.059 -30.1562H5.07068L145.59 401.377L145.747 401.852L-222.081 668.557L-222.498 668.862L-590.325 402.157Z" fill="#4F2396"/>
<path fill-rule="evenodd" clip-rule="evenodd" d="M156.113 405.484L11.4792 -39.4365H-456.466L-601.107 405.484L-222.501 680.456L156.113 405.484ZM-602.049 406.117L-602.369 405.894L-457.244 -40.4941H12.2518L157.377 405.894L-222.19 681.551L-222.503 681.782L-602.049 406.117Z" fill="#4F2396"/>
<path fill-rule="evenodd" clip-rule="evenodd" d="M-464.437 -50.8301L-464.519 -50.5694L-614 409.127L-613.776 409.291L-222.498 693.411L-222.282 693.247L169.004 409.127L168.929 408.874L19.4483 -50.8301H-464.437ZM-613.129 408.843L-463.886 -50.0938H18.8961L168.131 408.843L-222.499 692.479L-613.129 408.843Z" fill="#4F2396"/>
</g>
<g opacity="0.05">
<path fill-rule="evenodd" clip-rule="evenodd" d="M1281.86 623.304H1213.15L1191.9 688.714L1192 688.782L1213.15 623.64H1281.85L1303.01 688.782L1303.1 688.714L1281.86 623.304ZM1274.47 633.855L1274.46 633.84H1220.55L1220.54 633.855H1274.47ZM1247.51 680.051L1255.17 674.486L1252.24 665.472H1242.78L1239.84 674.486L1247.51 680.051ZM1180.31 692.493L1205.97 613.43H1289.03L1314.69 692.493L1247.51 741.346L1180.31 692.493Z" fill="#4F2396"/>
<path fill-rule="evenodd" clip-rule="evenodd" d="M1289.27 613.921H1205.72L1179.9 693.369L1247.49 742.466L1315.1 693.369L1289.27 613.921ZM1168.68 697.012L1198.79 604.385H1296.2L1326.32 697.012L1247.49 754.266L1168.68 697.012Z" fill="#4F2396"/>
<path fill-rule="evenodd" clip-rule="evenodd" d="M1296.7 603.251H1198.31L1167.9 696.73L1247.5 754.512L1327.1 696.73L1296.7 603.251ZM1157.06 700.25L1191.62 594.047H1303.39L1337.95 700.25L1247.5 765.893L1157.06 700.25Z" fill="#4F2396"/>
<path fill-rule="evenodd" clip-rule="evenodd" d="M1304.11 592.589H1190.89L1155.88 700.099L1247.5 766.534L1339.11 700.099L1304.11 592.589ZM1145.43 703.492L1184.42 583.711H1310.57L1349.58 703.492L1247.5 777.524L1145.43 703.492Z" fill="#4F2396"/>
<path fill-rule="evenodd" clip-rule="evenodd" d="M1310.54 581.921H1183.18L1143.82 703.466L1246.86 778.577L1349.9 703.466L1310.54 581.921ZM1133.8 706.73L1176.99 573.373H1316.73L1359.91 706.73L1246.86 789.151L1133.8 706.73Z" fill="#4F2396"/>
<path fill-rule="evenodd" clip-rule="evenodd" d="M1317.94 571.264H1175.75L1131.82 706.831L1246.85 790.606L1361.88 706.831L1317.94 571.264ZM1122.17 709.967L1169.8 563.038H1323.9L1371.54 709.967L1246.85 800.782L1122.17 709.967Z" fill="#4F2396"/>
<path fill-rule="evenodd" clip-rule="evenodd" d="M1325.37 560.604H1168.34L1119.81 710.187L1246.85 802.632L1373.9 710.187L1325.37 560.604ZM1110.54 713.202L1162.62 552.701H1331.1L1383.17 713.202L1246.85 812.41L1110.54 713.202Z" fill="#4F2396"/>
<path fill-rule="evenodd" clip-rule="evenodd" d="M1332.79 549.937H1160.92L1107.8 713.556L1246.85 814.678L1385.91 713.556L1332.79 549.937ZM1098.91 716.438L1155.42 542.363H1338.28L1394.8 716.438L1246.85 824.038L1098.91 716.438Z" fill="#4F2396"/>
<path fill-rule="evenodd" clip-rule="evenodd" d="M1340.21 540.567H1153.51L1095.79 718.2L1246.86 827.992L1397.93 718.2L1340.21 540.567ZM1087.28 720.971L1148.23 533.317H1345.47L1406.43 720.971L1246.85 836.958L1087.28 720.971Z" fill="#4F2396"/>
<path fill-rule="evenodd" clip-rule="evenodd" d="M1347.63 529.9H1146.09L1083.79 721.579L1246.86 840.03L1409.93 721.579L1347.63 529.9ZM1075.66 724.219L1141.06 522.982H1352.66L1418.06 724.219L1246.86 848.588L1075.66 724.219Z" fill="#4F2396"/>
<path fill-rule="evenodd" clip-rule="evenodd" d="M1355.05 519.247H1138.66L1071.78 724.941L1246.86 852.059L1421.93 724.941L1355.05 519.247ZM1064.03 727.457L1133.87 512.646H1359.84L1429.69 727.457L1246.86 860.217L1064.03 727.457Z" fill="#4F2396"/>
<path fill-rule="evenodd" clip-rule="evenodd" d="M1362.47 508.584H1131.24L1059.77 728.297L1246.86 864.092L1433.95 728.297L1362.47 508.584ZM1052.4 730.693L1126.69 502.311H1367.02L1441.32 730.693L1246.86 871.847L1052.4 730.693Z" fill="#4F2396"/>
<path fill-rule="evenodd" clip-rule="evenodd" d="M1369.9 497.905H1123.83L1047.77 731.66L1246.86 876.131L1445.96 731.66L1369.9 497.905ZM1040.77 733.938L1119.5 491.975H1374.21L1452.94 733.938L1246.86 883.477L1040.77 733.938Z" fill="#4F2396"/>
<path fill-rule="evenodd" clip-rule="evenodd" d="M1377.31 487.254H1116.4L1035.76 735.023L1246.85 888.161L1457.95 735.023L1377.31 487.254ZM1029.14 737.167L1112.31 481.637H1381.4L1464.57 737.167L1246.85 895.104L1029.14 737.167Z" fill="#4F2396"/>
<path fill-rule="evenodd" clip-rule="evenodd" d="M1384.74 476.588H1108.98L1023.74 738.395L1246.86 900.198L1469.98 738.395L1384.74 476.588ZM1019.07 741.536L1017.51 740.405L1105.13 471.299H1388.6L1476.2 740.405L1246.86 906.732L1019.07 741.536Z" fill="#4F2396"/>
<path fill-rule="evenodd" clip-rule="evenodd" d="M1392.15 465.93H1101.55L1011.73 741.743L1246.85 912.221L1481.98 741.743L1392.15 465.93ZM1005.88 743.649L1097.93 460.961H1395.77L1487.83 743.649L1246.85 918.359L1005.88 743.649Z" fill="#4F2396"/>
<path fill-rule="evenodd" clip-rule="evenodd" d="M1399.58 456.551H1094.13L999.719 746.41L1246.86 925.544L1493.99 746.41L1399.58 456.551ZM994.252 748.175L1090.75 451.918H1402.96L1499.46 748.175L1246.85 931.282L994.252 748.175Z" fill="#4F2396"/>
<path fill-rule="evenodd" clip-rule="evenodd" d="M1407.25 445.89H1087.75L988.994 749.774L1247.5 937.578L1506 749.774L1407.25 445.89ZM983.918 751.417L1084.62 441.581H1410.39L1511.09 751.417L1247.5 942.91L983.918 751.417Z" fill="#4F2396"/>
<path fill-rule="evenodd" clip-rule="evenodd" d="M1414.68 435.24H1080.32L976.977 753.131L1247.5 949.609L1518.03 753.131L1414.68 435.24ZM973.455 755.51L972.287 754.655L1077.43 431.245H1417.58L1522.72 754.655L1247.5 954.54L973.455 755.51Z" fill="#4F2396"/>
<path fill-rule="evenodd" clip-rule="evenodd" d="M1422.09 424.567H1072.91L964.982 756.493L1247.5 961.638L1530.03 756.493L1422.09 424.567ZM960.658 757.89L1070.25 420.907H1424.76L1534.34 757.89L1247.5 966.167L960.658 757.89Z" fill="#4F2396"/>
<path fill-rule="evenodd" clip-rule="evenodd" d="M1542.04 759.861L1429.52 413.91H1065.49L952.957 759.861L1247.5 973.676L1542.04 759.861ZM950.01 761.855L949.027 761.141L1062.67 411.724L1063.05 410.571H1431.95L1545.97 761.141L1248.48 977.09L1247.5 977.797L950.01 761.855Z" fill="#4F2396"/>
<path fill-rule="evenodd" clip-rule="evenodd" d="M1436.95 403.242H1058.06L940.955 763.211L1247.51 985.695L1554.05 763.211L1436.95 403.242ZM937.4 764.374L1055.87 400.233H1439.13L1557.6 764.374L1247.5 989.424L937.4 764.374Z" fill="#4F2396"/>
<path fill-rule="evenodd" clip-rule="evenodd" d="M1444.36 392.584H1050.64L928.934 766.593L1247.51 997.739L1566.07 766.593L1444.36 392.584ZM926.563 768.192L925.773 767.627L1048.37 390.829L1048.68 389.899H1446.33L1568.93 766.697L1569.23 767.627L1247.5 1001.06L926.563 768.192Z" fill="#4F2396"/>
<path fill-rule="evenodd" clip-rule="evenodd" d="M1451.79 383.21H1043.21L916.918 771.237L1247.49 1011.05L1578.08 771.237L1451.79 383.21ZM914.835 772.641L914.143 772.135L1041.22 381.67L1041.5 380.852H1453.5L1580.6 771.317L1580.86 772.135L1247.5 1013.97L914.835 772.641Z" fill="#4F2396"/>
<path fill-rule="evenodd" clip-rule="evenodd" d="M1590.07 774.604L1459.2 372.568H1035.79L904.922 774.604L1247.5 1023.08L1590.07 774.604ZM903.122 775.817L902.512 775.379L1034.08 371.231L1034.32 370.518H1460.69L1592.25 774.672L1592.49 775.379L1248.1 1025.16L1247.5 1025.6L903.122 775.817Z" fill="#4F2396"/>
<path fill-rule="evenodd" clip-rule="evenodd" d="M1466.63 361.898H1028.37L892.904 777.968L1247.5 1035.12L1602.09 777.968L1466.63 361.898ZM891.384 778.993L890.885 778.621L1026.93 360.782L1027.12 360.18H1467.88L1603.93 778.034L1604.12 778.621L1247.5 1037.23L891.384 778.993Z" fill="#4F2396"/>
<path fill-rule="evenodd" clip-rule="evenodd" d="M1614.1 781.332L1474.05 351.234H1020.95L880.893 781.332L1247.5 1047.14L1614.1 781.332ZM879.675 782.157L879.258 781.852L1019.78 350.32L1019.94 349.844H1475.07L1615.59 781.377L1615.75 781.852L1247.92 1048.56L1247.5 1048.86L879.675 782.157Z" fill="#4F2396"/>
<path fill-rule="evenodd" clip-rule="evenodd" d="M1626.11 785.484L1481.48 340.563H1013.53L868.893 785.484L1247.5 1060.46L1626.11 785.484ZM867.951 786.117L867.631 785.894L1012.76 339.506H1482.25L1627.38 785.894L1247.81 1061.55L1247.5 1061.78L867.951 786.117Z" fill="#4F2396"/>
<path fill-rule="evenodd" clip-rule="evenodd" d="M1005.56 329.17L1005.48 329.431L856 789.127L856.224 789.291L1247.5 1073.41L1247.72 1073.25L1639 789.127L1638.93 788.874L1489.45 329.17H1005.56ZM856.871 788.843L1006.11 329.906H1488.9L1638.13 788.843L1247.5 1072.48L856.871 788.843Z" fill="#4F2396"/>
</g>
</g>
<defs>
<linearGradient id="paint0_linear_40004656_5362" x1="612" y1="0.169922" x2="612" y2="634.17" gradientUnits="userSpaceOnUse">
<stop stop-color="#D8C4FF"/>
<stop offset="1" stop-color="#F5F0FF" stop-opacity="0"/>
</linearGradient>
<clipPath id="clip0_40004656_5362">
<rect y="0.169922" width="1224" height="634" rx="28" fill="white"/>
</clipPath>
</defs>
</svg>
