<svg width="20" height="21" viewBox="0 0 20 21" fill="none" xmlns="http://www.w3.org/2000/svg">
<path d="M6 0.669922H14C17.0376 0.669922 19.5 3.13236 19.5 6.16992V14.1699C19.5 17.2075 17.0376 19.6699 14 19.6699H6C2.96243 19.6699 0.5 17.2075 0.5 14.1699V6.16992C0.5 3.13236 2.96243 0.669922 6 0.669922Z" fill="#4F2396"/>
<path d="M6 0.669922H14C17.0376 0.669922 19.5 3.13236 19.5 6.16992V14.1699C19.5 17.2075 17.0376 19.6699 14 19.6699H6C2.96243 19.6699 0.5 17.2075 0.5 14.1699V6.16992C0.5 3.13236 2.96243 0.669922 6 0.669922Z" stroke="#D6DBDE"/>
<path d="M14.6654 6.66992L8.2487 13.0866L5.33203 10.1699" stroke="white" stroke-width="2" stroke-linecap="round" stroke-linejoin="round"/>
</svg>
