<svg width="122" height="104" viewBox="0 0 122 104" fill="none" xmlns="http://www.w3.org/2000/svg">
<path d="M55.0743 79.7216C55.0743 73.2682 53.3876 67.8489 50.0143 63.4636C47.6236 60.4422 44.3799 58.4574 40.283 57.5089C36.2496 56.5702 32.4363 56.5042 28.9896 57.3036C27.8163 50.3369 29.723 42.9596 34.563 35.1423C39.4127 27.3298 45.6656 21.4558 53.3216 17.5202L41.7276 0.836914C35.861 3.74091 30.2876 7.42225 25.1543 11.8736C19.9476 16.3249 15.3276 21.4436 11.221 27.2296C7.11429 33.0156 4.03429 39.5496 2.05429 46.9562C0.074293 54.3629 -0.475706 61.9162 0.470294 69.6896C1.70229 79.9562 5.01696 88.1696 10.4143 94.2562C15.8067 100.421 22.5241 103.504 30.5663 103.504C37.643 103.504 43.517 101.377 48.1663 97.0649C52.7667 92.8409 55.0645 87.0525 55.0596 79.6996L55.0743 79.7216ZM121.984 79.7216C121.984 73.2682 120.297 67.8489 116.924 63.4636C114.528 60.3836 111.284 58.3865 107.192 57.4722C103.086 56.5678 99.3212 56.514 95.899 57.3109C94.7256 50.4176 96.559 43.0109 101.414 35.1642C106.254 27.3909 112.502 21.5242 120.158 17.5642L108.593 0.836914C102.721 3.74091 97.197 7.4198 92.0196 11.8736C86.7661 16.3914 82.0999 21.5504 78.1303 27.2296C74.053 33.0229 71.017 39.5496 69.037 46.9562C67.0257 54.3572 66.485 62.0806 67.4456 69.6896C68.663 79.9562 71.963 88.1696 77.3456 94.2562C82.7234 100.377 89.4285 103.438 97.461 103.438C104.55 103.447 110.421 101.304 115.076 97.0062C119.676 92.7822 121.979 86.9938 121.984 79.6409V79.7216Z" fill="#EDE9F5"/>
</svg>
