<svg width="22" height="29" viewBox="0 0 22 29" fill="none" xmlns="http://www.w3.org/2000/svg">
<g clip-path="url(#clip0_40005562_3521)">
<path d="M12.8189 23.8075C12.385 24.7988 12.0982 25.8745 11.9883 27.0026L21.1707 24.9915C21.6046 24.0005 21.8912 22.9245 22.0013 21.7964L12.8189 23.8075Z" fill="black"/>
<path d="M19.0118 18.6646C19.3631 17.8624 19.5953 16.9913 19.6842 16.0781L13.8938 17.3469V14.9078L19.0116 13.7872C19.3629 12.9849 19.5951 12.1139 19.684 11.2007L13.8937 12.4684V3.69648C13.0064 4.20975 12.2184 4.89296 11.5779 5.69886V12.9757L9.26216 13.4829V2.50342C8.3749 3.01651 7.58693 3.6999 6.9464 4.5058V13.9898L1.76488 15.1243C1.41362 15.9265 1.18126 16.7976 1.09213 17.7108L6.9464 16.429V19.5007L0.672402 20.8743C0.321142 21.6766 0.0889531 22.5476 0 23.4609L6.56712 22.023C7.10172 21.9084 7.56119 21.5828 7.85992 21.1346L9.06429 19.295C9.18931 19.1047 9.26216 18.8748 9.26216 18.6277V15.9219L11.5779 15.4147V20.293L19.0118 18.6646Z" fill="black"/>
</g>
<defs>
<clipPath id="clip0_40005562_3521">
<rect width="22" height="28" fill="white" transform="translate(0 0.169922)"/>
</clipPath>
</defs>
</svg>
