<svg width="370" height="391" viewBox="0 0 370 391" fill="none" xmlns="http://www.w3.org/2000/svg">
<g filter="url(#filter0_dd_40005036_218552)">
<rect x="55.5" y="59.9341" width="247" height="271.272" rx="11.422" fill="white" shape-rendering="crispEdges"/>
<rect x="63.5" y="74.1162" width="120.416" height="95.6908" rx="11.422" fill="white"/>
<path d="M75.901 96.836V104.104H74.7298L71.3049 99.1535H71.2446V104.104H69.9279V96.836H71.1061L74.5275 101.79H74.5913V96.836H75.901ZM81.5606 96.836H82.8773V101.585C82.8773 102.105 82.7543 102.563 82.5082 102.958C82.2645 103.353 81.9214 103.662 81.479 103.884C81.0365 104.104 80.5195 104.215 79.928 104.215C79.3341 104.215 78.816 104.104 78.3735 103.884C77.9311 103.662 77.588 103.353 77.3443 102.958C77.1006 102.563 76.9787 102.105 76.9787 101.585V96.836H78.2955V101.475C78.2955 101.777 78.3617 102.047 78.4942 102.284C78.6291 102.52 78.8183 102.706 79.0621 102.841C79.3058 102.974 79.5944 103.04 79.928 103.04C80.2616 103.04 80.5503 102.974 80.794 102.841C81.0401 102.706 81.2294 102.52 81.3619 102.284C81.4944 102.047 81.5606 101.777 81.5606 101.475V96.836ZM83.9516 96.836H85.5628L87.7207 102.103H87.8059L89.9637 96.836H91.575V104.104H90.3115V99.1109H90.2441L88.2353 104.083H87.2912L85.2825 99.1003H85.215V104.104H83.9516V96.836ZM92.6519 104.104V96.836H95.4344C95.9596 96.836 96.3962 96.9188 96.744 97.0844C97.0941 97.2477 97.3556 97.4713 97.5283 97.7552C97.7034 98.0391 97.7909 98.3609 97.7909 98.7205C97.7909 99.0163 97.7342 99.2695 97.6206 99.48C97.507 99.6882 97.3544 99.8574 97.1628 99.9876C96.9711 100.118 96.757 100.211 96.5204 100.268V100.339C96.7783 100.353 97.0255 100.432 97.2621 100.577C97.5011 100.719 97.6963 100.92 97.8477 101.18C97.9992 101.44 98.0749 101.755 98.0749 102.124C98.0749 102.5 97.9838 102.839 97.8016 103.139C97.6194 103.437 97.3449 103.673 96.9782 103.845C96.6115 104.018 96.1501 104.104 95.5941 104.104H92.6519ZM93.9686 103.004H95.3847C95.8626 103.004 96.2069 102.913 96.4175 102.731C96.6304 102.546 96.7369 102.31 96.7369 102.021C96.7369 101.806 96.6836 101.612 96.5772 101.439C96.4707 101.264 96.3193 101.127 96.1229 101.027C95.9265 100.926 95.6923 100.875 95.4202 100.875H93.9686V103.004ZM93.9686 99.9272H95.2711C95.4982 99.9272 95.7029 99.8858 95.8851 99.803C96.0673 99.7178 96.2104 99.5983 96.3145 99.4445C96.421 99.2884 96.4742 99.1038 96.4742 98.8909C96.4742 98.6093 96.3749 98.3775 96.1761 98.1953C95.9797 98.0131 95.6875 97.922 95.2995 97.922H93.9686V99.9272ZM98.8634 104.104V96.836H103.591V97.9397H100.18V99.913H103.346V101.017H100.18V103.001H103.619V104.104H98.8634ZM104.577 104.104V96.836H107.303C107.861 96.836 108.33 96.933 108.708 97.127C109.089 97.321 109.377 97.5931 109.571 97.9433C109.767 98.2911 109.865 98.6969 109.865 99.1606C109.865 99.6267 109.766 100.031 109.567 100.374C109.371 100.715 109.081 100.979 108.698 101.166C108.314 101.35 107.844 101.443 107.285 101.443H105.344V100.35H107.108C107.434 100.35 107.702 100.305 107.91 100.215C108.118 100.122 108.272 99.9887 108.371 99.8136C108.473 99.6362 108.524 99.4185 108.524 99.1606C108.524 98.9027 108.473 98.6827 108.371 98.5005C108.269 98.3159 108.114 98.1763 107.906 98.0817C107.698 97.9847 107.429 97.9362 107.101 97.9362H105.894V104.104H104.577ZM108.332 100.811L110.131 104.104H108.662L106.895 100.811H108.332ZM119.337 100.47C119.337 101.253 119.191 101.924 118.897 102.483C118.606 103.039 118.209 103.464 117.705 103.76C117.203 104.056 116.634 104.204 115.998 104.204C115.361 104.204 114.791 104.056 114.287 103.76C113.785 103.462 113.388 103.035 113.094 102.479C112.803 101.921 112.658 101.251 112.658 100.47C112.658 99.6871 112.803 99.0175 113.094 98.4614C113.388 97.9031 113.785 97.476 114.287 97.1802C114.791 96.8845 115.361 96.7366 115.998 96.7366C116.634 96.7366 117.203 96.8845 117.705 97.1802C118.209 97.476 118.606 97.9031 118.897 98.4614C119.191 99.0175 119.337 99.6871 119.337 100.47ZM118.014 100.47C118.014 99.9189 117.927 99.454 117.754 99.0754C117.584 98.6945 117.347 98.407 117.045 98.213C116.742 98.0166 116.393 97.9184 115.998 97.9184C115.602 97.9184 115.253 98.0166 114.951 98.213C114.648 98.407 114.41 98.6945 114.237 99.0754C114.067 99.454 113.982 99.9189 113.982 100.47C113.982 101.022 114.067 101.488 114.237 101.869C114.41 102.247 114.648 102.535 114.951 102.731C115.253 102.925 115.602 103.022 115.998 103.022C116.393 103.022 116.742 102.925 117.045 102.731C117.347 102.535 117.584 102.247 117.754 101.869C117.927 101.488 118.014 101.022 118.014 100.47ZM120.225 104.104V96.836H124.882V97.9397H121.542V99.913H124.562V101.017H121.542V104.104H120.225ZM132.716 99.1571C132.657 98.9654 132.575 98.7939 132.471 98.6425C132.369 98.4887 132.246 98.3573 132.102 98.2485C131.96 98.1397 131.796 98.058 131.612 98.0036C131.427 97.9468 131.226 97.9184 131.009 97.9184C130.618 97.9184 130.27 98.0166 129.965 98.213C129.66 98.4094 129.42 98.6981 129.245 99.079C129.072 99.4576 128.986 99.9189 128.986 100.463C128.986 101.012 129.072 101.477 129.245 101.858C129.417 102.239 129.658 102.529 129.965 102.727C130.273 102.924 130.63 103.022 131.037 103.022C131.406 103.022 131.726 102.951 131.995 102.809C132.267 102.667 132.477 102.466 132.623 102.206C132.77 101.943 132.843 101.636 132.843 101.283L133.142 101.329H131.168V100.3H134.118V101.173C134.118 101.795 133.985 102.333 133.72 102.788C133.455 103.242 133.091 103.592 132.627 103.838C132.163 104.082 131.631 104.204 131.03 104.204C130.36 104.204 129.772 104.054 129.266 103.753C128.762 103.45 128.368 103.021 128.084 102.465C127.803 101.906 127.662 101.244 127.662 100.477C127.662 99.8905 127.745 99.3665 127.91 98.9051C128.078 98.4437 128.312 98.0521 128.613 97.7303C128.913 97.4062 129.266 97.1601 129.671 96.9921C130.075 96.8218 130.515 96.7366 130.991 96.7366C131.393 96.7366 131.768 96.7957 132.116 96.914C132.464 97.03 132.772 97.1956 133.042 97.4109C133.314 97.6262 133.538 97.8818 133.713 98.1775C133.888 98.4733 134.003 98.7998 134.057 99.1571H132.716ZM139.616 96.836H140.932V101.585C140.932 102.105 140.809 102.563 140.563 102.958C140.32 103.353 139.977 103.662 139.534 103.884C139.092 104.104 138.575 104.215 137.983 104.215C137.389 104.215 136.871 104.104 136.429 103.884C135.986 103.662 135.643 103.353 135.399 102.958C135.156 102.563 135.034 102.105 135.034 101.585V96.836H136.351V101.475C136.351 101.777 136.417 102.047 136.549 102.284C136.684 102.52 136.874 102.706 137.117 102.841C137.361 102.974 137.65 103.04 137.983 103.04C138.317 103.04 138.605 102.974 138.849 102.841C139.095 102.706 139.285 102.52 139.417 102.284C139.55 102.047 139.616 101.777 139.616 101.475V96.836ZM142.007 104.104V96.836H146.734V97.9397H143.323V99.913H146.489V101.017H143.323V103.001H146.762V104.104H142.007ZM151.671 98.8341C151.637 98.5241 151.498 98.2828 151.252 98.1101C151.008 97.9374 150.691 97.851 150.301 97.851C150.026 97.851 149.791 97.8924 149.594 97.9752C149.398 98.058 149.248 98.1704 149.144 98.3124C149.04 98.4544 148.986 98.6164 148.984 98.7986C148.984 98.95 149.018 99.0814 149.087 99.1926C149.158 99.3038 149.254 99.3984 149.374 99.4765C149.495 99.5522 149.629 99.6161 149.775 99.6681C149.922 99.7202 150.07 99.764 150.219 99.7995L150.9 99.9698C151.175 100.034 151.439 100.12 151.692 100.229C151.947 100.338 152.176 100.475 152.377 100.641C152.58 100.806 152.741 101.006 152.86 101.24C152.978 101.475 153.037 101.749 153.037 102.064C153.037 102.49 152.928 102.865 152.71 103.189C152.493 103.511 152.178 103.763 151.766 103.945C151.357 104.125 150.861 104.215 150.279 104.215C149.714 104.215 149.223 104.127 148.806 103.952C148.392 103.777 148.068 103.521 147.834 103.185C147.602 102.849 147.477 102.44 147.458 101.957H148.753C148.772 102.21 148.85 102.421 148.987 102.589C149.125 102.757 149.303 102.882 149.523 102.965C149.746 103.048 149.994 103.089 150.269 103.089C150.555 103.089 150.806 103.047 151.021 102.962C151.239 102.874 151.409 102.753 151.532 102.6C151.655 102.444 151.718 102.261 151.72 102.053C151.718 101.864 151.662 101.708 151.553 101.585C151.445 101.459 151.292 101.355 151.096 101.272C150.902 101.187 150.674 101.111 150.414 101.045L149.587 100.832C148.989 100.678 148.515 100.445 148.168 100.133C147.822 99.8184 147.649 99.4008 147.649 98.8802C147.649 98.452 147.765 98.077 147.997 97.7552C148.232 97.4334 148.55 97.1838 148.952 97.0063C149.354 96.8265 149.81 96.7366 150.318 96.7366C150.834 96.7366 151.286 96.8265 151.674 97.0063C152.065 97.1838 152.371 97.431 152.593 97.7481C152.816 98.0628 152.931 98.4248 152.938 98.8341H151.671ZM153.535 97.9397V96.836H159.334V97.9397H157.087V104.104H155.781V97.9397H153.535ZM164.045 98.8341C164.012 98.5241 163.872 98.2828 163.626 98.1101C163.382 97.9374 163.065 97.851 162.675 97.851C162.4 97.851 162.165 97.8924 161.969 97.9752C161.772 98.058 161.622 98.1704 161.518 98.3124C161.414 98.4544 161.361 98.6164 161.358 98.7986C161.358 98.95 161.393 99.0814 161.461 99.1926C161.532 99.3038 161.628 99.3984 161.749 99.4765C161.869 99.5522 162.003 99.6161 162.15 99.6681C162.296 99.7202 162.444 99.764 162.593 99.7995L163.275 99.9698C163.549 100.034 163.813 100.12 164.066 100.229C164.322 100.338 164.55 100.475 164.751 100.641C164.955 100.806 165.116 101.006 165.234 101.24C165.352 101.475 165.411 101.749 165.411 102.064C165.411 102.49 165.302 102.865 165.085 103.189C164.867 103.511 164.552 103.763 164.141 103.945C163.731 104.125 163.236 104.215 162.654 104.215C162.088 104.215 161.597 104.127 161.181 103.952C160.767 103.777 160.443 103.521 160.208 103.185C159.976 102.849 159.851 102.44 159.832 101.957H161.128C161.146 102.21 161.225 102.421 161.362 102.589C161.499 102.757 161.678 102.882 161.898 102.965C162.12 103.048 162.369 103.089 162.643 103.089C162.929 103.089 163.18 103.047 163.395 102.962C163.613 102.874 163.783 102.753 163.906 102.6C164.029 102.444 164.092 102.261 164.095 102.053C164.092 101.864 164.037 101.708 163.928 101.585C163.819 101.459 163.666 101.355 163.47 101.272C163.276 101.187 163.049 101.111 162.788 101.045L161.962 100.832C161.363 100.678 160.89 100.445 160.542 100.133C160.196 99.8184 160.024 99.4008 160.024 98.8802C160.024 98.452 160.14 98.077 160.372 97.7552C160.606 97.4334 160.924 97.1838 161.326 97.0063C161.728 96.8265 162.184 96.7366 162.693 96.7366C163.208 96.7366 163.66 96.8265 164.048 97.0063C164.439 97.1838 164.745 97.431 164.968 97.7481C165.19 98.0628 165.305 98.4248 165.312 98.8341H164.045Z" fill="#7A7A7A"/>
<path d="M80.2841 161.147C78.4751 161.147 76.8688 160.843 75.4654 160.235C74.0701 159.626 72.975 158.795 72.18 157.74C71.3931 156.678 71.0037 155.473 71.0118 154.126C71.0037 153.08 71.2309 152.118 71.6933 151.242C72.1557 150.366 72.7803 149.636 73.5672 149.052C74.3622 148.46 75.2464 148.083 76.2199 147.92V147.75C74.9381 147.466 73.8998 146.813 73.1048 145.791C72.3179 144.761 71.9285 143.572 71.9366 142.226C71.9285 140.944 72.2855 139.8 73.0074 138.794C73.7294 137.788 74.7191 136.997 75.9765 136.421C77.2339 135.837 78.6698 135.545 80.2841 135.545C81.8822 135.545 83.3059 135.837 84.5551 136.421C85.8125 136.997 86.8022 137.788 87.5242 138.794C88.2543 139.8 88.6194 140.944 88.6194 142.226C88.6194 143.572 88.2178 144.761 87.4147 145.791C86.6197 146.813 85.5935 147.466 84.3361 147.75V147.92C85.3096 148.083 86.1857 148.46 86.9645 149.052C87.7514 149.636 88.376 150.366 88.8384 151.242C89.3089 152.118 89.5441 153.08 89.5441 154.126C89.5441 155.473 89.1466 156.678 88.3517 157.74C87.5567 158.795 86.4615 159.626 85.0662 160.235C83.679 160.843 82.085 161.147 80.2841 161.147ZM80.2841 157.667C81.217 157.667 82.0282 157.509 82.7177 157.193C83.4073 156.868 83.9427 156.414 84.324 155.83C84.7052 155.246 84.8999 154.572 84.908 153.81C84.8999 153.015 84.6931 152.313 84.2874 151.705C83.8899 151.088 83.3424 150.606 82.6447 150.257C81.9552 149.908 81.1683 149.733 80.2841 149.733C79.3917 149.733 78.5967 149.908 77.8991 150.257C77.2014 150.606 76.6498 151.088 76.2442 151.705C75.8467 152.313 75.652 153.015 75.6601 153.81C75.652 154.572 75.8386 155.246 76.2199 155.83C76.6011 156.406 77.1365 156.856 77.8261 157.18C78.5237 157.505 79.3431 157.667 80.2841 157.667ZM80.2841 146.314C81.0466 146.314 81.7199 146.16 82.304 145.852C82.8962 145.544 83.3627 145.114 83.7034 144.562C84.0441 144.01 84.2185 143.374 84.2266 142.652C84.2185 141.938 84.0481 141.313 83.7155 140.778C83.3829 140.234 82.9205 139.816 82.3284 139.524C81.7362 139.224 81.0547 139.074 80.2841 139.074C79.4972 139.074 78.8036 139.224 78.2033 139.524C77.6111 139.816 77.1487 140.234 76.8161 140.778C76.4916 141.313 76.3334 141.938 76.3416 142.652C76.3334 143.374 76.4957 144.01 76.8283 144.562C77.169 145.105 77.6354 145.535 78.2276 145.852C78.8279 146.16 79.5134 146.314 80.2841 146.314ZM100.781 161.147C99.1581 161.147 97.706 160.843 96.4243 160.235C95.1426 159.618 94.1245 158.775 93.3701 157.704C92.6237 156.633 92.2262 155.408 92.1776 154.029H96.5581C96.6393 155.051 97.0814 155.887 97.8845 156.536C98.6876 157.176 99.653 157.497 100.781 157.497C101.665 157.497 102.452 157.294 103.141 156.888C103.831 156.483 104.374 155.919 104.772 155.197C105.169 154.475 105.364 153.652 105.356 152.727C105.364 151.786 105.165 150.95 104.76 150.22C104.354 149.49 103.798 148.918 103.093 148.505C102.387 148.083 101.576 147.872 100.659 147.872C99.9125 147.864 99.1784 148.002 98.4564 148.285C97.7344 148.569 97.1625 148.943 96.7407 149.405L92.6643 148.736L93.9663 135.886H108.422V139.658H97.702L96.984 146.266H97.1301C97.5925 145.722 98.2455 145.272 99.0892 144.915C99.9328 144.55 100.858 144.367 101.864 144.367C103.372 144.367 104.719 144.724 105.903 145.438C107.088 146.144 108.021 147.117 108.702 148.358C109.384 149.6 109.724 151.019 109.724 152.617C109.724 154.264 109.343 155.732 108.58 157.022C107.826 158.304 106.775 159.314 105.429 160.052C104.09 160.782 102.541 161.147 100.781 161.147ZM121.499 161.147C120.307 161.139 119.142 160.932 118.007 160.527C116.871 160.113 115.849 159.444 114.94 158.519C114.032 157.586 113.31 156.349 112.774 154.808C112.239 153.258 111.975 151.34 111.983 149.052C111.983 146.919 112.211 145.016 112.665 143.345C113.119 141.674 113.772 140.263 114.624 139.111C115.476 137.951 116.502 137.066 117.703 136.458C118.911 135.849 120.262 135.545 121.755 135.545C123.32 135.545 124.707 135.854 125.916 136.47C127.133 137.087 128.115 137.93 128.861 139.001C129.607 140.064 130.07 141.264 130.248 142.603H125.807C125.58 141.646 125.113 140.883 124.407 140.315C123.71 139.739 122.825 139.451 121.755 139.451C120.027 139.451 118.696 140.202 117.763 141.702C116.839 143.203 116.372 145.264 116.364 147.884H116.534C116.932 147.17 117.447 146.558 118.08 146.047C118.713 145.535 119.426 145.142 120.221 144.866C121.025 144.582 121.872 144.44 122.765 144.44C124.225 144.44 125.535 144.789 126.695 145.487C127.863 146.184 128.788 147.146 129.469 148.371C130.151 149.587 130.487 150.983 130.479 152.557C130.487 154.195 130.114 155.668 129.36 156.974C128.605 158.272 127.555 159.294 126.208 160.04C124.862 160.786 123.292 161.155 121.499 161.147ZM121.475 157.497C122.359 157.497 123.15 157.282 123.848 156.852C124.545 156.422 125.097 155.842 125.502 155.112C125.908 154.382 126.107 153.562 126.099 152.654C126.107 151.762 125.912 150.954 125.515 150.232C125.125 149.51 124.586 148.939 123.896 148.517C123.207 148.095 122.42 147.884 121.536 147.884C120.878 147.884 120.266 148.01 119.698 148.261C119.13 148.513 118.635 148.861 118.214 149.308C117.792 149.746 117.459 150.257 117.216 150.841C116.981 151.417 116.859 152.033 116.851 152.69C116.859 153.558 117.062 154.357 117.459 155.088C117.857 155.818 118.404 156.402 119.102 156.84C119.8 157.278 120.591 157.497 121.475 157.497Z" fill="#242424"/>
<path d="M150.08 151.945H150.028C149.934 152.381 149.677 152.746 149.257 153.037C148.846 153.319 148.298 153.461 147.613 153.461C147.081 153.461 146.589 153.362 146.135 153.165C145.681 152.96 145.287 152.664 144.953 152.279C144.627 151.885 144.37 151.401 144.182 150.827C144.002 150.244 143.912 149.576 143.912 148.822C143.912 148.077 144.006 147.417 144.195 146.843C144.383 146.261 144.649 145.772 144.991 145.378C145.334 144.984 145.745 144.689 146.225 144.492C146.704 144.286 147.24 144.183 147.831 144.183C148.636 144.183 149.317 144.363 149.874 144.723C150.431 145.074 150.864 145.567 151.172 146.201L149.99 146.895C149.818 146.475 149.553 146.137 149.193 145.88C148.833 145.614 148.379 145.481 147.831 145.481C147.12 145.481 146.546 145.708 146.109 146.162C145.681 146.616 145.467 147.259 145.467 148.09V149.555C145.467 150.385 145.681 151.028 146.109 151.482C146.546 151.936 147.12 152.163 147.831 152.163C148.114 152.163 148.384 152.129 148.641 152.06C148.898 151.983 149.12 151.876 149.309 151.739C149.506 151.593 149.66 151.418 149.771 151.212C149.891 150.998 149.951 150.75 149.951 150.467V149.773H148.101V148.527H151.352V153.307H150.08V151.945ZM157.315 152.202H157.264C157.204 152.364 157.122 152.523 157.02 152.677C156.925 152.831 156.801 152.968 156.647 153.088C156.501 153.2 156.321 153.29 156.107 153.358C155.902 153.427 155.662 153.461 155.388 153.461C154.694 153.461 154.154 153.238 153.769 152.793C153.392 152.347 153.203 151.709 153.203 150.878V146.625H154.604V150.698C154.604 151.735 155.032 152.253 155.889 152.253C156.069 152.253 156.244 152.232 156.416 152.189C156.587 152.137 156.737 152.065 156.865 151.97C157.002 151.876 157.109 151.756 157.187 151.61C157.272 151.465 157.315 151.294 157.315 151.096V146.625H158.716V153.307H157.315V152.202ZM163.343 153.461C162.863 153.461 162.435 153.379 162.058 153.217C161.681 153.054 161.359 152.823 161.094 152.523C160.828 152.214 160.623 151.846 160.477 151.418C160.34 150.981 160.272 150.497 160.272 149.966C160.272 149.435 160.34 148.955 160.477 148.527C160.623 148.09 160.828 147.721 161.094 147.421C161.359 147.113 161.681 146.878 162.058 146.715C162.435 146.552 162.863 146.471 163.343 146.471C163.831 146.471 164.259 146.556 164.628 146.728C165.004 146.899 165.317 147.139 165.566 147.447C165.814 147.747 165.998 148.098 166.118 148.501C166.247 148.903 166.311 149.336 166.311 149.799V150.326H161.724V150.544C161.724 151.058 161.873 151.482 162.173 151.816C162.482 152.142 162.919 152.304 163.484 152.304C163.895 152.304 164.242 152.214 164.525 152.035C164.807 151.855 165.047 151.61 165.244 151.302L166.067 152.112C165.818 152.523 165.459 152.853 164.987 153.101C164.516 153.341 163.968 153.461 163.343 153.461ZM163.343 147.563C163.103 147.563 162.88 147.606 162.674 147.691C162.477 147.777 162.306 147.897 162.16 148.051C162.023 148.205 161.916 148.389 161.839 148.604C161.762 148.818 161.724 149.053 161.724 149.31V149.4H164.833V149.272C164.833 148.758 164.7 148.347 164.435 148.038C164.169 147.721 163.805 147.563 163.343 147.563ZM169.982 153.461C169.348 153.461 168.817 153.349 168.388 153.127C167.96 152.904 167.587 152.596 167.27 152.202L168.17 151.379C168.418 151.679 168.692 151.915 168.992 152.086C169.301 152.249 169.656 152.33 170.059 152.33C170.47 152.33 170.774 152.253 170.971 152.099C171.177 151.936 171.279 151.713 171.279 151.431C171.279 151.216 171.207 151.037 171.061 150.891C170.924 150.737 170.68 150.638 170.329 150.595L169.712 150.518C169.026 150.433 168.487 150.236 168.093 149.927C167.707 149.61 167.514 149.143 167.514 148.527C167.514 148.201 167.574 147.914 167.694 147.666C167.814 147.409 167.981 147.194 168.195 147.023C168.418 146.843 168.679 146.706 168.979 146.612C169.288 146.518 169.626 146.471 169.994 146.471C170.594 146.471 171.082 146.565 171.459 146.753C171.845 146.942 172.187 147.203 172.487 147.537L171.626 148.36C171.455 148.154 171.228 147.978 170.945 147.833C170.671 147.678 170.354 147.601 169.994 147.601C169.609 147.601 169.322 147.678 169.133 147.833C168.954 147.987 168.864 148.188 168.864 148.437C168.864 148.694 168.945 148.886 169.108 149.015C169.271 149.143 169.532 149.238 169.892 149.298L170.508 149.375C171.245 149.486 171.781 149.704 172.115 150.03C172.457 150.347 172.629 150.775 172.629 151.315C172.629 151.64 172.564 151.936 172.436 152.202C172.316 152.459 172.14 152.681 171.909 152.87C171.678 153.058 171.399 153.204 171.074 153.307C170.748 153.409 170.384 153.461 169.982 153.461ZM175.973 153.307C175.485 153.307 175.117 153.182 174.868 152.934C174.62 152.677 174.496 152.317 174.496 151.855V147.768H173.455V146.625H174.02C174.252 146.625 174.41 146.573 174.496 146.471C174.59 146.368 174.637 146.201 174.637 145.969V144.8H175.896V146.625H177.297V147.768H175.896V152.163H177.194V153.307H175.973Z" fill="#242424"/>
<mask id="mask0_40005036_218552" style="mask-type:alpha" maskUnits="userSpaceOnUse" x="46" y="138" width="265" height="223">
<line x1="46.5824" y1="138.219" x2="46.5824" y2="360.034" stroke="black" stroke-width="0.899249"/>
<path d="M48.5295 138.219L48.5295 360.034" stroke="black" stroke-width="0.899249"/>
<path d="M50.9279 138.219L50.9279 360.034" stroke="black" stroke-width="0.899249"/>
<path d="M53.3263 138.219L53.3263 360.034" stroke="black" stroke-width="0.899249"/>
<path d="M55.7248 138.219L55.7248 360.034" stroke="black" stroke-width="0.899249"/>
<path d="M58.1232 138.219L58.1232 360.034" stroke="black" stroke-width="0.899249"/>
<path d="M60.5197 138.219L60.5197 360.034" stroke="black" stroke-width="0.899249"/>
<path d="M62.9181 138.219L62.9181 360.034" stroke="black" stroke-width="0.899249"/>
<path d="M65.3166 138.219L65.3166 360.034" stroke="black" stroke-width="0.899249"/>
<path d="M67.715 138.219L67.715 360.034" stroke="black" stroke-width="0.899249"/>
<path d="M70.1115 138.219L70.1115 360.034" stroke="black" stroke-width="0.899249"/>
<path d="M72.5099 138.219L72.5099 360.034" stroke="black" stroke-width="0.899249"/>
<path d="M74.9084 138.219L74.9084 360.034" stroke="black" stroke-width="0.899249"/>
<path d="M77.3068 138.219L77.3068 360.034" stroke="black" stroke-width="0.899249"/>
<path d="M79.7052 138.219L79.7052 360.034" stroke="black" stroke-width="0.899249"/>
<path d="M82.1017 138.219L82.1017 360.034" stroke="black" stroke-width="0.899249"/>
<path d="M84.5002 138.219L84.5002 360.034" stroke="black" stroke-width="0.899249"/>
<path d="M86.8986 138.219L86.8986 360.034" stroke="black" stroke-width="0.899249"/>
<path d="M89.2969 138.219L89.2969 360.034" stroke="black" stroke-width="0.899249"/>
<path d="M91.6935 138.219L91.6935 360.034" stroke="black" stroke-width="0.899249"/>
<path d="M94.092 138.219L94.092 360.034" stroke="black" stroke-width="0.899249"/>
<path d="M96.4904 138.219L96.4904 360.034" stroke="black" stroke-width="0.899249"/>
<path d="M98.8888 138.219L98.8888 360.034" stroke="black" stroke-width="0.899249"/>
<path d="M101.285 138.219L101.285 360.034" stroke="black" stroke-width="0.899249"/>
<path d="M103.684 138.219L103.684 360.034" stroke="black" stroke-width="0.899249"/>
<path d="M106.082 138.219L106.082 360.034" stroke="black" stroke-width="0.899249"/>
<path d="M108.481 138.219L108.481 360.034" stroke="black" stroke-width="0.899249"/>
<path d="M110.879 138.219L110.879 360.034" stroke="black" stroke-width="0.899249"/>
<path d="M113.276 138.219L113.276 360.034" stroke="black" stroke-width="0.899249"/>
<path d="M115.674 138.219L115.674 360.034" stroke="black" stroke-width="0.899249"/>
<path d="M118.072 138.219L118.072 360.034" stroke="black" stroke-width="0.899249"/>
<path d="M120.471 138.219L120.471 360.034" stroke="black" stroke-width="0.899249"/>
<path d="M122.867 138.219L122.867 360.034" stroke="black" stroke-width="0.899249"/>
<path d="M125.266 138.219L125.266 360.034" stroke="black" stroke-width="0.899249"/>
<path d="M127.664 138.219L127.664 360.034" stroke="black" stroke-width="0.899249"/>
<path d="M130.063 138.219V360.034" stroke="black" stroke-width="0.899249"/>
<path d="M132.461 138.219V360.034" stroke="black" stroke-width="0.899249"/>
<path d="M134.858 138.219V360.034" stroke="black" stroke-width="0.899249"/>
<path d="M137.256 138.219V360.034" stroke="black" stroke-width="0.899249"/>
<path d="M139.654 138.219V360.034" stroke="black" stroke-width="0.899249"/>
<path d="M142.053 138.219V360.034" stroke="black" stroke-width="0.899249"/>
<path d="M144.449 138.219V360.034" stroke="black" stroke-width="0.899249"/>
<path d="M146.848 138.219V360.034" stroke="black" stroke-width="0.899249"/>
<path d="M149.246 138.219V360.034" stroke="black" stroke-width="0.899249"/>
<path d="M151.645 138.219V360.034" stroke="black" stroke-width="0.899249"/>
<path d="M154.043 138.219V360.034" stroke="black" stroke-width="0.899249"/>
<path d="M156.44 138.219V360.034" stroke="black" stroke-width="0.899249"/>
<path d="M158.838 138.219V360.034" stroke="black" stroke-width="0.899249"/>
<path d="M161.236 138.219V360.034" stroke="black" stroke-width="0.899249"/>
<path d="M163.635 138.219V360.034" stroke="black" stroke-width="0.899249"/>
<path d="M166.031 138.219V360.034" stroke="black" stroke-width="0.899249"/>
<path d="M168.43 138.219V360.034" stroke="black" stroke-width="0.899249"/>
<path d="M170.828 138.219V360.034" stroke="black" stroke-width="0.899249"/>
<path d="M173.227 138.219V360.034" stroke="black" stroke-width="0.899249"/>
<path d="M175.625 138.219V360.034" stroke="black" stroke-width="0.899249"/>
<path d="M178.022 138.219V360.034" stroke="black" stroke-width="0.899249"/>
<path d="M180.42 138.219V360.034" stroke="black" stroke-width="0.899249"/>
<path d="M182.819 138.219V360.034" stroke="black" stroke-width="0.899249"/>
<path d="M185.217 138.219V360.034" stroke="black" stroke-width="0.899249"/>
<path d="M187.613 138.219V360.034" stroke="black" stroke-width="0.899249"/>
<path d="M190.012 138.219V360.034" stroke="black" stroke-width="0.899249"/>
<path d="M192.41 138.219V360.034" stroke="black" stroke-width="0.899249"/>
<path d="M194.809 138.219V360.034" stroke="black" stroke-width="0.899249"/>
<path d="M197.205 138.219V360.034" stroke="black" stroke-width="0.899249"/>
<path d="M199.604 138.219V360.034" stroke="black" stroke-width="0.899249"/>
<path d="M202.002 138.219V360.034" stroke="black" stroke-width="0.899249"/>
<path d="M204.401 138.219V360.034" stroke="black" stroke-width="0.899249"/>
<path d="M206.799 138.219V360.034" stroke="black" stroke-width="0.899249"/>
<path d="M209.195 138.219V360.034" stroke="black" stroke-width="0.899249"/>
<path d="M211.594 138.219V360.034" stroke="black" stroke-width="0.899249"/>
<path d="M213.992 138.219V360.034" stroke="black" stroke-width="0.899249"/>
<path d="M216.391 138.219V360.034" stroke="black" stroke-width="0.899249"/>
<path d="M218.787 138.219V360.034" stroke="black" stroke-width="0.899249"/>
<path d="M221.186 138.219V360.034" stroke="black" stroke-width="0.899249"/>
<path d="M223.584 138.219V360.034" stroke="black" stroke-width="0.899249"/>
<path d="M225.983 138.219V360.034" stroke="black" stroke-width="0.899249"/>
<path d="M228.381 138.219V360.034" stroke="black" stroke-width="0.899249"/>
<path d="M230.777 138.219V360.034" stroke="black" stroke-width="0.899249"/>
<path d="M233.176 138.219V360.034" stroke="black" stroke-width="0.899249"/>
<path d="M235.574 138.219V360.034" stroke="black" stroke-width="0.899249"/>
<path d="M237.973 138.219V360.034" stroke="black" stroke-width="0.899249"/>
<path d="M240.369 138.219V360.034" stroke="black" stroke-width="0.899249"/>
<path d="M242.768 138.219V360.034" stroke="black" stroke-width="0.899249"/>
<path d="M245.166 138.219V360.034" stroke="black" stroke-width="0.899249"/>
<path d="M247.565 138.219V360.034" stroke="black" stroke-width="0.899249"/>
<path d="M249.961 138.219V360.034" stroke="black" stroke-width="0.899249"/>
<path d="M252.36 138.219V360.034" stroke="black" stroke-width="0.899249"/>
<path d="M254.758 138.219V360.034" stroke="black" stroke-width="0.899249"/>
<path d="M257.156 138.219V360.034" stroke="black" stroke-width="0.899249"/>
<path d="M259.555 138.219V360.034" stroke="black" stroke-width="0.899249"/>
<path d="M261.951 138.219V360.034" stroke="black" stroke-width="0.899249"/>
<path d="M264.35 138.219V360.034" stroke="black" stroke-width="0.899249"/>
<path d="M266.748 138.219V360.034" stroke="black" stroke-width="0.899249"/>
<path d="M269.147 138.219V360.034" stroke="black" stroke-width="0.899249"/>
<path d="M271.543 138.219V360.034" stroke="black" stroke-width="0.899249"/>
<path d="M273.942 138.219V360.034" stroke="black" stroke-width="0.899249"/>
<path d="M276.34 138.219V360.034" stroke="black" stroke-width="0.899249"/>
<path d="M278.738 138.219V360.034" stroke="black" stroke-width="0.899249"/>
<path d="M281.137 138.219V360.034" stroke="black" stroke-width="0.899249"/>
<path d="M283.533 138.219V360.034" stroke="black" stroke-width="0.899249"/>
<path d="M285.932 138.219V360.034" stroke="black" stroke-width="0.899249"/>
<path d="M288.33 138.219V360.034" stroke="black" stroke-width="0.899249"/>
<path d="M290.729 138.219V360.034" stroke="black" stroke-width="0.899249"/>
<path d="M293.125 138.219V360.034" stroke="black" stroke-width="0.899249"/>
<path d="M295.524 138.219V360.034" stroke="black" stroke-width="0.899249"/>
<path d="M297.922 138.219V360.034" stroke="black" stroke-width="0.899249"/>
<path d="M300.32 138.219V360.034" stroke="black" stroke-width="0.899249"/>
<path d="M302.717 138.219V360.034" stroke="black" stroke-width="0.899249"/>
<path d="M305.115 138.219V360.034" stroke="black" stroke-width="0.899249"/>
<path d="M307.514 138.219V360.034" stroke="black" stroke-width="0.899249"/>
<path d="M309.912 138.219V360.034" stroke="black" stroke-width="0.899249"/>
</mask>
<g mask="url(#mask0_40005036_218552)">
<path d="M123.247 240.968C115.142 240.705 67.3535 291.497 67.3535 291.497V312.228C67.3535 314.877 69.5008 317.024 72.1495 317.024H290.322C292.971 317.024 295.118 314.877 295.118 312.228V181.229C295.118 181.229 247.05 230.441 242.858 231.757C238.666 233.073 199.261 230.441 192.275 231.757C185.288 233.073 176.345 253.021 169.359 253.6C162.372 254.18 143.927 253.6 140.574 253.6C137.22 253.6 131.351 241.231 123.247 240.968Z" fill="url(#paint0_linear_40005036_218552)"/>
<path d="M122.128 240.968C114.023 240.705 66.2344 291.497 66.2344 291.497V312.228C66.2344 314.877 68.3816 317.024 71.0304 317.024H289.203C291.852 317.024 293.999 314.877 293.999 312.228V181.229C293.999 181.229 245.931 230.441 241.739 231.757C237.547 233.073 198.142 230.441 191.156 231.757C184.169 233.073 175.226 253.021 168.239 253.6C161.253 254.18 142.808 253.6 139.454 253.6C136.101 253.6 130.232 241.231 122.128 240.968Z" fill="url(#paint1_linear_40005036_218552)"/>
</g>
<path d="M66.2344 291.497C66.2344 291.497 114.023 240.705 122.128 240.968C130.232 241.231 136.101 253.6 139.454 253.6C142.808 253.6 161.253 254.18 168.239 253.6C175.226 253.021 184.169 233.073 191.156 231.757C198.142 230.441 237.547 233.073 241.739 231.757C245.931 230.441 293.999 181.229 293.999 181.229" stroke="#4F2396" stroke-width="1.7985" stroke-linecap="round"/>
<path d="M218.823 228.227C220.503 228.227 221.959 229.522 221.959 231.231C221.959 232.941 220.503 234.236 218.823 234.236C217.144 234.236 215.689 232.941 215.688 231.231C215.688 229.522 217.144 228.227 218.823 228.227Z" fill="white" stroke="#C8BBDE" stroke-width="1.7985"/>
<path d="M72.4629 182.604C72.6574 182.606 72.849 182.641 73.0377 182.711C73.2265 182.78 73.3968 182.894 73.5487 183.051C73.7019 183.209 73.824 183.422 73.9148 183.69C74.0071 183.957 74.0539 184.289 74.0553 184.686C74.0553 185.068 74.017 185.408 73.9404 185.706C73.8637 186.003 73.7538 186.253 73.6104 186.458C73.4685 186.662 73.296 186.817 73.0931 186.924C72.8901 187.03 72.6616 187.084 72.4076 187.084C72.1478 187.084 71.9172 187.032 71.7157 186.93C71.5141 186.828 71.3502 186.687 71.2239 186.507C71.0976 186.325 71.0188 186.116 70.9876 185.881H71.6369C71.6795 186.068 71.7661 186.22 71.8966 186.336C72.0286 186.451 72.1989 186.509 72.4076 186.509C72.7269 186.509 72.976 186.37 73.1548 186.091C73.3336 185.812 73.4238 185.422 73.4252 184.921H73.3911C73.3173 185.043 73.2251 185.148 73.1144 185.236C73.0051 185.324 72.8823 185.392 72.7461 185.44C72.6098 185.488 72.4643 185.512 72.3096 185.512C72.0584 185.512 71.8299 185.451 71.6241 185.327C71.4183 185.204 71.2544 185.034 71.1324 184.818C71.0103 184.603 70.9493 184.356 70.9493 184.08C70.9493 183.804 71.0117 183.555 71.1366 183.33C71.2629 183.106 71.4389 182.929 71.6646 182.798C71.8917 182.666 72.1578 182.601 72.4629 182.604ZM72.4651 183.158C72.299 183.158 72.1493 183.199 72.0159 183.281C71.8839 183.362 71.7795 183.472 71.7029 183.611C71.6263 183.749 71.5879 183.902 71.5879 184.071C71.5879 184.24 71.6248 184.393 71.6987 184.531C71.7739 184.667 71.8761 184.776 72.0052 184.857C72.1358 184.936 72.2848 184.976 72.4523 184.976C72.5772 184.976 72.6936 184.952 72.8014 184.904C72.9093 184.855 73.0037 184.789 73.0846 184.703C73.1655 184.617 73.2286 184.519 73.274 184.41C73.3195 184.3 73.3422 184.185 73.3422 184.065C73.3422 183.904 73.3038 183.755 73.2272 183.618C73.152 183.48 73.0484 183.369 72.9164 183.286C72.7844 183.2 72.6339 183.158 72.4651 183.158ZM76.0426 187.096C75.7062 187.095 75.4188 187.006 75.1804 186.83C74.9419 186.654 74.7596 186.398 74.6332 186.062C74.5069 185.725 74.4438 185.32 74.4438 184.846C74.4438 184.373 74.5069 183.97 74.6332 183.635C74.761 183.3 74.9441 183.044 75.1825 182.868C75.4224 182.692 75.709 182.604 76.0426 182.604C76.3761 182.604 76.6621 182.693 76.9005 182.87C77.139 183.046 77.3213 183.302 77.4477 183.637C77.5754 183.97 77.6393 184.373 77.6393 184.846C77.6393 185.322 77.5761 185.727 77.4498 186.064C77.3235 186.399 77.1411 186.655 76.9027 186.832C76.6642 187.008 76.3775 187.096 76.0426 187.096ZM76.0426 186.528C76.3378 186.528 76.5684 186.384 76.7345 186.096C76.9019 185.808 76.9857 185.391 76.9857 184.846C76.9857 184.484 76.9474 184.178 76.8707 183.928C76.7955 183.677 76.6869 183.487 76.545 183.358C76.4045 183.227 76.237 183.162 76.0426 183.162C75.7488 183.162 75.5182 183.307 75.3507 183.596C75.1832 183.886 75.0988 184.302 75.0973 184.846C75.0973 185.209 75.135 185.517 75.2102 185.768C75.2868 186.018 75.3954 186.207 75.5359 186.336C75.6764 186.464 75.8453 186.528 76.0426 186.528ZM79.6126 187.096C79.2763 187.095 78.9889 187.006 78.7504 186.83C78.512 186.654 78.3296 186.398 78.2033 186.062C78.077 185.725 78.0138 185.32 78.0138 184.846C78.0138 184.373 78.077 183.97 78.2033 183.635C78.331 183.3 78.5141 183.044 78.7526 182.868C78.9924 182.692 79.2791 182.604 79.6126 182.604C79.9462 182.604 80.2322 182.693 80.4706 182.87C80.709 183.046 80.8914 183.302 81.0177 183.637C81.1454 183.97 81.2093 184.373 81.2093 184.846C81.2093 185.322 81.1462 185.727 81.0198 186.064C80.8935 186.399 80.7112 186.655 80.4727 186.832C80.2343 187.008 79.9476 187.096 79.6126 187.096ZM79.6126 186.528C79.9078 186.528 80.1385 186.384 80.3045 186.096C80.472 185.808 80.5557 185.391 80.5557 184.846C80.5557 184.484 80.5174 184.178 80.4408 183.928C80.3656 183.677 80.257 183.487 80.1151 183.358C79.9746 183.227 79.8071 183.162 79.6126 183.162C79.3189 183.162 79.0882 183.307 78.9207 183.596C78.7533 183.886 78.6688 184.302 78.6674 184.846C78.6674 185.209 78.705 185.517 78.7802 185.768C78.8569 186.018 78.9655 186.207 79.106 186.336C79.2465 186.464 79.4154 186.528 79.6126 186.528Z" fill="#464646"/>
<path d="M71.16 210.412L73.0633 206.648V206.616H70.862V206.052H73.7445V206.635L71.8477 210.412H71.16ZM75.6093 210.484C75.273 210.483 74.9856 210.394 74.7471 210.218C74.5087 210.042 74.3263 209.786 74.2 209.45C74.0737 209.113 74.0105 208.708 74.0105 208.234C74.0105 207.762 74.0737 207.358 74.2 207.023C74.3277 206.688 74.5108 206.432 74.7493 206.256C74.9891 206.08 75.2758 205.993 75.6093 205.993C75.9429 205.993 76.2289 206.081 76.4673 206.259C76.7057 206.435 76.8881 206.69 77.0144 207.025C77.1422 207.359 77.206 207.762 77.206 208.234C77.206 208.71 77.1429 209.116 77.0165 209.452C76.8902 209.787 76.7079 210.043 76.4694 210.221C76.231 210.396 75.9443 210.484 75.6093 210.484ZM75.6093 209.916C75.9045 209.916 76.1352 209.772 76.3012 209.484C76.4687 209.196 76.5524 208.779 76.5524 208.234C76.5524 207.872 76.5141 207.566 76.4375 207.317C76.3623 207.065 76.2537 206.875 76.1118 206.746C75.9713 206.616 75.8038 206.55 75.6093 206.55C75.3156 206.55 75.0849 206.695 74.9174 206.985C74.75 207.274 74.6655 207.691 74.6641 208.234C74.6641 208.598 74.7017 208.905 74.7769 209.156C74.8536 209.406 74.9622 209.595 75.1027 209.724C75.2432 209.852 75.4121 209.916 75.6093 209.916ZM79.1794 210.484C78.843 210.483 78.5556 210.394 78.3172 210.218C78.0788 210.042 77.8964 209.786 77.7701 209.45C77.6438 209.113 77.5806 208.708 77.5806 208.234C77.5806 207.762 77.6438 207.358 77.7701 207.023C77.8978 206.688 78.0809 206.432 78.3193 206.256C78.5592 206.08 78.8459 205.993 79.1794 205.993C79.5129 205.993 79.7989 206.081 80.0374 206.259C80.2758 206.435 80.4582 206.69 80.5845 207.025C80.7122 207.359 80.7761 207.762 80.7761 208.234C80.7761 208.71 80.7129 209.116 80.5866 209.452C80.4603 209.787 80.2779 210.043 80.0395 210.221C79.801 210.396 79.5144 210.484 79.1794 210.484ZM79.1794 209.916C79.4746 209.916 79.7052 209.772 79.8713 209.484C80.0388 209.196 80.1225 208.779 80.1225 208.234C80.1225 207.872 80.0842 207.566 80.0076 207.317C79.9323 207.065 79.8238 206.875 79.6818 206.746C79.5413 206.616 79.3738 206.55 79.1794 206.55C78.8856 206.55 78.655 206.695 78.4875 206.985C78.32 207.274 78.2356 207.691 78.2342 208.234C78.2342 208.598 78.2718 208.905 78.347 209.156C78.4236 209.406 78.5322 209.595 78.6727 209.724C78.8132 209.852 78.9821 209.916 79.1794 209.916Z" fill="#464646"/>
<path d="M72.5353 233.859C72.3409 233.857 72.1493 233.821 71.9605 233.753C71.7732 233.685 71.6029 233.571 71.4496 233.412C71.2963 233.253 71.1735 233.04 71.0813 232.772C70.9904 232.503 70.945 232.168 70.945 231.767C70.945 231.386 70.9826 231.049 71.0579 230.753C71.1345 230.458 71.2445 230.209 71.3878 230.006C71.5312 229.802 71.7043 229.646 71.9073 229.54C72.1102 229.433 72.338 229.38 72.5907 229.38C72.8504 229.38 73.081 229.431 73.2826 229.533C73.4841 229.636 73.6473 229.777 73.7722 229.957C73.8985 230.137 73.9787 230.342 74.0128 230.572H73.3635C73.3195 230.391 73.2322 230.242 73.1016 230.127C72.971 230.012 72.8007 229.955 72.5907 229.955C72.2713 229.955 72.0222 230.094 71.8434 230.372C71.666 230.65 71.5766 231.037 71.5752 231.533H71.6071C71.6823 231.409 71.7746 231.304 71.8839 231.217C71.9946 231.129 72.118 231.062 72.2543 231.015C72.392 230.967 72.5367 230.943 72.6886 230.943C72.9412 230.943 73.1697 231.005 73.3741 231.128C73.5799 231.25 73.7438 231.419 73.8659 231.635C73.9879 231.85 74.049 232.097 74.049 232.376C74.049 232.654 73.9858 232.906 73.8595 233.131C73.7346 233.357 73.5586 233.536 73.3315 233.668C73.1044 233.798 72.839 233.862 72.5353 233.859ZM72.5332 233.306C72.7007 233.306 72.8504 233.265 72.9824 233.182C73.1144 233.1 73.2187 232.989 73.2953 232.85C73.372 232.711 73.4103 232.556 73.4103 232.384C73.4103 232.217 73.3727 232.064 73.2975 231.926C73.2237 231.789 73.1215 231.679 72.9909 231.599C72.8617 231.518 72.7141 231.477 72.5481 231.477C72.4218 231.477 72.3047 231.501 72.1968 231.55C72.0904 231.598 71.9967 231.665 71.9158 231.75C71.8349 231.835 71.771 231.933 71.7242 232.043C71.6788 232.153 71.6561 232.268 71.6561 232.39C71.6561 232.554 71.6937 232.705 71.7689 232.844C71.8455 232.983 71.9499 233.095 72.0819 233.18C72.2153 233.264 72.3657 233.306 72.5332 233.306ZM76.0426 233.872C75.7062 233.871 75.4188 233.782 75.1804 233.606C74.9419 233.43 74.7596 233.174 74.6332 232.838C74.5069 232.501 74.4438 232.096 74.4438 231.622C74.4438 231.149 74.5069 230.746 74.6332 230.411C74.761 230.076 74.9441 229.82 75.1825 229.644C75.4224 229.468 75.709 229.38 76.0426 229.38C76.3761 229.38 76.6621 229.469 76.9005 229.646C77.139 229.822 77.3213 230.078 77.4477 230.413C77.5754 230.746 77.6393 231.149 77.6393 231.622C77.6393 232.097 77.5761 232.503 77.4498 232.84C77.3235 233.175 77.1411 233.431 76.9027 233.608C76.6642 233.784 76.3775 233.872 76.0426 233.872ZM76.0426 233.304C76.3378 233.304 76.5684 233.16 76.7345 232.872C76.9019 232.583 76.9857 232.167 76.9857 231.622C76.9857 231.26 76.9474 230.954 76.8707 230.704C76.7955 230.453 76.6869 230.263 76.545 230.134C76.4045 230.003 76.237 229.938 76.0426 229.938C75.7488 229.938 75.5182 230.083 75.3507 230.372C75.1832 230.662 75.0988 231.078 75.0973 231.622C75.0973 231.985 75.135 232.293 75.2102 232.544C75.2868 232.794 75.3954 232.983 75.5359 233.112C75.6764 233.24 75.8453 233.304 76.0426 233.304ZM79.6126 233.872C79.2763 233.871 78.9889 233.782 78.7504 233.606C78.512 233.43 78.3296 233.174 78.2033 232.838C78.077 232.501 78.0138 232.096 78.0138 231.622C78.0138 231.149 78.077 230.746 78.2033 230.411C78.331 230.076 78.5141 229.82 78.7526 229.644C78.9924 229.468 79.2791 229.38 79.6126 229.38C79.9462 229.38 80.2322 229.469 80.4706 229.646C80.709 229.822 80.8914 230.078 81.0177 230.413C81.1454 230.746 81.2093 231.149 81.2093 231.622C81.2093 232.097 81.1462 232.503 81.0198 232.84C80.8935 233.175 80.7112 233.431 80.4727 233.608C80.2343 233.784 79.9476 233.872 79.6126 233.872ZM79.6126 233.304C79.9078 233.304 80.1385 233.16 80.3045 232.872C80.472 232.583 80.5557 232.167 80.5557 231.622C80.5557 231.26 80.5174 230.954 80.4408 230.704C80.3656 230.453 80.257 230.263 80.1151 230.134C79.9746 230.003 79.8071 229.938 79.6126 229.938C79.3189 229.938 79.0882 230.083 78.9207 230.372C78.7533 230.662 78.6688 231.078 78.6674 231.622C78.6674 231.985 78.705 232.293 78.7802 232.544C78.8569 232.794 78.9655 232.983 79.106 233.112C79.2465 233.24 79.4154 233.304 79.6126 233.304Z" fill="#464646"/>
<path d="M71.0131 257.188V256.711L72.4885 255.183C72.646 255.017 72.7759 254.871 72.8781 254.746C72.9817 254.62 73.059 254.5 73.1101 254.386C73.1612 254.273 73.1868 254.152 73.1868 254.024C73.1868 253.88 73.1527 253.755 73.0846 253.65C73.0164 253.543 72.9235 253.462 72.8057 253.405C72.6879 253.347 72.5552 253.318 72.4076 253.318C72.2515 253.318 72.1152 253.35 71.9988 253.413C71.8824 253.477 71.793 253.567 71.7306 253.684C71.6681 253.8 71.6369 253.936 71.6369 254.093H71.0089C71.0089 253.827 71.0699 253.595 71.192 253.396C71.314 253.198 71.4815 253.044 71.6944 252.934C71.9073 252.824 72.1493 252.768 72.4203 252.768C72.6943 252.768 72.9355 252.823 73.1442 252.932C73.3542 253.04 73.5182 253.188 73.636 253.375C73.7538 253.561 73.8127 253.771 73.8127 254.005C73.8127 254.167 73.7821 254.325 73.7211 254.48C73.6615 254.635 73.5572 254.807 73.4082 254.997C73.2591 255.186 73.0519 255.415 72.7865 255.685L71.9201 256.592V256.624H73.8829V257.188H71.0131ZM75.9079 257.26C75.5716 257.259 75.2842 257.17 75.0457 256.994C74.8073 256.818 74.6249 256.562 74.4986 256.226C74.3723 255.889 74.3091 255.484 74.3091 255.01C74.3091 254.538 74.3723 254.134 74.4986 253.799C74.6263 253.464 74.8094 253.208 75.0478 253.032C75.2877 252.856 75.5744 252.768 75.9079 252.768C76.2414 252.768 76.5274 252.857 76.7659 253.034C77.0043 253.21 77.1867 253.466 77.313 253.801C77.4407 254.134 77.5046 254.538 77.5046 255.01C77.5046 255.486 77.4414 255.891 77.3151 256.228C77.1888 256.563 77.0064 256.819 76.768 256.996C76.5296 257.172 76.2429 257.26 75.9079 257.26ZM75.9079 256.692C76.2031 256.692 76.4338 256.548 76.5998 256.26C76.7673 255.972 76.851 255.555 76.851 255.01C76.851 254.648 76.8127 254.342 76.7361 254.093C76.6608 253.841 76.5523 253.651 76.4103 253.522C76.2698 253.391 76.1024 253.326 75.9079 253.326C75.6141 253.326 75.3835 253.471 75.216 253.76C75.0486 254.05 74.9641 254.467 74.9627 255.01C74.9627 255.373 75.0003 255.681 75.0755 255.932C75.1522 256.182 75.2607 256.371 75.4012 256.5C75.5417 256.628 75.7106 256.692 75.9079 256.692ZM79.478 257.26C79.1416 257.259 78.8542 257.17 78.6158 256.994C78.3773 256.818 78.195 256.562 78.0687 256.226C77.9423 255.889 77.8792 255.484 77.8792 255.01C77.8792 254.538 77.9423 254.134 78.0687 253.799C78.1964 253.464 78.3795 253.208 78.6179 253.032C78.8578 252.856 79.1445 252.768 79.478 252.768C79.8115 252.768 80.0975 252.857 80.3359 253.034C80.5744 253.21 80.7567 253.466 80.8831 253.801C81.0108 254.134 81.0747 254.538 81.0747 255.01C81.0747 255.486 81.0115 255.891 80.8852 256.228C80.7589 256.563 80.5765 256.819 80.3381 256.996C80.0996 257.172 79.8129 257.26 79.478 257.26ZM79.478 256.692C79.7732 256.692 80.0038 256.548 80.1699 256.26C80.3374 255.972 80.4211 255.555 80.4211 255.01C80.4211 254.648 80.3828 254.342 80.3061 254.093C80.2309 253.841 80.1223 253.651 79.9804 253.522C79.8399 253.391 79.6724 253.326 79.478 253.326C79.1842 253.326 78.9536 253.471 78.7861 253.76C78.6186 254.05 78.5342 254.467 78.5328 255.01C78.5328 255.373 78.5704 255.681 78.6456 255.932C78.7222 256.182 78.8308 256.371 78.9713 256.5C79.1118 256.628 79.2807 256.692 79.478 256.692Z" fill="#464646"/>
<line x1="84.1421" y1="186.285" x2="309.854" y2="186.285" stroke="#F2F2F2" stroke-width="0.29975" stroke-linecap="round" stroke-dasharray="5.99 4.8"/>
<line x1="84.1421" y1="209.065" x2="309.854" y2="209.065" stroke="#F2F2F2" stroke-width="0.29975" stroke-linecap="round" stroke-dasharray="5.99 4.8"/>
<line x1="84.1421" y1="231.847" x2="309.854" y2="231.847" stroke="#F2F2F2" stroke-width="0.29975" stroke-linecap="round" stroke-dasharray="5.99 4.8"/>
<line x1="84.1421" y1="254.627" x2="309.854" y2="254.627" stroke="#F2F2F2" stroke-width="0.29975" stroke-linecap="round" stroke-dasharray="5.99 4.8"/>
<g filter="url(#filter1_d_40005036_218552)">
<rect x="187.406" y="159.585" width="81.8751" height="42.3846" rx="6.12822" fill="white" shape-rendering="crispEdges"/>
<rect x="187.789" y="159.968" width="81.109" height="41.6186" rx="5.7452" stroke="#F9F9F9" stroke-width="0.766027" shape-rendering="crispEdges"/>
<path d="M197.942 173.714V173.224L199.781 171.211C199.997 170.975 200.174 170.771 200.314 170.596C200.454 170.421 200.557 170.256 200.624 170.101C200.693 169.945 200.727 169.782 200.727 169.612C200.727 169.416 200.68 169.246 200.586 169.103C200.494 168.96 200.367 168.849 200.205 168.771C200.044 168.693 199.862 168.654 199.661 168.654C199.447 168.654 199.26 168.699 199.101 168.787C198.943 168.875 198.821 168.997 198.734 169.155C198.648 169.312 198.606 169.497 198.606 169.71H197.964C197.964 169.383 198.039 169.097 198.189 168.85C198.34 168.603 198.545 168.411 198.804 168.273C199.065 168.136 199.358 168.067 199.683 168.067C200.009 168.067 200.299 168.136 200.551 168.273C200.803 168.411 201 168.597 201.144 168.831C201.287 169.065 201.359 169.325 201.359 169.612C201.359 169.817 201.321 170.017 201.247 170.213C201.175 170.407 201.048 170.624 200.866 170.863C200.687 171.101 200.437 171.391 200.118 171.734L198.867 173.072V173.115H201.457V173.714H197.942ZM204.124 168.067C204.352 168.068 204.581 168.112 204.809 168.197C205.038 168.282 205.246 168.424 205.435 168.622C205.624 168.817 205.775 169.085 205.889 169.424C206.003 169.763 206.061 170.188 206.061 170.7C206.061 171.195 206.013 171.635 205.919 172.019C205.827 172.402 205.692 172.725 205.517 172.988C205.342 173.251 205.13 173.45 204.88 173.586C204.632 173.722 204.35 173.79 204.037 173.79C203.725 173.79 203.446 173.728 203.202 173.605C202.959 173.48 202.759 173.307 202.603 173.085C202.449 172.862 202.35 172.604 202.307 172.31H202.97C203.03 172.566 203.149 172.777 203.327 172.944C203.506 173.109 203.743 173.192 204.037 173.192C204.467 173.192 204.806 173.004 205.054 172.628C205.304 172.253 205.43 171.723 205.43 171.037H205.386C205.284 171.189 205.164 171.321 205.024 171.432C204.885 171.542 204.73 171.627 204.559 171.687C204.389 171.747 204.207 171.777 204.015 171.777C203.696 171.777 203.403 171.698 203.136 171.54C202.872 171.381 202.659 171.162 202.5 170.885C202.342 170.606 202.263 170.286 202.263 169.927C202.263 169.586 202.339 169.274 202.492 168.991C202.646 168.707 202.862 168.48 203.139 168.311C203.418 168.143 203.747 168.061 204.124 168.067ZM204.124 168.665C203.895 168.665 203.689 168.722 203.506 168.836C203.325 168.949 203.181 169.101 203.074 169.293C202.969 169.484 202.916 169.695 202.916 169.927C202.916 170.159 202.967 170.371 203.068 170.561C203.172 170.75 203.312 170.9 203.49 171.013C203.67 171.123 203.874 171.179 204.102 171.179C204.274 171.179 204.435 171.145 204.584 171.078C204.732 171.009 204.862 170.916 204.973 170.798C205.085 170.678 205.173 170.543 205.236 170.392C205.3 170.24 205.332 170.081 205.332 169.916C205.332 169.699 205.279 169.495 205.174 169.304C205.07 169.114 204.927 168.96 204.744 168.842C204.563 168.724 204.356 168.665 204.124 168.665ZM211.056 168.143H211.73V172.125C211.73 172.481 211.665 172.783 211.535 173.031C211.404 173.28 211.22 173.468 210.982 173.597C210.745 173.726 210.465 173.79 210.142 173.79C209.837 173.79 209.566 173.735 209.328 173.624C209.091 173.512 208.904 173.352 208.768 173.145C208.632 172.939 208.564 172.693 208.564 172.408H209.228C209.228 172.566 209.267 172.704 209.345 172.822C209.425 172.938 209.533 173.028 209.671 173.094C209.809 173.159 209.966 173.192 210.142 173.192C210.336 173.192 210.501 173.151 210.637 173.069C210.773 172.988 210.876 172.868 210.947 172.71C211.02 172.55 211.056 172.356 211.056 172.125V168.143ZM215.399 172.006V169.536H216.041V173.714H215.399V173.007H215.355C215.257 173.219 215.105 173.399 214.898 173.548C214.692 173.695 214.43 173.768 214.115 173.768C213.854 173.768 213.622 173.711 213.418 173.597C213.215 173.481 213.056 173.307 212.94 173.075C212.824 172.841 212.766 172.546 212.766 172.191V169.536H213.408V172.147C213.408 172.452 213.493 172.695 213.663 172.876C213.836 173.057 214.055 173.148 214.322 173.148C214.481 173.148 214.643 173.107 214.808 173.026C214.975 172.944 215.115 172.819 215.227 172.65C215.342 172.482 215.399 172.267 215.399 172.006ZM217.629 168.143V173.714H216.987V168.143H217.629ZM218.988 175.281C218.879 175.281 218.782 175.272 218.697 175.254C218.612 175.237 218.553 175.221 218.52 175.205L218.684 174.639C218.84 174.679 218.977 174.693 219.097 174.682C219.217 174.671 219.323 174.618 219.415 174.522C219.51 174.427 219.596 174.274 219.674 174.062L219.793 173.736L218.248 169.536H218.945L220.098 172.865H220.142L221.295 169.536H221.991L220.218 174.323C220.138 174.539 220.039 174.718 219.921 174.859C219.803 175.002 219.667 175.108 219.511 175.177C219.356 175.246 219.182 175.281 218.988 175.281ZM226.34 173.79C225.93 173.79 225.581 173.679 225.293 173.455C225.004 173.231 224.784 172.905 224.632 172.479C224.479 172.051 224.403 171.534 224.403 170.928C224.403 170.326 224.479 169.812 224.632 169.386C224.786 168.958 225.007 168.632 225.295 168.407C225.585 168.18 225.934 168.067 226.34 168.067C226.746 168.067 227.093 168.18 227.382 168.407C227.672 168.632 227.893 168.958 228.046 169.386C228.2 169.812 228.277 170.326 228.277 170.928C228.277 171.534 228.201 172.051 228.048 172.479C227.896 172.905 227.676 173.231 227.387 173.455C227.099 173.679 226.75 173.79 226.34 173.79ZM226.34 173.192C226.746 173.192 227.062 172.996 227.287 172.604C227.511 172.212 227.624 171.654 227.624 170.928C227.624 170.446 227.572 170.035 227.469 169.696C227.367 169.357 227.22 169.098 227.028 168.921C226.838 168.743 226.608 168.654 226.34 168.654C225.937 168.654 225.623 168.853 225.396 169.25C225.169 169.645 225.056 170.205 225.056 170.928C225.056 171.411 225.107 171.821 225.208 172.158C225.31 172.495 225.456 172.752 225.646 172.928C225.838 173.104 226.07 173.192 226.34 173.192ZM230.898 173.79C230.488 173.79 230.139 173.679 229.85 173.455C229.562 173.231 229.342 172.905 229.189 172.479C229.037 172.051 228.961 171.534 228.961 170.928C228.961 170.326 229.037 169.812 229.189 169.386C229.344 168.958 229.565 168.632 229.853 168.407C230.143 168.18 230.492 168.067 230.898 168.067C231.304 168.067 231.651 168.18 231.94 168.407C232.23 168.632 232.451 168.958 232.603 169.386C232.758 169.812 232.835 170.326 232.835 170.928C232.835 171.534 232.758 172.051 232.606 172.479C232.454 172.905 232.233 173.231 231.945 173.455C231.657 173.679 231.308 173.79 230.898 173.79ZM230.898 173.192C231.304 173.192 231.62 172.996 231.844 172.604C232.069 172.212 232.182 171.654 232.182 170.928C232.182 170.446 232.13 170.035 232.027 169.696C231.925 169.357 231.778 169.098 231.586 168.921C231.396 168.743 231.166 168.654 230.898 168.654C230.495 168.654 230.181 168.853 229.954 169.25C229.727 169.645 229.614 170.205 229.614 170.928C229.614 171.411 229.665 171.821 229.766 172.158C229.868 172.495 230.014 172.752 230.204 172.928C230.396 173.104 230.628 173.192 230.898 173.192ZM234.117 173.001C233.983 173.001 233.868 172.953 233.772 172.857C233.676 172.761 233.628 172.646 233.628 172.512C233.628 172.377 233.676 172.262 233.772 172.166C233.868 172.07 233.983 172.022 234.117 172.022C234.251 172.022 234.367 172.07 234.463 172.166C234.559 172.262 234.607 172.377 234.607 172.512C234.607 172.6 234.584 172.682 234.539 172.756C234.495 172.831 234.436 172.891 234.362 172.936C234.29 172.979 234.208 173.001 234.117 173.001ZM234.117 170.183C233.983 170.183 233.868 170.135 233.772 170.039C233.676 169.943 233.628 169.828 233.628 169.693C233.628 169.559 233.676 169.444 233.772 169.348C233.868 169.252 233.983 169.204 234.117 169.204C234.251 169.204 234.367 169.252 234.463 169.348C234.559 169.444 234.607 169.559 234.607 169.693C234.607 169.782 234.584 169.864 234.539 169.938C234.495 170.012 234.436 170.072 234.362 170.118C234.29 170.161 234.208 170.183 234.117 170.183ZM237.335 173.79C236.926 173.79 236.576 173.679 236.288 173.455C236 173.231 235.779 172.905 235.627 172.479C235.475 172.051 235.399 171.534 235.399 170.928C235.399 170.326 235.475 169.812 235.627 169.386C235.781 168.958 236.002 168.632 236.291 168.407C236.581 168.18 236.929 168.067 237.335 168.067C237.742 168.067 238.089 168.18 238.377 168.407C238.667 168.632 238.889 168.958 239.041 169.386C239.195 169.812 239.272 170.326 239.272 170.928C239.272 171.534 239.196 172.051 239.044 172.479C238.891 172.905 238.671 173.231 238.383 173.455C238.094 173.679 237.745 173.79 237.335 173.79ZM237.335 173.192C237.742 173.192 238.057 172.996 238.282 172.604C238.507 172.212 238.619 171.654 238.619 170.928C238.619 170.446 238.568 170.035 238.464 169.696C238.363 169.357 238.216 169.098 238.024 168.921C237.833 168.743 237.604 168.654 237.335 168.654C236.933 168.654 236.618 168.853 236.391 169.25C236.165 169.645 236.051 170.205 236.051 170.928C236.051 171.411 236.102 171.821 236.204 172.158C236.305 172.495 236.451 172.752 236.642 172.928C236.834 173.104 237.065 173.192 237.335 173.192ZM241.893 173.79C241.483 173.79 241.134 173.679 240.846 173.455C240.558 173.231 240.337 172.905 240.185 172.479C240.033 172.051 239.956 171.534 239.956 170.928C239.956 170.326 240.033 169.812 240.185 169.386C240.339 168.958 240.56 168.632 240.849 168.407C241.139 168.18 241.487 168.067 241.893 168.067C242.299 168.067 242.647 168.18 242.935 168.407C243.225 168.632 243.447 168.958 243.599 169.386C243.753 169.812 243.83 170.326 243.83 170.928C243.83 171.534 243.754 172.051 243.602 172.479C243.449 172.905 243.229 173.231 242.941 173.455C242.652 173.679 242.303 173.79 241.893 173.79ZM241.893 173.192C242.299 173.192 242.615 172.996 242.84 172.604C243.065 172.212 243.177 171.654 243.177 170.928C243.177 170.446 243.126 170.035 243.022 169.696C242.921 169.357 242.774 169.098 242.581 168.921C242.391 168.743 242.162 168.654 241.893 168.654C241.491 168.654 241.176 168.853 240.949 169.25C240.723 169.645 240.609 170.205 240.609 170.928C240.609 171.411 240.66 171.821 240.762 172.158C240.863 172.495 241.009 172.752 241.2 172.928C241.392 173.104 241.623 173.192 241.893 173.192Z" fill="#7A7A7A"/>
<path d="M201.335 188.836C200.937 188.83 200.545 188.757 200.159 188.618C199.776 188.479 199.428 188.247 199.115 187.922C198.802 187.597 198.551 187.16 198.362 186.612C198.176 186.063 198.083 185.378 198.083 184.557C198.083 183.78 198.16 183.089 198.314 182.486C198.471 181.882 198.696 181.373 198.989 180.958C199.282 180.54 199.636 180.222 200.051 180.005C200.466 179.787 200.931 179.678 201.448 179.678C201.979 179.678 202.45 179.783 202.862 179.992C203.274 180.201 203.608 180.489 203.863 180.858C204.122 181.226 204.286 181.646 204.355 182.116H203.028C202.938 181.744 202.759 181.441 202.492 181.206C202.225 180.971 201.877 180.853 201.448 180.853C200.795 180.853 200.286 181.138 199.92 181.706C199.557 182.275 199.375 183.066 199.372 184.079H199.437C199.591 183.826 199.779 183.611 200.003 183.434C200.229 183.254 200.482 183.117 200.76 183.021C201.042 182.922 201.338 182.873 201.648 182.873C202.165 182.873 202.632 182.999 203.05 183.252C203.47 183.501 203.805 183.846 204.055 184.287C204.304 184.728 204.429 185.233 204.429 185.802C204.429 186.371 204.3 186.886 204.042 187.347C203.787 187.809 203.427 188.174 202.962 188.444C202.498 188.711 201.956 188.842 201.335 188.836ZM201.33 187.704C201.673 187.704 201.979 187.62 202.249 187.452C202.519 187.283 202.732 187.057 202.888 186.773C203.045 186.488 203.123 186.171 203.123 185.82C203.123 185.477 203.047 185.165 202.893 184.884C202.742 184.602 202.533 184.379 202.266 184.213C202.002 184.048 201.7 183.965 201.361 183.965C201.103 183.965 200.863 184.015 200.643 184.113C200.425 184.212 200.233 184.348 200.068 184.522C199.903 184.697 199.772 184.897 199.676 185.123C199.584 185.347 199.537 185.583 199.537 185.833C199.537 186.166 199.614 186.475 199.768 186.76C199.924 187.044 200.138 187.273 200.408 187.447C200.68 187.619 200.988 187.704 201.33 187.704ZM209.127 188.836C208.729 188.83 208.337 188.757 207.951 188.618C207.568 188.479 207.22 188.247 206.907 187.922C206.593 187.597 206.342 187.16 206.154 186.612C205.968 186.063 205.875 185.378 205.875 184.557C205.875 183.78 205.952 183.089 206.106 182.486C206.263 181.882 206.488 181.373 206.781 180.958C207.074 180.54 207.428 180.222 207.843 180.005C208.258 179.787 208.723 179.678 209.24 179.678C209.771 179.678 210.242 179.783 210.654 179.992C211.066 180.201 211.4 180.489 211.655 180.858C211.914 181.226 212.078 181.646 212.147 182.116H210.82C210.73 181.744 210.551 181.441 210.284 181.206C210.017 180.971 209.669 180.853 209.24 180.853C208.587 180.853 208.078 181.138 207.712 181.706C207.349 182.275 207.167 183.066 207.164 184.079H207.229C207.383 183.826 207.571 183.611 207.795 183.434C208.021 183.254 208.274 183.117 208.552 183.021C208.834 182.922 209.129 182.873 209.44 182.873C209.956 182.873 210.424 182.999 210.841 183.252C211.262 183.501 211.597 183.846 211.847 184.287C212.096 184.728 212.221 185.233 212.221 185.802C212.221 186.371 212.092 186.886 211.834 187.347C211.578 187.809 211.219 188.174 210.754 188.444C210.29 188.711 209.748 188.842 209.127 188.836ZM209.122 187.704C209.465 187.704 209.771 187.62 210.041 187.452C210.31 187.283 210.524 187.057 210.68 186.773C210.837 186.488 210.915 186.171 210.915 185.82C210.915 185.477 210.839 185.165 210.685 184.884C210.534 184.602 210.325 184.379 210.058 184.213C209.794 184.048 209.492 183.965 209.153 183.965C208.894 183.965 208.655 184.015 208.435 184.113C208.217 184.212 208.025 184.348 207.86 184.522C207.695 184.697 207.564 184.897 207.468 185.123C207.375 185.347 207.329 185.583 207.329 185.833C207.329 186.166 207.406 186.475 207.56 186.76C207.716 187.044 207.93 187.273 208.2 187.447C208.472 187.619 208.78 187.704 209.122 187.704ZM216.919 188.836C216.521 188.83 216.129 188.757 215.743 188.618C215.36 188.479 215.012 188.247 214.699 187.922C214.385 187.597 214.134 187.16 213.946 186.612C213.76 186.063 213.667 185.378 213.667 184.557C213.667 183.78 213.744 183.089 213.898 182.486C214.055 181.882 214.279 181.373 214.573 180.958C214.866 180.54 215.22 180.222 215.635 180.005C216.049 179.787 216.515 179.678 217.032 179.678C217.563 179.678 218.034 179.783 218.446 179.992C218.858 180.201 219.192 180.489 219.447 180.858C219.706 181.226 219.869 181.646 219.939 182.116H218.612C218.522 181.744 218.343 181.441 218.076 181.206C217.809 180.971 217.461 180.853 217.032 180.853C216.379 180.853 215.87 181.138 215.504 181.706C215.141 182.275 214.958 183.066 214.956 184.079H215.021C215.175 183.826 215.363 183.611 215.587 183.434C215.813 183.254 216.065 183.117 216.344 183.021C216.625 182.922 216.921 182.873 217.232 182.873C217.748 182.873 218.216 182.999 218.633 183.252C219.054 183.501 219.389 183.846 219.639 184.287C219.888 184.728 220.013 185.233 220.013 185.802C220.013 186.371 219.884 186.886 219.626 187.347C219.37 187.809 219.011 188.174 218.546 188.444C218.082 188.711 217.539 188.842 216.919 188.836ZM216.914 187.704C217.257 187.704 217.563 187.62 217.833 187.452C218.102 187.283 218.316 187.057 218.472 186.773C218.629 186.488 218.707 186.171 218.707 185.82C218.707 185.477 218.63 185.165 218.477 184.884C218.326 184.602 218.117 184.379 217.85 184.213C217.586 184.048 217.284 183.965 216.945 183.965C216.686 183.965 216.447 184.015 216.226 184.113C216.009 184.212 215.817 184.348 215.652 184.522C215.487 184.697 215.356 184.897 215.26 185.123C215.167 185.347 215.121 185.583 215.121 185.833C215.121 186.166 215.198 186.475 215.352 186.76C215.508 187.044 215.722 187.273 215.991 187.447C216.264 187.619 216.572 187.704 216.914 187.704Z" fill="#242424"/>
<rect x="225.961" y="176.714" width="34.1282" height="16.0641" rx="3.06411" fill="#E0F0E4"/>
<path d="M231.652 186.123V181.71H232.53V186.123H231.652ZM229.886 184.354V183.479H234.299V184.354H229.886ZM238.033 187.337C237.585 187.337 237.185 187.26 236.832 187.106C236.482 186.951 236.204 186.737 236 186.463C235.797 186.186 235.689 185.866 235.673 185.503H236.698C236.711 185.701 236.778 185.873 236.897 186.019C237.019 186.162 237.178 186.273 237.374 186.352C237.57 186.43 237.788 186.469 238.027 186.469C238.29 186.469 238.523 186.423 238.725 186.332C238.93 186.241 239.09 186.113 239.205 185.95C239.321 185.785 239.378 185.594 239.378 185.379C239.378 185.155 239.321 184.958 239.205 184.788C239.092 184.616 238.926 184.481 238.706 184.383C238.488 184.285 238.225 184.236 237.916 184.236H237.351V183.414H237.916C238.164 183.414 238.382 183.369 238.569 183.28C238.758 183.191 238.906 183.067 239.013 182.908C239.119 182.747 239.173 182.559 239.173 182.343C239.173 182.136 239.126 181.957 239.032 181.804C238.941 181.65 238.81 181.529 238.641 181.442C238.473 181.355 238.275 181.312 238.046 181.312C237.829 181.312 237.625 181.352 237.436 181.432C237.249 181.511 237.097 181.624 236.979 181.772C236.862 181.918 236.798 182.093 236.79 182.297H235.814C235.825 181.936 235.931 181.618 236.134 181.344C236.338 181.07 236.608 180.856 236.943 180.701C237.278 180.547 237.65 180.469 238.06 180.469C238.488 180.469 238.858 180.553 239.169 180.721C239.483 180.886 239.724 181.107 239.894 181.383C240.066 181.66 240.151 181.962 240.149 182.291C240.151 182.665 240.046 182.983 239.835 183.244C239.626 183.505 239.348 183.68 239 183.77V183.822C239.444 183.889 239.787 184.066 240.031 184.351C240.277 184.636 240.399 184.989 240.397 185.412C240.399 185.779 240.297 186.109 240.09 186.401C239.885 186.692 239.606 186.922 239.251 187.089C238.896 187.255 238.49 187.337 238.033 187.337ZM242.089 187.308C241.911 187.308 241.757 187.245 241.629 187.119C241.501 186.99 241.436 186.836 241.436 186.655C241.436 186.477 241.501 186.324 241.629 186.198C241.757 186.07 241.911 186.006 242.089 186.006C242.268 186.006 242.421 186.07 242.55 186.198C242.678 186.324 242.742 186.477 242.742 186.655C242.742 186.775 242.712 186.885 242.651 186.985C242.592 187.083 242.514 187.161 242.416 187.22C242.318 187.279 242.209 187.308 242.089 187.308ZM243.896 185.94V185.124L246.785 180.561H247.428V181.762H247.02L244.954 185.033V185.085H248.913V185.94H243.896ZM247.066 187.246V185.692L247.072 185.32V180.561H248.029V187.246H247.066ZM253.541 185.993V185.64C253.541 185.388 253.593 185.157 253.697 184.948C253.804 184.737 253.958 184.568 254.161 184.442C254.365 184.314 254.612 184.249 254.902 184.249C255.198 184.249 255.446 184.313 255.646 184.439C255.846 184.565 255.998 184.734 256.1 184.945C256.204 185.156 256.256 185.388 256.256 185.64V185.993C256.256 186.245 256.204 186.477 256.1 186.688C255.995 186.897 255.842 187.065 255.64 187.194C255.439 187.32 255.193 187.383 254.902 187.383C254.608 187.383 254.36 187.32 254.158 187.194C253.955 187.065 253.802 186.897 253.697 186.688C253.593 186.477 253.541 186.245 253.541 185.993ZM254.301 185.64V185.993C254.301 186.18 254.346 186.349 254.435 186.502C254.524 186.654 254.68 186.73 254.902 186.73C255.122 186.73 255.275 186.654 255.362 186.502C255.449 186.349 255.493 186.18 255.493 185.993V185.64C255.493 185.453 255.45 185.283 255.365 185.131C255.283 184.978 255.128 184.902 254.902 184.902C254.684 184.902 254.53 184.978 254.438 185.131C254.347 185.283 254.301 185.453 254.301 185.64ZM250.178 182.167V181.814C250.178 181.562 250.231 181.33 250.335 181.119C250.442 180.908 250.596 180.739 250.799 180.613C251.003 180.487 251.25 180.424 251.54 180.424C251.836 180.424 252.084 180.487 252.284 180.613C252.484 180.739 252.635 180.908 252.738 181.119C252.84 181.33 252.891 181.562 252.891 181.814V182.167C252.891 182.419 252.839 182.651 252.734 182.862C252.632 183.071 252.48 183.24 252.277 183.368C252.077 183.494 251.831 183.557 251.54 183.557C251.244 183.557 250.994 183.494 250.792 183.368C250.592 183.24 250.439 183.071 250.335 182.862C250.231 182.651 250.178 182.419 250.178 182.167ZM250.942 181.814V182.167C250.942 182.354 250.986 182.524 251.073 182.676C251.162 182.828 251.318 182.905 251.54 182.905C251.757 182.905 251.91 182.828 251.997 182.676C252.086 182.524 252.13 182.354 252.13 182.167V181.814C252.13 181.627 252.088 181.457 252.003 181.305C251.918 181.153 251.764 181.077 251.54 181.077C251.322 181.077 251.167 181.153 251.076 181.305C250.987 181.457 250.942 181.627 250.942 181.814ZM250.488 187.246L255.085 180.561H255.865L251.269 187.246H250.488Z" fill="#377E36"/>
</g>
</g>
<defs>
<filter id="filter0_dd_40005036_218552" x="-3.87385" y="0.560235" width="373.252" height="390.019" filterUnits="userSpaceOnUse" color-interpolation-filters="sRGB">
<feFlood flood-opacity="0" result="BackgroundImageFix"/>
<feColorMatrix in="SourceAlpha" type="matrix" values="0 0 0 0 0 0 0 0 0 0 0 0 0 0 0 0 0 0 127 0" result="hardAlpha"/>
<feMorphology radius="5.34098" operator="dilate" in="SourceAlpha" result="effect1_dropShadow_40005036_218552"/>
<feOffset/>
<feGaussianBlur stdDeviation="27.0164"/>
<feComposite in2="hardAlpha" operator="out"/>
<feColorMatrix type="matrix" values="0 0 0 0 0.929412 0 0 0 0 0.913725 0 0 0 0 0.960784 0 0 0 0.7 0"/>
<feBlend mode="normal" in2="BackgroundImageFix" result="effect1_dropShadow_40005036_218552"/>
<feColorMatrix in="SourceAlpha" type="matrix" values="0 0 0 0 0 0 0 0 0 0 0 0 0 0 0 0 0 0 127 0" result="hardAlpha"/>
<feMorphology radius="5.34098" operator="dilate" in="SourceAlpha" result="effect2_dropShadow_40005036_218552"/>
<feOffset/>
<feGaussianBlur stdDeviation="27.0164"/>
<feComposite in2="hardAlpha" operator="out"/>
<feColorMatrix type="matrix" values="0 0 0 0 0.929412 0 0 0 0 0.913725 0 0 0 0 0.960784 0 0 0 0.7 0"/>
<feBlend mode="normal" in2="effect1_dropShadow_40005036_218552" result="effect2_dropShadow_40005036_218552"/>
<feBlend mode="normal" in="SourceGraphic" in2="effect2_dropShadow_40005036_218552" result="shape"/>
</filter>
<filter id="filter1_d_40005036_218552" x="184.342" y="158.053" width="88.0032" height="48.513" filterUnits="userSpaceOnUse" color-interpolation-filters="sRGB">
<feFlood flood-opacity="0" result="BackgroundImageFix"/>
<feColorMatrix in="SourceAlpha" type="matrix" values="0 0 0 0 0 0 0 0 0 0 0 0 0 0 0 0 0 0 127 0" result="hardAlpha"/>
<feOffset dy="1.53205"/>
<feGaussianBlur stdDeviation="1.53205"/>
<feComposite in2="hardAlpha" operator="out"/>
<feColorMatrix type="matrix" values="0 0 0 0 0 0 0 0 0 0 0 0 0 0 0 0 0 0 0.04 0"/>
<feBlend mode="normal" in2="BackgroundImageFix" result="effect1_dropShadow_40005036_218552"/>
<feBlend mode="normal" in="SourceGraphic" in2="effect1_dropShadow_40005036_218552" result="shape"/>
</filter>
<linearGradient id="paint0_linear_40005036_218552" x1="211.558" y1="214.125" x2="284.991" y2="339.926" gradientUnits="userSpaceOnUse">
<stop stop-color="#E6E5FB"/>
<stop offset="1" stop-color="#FEFDFF"/>
</linearGradient>
<linearGradient id="paint1_linear_40005036_218552" x1="210.439" y1="214.125" x2="283.872" y2="339.926" gradientUnits="userSpaceOnUse">
<stop stop-color="#E6E5FB"/>
<stop offset="1" stop-color="#FEFDFF"/>
</linearGradient>
</defs>
</svg>
