<svg width="335" height="252" viewBox="0 0 335 252" fill="none" xmlns="http://www.w3.org/2000/svg">
<g clip-path="url(#clip0_40005697_20990)">
<rect width="335" height="251.11" rx="24" fill="#F5F0FF" fill-opacity="0.7"/>
<g opacity="0.05">
<path fill-rule="evenodd" clip-rule="evenodd" d="M793.093 -209.603H443.91L335.982 122.323L618.502 327.468L901.029 122.323L793.093 -209.603ZM331.658 123.72L441.246 -213.263H795.764L905.344 123.72L618.501 331.997L331.658 123.72Z" fill="#4F2396"/>
<path fill-rule="evenodd" clip-rule="evenodd" d="M913.041 125.691L800.519 -220.26H436.486L323.957 125.691L618.499 339.506L913.041 125.691ZM321.01 127.685L320.027 126.971L433.673 -222.446L434.052 -223.599H802.946L916.971 126.971L619.482 342.92L618.499 343.627L321.01 127.685Z" fill="#4F2396"/>
<path fill-rule="evenodd" clip-rule="evenodd" d="M807.948 -230.928H429.061L311.955 129.041L618.508 351.525L925.054 129.041L807.948 -230.928ZM308.4 130.204L426.869 -233.937H810.133L928.602 130.204L618.505 355.255L308.4 130.204Z" fill="#4F2396"/>
<path fill-rule="evenodd" clip-rule="evenodd" d="M815.365 -241.586H421.64L299.934 132.423L618.506 363.569L937.071 132.423L815.365 -241.586ZM297.563 134.022L296.773 133.457L419.373 -243.341L419.678 -244.271H817.327L939.927 132.527L940.232 133.457L618.503 366.886L297.563 134.022Z" fill="#4F2396"/>
<path fill-rule="evenodd" clip-rule="evenodd" d="M822.788 -250.96H414.209L287.918 137.067L618.495 376.882L949.079 137.067L822.788 -250.96ZM285.835 138.471L285.143 137.966L412.223 -252.5L412.498 -253.318H824.503L951.598 137.148L951.859 137.966L618.497 379.804L285.835 138.471Z" fill="#4F2396"/>
<path fill-rule="evenodd" clip-rule="evenodd" d="M961.069 140.434L830.204 -261.602H406.795L275.922 140.434L618.496 388.913L961.069 140.434ZM274.122 141.647L273.512 141.209L405.085 -262.938L405.316 -263.652H831.689L963.255 140.502L963.485 141.209L619.102 390.989L618.499 391.435L274.122 141.647Z" fill="#4F2396"/>
<path fill-rule="evenodd" clip-rule="evenodd" d="M837.633 -272.271H399.369L263.904 143.798L618.497 400.952L973.091 143.798L837.633 -272.271ZM262.384 144.823L261.885 144.452L397.931 -273.388L398.117 -273.99H838.876L974.93 143.864L975.116 144.452L618.497 403.063L262.384 144.823Z" fill="#4F2396"/>
<path fill-rule="evenodd" clip-rule="evenodd" d="M985.103 147.162L845.053 -282.936H391.95L251.893 147.162L618.498 412.967L985.103 147.162ZM250.675 147.987L250.258 147.682L390.785 -283.85L390.941 -284.326H846.071L986.59 147.207L986.747 147.682L618.919 414.387L618.502 414.692L250.675 147.987Z" fill="#4F2396"/>
<path fill-rule="evenodd" clip-rule="evenodd" d="M997.113 151.314L852.479 -293.606H384.534L239.893 151.314L618.499 426.286L997.113 151.314ZM238.951 151.947L238.631 151.724L383.756 -294.664H853.252L998.377 151.724L618.81 427.381L618.497 427.612L238.951 151.947Z" fill="#4F2396"/>
<path fill-rule="evenodd" clip-rule="evenodd" d="M376.563 -305L376.481 -304.739L227 154.958L227.224 155.121L618.502 439.241L618.718 439.077L1010 154.958L1009.93 154.704L860.448 -305H376.563ZM227.871 154.673L377.114 -304.264H859.896L1009.13 154.673L618.501 438.309L227.871 154.673Z" fill="#4F2396"/>
</g>
<g opacity="0.05">
<path fill-rule="evenodd" clip-rule="evenodd" d="M-101.907 -200.603H-451.09L-559.018 131.323L-276.498 336.468L6.02857 131.323L-101.907 -200.603ZM-563.342 132.72L-453.754 -204.263H-99.2358L10.3443 132.72L-276.499 340.997L-563.342 132.72Z" fill="#4F2396"/>
<path fill-rule="evenodd" clip-rule="evenodd" d="M18.0405 134.691L-94.481 -211.26H-458.514L-571.043 134.691L-276.501 348.506L18.0405 134.691ZM-573.99 136.685L-574.973 135.971L-461.327 -213.446L-460.948 -214.599H-92.0541L21.971 135.971L-275.518 351.92L-276.501 352.627L-573.99 136.685Z" fill="#4F2396"/>
<path fill-rule="evenodd" clip-rule="evenodd" d="M-87.0523 -221.928H-465.939L-583.045 138.041L-276.492 360.525L30.0539 138.041L-87.0523 -221.928ZM-586.6 139.204L-468.131 -224.937H-84.867L33.6016 139.204L-276.495 364.255L-586.6 139.204Z" fill="#4F2396"/>
<path fill-rule="evenodd" clip-rule="evenodd" d="M-79.6352 -232.586H-473.36L-595.066 141.423L-276.494 372.569L42.0706 141.423L-79.6352 -232.586ZM-597.437 143.022L-598.227 142.457L-475.627 -234.341L-475.322 -235.271H-77.6726L44.9268 141.527L45.232 142.457L-276.497 375.886L-597.437 143.022Z" fill="#4F2396"/>
<path fill-rule="evenodd" clip-rule="evenodd" d="M-72.212 -241.96H-480.791L-607.082 146.067L-276.505 385.882L54.0787 146.067L-72.212 -241.96ZM-609.165 147.471L-609.857 146.966L-482.777 -243.5L-482.502 -244.318H-70.4968L56.5982 146.148L56.8588 146.966L-276.503 388.804L-609.165 147.471Z" fill="#4F2396"/>
<path fill-rule="evenodd" clip-rule="evenodd" d="M66.0691 149.434L-64.7961 -252.602H-488.205L-619.078 149.434L-276.504 397.913L66.0691 149.434ZM-620.878 150.647L-621.488 150.209L-489.915 -253.938L-489.684 -254.652H-63.3109L68.2545 149.502L68.4855 150.209L-275.898 399.989L-276.501 400.435L-620.878 150.647Z" fill="#4F2396"/>
<path fill-rule="evenodd" clip-rule="evenodd" d="M-57.3671 -263.271H-495.631L-631.096 152.798L-276.503 409.952L78.0906 152.798L-57.3671 -263.271ZM-632.616 153.823L-633.115 153.452L-497.069 -264.388L-496.883 -264.99H-56.1238L79.9299 152.864L80.1161 153.452L-276.503 412.063L-632.616 153.823Z" fill="#4F2396"/>
<path fill-rule="evenodd" clip-rule="evenodd" d="M90.1033 156.162L-49.9469 -273.936H-503.05L-643.107 156.162L-276.502 421.967L90.1033 156.162ZM-644.325 156.987L-644.742 156.682L-504.215 -274.85L-504.059 -275.326H-48.9294L91.5902 156.207L91.7466 156.682L-276.081 423.387L-276.498 423.692L-644.325 156.987Z" fill="#4F2396"/>
<path fill-rule="evenodd" clip-rule="evenodd" d="M102.113 160.314L-42.5207 -284.606H-510.466L-655.107 160.314L-276.501 435.286L102.113 160.314ZM-656.049 160.947L-656.369 160.724L-511.244 -285.664H-41.7483L103.377 160.724L-276.19 436.381L-276.503 436.612L-656.049 160.947Z" fill="#4F2396"/>
<path fill-rule="evenodd" clip-rule="evenodd" d="M-518.437 -296L-518.519 -295.739L-668 163.958L-667.776 164.121L-276.498 448.241L-276.282 448.077L115.004 163.958L114.929 163.704L-34.5517 -296H-518.437ZM-667.129 163.673L-517.886 -295.264H-35.1039L114.131 163.673L-276.499 447.309L-667.129 163.673Z" fill="#4F2396"/>
</g>
</g>
<defs>
<clipPath id="clip0_40005697_20990">
<rect width="335" height="251.11" rx="24" fill="white"/>
</clipPath>
</defs>
</svg>
