<svg width="1224" height="399" viewBox="0 0 1224 399" fill="none" xmlns="http://www.w3.org/2000/svg">
<g clip-path="url(#clip0_40004775_6303)">
<rect y="0.169922" width="1224" height="398" rx="28" fill="#F3F0FB"/>
<g opacity="0.05">
<path fill-rule="evenodd" clip-rule="evenodd" d="M-37.2995 223.251H-135.688L-166.096 316.73L-86.4977 374.512L-6.8996 316.73L-37.2995 223.251ZM-176.943 320.25L-142.378 214.047H-30.6104L3.94775 320.25L-86.4978 385.893L-176.943 320.25Z" fill="#4F2396"/>
<path fill-rule="evenodd" clip-rule="evenodd" d="M-29.8877 212.589H-143.114L-178.121 320.099L-86.5048 386.534L5.11153 320.099L-29.8877 212.589ZM-188.574 323.492L-149.58 203.711H-23.4266L15.5753 323.492L-86.5032 397.524L-188.574 323.492Z" fill="#4F2396"/>
<path fill-rule="evenodd" clip-rule="evenodd" d="M-23.4584 201.921H-150.816L-190.184 323.466L-87.1407 398.577L15.9021 323.466L-23.4584 201.921ZM-200.201 326.73L-157.009 193.373H-17.2713L25.9138 326.73L-87.14 409.151L-200.201 326.73Z" fill="#4F2396"/>
<path fill-rule="evenodd" clip-rule="evenodd" d="M-16.0571 191.264H-158.251L-202.184 326.831L-87.1504 410.606L27.8829 326.831L-16.0571 191.264ZM-211.832 329.967L-164.199 183.038H-10.1002L37.5405 329.967L-87.1458 420.782L-211.832 329.967Z" fill="#4F2396"/>
<path fill-rule="evenodd" clip-rule="evenodd" d="M-8.6293 180.604H-165.655L-214.186 330.187L-87.1461 422.632L39.9009 330.187L-8.6293 180.604ZM-223.459 333.202L-171.382 172.701H-2.89828L49.1711 333.202L-87.1477 432.41L-223.459 333.202Z" fill="#4F2396"/>
<path fill-rule="evenodd" clip-rule="evenodd" d="M-1.20952 169.937H-173.081L-226.203 333.556L-87.1527 434.678L51.9052 333.556L-1.20952 169.937ZM-235.09 336.438L-178.575 162.363H4.28342L60.7978 336.438L-87.1497 444.038L-235.09 336.438Z" fill="#4F2396"/>
<path fill-rule="evenodd" clip-rule="evenodd" d="M6.21065 160.567H-180.493L-238.207 338.2L-87.1447 447.992L63.9251 338.2L6.21065 160.567ZM-246.719 340.971L-185.767 153.317H11.4671L72.4264 340.971L-87.1499 456.958L-246.719 340.971Z" fill="#4F2396"/>
<path fill-rule="evenodd" clip-rule="evenodd" d="M13.6318 149.9H-187.913L-250.209 341.579L-87.1445 460.03L75.9275 341.579L13.6318 149.9ZM-258.344 344.219L-192.944 142.982H18.6589L84.059 344.219L-87.1424 468.588L-258.344 344.219Z" fill="#4F2396"/>
<path fill-rule="evenodd" clip-rule="evenodd" d="M21.0481 139.247H-195.337L-262.222 344.941L-87.1443 472.059L87.9339 344.941L21.0481 139.247ZM-269.975 347.457L-200.132 132.646H25.8435L95.6856 347.457L-87.1445 480.217L-269.975 347.457Z" fill="#4F2396"/>
<path fill-rule="evenodd" clip-rule="evenodd" d="M28.4708 128.584H-202.763L-274.234 348.297L-87.1424 484.092L99.9496 348.297L28.4708 128.584ZM-281.602 350.693L-207.314 122.311H33.0217L107.316 350.693L-87.1427 491.847L-281.602 350.693Z" fill="#4F2396"/>
<path fill-rule="evenodd" clip-rule="evenodd" d="M35.9019 117.905H-210.172L-286.234 351.66L-87.1427 496.131L111.964 351.66L35.9019 117.905ZM-293.232 353.938L-214.496 111.975H40.2137L118.943 353.938L-87.1447 503.477L-293.232 353.938Z" fill="#4F2396"/>
<path fill-rule="evenodd" clip-rule="evenodd" d="M43.3105 107.254H-217.6L-298.244 355.023L-87.1487 508.161L123.954 355.023L43.3105 107.254ZM-304.861 357.167L-221.691 101.637H47.4016L130.572 357.167L-87.1486 515.104L-304.861 357.167Z" fill="#4F2396"/>
<path fill-rule="evenodd" clip-rule="evenodd" d="M50.741 96.5877H-225.02L-310.258 358.395L-87.1397 520.198L135.978 358.395L50.741 96.5877ZM-314.931 361.536L-316.488 360.405L-228.873 91.2988H54.6022L142.202 360.405L-87.1393 526.732L-314.931 361.536Z" fill="#4F2396"/>
<path fill-rule="evenodd" clip-rule="evenodd" d="M58.1502 85.9297H-232.445L-322.273 361.743L-87.1476 532.221L147.978 361.743L58.1502 85.9297ZM-328.117 363.649L-236.068 80.9609H61.7664L153.831 363.649L-87.1469 538.359L-328.117 363.649Z" fill="#4F2396"/>
<path fill-rule="evenodd" clip-rule="evenodd" d="M65.5811 76.5508H-239.868L-334.281 366.41L-87.1436 545.544L159.994 366.41L65.5811 76.5508ZM-339.748 368.175L-243.255 71.918H68.9644L165.457 368.175L-87.1453 551.282L-339.748 368.175Z" fill="#4F2396"/>
<path fill-rule="evenodd" clip-rule="evenodd" d="M73.2512 65.8896H-246.253L-345.006 369.774L-86.5046 557.578L172.004 369.774L73.2512 65.8896ZM-350.082 371.417L-249.38 61.5811H76.3871L177.089 371.417L-86.5003 562.91L-350.082 371.417Z" fill="#4F2396"/>
<path fill-rule="evenodd" clip-rule="evenodd" d="M80.6765 55.2402H-253.677L-357.023 373.131L-86.5003 569.609L184.03 373.131L80.6765 55.2402ZM-360.545 375.51L-361.713 374.655L-256.566 51.2451H83.5763L188.716 374.655L-86.5023 574.54L-360.545 375.51Z" fill="#4F2396"/>
<path fill-rule="evenodd" clip-rule="evenodd" d="M88.0931 44.5674H-261.09L-369.018 376.493L-86.4982 581.638L196.029 376.493L88.0931 44.5674ZM-373.342 377.89L-263.754 40.9072H90.7642L200.344 377.89L-86.4987 586.167L-373.342 377.89Z" fill="#4F2396"/>
<path fill-rule="evenodd" clip-rule="evenodd" d="M208.041 379.861L95.519 33.9102H-268.514L-381.043 379.861L-86.5012 593.676L208.041 379.861ZM-383.99 381.855L-384.973 381.141L-271.327 31.7241L-270.948 30.5713H97.9459L211.971 381.141L-85.5183 597.09L-86.5009 597.797L-383.99 381.855Z" fill="#4F2396"/>
<path fill-rule="evenodd" clip-rule="evenodd" d="M102.948 23.2422H-275.939L-393.045 383.211L-86.4918 605.695L220.054 383.211L102.948 23.2422ZM-396.6 384.374L-278.131 20.2334H105.133L223.602 384.374L-86.4953 609.424L-396.6 384.374Z" fill="#4F2396"/>
<path fill-rule="evenodd" clip-rule="evenodd" d="M110.365 12.5838H-283.36L-405.066 386.593L-86.4941 617.739L232.071 386.593L110.365 12.5838ZM-407.437 388.192L-408.227 387.627L-285.627 10.829L-285.322 9.89941H112.327L234.927 386.697L235.232 387.627L-86.4973 621.056L-407.437 388.192Z" fill="#4F2396"/>
<path fill-rule="evenodd" clip-rule="evenodd" d="M117.788 3.20993H-290.791L-417.082 391.237L-86.5053 631.052L244.079 391.237L117.788 3.20993ZM-419.165 392.641L-419.857 392.135L-292.777 1.66959L-292.502 0.851562H119.503L246.598 391.317L246.859 392.135L-86.503 633.974L-419.165 392.641Z" fill="#4F2396"/>
<path fill-rule="evenodd" clip-rule="evenodd" d="M256.069 394.604L125.204 -7.43164H-298.205L-429.078 394.604L-86.5045 643.083L256.069 394.604ZM-430.878 395.817L-431.488 395.379L-299.915 -8.76855L-299.684 -9.48242H126.689L258.255 394.672L258.485 395.379L-85.8981 645.159L-86.5014 645.605L-430.878 395.817Z" fill="#4F2396"/>
<path fill-rule="evenodd" clip-rule="evenodd" d="M132.633 -18.1016H-305.631L-441.096 397.968L-86.5025 655.122L268.091 397.968L132.633 -18.1016ZM-442.616 398.993L-443.115 398.621L-307.069 -19.218L-306.883 -19.8203H133.876L269.93 398.034L270.116 398.621L-86.5033 657.233L-442.616 398.993Z" fill="#4F2396"/>
<path fill-rule="evenodd" clip-rule="evenodd" d="M280.103 401.332L140.053 -28.7656H-313.05L-453.107 401.332L-86.502 667.137L280.103 401.332ZM-454.325 402.157L-454.742 401.852L-314.215 -29.6804L-314.059 -30.1562H141.071L281.59 401.377L281.747 401.852L-86.0806 668.557L-86.4978 668.862L-454.325 402.157Z" fill="#4F2396"/>
<path fill-rule="evenodd" clip-rule="evenodd" d="M292.113 405.484L147.479 -39.4365H-320.466L-465.107 405.484L-86.5009 680.456L292.113 405.484ZM-466.049 406.117L-466.369 405.894L-321.244 -40.4941H148.252L293.377 405.894L-86.1904 681.551L-86.5034 681.782L-466.049 406.117Z" fill="#4F2396"/>
<path fill-rule="evenodd" clip-rule="evenodd" d="M-328.437 -50.8301L-328.519 -50.5694L-478 409.127L-477.776 409.291L-86.498 693.411L-86.2819 693.247L305.004 409.127L304.929 408.874L155.448 -50.8301H-328.437ZM-477.129 408.843L-327.886 -50.0938H154.896L304.131 408.843L-86.4988 692.479L-477.129 408.843Z" fill="#4F2396"/>
</g>
<g opacity="0.05">
<path fill-rule="evenodd" clip-rule="evenodd" d="M1487.63 130.9H1286.09L1223.79 322.579L1386.86 441.03L1549.93 322.579L1487.63 130.9ZM1215.66 325.219L1281.06 123.982H1492.66L1558.06 325.219L1386.86 449.588L1215.66 325.219Z" fill="#4F2396"/>
<path fill-rule="evenodd" clip-rule="evenodd" d="M1495.05 120.247H1278.66L1211.78 325.941L1386.86 453.059L1561.93 325.941L1495.05 120.247ZM1204.03 328.457L1273.87 113.646H1499.84L1569.69 328.457L1386.86 461.217L1204.03 328.457Z" fill="#4F2396"/>
<path fill-rule="evenodd" clip-rule="evenodd" d="M1502.47 109.584H1271.24L1199.77 329.297L1386.86 465.092L1573.95 329.297L1502.47 109.584ZM1192.4 331.693L1266.69 103.311H1507.02L1581.32 331.693L1386.86 472.847L1192.4 331.693Z" fill="#4F2396"/>
<path fill-rule="evenodd" clip-rule="evenodd" d="M1509.9 98.9053H1263.83L1187.77 332.66L1386.86 477.131L1585.96 332.66L1509.9 98.9053ZM1180.77 334.938L1259.5 92.9746H1514.21L1592.94 334.938L1386.86 484.477L1180.77 334.938Z" fill="#4F2396"/>
<path fill-rule="evenodd" clip-rule="evenodd" d="M1517.31 88.2539H1256.4L1175.76 336.023L1386.85 489.161L1597.95 336.023L1517.31 88.2539ZM1169.14 338.167L1252.31 82.6367H1521.4L1604.57 338.167L1386.85 496.104L1169.14 338.167Z" fill="#4F2396"/>
<path fill-rule="evenodd" clip-rule="evenodd" d="M1524.74 77.5877H1248.98L1163.74 339.395L1386.86 501.198L1609.98 339.395L1524.74 77.5877ZM1159.07 342.536L1157.51 341.405L1245.13 72.2988H1528.6L1616.2 341.405L1386.86 507.732L1159.07 342.536Z" fill="#4F2396"/>
<path fill-rule="evenodd" clip-rule="evenodd" d="M1532.15 66.9297H1241.55L1151.73 342.743L1386.85 513.221L1621.98 342.743L1532.15 66.9297ZM1145.88 344.649L1237.93 61.9609H1535.77L1627.83 344.649L1386.85 519.359L1145.88 344.649Z" fill="#4F2396"/>
<path fill-rule="evenodd" clip-rule="evenodd" d="M1539.58 57.5508H1234.13L1139.72 347.41L1386.86 526.544L1633.99 347.41L1539.58 57.5508ZM1134.25 349.175L1230.75 52.918H1542.96L1639.46 349.175L1386.85 532.282L1134.25 349.175Z" fill="#4F2396"/>
<path fill-rule="evenodd" clip-rule="evenodd" d="M1547.25 46.8896H1227.75L1128.99 350.774L1387.5 538.578L1646 350.774L1547.25 46.8896ZM1123.92 352.417L1224.62 42.5811H1550.39L1651.09 352.417L1387.5 543.91L1123.92 352.417Z" fill="#4F2396"/>
<path fill-rule="evenodd" clip-rule="evenodd" d="M1554.68 36.2402H1220.32L1116.98 354.131L1387.5 550.609L1658.03 354.131L1554.68 36.2402ZM1113.46 356.51L1112.29 355.655L1217.43 32.2451H1557.58L1662.72 355.655L1387.5 555.54L1113.46 356.51Z" fill="#4F2396"/>
<path fill-rule="evenodd" clip-rule="evenodd" d="M1562.09 25.5674H1212.91L1104.98 357.493L1387.5 562.638L1670.03 357.493L1562.09 25.5674ZM1100.66 358.89L1210.25 21.9072H1564.76L1674.34 358.89L1387.5 567.167L1100.66 358.89Z" fill="#4F2396"/>
<path fill-rule="evenodd" clip-rule="evenodd" d="M1682.04 360.861L1569.52 14.9102H1205.49L1092.96 360.861L1387.5 574.676L1682.04 360.861ZM1090.01 362.855L1089.03 362.141L1202.67 12.7241L1203.05 11.5713H1571.95L1685.97 362.141L1388.48 578.09L1387.5 578.797L1090.01 362.855Z" fill="#4F2396"/>
<path fill-rule="evenodd" clip-rule="evenodd" d="M1576.95 4.24219H1198.06L1080.96 364.211L1387.51 586.695L1694.05 364.211L1576.95 4.24219ZM1077.4 365.374L1195.87 1.2334H1579.13L1697.6 365.374L1387.5 590.424L1077.4 365.374Z" fill="#4F2396"/>
<path fill-rule="evenodd" clip-rule="evenodd" d="M1584.36 -6.41618H1190.64L1068.93 367.593L1387.51 598.739L1706.07 367.593L1584.36 -6.41618ZM1066.56 369.192L1065.77 368.627L1188.37 -8.17097L1188.68 -9.10059H1586.33L1708.93 367.697L1709.23 368.627L1387.5 602.056L1066.56 369.192Z" fill="#4F2396"/>
<path fill-rule="evenodd" clip-rule="evenodd" d="M1591.79 -15.7901H1183.21L1056.92 372.237L1387.49 612.052L1718.08 372.237L1591.79 -15.7901ZM1054.84 373.641L1054.14 373.135L1181.22 -17.3304L1181.5 -18.1484H1593.5L1720.6 372.317L1720.86 373.135L1387.5 614.974L1054.84 373.641Z" fill="#4F2396"/>
<path fill-rule="evenodd" clip-rule="evenodd" d="M1730.07 375.604L1599.2 -26.4316H1175.79L1044.92 375.604L1387.5 624.083L1730.07 375.604ZM1043.12 376.817L1042.51 376.379L1174.08 -27.7686L1174.32 -28.4824H1600.69L1732.25 375.672L1732.49 376.379L1388.1 626.159L1387.5 626.605L1043.12 376.817Z" fill="#4F2396"/>
<path fill-rule="evenodd" clip-rule="evenodd" d="M1606.63 -37.1016H1168.37L1032.9 378.968L1387.5 636.122L1742.09 378.968L1606.63 -37.1016ZM1031.38 379.993L1030.88 379.621L1166.93 -38.218L1167.12 -38.8203H1607.88L1743.93 379.034L1744.12 379.621L1387.5 638.233L1031.38 379.993Z" fill="#4F2396"/>
<path fill-rule="evenodd" clip-rule="evenodd" d="M1754.1 382.332L1614.05 -47.7656H1160.95L1020.89 382.332L1387.5 648.137L1754.1 382.332ZM1019.68 383.157L1019.26 382.852L1159.78 -48.6804L1159.94 -49.1562H1615.07L1755.59 382.377L1755.75 382.852L1387.92 649.557L1387.5 649.862L1019.68 383.157Z" fill="#4F2396"/>
<path fill-rule="evenodd" clip-rule="evenodd" d="M1766.11 386.484L1621.48 -58.4365H1153.53L1008.89 386.484L1387.5 661.456L1766.11 386.484ZM1007.95 387.117L1007.63 386.894L1152.76 -59.4941H1622.25L1767.38 386.894L1387.81 662.551L1387.5 662.782L1007.95 387.117Z" fill="#4F2396"/>
<path fill-rule="evenodd" clip-rule="evenodd" d="M1145.56 -69.8301L1145.48 -69.5694L996 390.127L996.224 390.291L1387.5 674.411L1387.72 674.247L1779 390.127L1778.93 389.874L1629.45 -69.8301H1145.56ZM996.871 389.843L1146.11 -69.0938H1628.9L1778.13 389.843L1387.5 673.479L996.871 389.843Z" fill="#4F2396"/>
</g>
</g>
<defs>
<clipPath id="clip0_40004775_6303">
<rect y="0.169922" width="1224" height="398" rx="28" fill="white"/>
</clipPath>
</defs>
</svg>
