<svg width="1224" height="398" viewBox="0 0 1224 398" fill="none" xmlns="http://www.w3.org/2000/svg">
<g clip-path="url(#clip0_40004653_98715)">
<rect y="0.523438" width="1224" height="397" rx="24" fill="#F5F0FF" fill-opacity="0.7"/>
<g opacity="0.1">
<path fill-rule="evenodd" clip-rule="evenodd" d="M-85.259 96.9412H-361.02L-446.258 358.749L-223.14 520.552L-0.0218201 358.749L-85.259 96.9412ZM-450.931 361.889L-452.488 360.759L-364.873 91.6523H-81.3978L6.20218 360.759L-223.139 527.085L-450.931 361.889Z" fill="#4F2396"/>
<path fill-rule="evenodd" clip-rule="evenodd" d="M-77.8498 86.2832H-368.445L-458.273 362.097L-223.148 532.574L11.9782 362.097L-77.8498 86.2832ZM-464.117 364.002L-372.068 81.3145H-74.2336L17.8307 364.002L-223.147 538.713L-464.117 364.002Z" fill="#4F2396"/>
<path fill-rule="evenodd" clip-rule="evenodd" d="M-70.4189 76.9043H-375.868L-470.281 366.763L-223.144 545.898L23.994 366.763L-70.4189 76.9043ZM-475.748 368.528L-379.255 72.2715H-67.0356L29.4575 368.528L-223.145 551.635L-475.748 368.528Z" fill="#4F2396"/>
<path fill-rule="evenodd" clip-rule="evenodd" d="M-62.7488 66.2432H-382.253L-481.006 370.128L-222.505 557.932L36.0042 370.128L-62.7488 66.2432ZM-486.082 371.77L-385.38 61.9346H-59.6129L41.0889 371.77L-222.5 563.264L-486.082 371.77Z" fill="#4F2396"/>
<path fill-rule="evenodd" clip-rule="evenodd" d="M-55.3235 55.5938H-389.677L-493.023 373.485L-222.5 569.963L48.0302 373.485L-55.3235 55.5938ZM-496.545 375.864L-497.713 375.009L-392.566 51.5986H-52.4237L52.7156 375.009L-222.502 574.893L-496.545 375.864Z" fill="#4F2396"/>
<path fill-rule="evenodd" clip-rule="evenodd" d="M-47.9069 44.9209H-397.09L-505.018 376.846L-222.498 581.992L60.0286 376.846L-47.9069 44.9209ZM-509.342 378.244L-399.754 41.2607H-45.2358L64.3443 378.244L-222.499 586.521L-509.342 378.244Z" fill="#4F2396"/>
<path fill-rule="evenodd" clip-rule="evenodd" d="M72.0405 380.214L-40.481 34.2638H-404.514L-517.043 380.214L-222.501 594.029L72.0405 380.214ZM-519.99 382.208L-520.973 381.494L-407.327 32.0776L-406.948 30.9248H-38.0541L75.9709 381.494L-221.518 597.444L-222.501 598.15L-519.99 382.208Z" fill="#4F2396"/>
<path fill-rule="evenodd" clip-rule="evenodd" d="M-33.0523 23.5957H-411.939L-529.045 383.564L-222.492 606.049L84.0539 383.564L-33.0523 23.5957ZM-532.6 384.728L-414.131 20.5869H-30.867L87.6016 384.728L-222.495 609.778L-532.6 384.728Z" fill="#4F2396"/>
<path fill-rule="evenodd" clip-rule="evenodd" d="M-25.6352 12.9373H-419.36L-541.066 386.946L-222.494 618.092L96.0706 386.946L-25.6352 12.9373ZM-543.437 388.545L-544.227 387.98L-421.627 11.1825L-421.322 10.2529H-23.6726L98.9268 387.051L99.2321 387.98L-222.497 621.409L-543.437 388.545Z" fill="#4F2396"/>
<path fill-rule="evenodd" clip-rule="evenodd" d="M-18.212 3.56344H-426.791L-553.082 391.59L-222.505 631.406L108.079 391.59L-18.212 3.56344ZM-555.165 392.995L-555.857 392.489L-428.777 2.0231L-428.502 1.20508H-16.4968L110.598 391.671L110.859 392.489L-222.503 634.327L-555.165 392.995Z" fill="#4F2396"/>
<path fill-rule="evenodd" clip-rule="evenodd" d="M120.069 394.957L-10.7961 -7.07812H-434.205L-565.078 394.957L-222.504 643.436L120.069 394.957ZM-566.878 396.171L-567.488 395.732L-435.915 -8.41504L-435.684 -9.12891H-9.31085L122.255 395.026L122.485 395.732L-221.898 645.512L-222.501 645.958L-566.878 396.171Z" fill="#4F2396"/>
<path fill-rule="evenodd" clip-rule="evenodd" d="M-3.36707 -17.748H-441.631L-577.096 398.322L-222.503 655.475L132.091 398.322L-3.36707 -17.748ZM-578.616 399.347L-579.115 398.975L-443.069 -18.8645L-442.883 -19.4668H-2.12378L133.93 398.388L134.116 398.975L-222.503 657.586L-578.616 399.347Z" fill="#4F2396"/>
<path fill-rule="evenodd" clip-rule="evenodd" d="M144.103 401.686L4.05316 -28.4121H-449.05L-589.107 401.686L-222.502 667.491L144.103 401.686ZM-590.325 402.511L-590.742 402.206L-450.215 -29.3268L-450.059 -29.8027H5.07068L145.59 401.73L145.747 402.206L-222.081 668.911L-222.498 669.216L-590.325 402.511Z" fill="#4F2396"/>
<path fill-rule="evenodd" clip-rule="evenodd" d="M156.113 405.837L11.4792 -39.083H-456.466L-601.107 405.837L-222.501 680.809L156.113 405.837ZM-602.049 406.471L-602.369 406.247L-457.244 -40.1406H12.2518L157.377 406.247L-222.19 681.904L-222.503 682.135L-602.049 406.471Z" fill="#4F2396"/>
<path fill-rule="evenodd" clip-rule="evenodd" d="M-464.437 -50.4766L-464.519 -50.2159L-614 409.481L-613.776 409.645L-222.498 693.765L-222.282 693.601L169.004 409.481L168.929 409.228L19.4483 -50.4766H-464.437ZM-613.129 409.197L-463.886 -49.7402H18.8961L168.131 409.197L-222.499 692.833L-613.129 409.197Z" fill="#4F2396"/>
</g>
<g opacity="0.1">
<path fill-rule="evenodd" clip-rule="evenodd" d="M975.774 169.661H913.373L894.072 229.069L894.16 229.13L913.373 169.966H975.767L994.986 229.13L995.068 229.069L975.774 169.661ZM969.06 179.244L969.054 179.231H920.091L920.084 179.244H969.06ZM944.574 221.2L951.534 216.146L948.871 207.959H940.278L937.607 216.146L944.574 221.2ZM883.549 232.501L906.854 160.693H982.288L1005.59 232.501L944.574 276.87L883.549 232.501Z" fill="#4F2396"/>
<path fill-rule="evenodd" clip-rule="evenodd" d="M982.512 161.142H906.624L883.176 233.299L944.564 277.89L1005.97 233.299L982.512 161.142ZM872.988 236.607L900.334 152.48H988.803L1016.16 236.607L944.565 288.607L872.988 236.607Z" fill="#4F2396"/>
<path fill-rule="evenodd" clip-rule="evenodd" d="M989.254 151.451H899.894L872.278 236.351L944.571 288.83L1016.86 236.351L989.254 151.451ZM862.426 239.549L893.819 143.092H995.329L1026.72 239.549L944.571 299.168L862.426 239.549Z" fill="#4F2396"/>
<path fill-rule="evenodd" clip-rule="evenodd" d="M995.987 141.766H893.152L861.357 239.409L944.566 299.748L1027.77 239.409L995.987 141.766ZM851.863 242.491L887.279 133.703H1001.85L1037.28 242.491L944.567 309.729L851.863 242.491Z" fill="#4F2396"/>
<path fill-rule="evenodd" clip-rule="evenodd" d="M1001.83 132.078H886.159L850.404 242.468L943.99 310.686L1037.58 242.468L1001.83 132.078ZM841.305 245.433L880.533 124.314H1007.45L1046.67 245.433L943.99 320.289L841.305 245.433Z" fill="#4F2396"/>
<path fill-rule="evenodd" clip-rule="evenodd" d="M1008.55 122.398H879.405L839.504 245.524L943.98 321.61L1048.46 245.524L1008.55 122.398ZM830.74 248.372L874.002 114.928H1013.96L1057.23 248.372L943.983 330.852L830.74 248.372Z" fill="#4F2396"/>
<path fill-rule="evenodd" clip-rule="evenodd" d="M1015.29 112.716H872.676L828.6 248.571L943.98 332.532L1059.37 248.571L1015.29 112.716ZM820.178 251.31L867.475 105.539H1020.5L1067.79 251.31L943.979 341.413L820.178 251.31Z" fill="#4F2396"/>
<path fill-rule="evenodd" clip-rule="evenodd" d="M1022.03 103.029H865.934L817.688 251.633L943.976 343.474L1070.27 251.633L1022.03 103.029ZM809.617 254.249L860.945 96.1504H1027.02L1078.35 254.249L943.98 351.974L809.617 254.249Z" fill="#4F2396"/>
<path fill-rule="evenodd" clip-rule="evenodd" d="M1028.77 94.5195H859.203L806.785 255.849L943.984 355.566L1081.19 255.849L1028.77 94.5195ZM799.055 258.366L854.413 87.9346H1033.55L1088.91 258.366L943.979 363.708L799.055 258.366Z" fill="#4F2396"/>
<path fill-rule="evenodd" clip-rule="evenodd" d="M1035.51 84.832H852.463L795.885 258.919L943.984 366.499L1092.09 258.919L1035.51 84.832ZM788.496 261.317L847.894 78.5488H1040.08L1099.47 261.317L943.985 374.272L788.496 261.317Z" fill="#4F2396"/>
<path fill-rule="evenodd" clip-rule="evenodd" d="M1042.25 75.1572H845.722L784.975 261.973L943.985 377.425L1102.99 261.973L1042.25 75.1572ZM777.934 264.258L841.366 69.1611H1046.6L1110.03 264.258L943.984 384.833L777.934 264.258Z" fill="#4F2396"/>
<path fill-rule="evenodd" clip-rule="evenodd" d="M1048.99 65.4709H838.976L774.064 265.019L943.986 388.352L1113.91 265.019L1048.99 65.4709ZM767.373 267.196L834.842 59.7734H1053.12L1120.6 267.196L943.985 395.395L767.373 267.196Z" fill="#4F2396"/>
<path fill-rule="evenodd" clip-rule="evenodd" d="M1055.74 55.7723H832.247L763.166 268.074L943.986 399.286L1124.82 268.074L1055.74 55.7723ZM756.811 270.143L828.321 50.3857H1059.65L1131.16 270.143L943.984 405.957L756.811 270.143Z" fill="#4F2396"/>
<path fill-rule="evenodd" clip-rule="evenodd" d="M1062.47 46.0986H825.5L752.258 271.129L943.98 410.212L1135.71 271.129L1062.47 46.0986ZM746.248 273.076L821.785 40.9971H1066.18L1141.72 273.076L943.98 416.518L746.248 273.076Z" fill="#4F2396"/>
<path fill-rule="evenodd" clip-rule="evenodd" d="M1069.22 36.4121H818.762L741.348 274.192L943.989 421.145L1146.63 274.192L1069.22 36.4121ZM737.104 277.044L735.689 276.017L815.263 31.6084H1072.72L1152.28 276.017L943.99 427.079L737.104 277.044Z" fill="#4F2396"/>
<path fill-rule="evenodd" clip-rule="evenodd" d="M1075.94 26.7324H812.016L730.432 277.233L943.979 432.065L1157.53 277.233L1075.94 26.7324ZM725.125 278.964L808.727 22.2197H1079.23L1162.84 278.964L943.98 437.64L725.125 278.964Z" fill="#4F2396"/>
<path fill-rule="evenodd" clip-rule="evenodd" d="M1082.69 18.2139H805.277L719.529 281.471L943.986 444.165L1168.44 281.471L1082.69 18.2139ZM714.564 283.073L802.202 14.0059H1085.77L1173.4 283.073L943.984 449.376L714.564 283.073Z" fill="#4F2396"/>
<path fill-rule="evenodd" clip-rule="evenodd" d="M1089.66 8.53125H799.477L709.787 284.527L944.564 455.095L1179.35 284.527L1089.66 8.53125ZM705.176 286.018L796.636 4.61816H1092.51L1183.97 286.018L944.567 459.937L705.176 286.018Z" fill="#4F2396"/>
<path fill-rule="evenodd" clip-rule="evenodd" d="M1096.4 -1.14258H792.735L698.873 287.573L944.569 466.02L1190.27 287.573L1096.4 -1.14258ZM695.676 289.735L694.615 288.958L790.112 -4.77051H1099.04L1194.53 288.958L944.568 470.498L695.676 289.735Z" fill="#4F2396"/>
<path fill-rule="evenodd" clip-rule="evenodd" d="M1103.14 -10.8361H786.003L687.98 290.626L944.571 476.945L1201.17 290.626L1103.14 -10.8361ZM684.053 291.896L783.583 -14.1602H1105.56L1205.09 291.896L944.57 481.058L684.053 291.896Z" fill="#4F2396"/>
<path fill-rule="evenodd" clip-rule="evenodd" d="M1212.08 293.687L1109.88 -20.5137H779.26L677.059 293.687L944.568 487.879L1212.08 293.687ZM674.383 295.498L673.49 294.85L776.706 -22.4989L777.05 -23.5459H1112.09L1215.65 294.85L945.462 490.98L944.569 491.622L674.383 295.498Z" fill="#4F2396"/>
<path fill-rule="evenodd" clip-rule="evenodd" d="M1116.63 -30.2021H772.517L666.158 296.73L944.577 498.796L1222.99 296.73L1116.63 -30.2021ZM662.93 297.786L770.526 -32.9355H1118.62L1226.21 297.786L944.574 502.182L662.93 297.786Z" fill="#4F2396"/>
<path fill-rule="evenodd" clip-rule="evenodd" d="M1123.37 -39.8828H765.774L655.238 299.801L944.573 509.733L1233.9 299.801L1123.37 -39.8828ZM653.084 301.253L652.367 300.74L763.715 -41.477L763.992 -42.3213H1125.15L1236.49 299.895L1236.77 300.74L944.569 512.746L653.084 301.253Z" fill="#4F2396"/>
<path fill-rule="evenodd" clip-rule="evenodd" d="M1130.11 -48.3965H759.028L644.328 304.019L944.566 521.825L1244.81 304.019L1130.11 -48.3965ZM642.436 305.295L641.807 304.835L757.224 -49.7951L757.474 -50.5381H1131.67L1247.1 304.092L1247.33 304.835L944.567 524.478L642.436 305.295Z" fill="#4F2396"/>
<path fill-rule="evenodd" clip-rule="evenodd" d="M1255.7 307.078L1136.85 -58.0605H752.295L633.434 307.078L944.567 532.752L1255.7 307.078ZM631.799 308.179L631.244 307.781L750.742 -59.2755L750.951 -59.9238H1138.19L1257.69 307.139L1257.89 307.781L945.117 534.637L944.569 535.042L631.799 308.179Z" fill="#4F2396"/>
<path fill-rule="evenodd" clip-rule="evenodd" d="M1143.59 -67.751H745.548L622.516 310.133L944.566 543.687L1266.62 310.133L1143.59 -67.751ZM621.135 311.064L620.682 310.726L744.242 -68.7655L744.411 -69.3125H1144.72L1268.29 310.193L1268.46 310.726L944.565 545.603L621.135 311.064Z" fill="#4F2396"/>
<path fill-rule="evenodd" clip-rule="evenodd" d="M1277.53 313.187L1150.33 -77.4375H738.811L611.607 313.187L944.567 554.598L1277.53 313.187ZM610.502 313.937L610.123 313.66L737.753 -78.268L737.895 -78.7002H1151.25L1278.88 313.228L1279.02 313.66L944.95 555.888L944.571 556.165L610.502 313.937Z" fill="#4F2396"/>
<path fill-rule="evenodd" clip-rule="evenodd" d="M1288.43 316.959L1157.07 -87.1279H732.076L600.709 316.959L944.568 566.695L1288.43 316.959ZM599.853 317.534L599.562 317.331L731.369 -88.0889H1157.78L1289.58 317.331L944.85 567.69L944.566 567.899L599.853 317.534Z" fill="#4F2396"/>
<path fill-rule="evenodd" clip-rule="evenodd" d="M724.837 -97.4766L724.762 -97.2398L589 320.268L589.203 320.417L944.571 578.461L944.768 578.312L1300.14 320.268L1300.08 320.038L1164.31 -97.4766H724.837ZM589.791 320.01L725.337 -96.8076H1163.81L1299.35 320.01L944.571 577.615L589.791 320.01Z" fill="#4F2396"/>
</g>
</g>
<defs>
<clipPath id="clip0_40004653_98715">
<rect y="0.523438" width="1224" height="397" rx="24" fill="white"/>
</clipPath>
</defs>
</svg>
